G75*
%MOIN*%
%OFA0B0*%
%FSLAX25Y25*%
%IPPOS*%
%LPD*%
%AMOC8*
5,1,8,0,0,1.08239X$1,22.5*
%
%ADD10C,0.00000*%
D10*
X0001500Y0001500D02*
X0001500Y0269217D01*
X0235752Y0269217D01*
X0235752Y0001500D01*
X0001500Y0001500D01*
X0011146Y0017248D02*
X0011148Y0017404D01*
X0011154Y0017560D01*
X0011164Y0017715D01*
X0011178Y0017870D01*
X0011196Y0018025D01*
X0011218Y0018179D01*
X0011243Y0018333D01*
X0011273Y0018486D01*
X0011307Y0018638D01*
X0011344Y0018790D01*
X0011385Y0018940D01*
X0011430Y0019089D01*
X0011479Y0019237D01*
X0011532Y0019384D01*
X0011588Y0019529D01*
X0011648Y0019673D01*
X0011712Y0019815D01*
X0011780Y0019956D01*
X0011851Y0020094D01*
X0011925Y0020231D01*
X0012003Y0020366D01*
X0012084Y0020499D01*
X0012169Y0020630D01*
X0012257Y0020759D01*
X0012348Y0020885D01*
X0012443Y0021009D01*
X0012540Y0021130D01*
X0012641Y0021249D01*
X0012745Y0021366D01*
X0012851Y0021479D01*
X0012961Y0021590D01*
X0013073Y0021698D01*
X0013188Y0021803D01*
X0013306Y0021906D01*
X0013426Y0022005D01*
X0013549Y0022101D01*
X0013674Y0022194D01*
X0013801Y0022283D01*
X0013931Y0022370D01*
X0014063Y0022453D01*
X0014197Y0022532D01*
X0014333Y0022609D01*
X0014471Y0022681D01*
X0014610Y0022751D01*
X0014752Y0022816D01*
X0014895Y0022878D01*
X0015039Y0022936D01*
X0015185Y0022991D01*
X0015333Y0023042D01*
X0015481Y0023089D01*
X0015631Y0023132D01*
X0015782Y0023171D01*
X0015934Y0023207D01*
X0016086Y0023238D01*
X0016240Y0023266D01*
X0016394Y0023290D01*
X0016548Y0023310D01*
X0016703Y0023326D01*
X0016859Y0023338D01*
X0017014Y0023346D01*
X0017170Y0023350D01*
X0017326Y0023350D01*
X0017482Y0023346D01*
X0017637Y0023338D01*
X0017793Y0023326D01*
X0017948Y0023310D01*
X0018102Y0023290D01*
X0018256Y0023266D01*
X0018410Y0023238D01*
X0018562Y0023207D01*
X0018714Y0023171D01*
X0018865Y0023132D01*
X0019015Y0023089D01*
X0019163Y0023042D01*
X0019311Y0022991D01*
X0019457Y0022936D01*
X0019601Y0022878D01*
X0019744Y0022816D01*
X0019886Y0022751D01*
X0020025Y0022681D01*
X0020163Y0022609D01*
X0020299Y0022532D01*
X0020433Y0022453D01*
X0020565Y0022370D01*
X0020695Y0022283D01*
X0020822Y0022194D01*
X0020947Y0022101D01*
X0021070Y0022005D01*
X0021190Y0021906D01*
X0021308Y0021803D01*
X0021423Y0021698D01*
X0021535Y0021590D01*
X0021645Y0021479D01*
X0021751Y0021366D01*
X0021855Y0021249D01*
X0021956Y0021130D01*
X0022053Y0021009D01*
X0022148Y0020885D01*
X0022239Y0020759D01*
X0022327Y0020630D01*
X0022412Y0020499D01*
X0022493Y0020366D01*
X0022571Y0020231D01*
X0022645Y0020094D01*
X0022716Y0019956D01*
X0022784Y0019815D01*
X0022848Y0019673D01*
X0022908Y0019529D01*
X0022964Y0019384D01*
X0023017Y0019237D01*
X0023066Y0019089D01*
X0023111Y0018940D01*
X0023152Y0018790D01*
X0023189Y0018638D01*
X0023223Y0018486D01*
X0023253Y0018333D01*
X0023278Y0018179D01*
X0023300Y0018025D01*
X0023318Y0017870D01*
X0023332Y0017715D01*
X0023342Y0017560D01*
X0023348Y0017404D01*
X0023350Y0017248D01*
X0023348Y0017092D01*
X0023342Y0016936D01*
X0023332Y0016781D01*
X0023318Y0016626D01*
X0023300Y0016471D01*
X0023278Y0016317D01*
X0023253Y0016163D01*
X0023223Y0016010D01*
X0023189Y0015858D01*
X0023152Y0015706D01*
X0023111Y0015556D01*
X0023066Y0015407D01*
X0023017Y0015259D01*
X0022964Y0015112D01*
X0022908Y0014967D01*
X0022848Y0014823D01*
X0022784Y0014681D01*
X0022716Y0014540D01*
X0022645Y0014402D01*
X0022571Y0014265D01*
X0022493Y0014130D01*
X0022412Y0013997D01*
X0022327Y0013866D01*
X0022239Y0013737D01*
X0022148Y0013611D01*
X0022053Y0013487D01*
X0021956Y0013366D01*
X0021855Y0013247D01*
X0021751Y0013130D01*
X0021645Y0013017D01*
X0021535Y0012906D01*
X0021423Y0012798D01*
X0021308Y0012693D01*
X0021190Y0012590D01*
X0021070Y0012491D01*
X0020947Y0012395D01*
X0020822Y0012302D01*
X0020695Y0012213D01*
X0020565Y0012126D01*
X0020433Y0012043D01*
X0020299Y0011964D01*
X0020163Y0011887D01*
X0020025Y0011815D01*
X0019886Y0011745D01*
X0019744Y0011680D01*
X0019601Y0011618D01*
X0019457Y0011560D01*
X0019311Y0011505D01*
X0019163Y0011454D01*
X0019015Y0011407D01*
X0018865Y0011364D01*
X0018714Y0011325D01*
X0018562Y0011289D01*
X0018410Y0011258D01*
X0018256Y0011230D01*
X0018102Y0011206D01*
X0017948Y0011186D01*
X0017793Y0011170D01*
X0017637Y0011158D01*
X0017482Y0011150D01*
X0017326Y0011146D01*
X0017170Y0011146D01*
X0017014Y0011150D01*
X0016859Y0011158D01*
X0016703Y0011170D01*
X0016548Y0011186D01*
X0016394Y0011206D01*
X0016240Y0011230D01*
X0016086Y0011258D01*
X0015934Y0011289D01*
X0015782Y0011325D01*
X0015631Y0011364D01*
X0015481Y0011407D01*
X0015333Y0011454D01*
X0015185Y0011505D01*
X0015039Y0011560D01*
X0014895Y0011618D01*
X0014752Y0011680D01*
X0014610Y0011745D01*
X0014471Y0011815D01*
X0014333Y0011887D01*
X0014197Y0011964D01*
X0014063Y0012043D01*
X0013931Y0012126D01*
X0013801Y0012213D01*
X0013674Y0012302D01*
X0013549Y0012395D01*
X0013426Y0012491D01*
X0013306Y0012590D01*
X0013188Y0012693D01*
X0013073Y0012798D01*
X0012961Y0012906D01*
X0012851Y0013017D01*
X0012745Y0013130D01*
X0012641Y0013247D01*
X0012540Y0013366D01*
X0012443Y0013487D01*
X0012348Y0013611D01*
X0012257Y0013737D01*
X0012169Y0013866D01*
X0012084Y0013997D01*
X0012003Y0014130D01*
X0011925Y0014265D01*
X0011851Y0014402D01*
X0011780Y0014540D01*
X0011712Y0014681D01*
X0011648Y0014823D01*
X0011588Y0014967D01*
X0011532Y0015112D01*
X0011479Y0015259D01*
X0011430Y0015407D01*
X0011385Y0015556D01*
X0011344Y0015706D01*
X0011307Y0015858D01*
X0011273Y0016010D01*
X0011243Y0016163D01*
X0011218Y0016317D01*
X0011196Y0016471D01*
X0011178Y0016626D01*
X0011164Y0016781D01*
X0011154Y0016936D01*
X0011148Y0017092D01*
X0011146Y0017248D01*
X0063153Y0024256D02*
X0063155Y0024409D01*
X0063161Y0024563D01*
X0063171Y0024716D01*
X0063185Y0024868D01*
X0063203Y0025021D01*
X0063225Y0025172D01*
X0063250Y0025323D01*
X0063280Y0025474D01*
X0063314Y0025624D01*
X0063351Y0025772D01*
X0063392Y0025920D01*
X0063437Y0026066D01*
X0063486Y0026212D01*
X0063539Y0026356D01*
X0063595Y0026498D01*
X0063655Y0026639D01*
X0063719Y0026779D01*
X0063786Y0026917D01*
X0063857Y0027053D01*
X0063932Y0027187D01*
X0064009Y0027319D01*
X0064091Y0027449D01*
X0064175Y0027577D01*
X0064263Y0027703D01*
X0064354Y0027826D01*
X0064448Y0027947D01*
X0064546Y0028065D01*
X0064646Y0028181D01*
X0064750Y0028294D01*
X0064856Y0028405D01*
X0064965Y0028513D01*
X0065077Y0028618D01*
X0065191Y0028719D01*
X0065309Y0028818D01*
X0065428Y0028914D01*
X0065550Y0029007D01*
X0065675Y0029096D01*
X0065802Y0029183D01*
X0065931Y0029265D01*
X0066062Y0029345D01*
X0066195Y0029421D01*
X0066330Y0029494D01*
X0066467Y0029563D01*
X0066606Y0029628D01*
X0066746Y0029690D01*
X0066888Y0029748D01*
X0067031Y0029803D01*
X0067176Y0029854D01*
X0067322Y0029901D01*
X0067469Y0029944D01*
X0067617Y0029983D01*
X0067766Y0030019D01*
X0067916Y0030050D01*
X0068067Y0030078D01*
X0068218Y0030102D01*
X0068371Y0030122D01*
X0068523Y0030138D01*
X0068676Y0030150D01*
X0068829Y0030158D01*
X0068982Y0030162D01*
X0069136Y0030162D01*
X0069289Y0030158D01*
X0069442Y0030150D01*
X0069595Y0030138D01*
X0069747Y0030122D01*
X0069900Y0030102D01*
X0070051Y0030078D01*
X0070202Y0030050D01*
X0070352Y0030019D01*
X0070501Y0029983D01*
X0070649Y0029944D01*
X0070796Y0029901D01*
X0070942Y0029854D01*
X0071087Y0029803D01*
X0071230Y0029748D01*
X0071372Y0029690D01*
X0071512Y0029628D01*
X0071651Y0029563D01*
X0071788Y0029494D01*
X0071923Y0029421D01*
X0072056Y0029345D01*
X0072187Y0029265D01*
X0072316Y0029183D01*
X0072443Y0029096D01*
X0072568Y0029007D01*
X0072690Y0028914D01*
X0072809Y0028818D01*
X0072927Y0028719D01*
X0073041Y0028618D01*
X0073153Y0028513D01*
X0073262Y0028405D01*
X0073368Y0028294D01*
X0073472Y0028181D01*
X0073572Y0028065D01*
X0073670Y0027947D01*
X0073764Y0027826D01*
X0073855Y0027703D01*
X0073943Y0027577D01*
X0074027Y0027449D01*
X0074109Y0027319D01*
X0074186Y0027187D01*
X0074261Y0027053D01*
X0074332Y0026917D01*
X0074399Y0026779D01*
X0074463Y0026639D01*
X0074523Y0026498D01*
X0074579Y0026356D01*
X0074632Y0026212D01*
X0074681Y0026066D01*
X0074726Y0025920D01*
X0074767Y0025772D01*
X0074804Y0025624D01*
X0074838Y0025474D01*
X0074868Y0025323D01*
X0074893Y0025172D01*
X0074915Y0025021D01*
X0074933Y0024868D01*
X0074947Y0024716D01*
X0074957Y0024563D01*
X0074963Y0024409D01*
X0074965Y0024256D01*
X0074963Y0024103D01*
X0074957Y0023949D01*
X0074947Y0023796D01*
X0074933Y0023644D01*
X0074915Y0023491D01*
X0074893Y0023340D01*
X0074868Y0023189D01*
X0074838Y0023038D01*
X0074804Y0022888D01*
X0074767Y0022740D01*
X0074726Y0022592D01*
X0074681Y0022446D01*
X0074632Y0022300D01*
X0074579Y0022156D01*
X0074523Y0022014D01*
X0074463Y0021873D01*
X0074399Y0021733D01*
X0074332Y0021595D01*
X0074261Y0021459D01*
X0074186Y0021325D01*
X0074109Y0021193D01*
X0074027Y0021063D01*
X0073943Y0020935D01*
X0073855Y0020809D01*
X0073764Y0020686D01*
X0073670Y0020565D01*
X0073572Y0020447D01*
X0073472Y0020331D01*
X0073368Y0020218D01*
X0073262Y0020107D01*
X0073153Y0019999D01*
X0073041Y0019894D01*
X0072927Y0019793D01*
X0072809Y0019694D01*
X0072690Y0019598D01*
X0072568Y0019505D01*
X0072443Y0019416D01*
X0072316Y0019329D01*
X0072187Y0019247D01*
X0072056Y0019167D01*
X0071923Y0019091D01*
X0071788Y0019018D01*
X0071651Y0018949D01*
X0071512Y0018884D01*
X0071372Y0018822D01*
X0071230Y0018764D01*
X0071087Y0018709D01*
X0070942Y0018658D01*
X0070796Y0018611D01*
X0070649Y0018568D01*
X0070501Y0018529D01*
X0070352Y0018493D01*
X0070202Y0018462D01*
X0070051Y0018434D01*
X0069900Y0018410D01*
X0069747Y0018390D01*
X0069595Y0018374D01*
X0069442Y0018362D01*
X0069289Y0018354D01*
X0069136Y0018350D01*
X0068982Y0018350D01*
X0068829Y0018354D01*
X0068676Y0018362D01*
X0068523Y0018374D01*
X0068371Y0018390D01*
X0068218Y0018410D01*
X0068067Y0018434D01*
X0067916Y0018462D01*
X0067766Y0018493D01*
X0067617Y0018529D01*
X0067469Y0018568D01*
X0067322Y0018611D01*
X0067176Y0018658D01*
X0067031Y0018709D01*
X0066888Y0018764D01*
X0066746Y0018822D01*
X0066606Y0018884D01*
X0066467Y0018949D01*
X0066330Y0019018D01*
X0066195Y0019091D01*
X0066062Y0019167D01*
X0065931Y0019247D01*
X0065802Y0019329D01*
X0065675Y0019416D01*
X0065550Y0019505D01*
X0065428Y0019598D01*
X0065309Y0019694D01*
X0065191Y0019793D01*
X0065077Y0019894D01*
X0064965Y0019999D01*
X0064856Y0020107D01*
X0064750Y0020218D01*
X0064646Y0020331D01*
X0064546Y0020447D01*
X0064448Y0020565D01*
X0064354Y0020686D01*
X0064263Y0020809D01*
X0064175Y0020935D01*
X0064091Y0021063D01*
X0064009Y0021193D01*
X0063932Y0021325D01*
X0063857Y0021459D01*
X0063786Y0021595D01*
X0063719Y0021733D01*
X0063655Y0021873D01*
X0063595Y0022014D01*
X0063539Y0022156D01*
X0063486Y0022300D01*
X0063437Y0022446D01*
X0063392Y0022592D01*
X0063351Y0022740D01*
X0063314Y0022888D01*
X0063280Y0023038D01*
X0063250Y0023189D01*
X0063225Y0023340D01*
X0063203Y0023491D01*
X0063185Y0023644D01*
X0063171Y0023796D01*
X0063161Y0023949D01*
X0063155Y0024103D01*
X0063153Y0024256D01*
X0093389Y0024256D02*
X0093391Y0024409D01*
X0093397Y0024563D01*
X0093407Y0024716D01*
X0093421Y0024868D01*
X0093439Y0025021D01*
X0093461Y0025172D01*
X0093486Y0025323D01*
X0093516Y0025474D01*
X0093550Y0025624D01*
X0093587Y0025772D01*
X0093628Y0025920D01*
X0093673Y0026066D01*
X0093722Y0026212D01*
X0093775Y0026356D01*
X0093831Y0026498D01*
X0093891Y0026639D01*
X0093955Y0026779D01*
X0094022Y0026917D01*
X0094093Y0027053D01*
X0094168Y0027187D01*
X0094245Y0027319D01*
X0094327Y0027449D01*
X0094411Y0027577D01*
X0094499Y0027703D01*
X0094590Y0027826D01*
X0094684Y0027947D01*
X0094782Y0028065D01*
X0094882Y0028181D01*
X0094986Y0028294D01*
X0095092Y0028405D01*
X0095201Y0028513D01*
X0095313Y0028618D01*
X0095427Y0028719D01*
X0095545Y0028818D01*
X0095664Y0028914D01*
X0095786Y0029007D01*
X0095911Y0029096D01*
X0096038Y0029183D01*
X0096167Y0029265D01*
X0096298Y0029345D01*
X0096431Y0029421D01*
X0096566Y0029494D01*
X0096703Y0029563D01*
X0096842Y0029628D01*
X0096982Y0029690D01*
X0097124Y0029748D01*
X0097267Y0029803D01*
X0097412Y0029854D01*
X0097558Y0029901D01*
X0097705Y0029944D01*
X0097853Y0029983D01*
X0098002Y0030019D01*
X0098152Y0030050D01*
X0098303Y0030078D01*
X0098454Y0030102D01*
X0098607Y0030122D01*
X0098759Y0030138D01*
X0098912Y0030150D01*
X0099065Y0030158D01*
X0099218Y0030162D01*
X0099372Y0030162D01*
X0099525Y0030158D01*
X0099678Y0030150D01*
X0099831Y0030138D01*
X0099983Y0030122D01*
X0100136Y0030102D01*
X0100287Y0030078D01*
X0100438Y0030050D01*
X0100588Y0030019D01*
X0100737Y0029983D01*
X0100885Y0029944D01*
X0101032Y0029901D01*
X0101178Y0029854D01*
X0101323Y0029803D01*
X0101466Y0029748D01*
X0101608Y0029690D01*
X0101748Y0029628D01*
X0101887Y0029563D01*
X0102024Y0029494D01*
X0102159Y0029421D01*
X0102292Y0029345D01*
X0102423Y0029265D01*
X0102552Y0029183D01*
X0102679Y0029096D01*
X0102804Y0029007D01*
X0102926Y0028914D01*
X0103045Y0028818D01*
X0103163Y0028719D01*
X0103277Y0028618D01*
X0103389Y0028513D01*
X0103498Y0028405D01*
X0103604Y0028294D01*
X0103708Y0028181D01*
X0103808Y0028065D01*
X0103906Y0027947D01*
X0104000Y0027826D01*
X0104091Y0027703D01*
X0104179Y0027577D01*
X0104263Y0027449D01*
X0104345Y0027319D01*
X0104422Y0027187D01*
X0104497Y0027053D01*
X0104568Y0026917D01*
X0104635Y0026779D01*
X0104699Y0026639D01*
X0104759Y0026498D01*
X0104815Y0026356D01*
X0104868Y0026212D01*
X0104917Y0026066D01*
X0104962Y0025920D01*
X0105003Y0025772D01*
X0105040Y0025624D01*
X0105074Y0025474D01*
X0105104Y0025323D01*
X0105129Y0025172D01*
X0105151Y0025021D01*
X0105169Y0024868D01*
X0105183Y0024716D01*
X0105193Y0024563D01*
X0105199Y0024409D01*
X0105201Y0024256D01*
X0105199Y0024103D01*
X0105193Y0023949D01*
X0105183Y0023796D01*
X0105169Y0023644D01*
X0105151Y0023491D01*
X0105129Y0023340D01*
X0105104Y0023189D01*
X0105074Y0023038D01*
X0105040Y0022888D01*
X0105003Y0022740D01*
X0104962Y0022592D01*
X0104917Y0022446D01*
X0104868Y0022300D01*
X0104815Y0022156D01*
X0104759Y0022014D01*
X0104699Y0021873D01*
X0104635Y0021733D01*
X0104568Y0021595D01*
X0104497Y0021459D01*
X0104422Y0021325D01*
X0104345Y0021193D01*
X0104263Y0021063D01*
X0104179Y0020935D01*
X0104091Y0020809D01*
X0104000Y0020686D01*
X0103906Y0020565D01*
X0103808Y0020447D01*
X0103708Y0020331D01*
X0103604Y0020218D01*
X0103498Y0020107D01*
X0103389Y0019999D01*
X0103277Y0019894D01*
X0103163Y0019793D01*
X0103045Y0019694D01*
X0102926Y0019598D01*
X0102804Y0019505D01*
X0102679Y0019416D01*
X0102552Y0019329D01*
X0102423Y0019247D01*
X0102292Y0019167D01*
X0102159Y0019091D01*
X0102024Y0019018D01*
X0101887Y0018949D01*
X0101748Y0018884D01*
X0101608Y0018822D01*
X0101466Y0018764D01*
X0101323Y0018709D01*
X0101178Y0018658D01*
X0101032Y0018611D01*
X0100885Y0018568D01*
X0100737Y0018529D01*
X0100588Y0018493D01*
X0100438Y0018462D01*
X0100287Y0018434D01*
X0100136Y0018410D01*
X0099983Y0018390D01*
X0099831Y0018374D01*
X0099678Y0018362D01*
X0099525Y0018354D01*
X0099372Y0018350D01*
X0099218Y0018350D01*
X0099065Y0018354D01*
X0098912Y0018362D01*
X0098759Y0018374D01*
X0098607Y0018390D01*
X0098454Y0018410D01*
X0098303Y0018434D01*
X0098152Y0018462D01*
X0098002Y0018493D01*
X0097853Y0018529D01*
X0097705Y0018568D01*
X0097558Y0018611D01*
X0097412Y0018658D01*
X0097267Y0018709D01*
X0097124Y0018764D01*
X0096982Y0018822D01*
X0096842Y0018884D01*
X0096703Y0018949D01*
X0096566Y0019018D01*
X0096431Y0019091D01*
X0096298Y0019167D01*
X0096167Y0019247D01*
X0096038Y0019329D01*
X0095911Y0019416D01*
X0095786Y0019505D01*
X0095664Y0019598D01*
X0095545Y0019694D01*
X0095427Y0019793D01*
X0095313Y0019894D01*
X0095201Y0019999D01*
X0095092Y0020107D01*
X0094986Y0020218D01*
X0094882Y0020331D01*
X0094782Y0020447D01*
X0094684Y0020565D01*
X0094590Y0020686D01*
X0094499Y0020809D01*
X0094411Y0020935D01*
X0094327Y0021063D01*
X0094245Y0021193D01*
X0094168Y0021325D01*
X0094093Y0021459D01*
X0094022Y0021595D01*
X0093955Y0021733D01*
X0093891Y0021873D01*
X0093831Y0022014D01*
X0093775Y0022156D01*
X0093722Y0022300D01*
X0093673Y0022446D01*
X0093628Y0022592D01*
X0093587Y0022740D01*
X0093550Y0022888D01*
X0093516Y0023038D01*
X0093486Y0023189D01*
X0093461Y0023340D01*
X0093439Y0023491D01*
X0093421Y0023644D01*
X0093407Y0023796D01*
X0093397Y0023949D01*
X0093391Y0024103D01*
X0093389Y0024256D01*
X0010476Y0093713D02*
X0010478Y0093866D01*
X0010484Y0094020D01*
X0010494Y0094173D01*
X0010508Y0094325D01*
X0010526Y0094478D01*
X0010548Y0094629D01*
X0010573Y0094780D01*
X0010603Y0094931D01*
X0010637Y0095081D01*
X0010674Y0095229D01*
X0010715Y0095377D01*
X0010760Y0095523D01*
X0010809Y0095669D01*
X0010862Y0095813D01*
X0010918Y0095955D01*
X0010978Y0096096D01*
X0011042Y0096236D01*
X0011109Y0096374D01*
X0011180Y0096510D01*
X0011255Y0096644D01*
X0011332Y0096776D01*
X0011414Y0096906D01*
X0011498Y0097034D01*
X0011586Y0097160D01*
X0011677Y0097283D01*
X0011771Y0097404D01*
X0011869Y0097522D01*
X0011969Y0097638D01*
X0012073Y0097751D01*
X0012179Y0097862D01*
X0012288Y0097970D01*
X0012400Y0098075D01*
X0012514Y0098176D01*
X0012632Y0098275D01*
X0012751Y0098371D01*
X0012873Y0098464D01*
X0012998Y0098553D01*
X0013125Y0098640D01*
X0013254Y0098722D01*
X0013385Y0098802D01*
X0013518Y0098878D01*
X0013653Y0098951D01*
X0013790Y0099020D01*
X0013929Y0099085D01*
X0014069Y0099147D01*
X0014211Y0099205D01*
X0014354Y0099260D01*
X0014499Y0099311D01*
X0014645Y0099358D01*
X0014792Y0099401D01*
X0014940Y0099440D01*
X0015089Y0099476D01*
X0015239Y0099507D01*
X0015390Y0099535D01*
X0015541Y0099559D01*
X0015694Y0099579D01*
X0015846Y0099595D01*
X0015999Y0099607D01*
X0016152Y0099615D01*
X0016305Y0099619D01*
X0016459Y0099619D01*
X0016612Y0099615D01*
X0016765Y0099607D01*
X0016918Y0099595D01*
X0017070Y0099579D01*
X0017223Y0099559D01*
X0017374Y0099535D01*
X0017525Y0099507D01*
X0017675Y0099476D01*
X0017824Y0099440D01*
X0017972Y0099401D01*
X0018119Y0099358D01*
X0018265Y0099311D01*
X0018410Y0099260D01*
X0018553Y0099205D01*
X0018695Y0099147D01*
X0018835Y0099085D01*
X0018974Y0099020D01*
X0019111Y0098951D01*
X0019246Y0098878D01*
X0019379Y0098802D01*
X0019510Y0098722D01*
X0019639Y0098640D01*
X0019766Y0098553D01*
X0019891Y0098464D01*
X0020013Y0098371D01*
X0020132Y0098275D01*
X0020250Y0098176D01*
X0020364Y0098075D01*
X0020476Y0097970D01*
X0020585Y0097862D01*
X0020691Y0097751D01*
X0020795Y0097638D01*
X0020895Y0097522D01*
X0020993Y0097404D01*
X0021087Y0097283D01*
X0021178Y0097160D01*
X0021266Y0097034D01*
X0021350Y0096906D01*
X0021432Y0096776D01*
X0021509Y0096644D01*
X0021584Y0096510D01*
X0021655Y0096374D01*
X0021722Y0096236D01*
X0021786Y0096096D01*
X0021846Y0095955D01*
X0021902Y0095813D01*
X0021955Y0095669D01*
X0022004Y0095523D01*
X0022049Y0095377D01*
X0022090Y0095229D01*
X0022127Y0095081D01*
X0022161Y0094931D01*
X0022191Y0094780D01*
X0022216Y0094629D01*
X0022238Y0094478D01*
X0022256Y0094325D01*
X0022270Y0094173D01*
X0022280Y0094020D01*
X0022286Y0093866D01*
X0022288Y0093713D01*
X0022286Y0093560D01*
X0022280Y0093406D01*
X0022270Y0093253D01*
X0022256Y0093101D01*
X0022238Y0092948D01*
X0022216Y0092797D01*
X0022191Y0092646D01*
X0022161Y0092495D01*
X0022127Y0092345D01*
X0022090Y0092197D01*
X0022049Y0092049D01*
X0022004Y0091903D01*
X0021955Y0091757D01*
X0021902Y0091613D01*
X0021846Y0091471D01*
X0021786Y0091330D01*
X0021722Y0091190D01*
X0021655Y0091052D01*
X0021584Y0090916D01*
X0021509Y0090782D01*
X0021432Y0090650D01*
X0021350Y0090520D01*
X0021266Y0090392D01*
X0021178Y0090266D01*
X0021087Y0090143D01*
X0020993Y0090022D01*
X0020895Y0089904D01*
X0020795Y0089788D01*
X0020691Y0089675D01*
X0020585Y0089564D01*
X0020476Y0089456D01*
X0020364Y0089351D01*
X0020250Y0089250D01*
X0020132Y0089151D01*
X0020013Y0089055D01*
X0019891Y0088962D01*
X0019766Y0088873D01*
X0019639Y0088786D01*
X0019510Y0088704D01*
X0019379Y0088624D01*
X0019246Y0088548D01*
X0019111Y0088475D01*
X0018974Y0088406D01*
X0018835Y0088341D01*
X0018695Y0088279D01*
X0018553Y0088221D01*
X0018410Y0088166D01*
X0018265Y0088115D01*
X0018119Y0088068D01*
X0017972Y0088025D01*
X0017824Y0087986D01*
X0017675Y0087950D01*
X0017525Y0087919D01*
X0017374Y0087891D01*
X0017223Y0087867D01*
X0017070Y0087847D01*
X0016918Y0087831D01*
X0016765Y0087819D01*
X0016612Y0087811D01*
X0016459Y0087807D01*
X0016305Y0087807D01*
X0016152Y0087811D01*
X0015999Y0087819D01*
X0015846Y0087831D01*
X0015694Y0087847D01*
X0015541Y0087867D01*
X0015390Y0087891D01*
X0015239Y0087919D01*
X0015089Y0087950D01*
X0014940Y0087986D01*
X0014792Y0088025D01*
X0014645Y0088068D01*
X0014499Y0088115D01*
X0014354Y0088166D01*
X0014211Y0088221D01*
X0014069Y0088279D01*
X0013929Y0088341D01*
X0013790Y0088406D01*
X0013653Y0088475D01*
X0013518Y0088548D01*
X0013385Y0088624D01*
X0013254Y0088704D01*
X0013125Y0088786D01*
X0012998Y0088873D01*
X0012873Y0088962D01*
X0012751Y0089055D01*
X0012632Y0089151D01*
X0012514Y0089250D01*
X0012400Y0089351D01*
X0012288Y0089456D01*
X0012179Y0089564D01*
X0012073Y0089675D01*
X0011969Y0089788D01*
X0011869Y0089904D01*
X0011771Y0090022D01*
X0011677Y0090143D01*
X0011586Y0090266D01*
X0011498Y0090392D01*
X0011414Y0090520D01*
X0011332Y0090650D01*
X0011255Y0090782D01*
X0011180Y0090916D01*
X0011109Y0091052D01*
X0011042Y0091190D01*
X0010978Y0091330D01*
X0010918Y0091471D01*
X0010862Y0091613D01*
X0010809Y0091757D01*
X0010760Y0091903D01*
X0010715Y0092049D01*
X0010674Y0092197D01*
X0010637Y0092345D01*
X0010603Y0092495D01*
X0010573Y0092646D01*
X0010548Y0092797D01*
X0010526Y0092948D01*
X0010508Y0093101D01*
X0010494Y0093253D01*
X0010484Y0093406D01*
X0010478Y0093560D01*
X0010476Y0093713D01*
X0070476Y0210713D02*
X0070478Y0210866D01*
X0070484Y0211020D01*
X0070494Y0211173D01*
X0070508Y0211325D01*
X0070526Y0211478D01*
X0070548Y0211629D01*
X0070573Y0211780D01*
X0070603Y0211931D01*
X0070637Y0212081D01*
X0070674Y0212229D01*
X0070715Y0212377D01*
X0070760Y0212523D01*
X0070809Y0212669D01*
X0070862Y0212813D01*
X0070918Y0212955D01*
X0070978Y0213096D01*
X0071042Y0213236D01*
X0071109Y0213374D01*
X0071180Y0213510D01*
X0071255Y0213644D01*
X0071332Y0213776D01*
X0071414Y0213906D01*
X0071498Y0214034D01*
X0071586Y0214160D01*
X0071677Y0214283D01*
X0071771Y0214404D01*
X0071869Y0214522D01*
X0071969Y0214638D01*
X0072073Y0214751D01*
X0072179Y0214862D01*
X0072288Y0214970D01*
X0072400Y0215075D01*
X0072514Y0215176D01*
X0072632Y0215275D01*
X0072751Y0215371D01*
X0072873Y0215464D01*
X0072998Y0215553D01*
X0073125Y0215640D01*
X0073254Y0215722D01*
X0073385Y0215802D01*
X0073518Y0215878D01*
X0073653Y0215951D01*
X0073790Y0216020D01*
X0073929Y0216085D01*
X0074069Y0216147D01*
X0074211Y0216205D01*
X0074354Y0216260D01*
X0074499Y0216311D01*
X0074645Y0216358D01*
X0074792Y0216401D01*
X0074940Y0216440D01*
X0075089Y0216476D01*
X0075239Y0216507D01*
X0075390Y0216535D01*
X0075541Y0216559D01*
X0075694Y0216579D01*
X0075846Y0216595D01*
X0075999Y0216607D01*
X0076152Y0216615D01*
X0076305Y0216619D01*
X0076459Y0216619D01*
X0076612Y0216615D01*
X0076765Y0216607D01*
X0076918Y0216595D01*
X0077070Y0216579D01*
X0077223Y0216559D01*
X0077374Y0216535D01*
X0077525Y0216507D01*
X0077675Y0216476D01*
X0077824Y0216440D01*
X0077972Y0216401D01*
X0078119Y0216358D01*
X0078265Y0216311D01*
X0078410Y0216260D01*
X0078553Y0216205D01*
X0078695Y0216147D01*
X0078835Y0216085D01*
X0078974Y0216020D01*
X0079111Y0215951D01*
X0079246Y0215878D01*
X0079379Y0215802D01*
X0079510Y0215722D01*
X0079639Y0215640D01*
X0079766Y0215553D01*
X0079891Y0215464D01*
X0080013Y0215371D01*
X0080132Y0215275D01*
X0080250Y0215176D01*
X0080364Y0215075D01*
X0080476Y0214970D01*
X0080585Y0214862D01*
X0080691Y0214751D01*
X0080795Y0214638D01*
X0080895Y0214522D01*
X0080993Y0214404D01*
X0081087Y0214283D01*
X0081178Y0214160D01*
X0081266Y0214034D01*
X0081350Y0213906D01*
X0081432Y0213776D01*
X0081509Y0213644D01*
X0081584Y0213510D01*
X0081655Y0213374D01*
X0081722Y0213236D01*
X0081786Y0213096D01*
X0081846Y0212955D01*
X0081902Y0212813D01*
X0081955Y0212669D01*
X0082004Y0212523D01*
X0082049Y0212377D01*
X0082090Y0212229D01*
X0082127Y0212081D01*
X0082161Y0211931D01*
X0082191Y0211780D01*
X0082216Y0211629D01*
X0082238Y0211478D01*
X0082256Y0211325D01*
X0082270Y0211173D01*
X0082280Y0211020D01*
X0082286Y0210866D01*
X0082288Y0210713D01*
X0082286Y0210560D01*
X0082280Y0210406D01*
X0082270Y0210253D01*
X0082256Y0210101D01*
X0082238Y0209948D01*
X0082216Y0209797D01*
X0082191Y0209646D01*
X0082161Y0209495D01*
X0082127Y0209345D01*
X0082090Y0209197D01*
X0082049Y0209049D01*
X0082004Y0208903D01*
X0081955Y0208757D01*
X0081902Y0208613D01*
X0081846Y0208471D01*
X0081786Y0208330D01*
X0081722Y0208190D01*
X0081655Y0208052D01*
X0081584Y0207916D01*
X0081509Y0207782D01*
X0081432Y0207650D01*
X0081350Y0207520D01*
X0081266Y0207392D01*
X0081178Y0207266D01*
X0081087Y0207143D01*
X0080993Y0207022D01*
X0080895Y0206904D01*
X0080795Y0206788D01*
X0080691Y0206675D01*
X0080585Y0206564D01*
X0080476Y0206456D01*
X0080364Y0206351D01*
X0080250Y0206250D01*
X0080132Y0206151D01*
X0080013Y0206055D01*
X0079891Y0205962D01*
X0079766Y0205873D01*
X0079639Y0205786D01*
X0079510Y0205704D01*
X0079379Y0205624D01*
X0079246Y0205548D01*
X0079111Y0205475D01*
X0078974Y0205406D01*
X0078835Y0205341D01*
X0078695Y0205279D01*
X0078553Y0205221D01*
X0078410Y0205166D01*
X0078265Y0205115D01*
X0078119Y0205068D01*
X0077972Y0205025D01*
X0077824Y0204986D01*
X0077675Y0204950D01*
X0077525Y0204919D01*
X0077374Y0204891D01*
X0077223Y0204867D01*
X0077070Y0204847D01*
X0076918Y0204831D01*
X0076765Y0204819D01*
X0076612Y0204811D01*
X0076459Y0204807D01*
X0076305Y0204807D01*
X0076152Y0204811D01*
X0075999Y0204819D01*
X0075846Y0204831D01*
X0075694Y0204847D01*
X0075541Y0204867D01*
X0075390Y0204891D01*
X0075239Y0204919D01*
X0075089Y0204950D01*
X0074940Y0204986D01*
X0074792Y0205025D01*
X0074645Y0205068D01*
X0074499Y0205115D01*
X0074354Y0205166D01*
X0074211Y0205221D01*
X0074069Y0205279D01*
X0073929Y0205341D01*
X0073790Y0205406D01*
X0073653Y0205475D01*
X0073518Y0205548D01*
X0073385Y0205624D01*
X0073254Y0205704D01*
X0073125Y0205786D01*
X0072998Y0205873D01*
X0072873Y0205962D01*
X0072751Y0206055D01*
X0072632Y0206151D01*
X0072514Y0206250D01*
X0072400Y0206351D01*
X0072288Y0206456D01*
X0072179Y0206564D01*
X0072073Y0206675D01*
X0071969Y0206788D01*
X0071869Y0206904D01*
X0071771Y0207022D01*
X0071677Y0207143D01*
X0071586Y0207266D01*
X0071498Y0207392D01*
X0071414Y0207520D01*
X0071332Y0207650D01*
X0071255Y0207782D01*
X0071180Y0207916D01*
X0071109Y0208052D01*
X0071042Y0208190D01*
X0070978Y0208330D01*
X0070918Y0208471D01*
X0070862Y0208613D01*
X0070809Y0208757D01*
X0070760Y0208903D01*
X0070715Y0209049D01*
X0070674Y0209197D01*
X0070637Y0209345D01*
X0070603Y0209495D01*
X0070573Y0209646D01*
X0070548Y0209797D01*
X0070526Y0209948D01*
X0070508Y0210101D01*
X0070494Y0210253D01*
X0070484Y0210406D01*
X0070478Y0210560D01*
X0070476Y0210713D01*
X0011146Y0253469D02*
X0011148Y0253625D01*
X0011154Y0253781D01*
X0011164Y0253936D01*
X0011178Y0254091D01*
X0011196Y0254246D01*
X0011218Y0254400D01*
X0011243Y0254554D01*
X0011273Y0254707D01*
X0011307Y0254859D01*
X0011344Y0255011D01*
X0011385Y0255161D01*
X0011430Y0255310D01*
X0011479Y0255458D01*
X0011532Y0255605D01*
X0011588Y0255750D01*
X0011648Y0255894D01*
X0011712Y0256036D01*
X0011780Y0256177D01*
X0011851Y0256315D01*
X0011925Y0256452D01*
X0012003Y0256587D01*
X0012084Y0256720D01*
X0012169Y0256851D01*
X0012257Y0256980D01*
X0012348Y0257106D01*
X0012443Y0257230D01*
X0012540Y0257351D01*
X0012641Y0257470D01*
X0012745Y0257587D01*
X0012851Y0257700D01*
X0012961Y0257811D01*
X0013073Y0257919D01*
X0013188Y0258024D01*
X0013306Y0258127D01*
X0013426Y0258226D01*
X0013549Y0258322D01*
X0013674Y0258415D01*
X0013801Y0258504D01*
X0013931Y0258591D01*
X0014063Y0258674D01*
X0014197Y0258753D01*
X0014333Y0258830D01*
X0014471Y0258902D01*
X0014610Y0258972D01*
X0014752Y0259037D01*
X0014895Y0259099D01*
X0015039Y0259157D01*
X0015185Y0259212D01*
X0015333Y0259263D01*
X0015481Y0259310D01*
X0015631Y0259353D01*
X0015782Y0259392D01*
X0015934Y0259428D01*
X0016086Y0259459D01*
X0016240Y0259487D01*
X0016394Y0259511D01*
X0016548Y0259531D01*
X0016703Y0259547D01*
X0016859Y0259559D01*
X0017014Y0259567D01*
X0017170Y0259571D01*
X0017326Y0259571D01*
X0017482Y0259567D01*
X0017637Y0259559D01*
X0017793Y0259547D01*
X0017948Y0259531D01*
X0018102Y0259511D01*
X0018256Y0259487D01*
X0018410Y0259459D01*
X0018562Y0259428D01*
X0018714Y0259392D01*
X0018865Y0259353D01*
X0019015Y0259310D01*
X0019163Y0259263D01*
X0019311Y0259212D01*
X0019457Y0259157D01*
X0019601Y0259099D01*
X0019744Y0259037D01*
X0019886Y0258972D01*
X0020025Y0258902D01*
X0020163Y0258830D01*
X0020299Y0258753D01*
X0020433Y0258674D01*
X0020565Y0258591D01*
X0020695Y0258504D01*
X0020822Y0258415D01*
X0020947Y0258322D01*
X0021070Y0258226D01*
X0021190Y0258127D01*
X0021308Y0258024D01*
X0021423Y0257919D01*
X0021535Y0257811D01*
X0021645Y0257700D01*
X0021751Y0257587D01*
X0021855Y0257470D01*
X0021956Y0257351D01*
X0022053Y0257230D01*
X0022148Y0257106D01*
X0022239Y0256980D01*
X0022327Y0256851D01*
X0022412Y0256720D01*
X0022493Y0256587D01*
X0022571Y0256452D01*
X0022645Y0256315D01*
X0022716Y0256177D01*
X0022784Y0256036D01*
X0022848Y0255894D01*
X0022908Y0255750D01*
X0022964Y0255605D01*
X0023017Y0255458D01*
X0023066Y0255310D01*
X0023111Y0255161D01*
X0023152Y0255011D01*
X0023189Y0254859D01*
X0023223Y0254707D01*
X0023253Y0254554D01*
X0023278Y0254400D01*
X0023300Y0254246D01*
X0023318Y0254091D01*
X0023332Y0253936D01*
X0023342Y0253781D01*
X0023348Y0253625D01*
X0023350Y0253469D01*
X0023348Y0253313D01*
X0023342Y0253157D01*
X0023332Y0253002D01*
X0023318Y0252847D01*
X0023300Y0252692D01*
X0023278Y0252538D01*
X0023253Y0252384D01*
X0023223Y0252231D01*
X0023189Y0252079D01*
X0023152Y0251927D01*
X0023111Y0251777D01*
X0023066Y0251628D01*
X0023017Y0251480D01*
X0022964Y0251333D01*
X0022908Y0251188D01*
X0022848Y0251044D01*
X0022784Y0250902D01*
X0022716Y0250761D01*
X0022645Y0250623D01*
X0022571Y0250486D01*
X0022493Y0250351D01*
X0022412Y0250218D01*
X0022327Y0250087D01*
X0022239Y0249958D01*
X0022148Y0249832D01*
X0022053Y0249708D01*
X0021956Y0249587D01*
X0021855Y0249468D01*
X0021751Y0249351D01*
X0021645Y0249238D01*
X0021535Y0249127D01*
X0021423Y0249019D01*
X0021308Y0248914D01*
X0021190Y0248811D01*
X0021070Y0248712D01*
X0020947Y0248616D01*
X0020822Y0248523D01*
X0020695Y0248434D01*
X0020565Y0248347D01*
X0020433Y0248264D01*
X0020299Y0248185D01*
X0020163Y0248108D01*
X0020025Y0248036D01*
X0019886Y0247966D01*
X0019744Y0247901D01*
X0019601Y0247839D01*
X0019457Y0247781D01*
X0019311Y0247726D01*
X0019163Y0247675D01*
X0019015Y0247628D01*
X0018865Y0247585D01*
X0018714Y0247546D01*
X0018562Y0247510D01*
X0018410Y0247479D01*
X0018256Y0247451D01*
X0018102Y0247427D01*
X0017948Y0247407D01*
X0017793Y0247391D01*
X0017637Y0247379D01*
X0017482Y0247371D01*
X0017326Y0247367D01*
X0017170Y0247367D01*
X0017014Y0247371D01*
X0016859Y0247379D01*
X0016703Y0247391D01*
X0016548Y0247407D01*
X0016394Y0247427D01*
X0016240Y0247451D01*
X0016086Y0247479D01*
X0015934Y0247510D01*
X0015782Y0247546D01*
X0015631Y0247585D01*
X0015481Y0247628D01*
X0015333Y0247675D01*
X0015185Y0247726D01*
X0015039Y0247781D01*
X0014895Y0247839D01*
X0014752Y0247901D01*
X0014610Y0247966D01*
X0014471Y0248036D01*
X0014333Y0248108D01*
X0014197Y0248185D01*
X0014063Y0248264D01*
X0013931Y0248347D01*
X0013801Y0248434D01*
X0013674Y0248523D01*
X0013549Y0248616D01*
X0013426Y0248712D01*
X0013306Y0248811D01*
X0013188Y0248914D01*
X0013073Y0249019D01*
X0012961Y0249127D01*
X0012851Y0249238D01*
X0012745Y0249351D01*
X0012641Y0249468D01*
X0012540Y0249587D01*
X0012443Y0249708D01*
X0012348Y0249832D01*
X0012257Y0249958D01*
X0012169Y0250087D01*
X0012084Y0250218D01*
X0012003Y0250351D01*
X0011925Y0250486D01*
X0011851Y0250623D01*
X0011780Y0250761D01*
X0011712Y0250902D01*
X0011648Y0251044D01*
X0011588Y0251188D01*
X0011532Y0251333D01*
X0011479Y0251480D01*
X0011430Y0251628D01*
X0011385Y0251777D01*
X0011344Y0251927D01*
X0011307Y0252079D01*
X0011273Y0252231D01*
X0011243Y0252384D01*
X0011218Y0252538D01*
X0011196Y0252692D01*
X0011178Y0252847D01*
X0011164Y0253002D01*
X0011154Y0253157D01*
X0011148Y0253313D01*
X0011146Y0253469D01*
X0213902Y0253469D02*
X0213904Y0253625D01*
X0213910Y0253781D01*
X0213920Y0253936D01*
X0213934Y0254091D01*
X0213952Y0254246D01*
X0213974Y0254400D01*
X0213999Y0254554D01*
X0214029Y0254707D01*
X0214063Y0254859D01*
X0214100Y0255011D01*
X0214141Y0255161D01*
X0214186Y0255310D01*
X0214235Y0255458D01*
X0214288Y0255605D01*
X0214344Y0255750D01*
X0214404Y0255894D01*
X0214468Y0256036D01*
X0214536Y0256177D01*
X0214607Y0256315D01*
X0214681Y0256452D01*
X0214759Y0256587D01*
X0214840Y0256720D01*
X0214925Y0256851D01*
X0215013Y0256980D01*
X0215104Y0257106D01*
X0215199Y0257230D01*
X0215296Y0257351D01*
X0215397Y0257470D01*
X0215501Y0257587D01*
X0215607Y0257700D01*
X0215717Y0257811D01*
X0215829Y0257919D01*
X0215944Y0258024D01*
X0216062Y0258127D01*
X0216182Y0258226D01*
X0216305Y0258322D01*
X0216430Y0258415D01*
X0216557Y0258504D01*
X0216687Y0258591D01*
X0216819Y0258674D01*
X0216953Y0258753D01*
X0217089Y0258830D01*
X0217227Y0258902D01*
X0217366Y0258972D01*
X0217508Y0259037D01*
X0217651Y0259099D01*
X0217795Y0259157D01*
X0217941Y0259212D01*
X0218089Y0259263D01*
X0218237Y0259310D01*
X0218387Y0259353D01*
X0218538Y0259392D01*
X0218690Y0259428D01*
X0218842Y0259459D01*
X0218996Y0259487D01*
X0219150Y0259511D01*
X0219304Y0259531D01*
X0219459Y0259547D01*
X0219615Y0259559D01*
X0219770Y0259567D01*
X0219926Y0259571D01*
X0220082Y0259571D01*
X0220238Y0259567D01*
X0220393Y0259559D01*
X0220549Y0259547D01*
X0220704Y0259531D01*
X0220858Y0259511D01*
X0221012Y0259487D01*
X0221166Y0259459D01*
X0221318Y0259428D01*
X0221470Y0259392D01*
X0221621Y0259353D01*
X0221771Y0259310D01*
X0221919Y0259263D01*
X0222067Y0259212D01*
X0222213Y0259157D01*
X0222357Y0259099D01*
X0222500Y0259037D01*
X0222642Y0258972D01*
X0222781Y0258902D01*
X0222919Y0258830D01*
X0223055Y0258753D01*
X0223189Y0258674D01*
X0223321Y0258591D01*
X0223451Y0258504D01*
X0223578Y0258415D01*
X0223703Y0258322D01*
X0223826Y0258226D01*
X0223946Y0258127D01*
X0224064Y0258024D01*
X0224179Y0257919D01*
X0224291Y0257811D01*
X0224401Y0257700D01*
X0224507Y0257587D01*
X0224611Y0257470D01*
X0224712Y0257351D01*
X0224809Y0257230D01*
X0224904Y0257106D01*
X0224995Y0256980D01*
X0225083Y0256851D01*
X0225168Y0256720D01*
X0225249Y0256587D01*
X0225327Y0256452D01*
X0225401Y0256315D01*
X0225472Y0256177D01*
X0225540Y0256036D01*
X0225604Y0255894D01*
X0225664Y0255750D01*
X0225720Y0255605D01*
X0225773Y0255458D01*
X0225822Y0255310D01*
X0225867Y0255161D01*
X0225908Y0255011D01*
X0225945Y0254859D01*
X0225979Y0254707D01*
X0226009Y0254554D01*
X0226034Y0254400D01*
X0226056Y0254246D01*
X0226074Y0254091D01*
X0226088Y0253936D01*
X0226098Y0253781D01*
X0226104Y0253625D01*
X0226106Y0253469D01*
X0226104Y0253313D01*
X0226098Y0253157D01*
X0226088Y0253002D01*
X0226074Y0252847D01*
X0226056Y0252692D01*
X0226034Y0252538D01*
X0226009Y0252384D01*
X0225979Y0252231D01*
X0225945Y0252079D01*
X0225908Y0251927D01*
X0225867Y0251777D01*
X0225822Y0251628D01*
X0225773Y0251480D01*
X0225720Y0251333D01*
X0225664Y0251188D01*
X0225604Y0251044D01*
X0225540Y0250902D01*
X0225472Y0250761D01*
X0225401Y0250623D01*
X0225327Y0250486D01*
X0225249Y0250351D01*
X0225168Y0250218D01*
X0225083Y0250087D01*
X0224995Y0249958D01*
X0224904Y0249832D01*
X0224809Y0249708D01*
X0224712Y0249587D01*
X0224611Y0249468D01*
X0224507Y0249351D01*
X0224401Y0249238D01*
X0224291Y0249127D01*
X0224179Y0249019D01*
X0224064Y0248914D01*
X0223946Y0248811D01*
X0223826Y0248712D01*
X0223703Y0248616D01*
X0223578Y0248523D01*
X0223451Y0248434D01*
X0223321Y0248347D01*
X0223189Y0248264D01*
X0223055Y0248185D01*
X0222919Y0248108D01*
X0222781Y0248036D01*
X0222642Y0247966D01*
X0222500Y0247901D01*
X0222357Y0247839D01*
X0222213Y0247781D01*
X0222067Y0247726D01*
X0221919Y0247675D01*
X0221771Y0247628D01*
X0221621Y0247585D01*
X0221470Y0247546D01*
X0221318Y0247510D01*
X0221166Y0247479D01*
X0221012Y0247451D01*
X0220858Y0247427D01*
X0220704Y0247407D01*
X0220549Y0247391D01*
X0220393Y0247379D01*
X0220238Y0247371D01*
X0220082Y0247367D01*
X0219926Y0247367D01*
X0219770Y0247371D01*
X0219615Y0247379D01*
X0219459Y0247391D01*
X0219304Y0247407D01*
X0219150Y0247427D01*
X0218996Y0247451D01*
X0218842Y0247479D01*
X0218690Y0247510D01*
X0218538Y0247546D01*
X0218387Y0247585D01*
X0218237Y0247628D01*
X0218089Y0247675D01*
X0217941Y0247726D01*
X0217795Y0247781D01*
X0217651Y0247839D01*
X0217508Y0247901D01*
X0217366Y0247966D01*
X0217227Y0248036D01*
X0217089Y0248108D01*
X0216953Y0248185D01*
X0216819Y0248264D01*
X0216687Y0248347D01*
X0216557Y0248434D01*
X0216430Y0248523D01*
X0216305Y0248616D01*
X0216182Y0248712D01*
X0216062Y0248811D01*
X0215944Y0248914D01*
X0215829Y0249019D01*
X0215717Y0249127D01*
X0215607Y0249238D01*
X0215501Y0249351D01*
X0215397Y0249468D01*
X0215296Y0249587D01*
X0215199Y0249708D01*
X0215104Y0249832D01*
X0215013Y0249958D01*
X0214925Y0250087D01*
X0214840Y0250218D01*
X0214759Y0250351D01*
X0214681Y0250486D01*
X0214607Y0250623D01*
X0214536Y0250761D01*
X0214468Y0250902D01*
X0214404Y0251044D01*
X0214344Y0251188D01*
X0214288Y0251333D01*
X0214235Y0251480D01*
X0214186Y0251628D01*
X0214141Y0251777D01*
X0214100Y0251927D01*
X0214063Y0252079D01*
X0214029Y0252231D01*
X0213999Y0252384D01*
X0213974Y0252538D01*
X0213952Y0252692D01*
X0213934Y0252847D01*
X0213920Y0253002D01*
X0213910Y0253157D01*
X0213904Y0253313D01*
X0213902Y0253469D01*
X0213902Y0017248D02*
X0213904Y0017404D01*
X0213910Y0017560D01*
X0213920Y0017715D01*
X0213934Y0017870D01*
X0213952Y0018025D01*
X0213974Y0018179D01*
X0213999Y0018333D01*
X0214029Y0018486D01*
X0214063Y0018638D01*
X0214100Y0018790D01*
X0214141Y0018940D01*
X0214186Y0019089D01*
X0214235Y0019237D01*
X0214288Y0019384D01*
X0214344Y0019529D01*
X0214404Y0019673D01*
X0214468Y0019815D01*
X0214536Y0019956D01*
X0214607Y0020094D01*
X0214681Y0020231D01*
X0214759Y0020366D01*
X0214840Y0020499D01*
X0214925Y0020630D01*
X0215013Y0020759D01*
X0215104Y0020885D01*
X0215199Y0021009D01*
X0215296Y0021130D01*
X0215397Y0021249D01*
X0215501Y0021366D01*
X0215607Y0021479D01*
X0215717Y0021590D01*
X0215829Y0021698D01*
X0215944Y0021803D01*
X0216062Y0021906D01*
X0216182Y0022005D01*
X0216305Y0022101D01*
X0216430Y0022194D01*
X0216557Y0022283D01*
X0216687Y0022370D01*
X0216819Y0022453D01*
X0216953Y0022532D01*
X0217089Y0022609D01*
X0217227Y0022681D01*
X0217366Y0022751D01*
X0217508Y0022816D01*
X0217651Y0022878D01*
X0217795Y0022936D01*
X0217941Y0022991D01*
X0218089Y0023042D01*
X0218237Y0023089D01*
X0218387Y0023132D01*
X0218538Y0023171D01*
X0218690Y0023207D01*
X0218842Y0023238D01*
X0218996Y0023266D01*
X0219150Y0023290D01*
X0219304Y0023310D01*
X0219459Y0023326D01*
X0219615Y0023338D01*
X0219770Y0023346D01*
X0219926Y0023350D01*
X0220082Y0023350D01*
X0220238Y0023346D01*
X0220393Y0023338D01*
X0220549Y0023326D01*
X0220704Y0023310D01*
X0220858Y0023290D01*
X0221012Y0023266D01*
X0221166Y0023238D01*
X0221318Y0023207D01*
X0221470Y0023171D01*
X0221621Y0023132D01*
X0221771Y0023089D01*
X0221919Y0023042D01*
X0222067Y0022991D01*
X0222213Y0022936D01*
X0222357Y0022878D01*
X0222500Y0022816D01*
X0222642Y0022751D01*
X0222781Y0022681D01*
X0222919Y0022609D01*
X0223055Y0022532D01*
X0223189Y0022453D01*
X0223321Y0022370D01*
X0223451Y0022283D01*
X0223578Y0022194D01*
X0223703Y0022101D01*
X0223826Y0022005D01*
X0223946Y0021906D01*
X0224064Y0021803D01*
X0224179Y0021698D01*
X0224291Y0021590D01*
X0224401Y0021479D01*
X0224507Y0021366D01*
X0224611Y0021249D01*
X0224712Y0021130D01*
X0224809Y0021009D01*
X0224904Y0020885D01*
X0224995Y0020759D01*
X0225083Y0020630D01*
X0225168Y0020499D01*
X0225249Y0020366D01*
X0225327Y0020231D01*
X0225401Y0020094D01*
X0225472Y0019956D01*
X0225540Y0019815D01*
X0225604Y0019673D01*
X0225664Y0019529D01*
X0225720Y0019384D01*
X0225773Y0019237D01*
X0225822Y0019089D01*
X0225867Y0018940D01*
X0225908Y0018790D01*
X0225945Y0018638D01*
X0225979Y0018486D01*
X0226009Y0018333D01*
X0226034Y0018179D01*
X0226056Y0018025D01*
X0226074Y0017870D01*
X0226088Y0017715D01*
X0226098Y0017560D01*
X0226104Y0017404D01*
X0226106Y0017248D01*
X0226104Y0017092D01*
X0226098Y0016936D01*
X0226088Y0016781D01*
X0226074Y0016626D01*
X0226056Y0016471D01*
X0226034Y0016317D01*
X0226009Y0016163D01*
X0225979Y0016010D01*
X0225945Y0015858D01*
X0225908Y0015706D01*
X0225867Y0015556D01*
X0225822Y0015407D01*
X0225773Y0015259D01*
X0225720Y0015112D01*
X0225664Y0014967D01*
X0225604Y0014823D01*
X0225540Y0014681D01*
X0225472Y0014540D01*
X0225401Y0014402D01*
X0225327Y0014265D01*
X0225249Y0014130D01*
X0225168Y0013997D01*
X0225083Y0013866D01*
X0224995Y0013737D01*
X0224904Y0013611D01*
X0224809Y0013487D01*
X0224712Y0013366D01*
X0224611Y0013247D01*
X0224507Y0013130D01*
X0224401Y0013017D01*
X0224291Y0012906D01*
X0224179Y0012798D01*
X0224064Y0012693D01*
X0223946Y0012590D01*
X0223826Y0012491D01*
X0223703Y0012395D01*
X0223578Y0012302D01*
X0223451Y0012213D01*
X0223321Y0012126D01*
X0223189Y0012043D01*
X0223055Y0011964D01*
X0222919Y0011887D01*
X0222781Y0011815D01*
X0222642Y0011745D01*
X0222500Y0011680D01*
X0222357Y0011618D01*
X0222213Y0011560D01*
X0222067Y0011505D01*
X0221919Y0011454D01*
X0221771Y0011407D01*
X0221621Y0011364D01*
X0221470Y0011325D01*
X0221318Y0011289D01*
X0221166Y0011258D01*
X0221012Y0011230D01*
X0220858Y0011206D01*
X0220704Y0011186D01*
X0220549Y0011170D01*
X0220393Y0011158D01*
X0220238Y0011150D01*
X0220082Y0011146D01*
X0219926Y0011146D01*
X0219770Y0011150D01*
X0219615Y0011158D01*
X0219459Y0011170D01*
X0219304Y0011186D01*
X0219150Y0011206D01*
X0218996Y0011230D01*
X0218842Y0011258D01*
X0218690Y0011289D01*
X0218538Y0011325D01*
X0218387Y0011364D01*
X0218237Y0011407D01*
X0218089Y0011454D01*
X0217941Y0011505D01*
X0217795Y0011560D01*
X0217651Y0011618D01*
X0217508Y0011680D01*
X0217366Y0011745D01*
X0217227Y0011815D01*
X0217089Y0011887D01*
X0216953Y0011964D01*
X0216819Y0012043D01*
X0216687Y0012126D01*
X0216557Y0012213D01*
X0216430Y0012302D01*
X0216305Y0012395D01*
X0216182Y0012491D01*
X0216062Y0012590D01*
X0215944Y0012693D01*
X0215829Y0012798D01*
X0215717Y0012906D01*
X0215607Y0013017D01*
X0215501Y0013130D01*
X0215397Y0013247D01*
X0215296Y0013366D01*
X0215199Y0013487D01*
X0215104Y0013611D01*
X0215013Y0013737D01*
X0214925Y0013866D01*
X0214840Y0013997D01*
X0214759Y0014130D01*
X0214681Y0014265D01*
X0214607Y0014402D01*
X0214536Y0014540D01*
X0214468Y0014681D01*
X0214404Y0014823D01*
X0214344Y0014967D01*
X0214288Y0015112D01*
X0214235Y0015259D01*
X0214186Y0015407D01*
X0214141Y0015556D01*
X0214100Y0015706D01*
X0214063Y0015858D01*
X0214029Y0016010D01*
X0213999Y0016163D01*
X0213974Y0016317D01*
X0213952Y0016471D01*
X0213934Y0016626D01*
X0213920Y0016781D01*
X0213910Y0016936D01*
X0213904Y0017092D01*
X0213902Y0017248D01*
M02*
