G75*
%MOIN*%
%OFA0B0*%
%FSLAX25Y25*%
%IPPOS*%
%LPD*%
%AMOC8*
5,1,8,0,0,1.08239X$1,22.5*
%
%ADD10C,0.00000*%
%ADD11C,0.07000*%
%ADD12R,0.09843X0.09843*%
%ADD13C,0.05937*%
%ADD14C,0.03562*%
%ADD15C,0.03200*%
%ADD16C,0.01600*%
%ADD17C,0.01000*%
D10*
X0001500Y0001500D02*
X0001500Y0269217D01*
X0235752Y0269217D01*
X0235752Y0001500D01*
X0001500Y0001500D01*
X0011146Y0017248D02*
X0011148Y0017404D01*
X0011154Y0017560D01*
X0011164Y0017715D01*
X0011178Y0017870D01*
X0011196Y0018025D01*
X0011218Y0018179D01*
X0011243Y0018333D01*
X0011273Y0018486D01*
X0011307Y0018638D01*
X0011344Y0018790D01*
X0011385Y0018940D01*
X0011430Y0019089D01*
X0011479Y0019237D01*
X0011532Y0019384D01*
X0011588Y0019529D01*
X0011648Y0019673D01*
X0011712Y0019815D01*
X0011780Y0019956D01*
X0011851Y0020094D01*
X0011925Y0020231D01*
X0012003Y0020366D01*
X0012084Y0020499D01*
X0012169Y0020630D01*
X0012257Y0020759D01*
X0012348Y0020885D01*
X0012443Y0021009D01*
X0012540Y0021130D01*
X0012641Y0021249D01*
X0012745Y0021366D01*
X0012851Y0021479D01*
X0012961Y0021590D01*
X0013073Y0021698D01*
X0013188Y0021803D01*
X0013306Y0021906D01*
X0013426Y0022005D01*
X0013549Y0022101D01*
X0013674Y0022194D01*
X0013801Y0022283D01*
X0013931Y0022370D01*
X0014063Y0022453D01*
X0014197Y0022532D01*
X0014333Y0022609D01*
X0014471Y0022681D01*
X0014610Y0022751D01*
X0014752Y0022816D01*
X0014895Y0022878D01*
X0015039Y0022936D01*
X0015185Y0022991D01*
X0015333Y0023042D01*
X0015481Y0023089D01*
X0015631Y0023132D01*
X0015782Y0023171D01*
X0015934Y0023207D01*
X0016086Y0023238D01*
X0016240Y0023266D01*
X0016394Y0023290D01*
X0016548Y0023310D01*
X0016703Y0023326D01*
X0016859Y0023338D01*
X0017014Y0023346D01*
X0017170Y0023350D01*
X0017326Y0023350D01*
X0017482Y0023346D01*
X0017637Y0023338D01*
X0017793Y0023326D01*
X0017948Y0023310D01*
X0018102Y0023290D01*
X0018256Y0023266D01*
X0018410Y0023238D01*
X0018562Y0023207D01*
X0018714Y0023171D01*
X0018865Y0023132D01*
X0019015Y0023089D01*
X0019163Y0023042D01*
X0019311Y0022991D01*
X0019457Y0022936D01*
X0019601Y0022878D01*
X0019744Y0022816D01*
X0019886Y0022751D01*
X0020025Y0022681D01*
X0020163Y0022609D01*
X0020299Y0022532D01*
X0020433Y0022453D01*
X0020565Y0022370D01*
X0020695Y0022283D01*
X0020822Y0022194D01*
X0020947Y0022101D01*
X0021070Y0022005D01*
X0021190Y0021906D01*
X0021308Y0021803D01*
X0021423Y0021698D01*
X0021535Y0021590D01*
X0021645Y0021479D01*
X0021751Y0021366D01*
X0021855Y0021249D01*
X0021956Y0021130D01*
X0022053Y0021009D01*
X0022148Y0020885D01*
X0022239Y0020759D01*
X0022327Y0020630D01*
X0022412Y0020499D01*
X0022493Y0020366D01*
X0022571Y0020231D01*
X0022645Y0020094D01*
X0022716Y0019956D01*
X0022784Y0019815D01*
X0022848Y0019673D01*
X0022908Y0019529D01*
X0022964Y0019384D01*
X0023017Y0019237D01*
X0023066Y0019089D01*
X0023111Y0018940D01*
X0023152Y0018790D01*
X0023189Y0018638D01*
X0023223Y0018486D01*
X0023253Y0018333D01*
X0023278Y0018179D01*
X0023300Y0018025D01*
X0023318Y0017870D01*
X0023332Y0017715D01*
X0023342Y0017560D01*
X0023348Y0017404D01*
X0023350Y0017248D01*
X0023348Y0017092D01*
X0023342Y0016936D01*
X0023332Y0016781D01*
X0023318Y0016626D01*
X0023300Y0016471D01*
X0023278Y0016317D01*
X0023253Y0016163D01*
X0023223Y0016010D01*
X0023189Y0015858D01*
X0023152Y0015706D01*
X0023111Y0015556D01*
X0023066Y0015407D01*
X0023017Y0015259D01*
X0022964Y0015112D01*
X0022908Y0014967D01*
X0022848Y0014823D01*
X0022784Y0014681D01*
X0022716Y0014540D01*
X0022645Y0014402D01*
X0022571Y0014265D01*
X0022493Y0014130D01*
X0022412Y0013997D01*
X0022327Y0013866D01*
X0022239Y0013737D01*
X0022148Y0013611D01*
X0022053Y0013487D01*
X0021956Y0013366D01*
X0021855Y0013247D01*
X0021751Y0013130D01*
X0021645Y0013017D01*
X0021535Y0012906D01*
X0021423Y0012798D01*
X0021308Y0012693D01*
X0021190Y0012590D01*
X0021070Y0012491D01*
X0020947Y0012395D01*
X0020822Y0012302D01*
X0020695Y0012213D01*
X0020565Y0012126D01*
X0020433Y0012043D01*
X0020299Y0011964D01*
X0020163Y0011887D01*
X0020025Y0011815D01*
X0019886Y0011745D01*
X0019744Y0011680D01*
X0019601Y0011618D01*
X0019457Y0011560D01*
X0019311Y0011505D01*
X0019163Y0011454D01*
X0019015Y0011407D01*
X0018865Y0011364D01*
X0018714Y0011325D01*
X0018562Y0011289D01*
X0018410Y0011258D01*
X0018256Y0011230D01*
X0018102Y0011206D01*
X0017948Y0011186D01*
X0017793Y0011170D01*
X0017637Y0011158D01*
X0017482Y0011150D01*
X0017326Y0011146D01*
X0017170Y0011146D01*
X0017014Y0011150D01*
X0016859Y0011158D01*
X0016703Y0011170D01*
X0016548Y0011186D01*
X0016394Y0011206D01*
X0016240Y0011230D01*
X0016086Y0011258D01*
X0015934Y0011289D01*
X0015782Y0011325D01*
X0015631Y0011364D01*
X0015481Y0011407D01*
X0015333Y0011454D01*
X0015185Y0011505D01*
X0015039Y0011560D01*
X0014895Y0011618D01*
X0014752Y0011680D01*
X0014610Y0011745D01*
X0014471Y0011815D01*
X0014333Y0011887D01*
X0014197Y0011964D01*
X0014063Y0012043D01*
X0013931Y0012126D01*
X0013801Y0012213D01*
X0013674Y0012302D01*
X0013549Y0012395D01*
X0013426Y0012491D01*
X0013306Y0012590D01*
X0013188Y0012693D01*
X0013073Y0012798D01*
X0012961Y0012906D01*
X0012851Y0013017D01*
X0012745Y0013130D01*
X0012641Y0013247D01*
X0012540Y0013366D01*
X0012443Y0013487D01*
X0012348Y0013611D01*
X0012257Y0013737D01*
X0012169Y0013866D01*
X0012084Y0013997D01*
X0012003Y0014130D01*
X0011925Y0014265D01*
X0011851Y0014402D01*
X0011780Y0014540D01*
X0011712Y0014681D01*
X0011648Y0014823D01*
X0011588Y0014967D01*
X0011532Y0015112D01*
X0011479Y0015259D01*
X0011430Y0015407D01*
X0011385Y0015556D01*
X0011344Y0015706D01*
X0011307Y0015858D01*
X0011273Y0016010D01*
X0011243Y0016163D01*
X0011218Y0016317D01*
X0011196Y0016471D01*
X0011178Y0016626D01*
X0011164Y0016781D01*
X0011154Y0016936D01*
X0011148Y0017092D01*
X0011146Y0017248D01*
X0063153Y0024256D02*
X0063155Y0024409D01*
X0063161Y0024563D01*
X0063171Y0024716D01*
X0063185Y0024868D01*
X0063203Y0025021D01*
X0063225Y0025172D01*
X0063250Y0025323D01*
X0063280Y0025474D01*
X0063314Y0025624D01*
X0063351Y0025772D01*
X0063392Y0025920D01*
X0063437Y0026066D01*
X0063486Y0026212D01*
X0063539Y0026356D01*
X0063595Y0026498D01*
X0063655Y0026639D01*
X0063719Y0026779D01*
X0063786Y0026917D01*
X0063857Y0027053D01*
X0063932Y0027187D01*
X0064009Y0027319D01*
X0064091Y0027449D01*
X0064175Y0027577D01*
X0064263Y0027703D01*
X0064354Y0027826D01*
X0064448Y0027947D01*
X0064546Y0028065D01*
X0064646Y0028181D01*
X0064750Y0028294D01*
X0064856Y0028405D01*
X0064965Y0028513D01*
X0065077Y0028618D01*
X0065191Y0028719D01*
X0065309Y0028818D01*
X0065428Y0028914D01*
X0065550Y0029007D01*
X0065675Y0029096D01*
X0065802Y0029183D01*
X0065931Y0029265D01*
X0066062Y0029345D01*
X0066195Y0029421D01*
X0066330Y0029494D01*
X0066467Y0029563D01*
X0066606Y0029628D01*
X0066746Y0029690D01*
X0066888Y0029748D01*
X0067031Y0029803D01*
X0067176Y0029854D01*
X0067322Y0029901D01*
X0067469Y0029944D01*
X0067617Y0029983D01*
X0067766Y0030019D01*
X0067916Y0030050D01*
X0068067Y0030078D01*
X0068218Y0030102D01*
X0068371Y0030122D01*
X0068523Y0030138D01*
X0068676Y0030150D01*
X0068829Y0030158D01*
X0068982Y0030162D01*
X0069136Y0030162D01*
X0069289Y0030158D01*
X0069442Y0030150D01*
X0069595Y0030138D01*
X0069747Y0030122D01*
X0069900Y0030102D01*
X0070051Y0030078D01*
X0070202Y0030050D01*
X0070352Y0030019D01*
X0070501Y0029983D01*
X0070649Y0029944D01*
X0070796Y0029901D01*
X0070942Y0029854D01*
X0071087Y0029803D01*
X0071230Y0029748D01*
X0071372Y0029690D01*
X0071512Y0029628D01*
X0071651Y0029563D01*
X0071788Y0029494D01*
X0071923Y0029421D01*
X0072056Y0029345D01*
X0072187Y0029265D01*
X0072316Y0029183D01*
X0072443Y0029096D01*
X0072568Y0029007D01*
X0072690Y0028914D01*
X0072809Y0028818D01*
X0072927Y0028719D01*
X0073041Y0028618D01*
X0073153Y0028513D01*
X0073262Y0028405D01*
X0073368Y0028294D01*
X0073472Y0028181D01*
X0073572Y0028065D01*
X0073670Y0027947D01*
X0073764Y0027826D01*
X0073855Y0027703D01*
X0073943Y0027577D01*
X0074027Y0027449D01*
X0074109Y0027319D01*
X0074186Y0027187D01*
X0074261Y0027053D01*
X0074332Y0026917D01*
X0074399Y0026779D01*
X0074463Y0026639D01*
X0074523Y0026498D01*
X0074579Y0026356D01*
X0074632Y0026212D01*
X0074681Y0026066D01*
X0074726Y0025920D01*
X0074767Y0025772D01*
X0074804Y0025624D01*
X0074838Y0025474D01*
X0074868Y0025323D01*
X0074893Y0025172D01*
X0074915Y0025021D01*
X0074933Y0024868D01*
X0074947Y0024716D01*
X0074957Y0024563D01*
X0074963Y0024409D01*
X0074965Y0024256D01*
X0074963Y0024103D01*
X0074957Y0023949D01*
X0074947Y0023796D01*
X0074933Y0023644D01*
X0074915Y0023491D01*
X0074893Y0023340D01*
X0074868Y0023189D01*
X0074838Y0023038D01*
X0074804Y0022888D01*
X0074767Y0022740D01*
X0074726Y0022592D01*
X0074681Y0022446D01*
X0074632Y0022300D01*
X0074579Y0022156D01*
X0074523Y0022014D01*
X0074463Y0021873D01*
X0074399Y0021733D01*
X0074332Y0021595D01*
X0074261Y0021459D01*
X0074186Y0021325D01*
X0074109Y0021193D01*
X0074027Y0021063D01*
X0073943Y0020935D01*
X0073855Y0020809D01*
X0073764Y0020686D01*
X0073670Y0020565D01*
X0073572Y0020447D01*
X0073472Y0020331D01*
X0073368Y0020218D01*
X0073262Y0020107D01*
X0073153Y0019999D01*
X0073041Y0019894D01*
X0072927Y0019793D01*
X0072809Y0019694D01*
X0072690Y0019598D01*
X0072568Y0019505D01*
X0072443Y0019416D01*
X0072316Y0019329D01*
X0072187Y0019247D01*
X0072056Y0019167D01*
X0071923Y0019091D01*
X0071788Y0019018D01*
X0071651Y0018949D01*
X0071512Y0018884D01*
X0071372Y0018822D01*
X0071230Y0018764D01*
X0071087Y0018709D01*
X0070942Y0018658D01*
X0070796Y0018611D01*
X0070649Y0018568D01*
X0070501Y0018529D01*
X0070352Y0018493D01*
X0070202Y0018462D01*
X0070051Y0018434D01*
X0069900Y0018410D01*
X0069747Y0018390D01*
X0069595Y0018374D01*
X0069442Y0018362D01*
X0069289Y0018354D01*
X0069136Y0018350D01*
X0068982Y0018350D01*
X0068829Y0018354D01*
X0068676Y0018362D01*
X0068523Y0018374D01*
X0068371Y0018390D01*
X0068218Y0018410D01*
X0068067Y0018434D01*
X0067916Y0018462D01*
X0067766Y0018493D01*
X0067617Y0018529D01*
X0067469Y0018568D01*
X0067322Y0018611D01*
X0067176Y0018658D01*
X0067031Y0018709D01*
X0066888Y0018764D01*
X0066746Y0018822D01*
X0066606Y0018884D01*
X0066467Y0018949D01*
X0066330Y0019018D01*
X0066195Y0019091D01*
X0066062Y0019167D01*
X0065931Y0019247D01*
X0065802Y0019329D01*
X0065675Y0019416D01*
X0065550Y0019505D01*
X0065428Y0019598D01*
X0065309Y0019694D01*
X0065191Y0019793D01*
X0065077Y0019894D01*
X0064965Y0019999D01*
X0064856Y0020107D01*
X0064750Y0020218D01*
X0064646Y0020331D01*
X0064546Y0020447D01*
X0064448Y0020565D01*
X0064354Y0020686D01*
X0064263Y0020809D01*
X0064175Y0020935D01*
X0064091Y0021063D01*
X0064009Y0021193D01*
X0063932Y0021325D01*
X0063857Y0021459D01*
X0063786Y0021595D01*
X0063719Y0021733D01*
X0063655Y0021873D01*
X0063595Y0022014D01*
X0063539Y0022156D01*
X0063486Y0022300D01*
X0063437Y0022446D01*
X0063392Y0022592D01*
X0063351Y0022740D01*
X0063314Y0022888D01*
X0063280Y0023038D01*
X0063250Y0023189D01*
X0063225Y0023340D01*
X0063203Y0023491D01*
X0063185Y0023644D01*
X0063171Y0023796D01*
X0063161Y0023949D01*
X0063155Y0024103D01*
X0063153Y0024256D01*
X0093389Y0024256D02*
X0093391Y0024409D01*
X0093397Y0024563D01*
X0093407Y0024716D01*
X0093421Y0024868D01*
X0093439Y0025021D01*
X0093461Y0025172D01*
X0093486Y0025323D01*
X0093516Y0025474D01*
X0093550Y0025624D01*
X0093587Y0025772D01*
X0093628Y0025920D01*
X0093673Y0026066D01*
X0093722Y0026212D01*
X0093775Y0026356D01*
X0093831Y0026498D01*
X0093891Y0026639D01*
X0093955Y0026779D01*
X0094022Y0026917D01*
X0094093Y0027053D01*
X0094168Y0027187D01*
X0094245Y0027319D01*
X0094327Y0027449D01*
X0094411Y0027577D01*
X0094499Y0027703D01*
X0094590Y0027826D01*
X0094684Y0027947D01*
X0094782Y0028065D01*
X0094882Y0028181D01*
X0094986Y0028294D01*
X0095092Y0028405D01*
X0095201Y0028513D01*
X0095313Y0028618D01*
X0095427Y0028719D01*
X0095545Y0028818D01*
X0095664Y0028914D01*
X0095786Y0029007D01*
X0095911Y0029096D01*
X0096038Y0029183D01*
X0096167Y0029265D01*
X0096298Y0029345D01*
X0096431Y0029421D01*
X0096566Y0029494D01*
X0096703Y0029563D01*
X0096842Y0029628D01*
X0096982Y0029690D01*
X0097124Y0029748D01*
X0097267Y0029803D01*
X0097412Y0029854D01*
X0097558Y0029901D01*
X0097705Y0029944D01*
X0097853Y0029983D01*
X0098002Y0030019D01*
X0098152Y0030050D01*
X0098303Y0030078D01*
X0098454Y0030102D01*
X0098607Y0030122D01*
X0098759Y0030138D01*
X0098912Y0030150D01*
X0099065Y0030158D01*
X0099218Y0030162D01*
X0099372Y0030162D01*
X0099525Y0030158D01*
X0099678Y0030150D01*
X0099831Y0030138D01*
X0099983Y0030122D01*
X0100136Y0030102D01*
X0100287Y0030078D01*
X0100438Y0030050D01*
X0100588Y0030019D01*
X0100737Y0029983D01*
X0100885Y0029944D01*
X0101032Y0029901D01*
X0101178Y0029854D01*
X0101323Y0029803D01*
X0101466Y0029748D01*
X0101608Y0029690D01*
X0101748Y0029628D01*
X0101887Y0029563D01*
X0102024Y0029494D01*
X0102159Y0029421D01*
X0102292Y0029345D01*
X0102423Y0029265D01*
X0102552Y0029183D01*
X0102679Y0029096D01*
X0102804Y0029007D01*
X0102926Y0028914D01*
X0103045Y0028818D01*
X0103163Y0028719D01*
X0103277Y0028618D01*
X0103389Y0028513D01*
X0103498Y0028405D01*
X0103604Y0028294D01*
X0103708Y0028181D01*
X0103808Y0028065D01*
X0103906Y0027947D01*
X0104000Y0027826D01*
X0104091Y0027703D01*
X0104179Y0027577D01*
X0104263Y0027449D01*
X0104345Y0027319D01*
X0104422Y0027187D01*
X0104497Y0027053D01*
X0104568Y0026917D01*
X0104635Y0026779D01*
X0104699Y0026639D01*
X0104759Y0026498D01*
X0104815Y0026356D01*
X0104868Y0026212D01*
X0104917Y0026066D01*
X0104962Y0025920D01*
X0105003Y0025772D01*
X0105040Y0025624D01*
X0105074Y0025474D01*
X0105104Y0025323D01*
X0105129Y0025172D01*
X0105151Y0025021D01*
X0105169Y0024868D01*
X0105183Y0024716D01*
X0105193Y0024563D01*
X0105199Y0024409D01*
X0105201Y0024256D01*
X0105199Y0024103D01*
X0105193Y0023949D01*
X0105183Y0023796D01*
X0105169Y0023644D01*
X0105151Y0023491D01*
X0105129Y0023340D01*
X0105104Y0023189D01*
X0105074Y0023038D01*
X0105040Y0022888D01*
X0105003Y0022740D01*
X0104962Y0022592D01*
X0104917Y0022446D01*
X0104868Y0022300D01*
X0104815Y0022156D01*
X0104759Y0022014D01*
X0104699Y0021873D01*
X0104635Y0021733D01*
X0104568Y0021595D01*
X0104497Y0021459D01*
X0104422Y0021325D01*
X0104345Y0021193D01*
X0104263Y0021063D01*
X0104179Y0020935D01*
X0104091Y0020809D01*
X0104000Y0020686D01*
X0103906Y0020565D01*
X0103808Y0020447D01*
X0103708Y0020331D01*
X0103604Y0020218D01*
X0103498Y0020107D01*
X0103389Y0019999D01*
X0103277Y0019894D01*
X0103163Y0019793D01*
X0103045Y0019694D01*
X0102926Y0019598D01*
X0102804Y0019505D01*
X0102679Y0019416D01*
X0102552Y0019329D01*
X0102423Y0019247D01*
X0102292Y0019167D01*
X0102159Y0019091D01*
X0102024Y0019018D01*
X0101887Y0018949D01*
X0101748Y0018884D01*
X0101608Y0018822D01*
X0101466Y0018764D01*
X0101323Y0018709D01*
X0101178Y0018658D01*
X0101032Y0018611D01*
X0100885Y0018568D01*
X0100737Y0018529D01*
X0100588Y0018493D01*
X0100438Y0018462D01*
X0100287Y0018434D01*
X0100136Y0018410D01*
X0099983Y0018390D01*
X0099831Y0018374D01*
X0099678Y0018362D01*
X0099525Y0018354D01*
X0099372Y0018350D01*
X0099218Y0018350D01*
X0099065Y0018354D01*
X0098912Y0018362D01*
X0098759Y0018374D01*
X0098607Y0018390D01*
X0098454Y0018410D01*
X0098303Y0018434D01*
X0098152Y0018462D01*
X0098002Y0018493D01*
X0097853Y0018529D01*
X0097705Y0018568D01*
X0097558Y0018611D01*
X0097412Y0018658D01*
X0097267Y0018709D01*
X0097124Y0018764D01*
X0096982Y0018822D01*
X0096842Y0018884D01*
X0096703Y0018949D01*
X0096566Y0019018D01*
X0096431Y0019091D01*
X0096298Y0019167D01*
X0096167Y0019247D01*
X0096038Y0019329D01*
X0095911Y0019416D01*
X0095786Y0019505D01*
X0095664Y0019598D01*
X0095545Y0019694D01*
X0095427Y0019793D01*
X0095313Y0019894D01*
X0095201Y0019999D01*
X0095092Y0020107D01*
X0094986Y0020218D01*
X0094882Y0020331D01*
X0094782Y0020447D01*
X0094684Y0020565D01*
X0094590Y0020686D01*
X0094499Y0020809D01*
X0094411Y0020935D01*
X0094327Y0021063D01*
X0094245Y0021193D01*
X0094168Y0021325D01*
X0094093Y0021459D01*
X0094022Y0021595D01*
X0093955Y0021733D01*
X0093891Y0021873D01*
X0093831Y0022014D01*
X0093775Y0022156D01*
X0093722Y0022300D01*
X0093673Y0022446D01*
X0093628Y0022592D01*
X0093587Y0022740D01*
X0093550Y0022888D01*
X0093516Y0023038D01*
X0093486Y0023189D01*
X0093461Y0023340D01*
X0093439Y0023491D01*
X0093421Y0023644D01*
X0093407Y0023796D01*
X0093397Y0023949D01*
X0093391Y0024103D01*
X0093389Y0024256D01*
X0010476Y0093713D02*
X0010478Y0093866D01*
X0010484Y0094020D01*
X0010494Y0094173D01*
X0010508Y0094325D01*
X0010526Y0094478D01*
X0010548Y0094629D01*
X0010573Y0094780D01*
X0010603Y0094931D01*
X0010637Y0095081D01*
X0010674Y0095229D01*
X0010715Y0095377D01*
X0010760Y0095523D01*
X0010809Y0095669D01*
X0010862Y0095813D01*
X0010918Y0095955D01*
X0010978Y0096096D01*
X0011042Y0096236D01*
X0011109Y0096374D01*
X0011180Y0096510D01*
X0011255Y0096644D01*
X0011332Y0096776D01*
X0011414Y0096906D01*
X0011498Y0097034D01*
X0011586Y0097160D01*
X0011677Y0097283D01*
X0011771Y0097404D01*
X0011869Y0097522D01*
X0011969Y0097638D01*
X0012073Y0097751D01*
X0012179Y0097862D01*
X0012288Y0097970D01*
X0012400Y0098075D01*
X0012514Y0098176D01*
X0012632Y0098275D01*
X0012751Y0098371D01*
X0012873Y0098464D01*
X0012998Y0098553D01*
X0013125Y0098640D01*
X0013254Y0098722D01*
X0013385Y0098802D01*
X0013518Y0098878D01*
X0013653Y0098951D01*
X0013790Y0099020D01*
X0013929Y0099085D01*
X0014069Y0099147D01*
X0014211Y0099205D01*
X0014354Y0099260D01*
X0014499Y0099311D01*
X0014645Y0099358D01*
X0014792Y0099401D01*
X0014940Y0099440D01*
X0015089Y0099476D01*
X0015239Y0099507D01*
X0015390Y0099535D01*
X0015541Y0099559D01*
X0015694Y0099579D01*
X0015846Y0099595D01*
X0015999Y0099607D01*
X0016152Y0099615D01*
X0016305Y0099619D01*
X0016459Y0099619D01*
X0016612Y0099615D01*
X0016765Y0099607D01*
X0016918Y0099595D01*
X0017070Y0099579D01*
X0017223Y0099559D01*
X0017374Y0099535D01*
X0017525Y0099507D01*
X0017675Y0099476D01*
X0017824Y0099440D01*
X0017972Y0099401D01*
X0018119Y0099358D01*
X0018265Y0099311D01*
X0018410Y0099260D01*
X0018553Y0099205D01*
X0018695Y0099147D01*
X0018835Y0099085D01*
X0018974Y0099020D01*
X0019111Y0098951D01*
X0019246Y0098878D01*
X0019379Y0098802D01*
X0019510Y0098722D01*
X0019639Y0098640D01*
X0019766Y0098553D01*
X0019891Y0098464D01*
X0020013Y0098371D01*
X0020132Y0098275D01*
X0020250Y0098176D01*
X0020364Y0098075D01*
X0020476Y0097970D01*
X0020585Y0097862D01*
X0020691Y0097751D01*
X0020795Y0097638D01*
X0020895Y0097522D01*
X0020993Y0097404D01*
X0021087Y0097283D01*
X0021178Y0097160D01*
X0021266Y0097034D01*
X0021350Y0096906D01*
X0021432Y0096776D01*
X0021509Y0096644D01*
X0021584Y0096510D01*
X0021655Y0096374D01*
X0021722Y0096236D01*
X0021786Y0096096D01*
X0021846Y0095955D01*
X0021902Y0095813D01*
X0021955Y0095669D01*
X0022004Y0095523D01*
X0022049Y0095377D01*
X0022090Y0095229D01*
X0022127Y0095081D01*
X0022161Y0094931D01*
X0022191Y0094780D01*
X0022216Y0094629D01*
X0022238Y0094478D01*
X0022256Y0094325D01*
X0022270Y0094173D01*
X0022280Y0094020D01*
X0022286Y0093866D01*
X0022288Y0093713D01*
X0022286Y0093560D01*
X0022280Y0093406D01*
X0022270Y0093253D01*
X0022256Y0093101D01*
X0022238Y0092948D01*
X0022216Y0092797D01*
X0022191Y0092646D01*
X0022161Y0092495D01*
X0022127Y0092345D01*
X0022090Y0092197D01*
X0022049Y0092049D01*
X0022004Y0091903D01*
X0021955Y0091757D01*
X0021902Y0091613D01*
X0021846Y0091471D01*
X0021786Y0091330D01*
X0021722Y0091190D01*
X0021655Y0091052D01*
X0021584Y0090916D01*
X0021509Y0090782D01*
X0021432Y0090650D01*
X0021350Y0090520D01*
X0021266Y0090392D01*
X0021178Y0090266D01*
X0021087Y0090143D01*
X0020993Y0090022D01*
X0020895Y0089904D01*
X0020795Y0089788D01*
X0020691Y0089675D01*
X0020585Y0089564D01*
X0020476Y0089456D01*
X0020364Y0089351D01*
X0020250Y0089250D01*
X0020132Y0089151D01*
X0020013Y0089055D01*
X0019891Y0088962D01*
X0019766Y0088873D01*
X0019639Y0088786D01*
X0019510Y0088704D01*
X0019379Y0088624D01*
X0019246Y0088548D01*
X0019111Y0088475D01*
X0018974Y0088406D01*
X0018835Y0088341D01*
X0018695Y0088279D01*
X0018553Y0088221D01*
X0018410Y0088166D01*
X0018265Y0088115D01*
X0018119Y0088068D01*
X0017972Y0088025D01*
X0017824Y0087986D01*
X0017675Y0087950D01*
X0017525Y0087919D01*
X0017374Y0087891D01*
X0017223Y0087867D01*
X0017070Y0087847D01*
X0016918Y0087831D01*
X0016765Y0087819D01*
X0016612Y0087811D01*
X0016459Y0087807D01*
X0016305Y0087807D01*
X0016152Y0087811D01*
X0015999Y0087819D01*
X0015846Y0087831D01*
X0015694Y0087847D01*
X0015541Y0087867D01*
X0015390Y0087891D01*
X0015239Y0087919D01*
X0015089Y0087950D01*
X0014940Y0087986D01*
X0014792Y0088025D01*
X0014645Y0088068D01*
X0014499Y0088115D01*
X0014354Y0088166D01*
X0014211Y0088221D01*
X0014069Y0088279D01*
X0013929Y0088341D01*
X0013790Y0088406D01*
X0013653Y0088475D01*
X0013518Y0088548D01*
X0013385Y0088624D01*
X0013254Y0088704D01*
X0013125Y0088786D01*
X0012998Y0088873D01*
X0012873Y0088962D01*
X0012751Y0089055D01*
X0012632Y0089151D01*
X0012514Y0089250D01*
X0012400Y0089351D01*
X0012288Y0089456D01*
X0012179Y0089564D01*
X0012073Y0089675D01*
X0011969Y0089788D01*
X0011869Y0089904D01*
X0011771Y0090022D01*
X0011677Y0090143D01*
X0011586Y0090266D01*
X0011498Y0090392D01*
X0011414Y0090520D01*
X0011332Y0090650D01*
X0011255Y0090782D01*
X0011180Y0090916D01*
X0011109Y0091052D01*
X0011042Y0091190D01*
X0010978Y0091330D01*
X0010918Y0091471D01*
X0010862Y0091613D01*
X0010809Y0091757D01*
X0010760Y0091903D01*
X0010715Y0092049D01*
X0010674Y0092197D01*
X0010637Y0092345D01*
X0010603Y0092495D01*
X0010573Y0092646D01*
X0010548Y0092797D01*
X0010526Y0092948D01*
X0010508Y0093101D01*
X0010494Y0093253D01*
X0010484Y0093406D01*
X0010478Y0093560D01*
X0010476Y0093713D01*
X0070476Y0210713D02*
X0070478Y0210866D01*
X0070484Y0211020D01*
X0070494Y0211173D01*
X0070508Y0211325D01*
X0070526Y0211478D01*
X0070548Y0211629D01*
X0070573Y0211780D01*
X0070603Y0211931D01*
X0070637Y0212081D01*
X0070674Y0212229D01*
X0070715Y0212377D01*
X0070760Y0212523D01*
X0070809Y0212669D01*
X0070862Y0212813D01*
X0070918Y0212955D01*
X0070978Y0213096D01*
X0071042Y0213236D01*
X0071109Y0213374D01*
X0071180Y0213510D01*
X0071255Y0213644D01*
X0071332Y0213776D01*
X0071414Y0213906D01*
X0071498Y0214034D01*
X0071586Y0214160D01*
X0071677Y0214283D01*
X0071771Y0214404D01*
X0071869Y0214522D01*
X0071969Y0214638D01*
X0072073Y0214751D01*
X0072179Y0214862D01*
X0072288Y0214970D01*
X0072400Y0215075D01*
X0072514Y0215176D01*
X0072632Y0215275D01*
X0072751Y0215371D01*
X0072873Y0215464D01*
X0072998Y0215553D01*
X0073125Y0215640D01*
X0073254Y0215722D01*
X0073385Y0215802D01*
X0073518Y0215878D01*
X0073653Y0215951D01*
X0073790Y0216020D01*
X0073929Y0216085D01*
X0074069Y0216147D01*
X0074211Y0216205D01*
X0074354Y0216260D01*
X0074499Y0216311D01*
X0074645Y0216358D01*
X0074792Y0216401D01*
X0074940Y0216440D01*
X0075089Y0216476D01*
X0075239Y0216507D01*
X0075390Y0216535D01*
X0075541Y0216559D01*
X0075694Y0216579D01*
X0075846Y0216595D01*
X0075999Y0216607D01*
X0076152Y0216615D01*
X0076305Y0216619D01*
X0076459Y0216619D01*
X0076612Y0216615D01*
X0076765Y0216607D01*
X0076918Y0216595D01*
X0077070Y0216579D01*
X0077223Y0216559D01*
X0077374Y0216535D01*
X0077525Y0216507D01*
X0077675Y0216476D01*
X0077824Y0216440D01*
X0077972Y0216401D01*
X0078119Y0216358D01*
X0078265Y0216311D01*
X0078410Y0216260D01*
X0078553Y0216205D01*
X0078695Y0216147D01*
X0078835Y0216085D01*
X0078974Y0216020D01*
X0079111Y0215951D01*
X0079246Y0215878D01*
X0079379Y0215802D01*
X0079510Y0215722D01*
X0079639Y0215640D01*
X0079766Y0215553D01*
X0079891Y0215464D01*
X0080013Y0215371D01*
X0080132Y0215275D01*
X0080250Y0215176D01*
X0080364Y0215075D01*
X0080476Y0214970D01*
X0080585Y0214862D01*
X0080691Y0214751D01*
X0080795Y0214638D01*
X0080895Y0214522D01*
X0080993Y0214404D01*
X0081087Y0214283D01*
X0081178Y0214160D01*
X0081266Y0214034D01*
X0081350Y0213906D01*
X0081432Y0213776D01*
X0081509Y0213644D01*
X0081584Y0213510D01*
X0081655Y0213374D01*
X0081722Y0213236D01*
X0081786Y0213096D01*
X0081846Y0212955D01*
X0081902Y0212813D01*
X0081955Y0212669D01*
X0082004Y0212523D01*
X0082049Y0212377D01*
X0082090Y0212229D01*
X0082127Y0212081D01*
X0082161Y0211931D01*
X0082191Y0211780D01*
X0082216Y0211629D01*
X0082238Y0211478D01*
X0082256Y0211325D01*
X0082270Y0211173D01*
X0082280Y0211020D01*
X0082286Y0210866D01*
X0082288Y0210713D01*
X0082286Y0210560D01*
X0082280Y0210406D01*
X0082270Y0210253D01*
X0082256Y0210101D01*
X0082238Y0209948D01*
X0082216Y0209797D01*
X0082191Y0209646D01*
X0082161Y0209495D01*
X0082127Y0209345D01*
X0082090Y0209197D01*
X0082049Y0209049D01*
X0082004Y0208903D01*
X0081955Y0208757D01*
X0081902Y0208613D01*
X0081846Y0208471D01*
X0081786Y0208330D01*
X0081722Y0208190D01*
X0081655Y0208052D01*
X0081584Y0207916D01*
X0081509Y0207782D01*
X0081432Y0207650D01*
X0081350Y0207520D01*
X0081266Y0207392D01*
X0081178Y0207266D01*
X0081087Y0207143D01*
X0080993Y0207022D01*
X0080895Y0206904D01*
X0080795Y0206788D01*
X0080691Y0206675D01*
X0080585Y0206564D01*
X0080476Y0206456D01*
X0080364Y0206351D01*
X0080250Y0206250D01*
X0080132Y0206151D01*
X0080013Y0206055D01*
X0079891Y0205962D01*
X0079766Y0205873D01*
X0079639Y0205786D01*
X0079510Y0205704D01*
X0079379Y0205624D01*
X0079246Y0205548D01*
X0079111Y0205475D01*
X0078974Y0205406D01*
X0078835Y0205341D01*
X0078695Y0205279D01*
X0078553Y0205221D01*
X0078410Y0205166D01*
X0078265Y0205115D01*
X0078119Y0205068D01*
X0077972Y0205025D01*
X0077824Y0204986D01*
X0077675Y0204950D01*
X0077525Y0204919D01*
X0077374Y0204891D01*
X0077223Y0204867D01*
X0077070Y0204847D01*
X0076918Y0204831D01*
X0076765Y0204819D01*
X0076612Y0204811D01*
X0076459Y0204807D01*
X0076305Y0204807D01*
X0076152Y0204811D01*
X0075999Y0204819D01*
X0075846Y0204831D01*
X0075694Y0204847D01*
X0075541Y0204867D01*
X0075390Y0204891D01*
X0075239Y0204919D01*
X0075089Y0204950D01*
X0074940Y0204986D01*
X0074792Y0205025D01*
X0074645Y0205068D01*
X0074499Y0205115D01*
X0074354Y0205166D01*
X0074211Y0205221D01*
X0074069Y0205279D01*
X0073929Y0205341D01*
X0073790Y0205406D01*
X0073653Y0205475D01*
X0073518Y0205548D01*
X0073385Y0205624D01*
X0073254Y0205704D01*
X0073125Y0205786D01*
X0072998Y0205873D01*
X0072873Y0205962D01*
X0072751Y0206055D01*
X0072632Y0206151D01*
X0072514Y0206250D01*
X0072400Y0206351D01*
X0072288Y0206456D01*
X0072179Y0206564D01*
X0072073Y0206675D01*
X0071969Y0206788D01*
X0071869Y0206904D01*
X0071771Y0207022D01*
X0071677Y0207143D01*
X0071586Y0207266D01*
X0071498Y0207392D01*
X0071414Y0207520D01*
X0071332Y0207650D01*
X0071255Y0207782D01*
X0071180Y0207916D01*
X0071109Y0208052D01*
X0071042Y0208190D01*
X0070978Y0208330D01*
X0070918Y0208471D01*
X0070862Y0208613D01*
X0070809Y0208757D01*
X0070760Y0208903D01*
X0070715Y0209049D01*
X0070674Y0209197D01*
X0070637Y0209345D01*
X0070603Y0209495D01*
X0070573Y0209646D01*
X0070548Y0209797D01*
X0070526Y0209948D01*
X0070508Y0210101D01*
X0070494Y0210253D01*
X0070484Y0210406D01*
X0070478Y0210560D01*
X0070476Y0210713D01*
X0011146Y0253469D02*
X0011148Y0253625D01*
X0011154Y0253781D01*
X0011164Y0253936D01*
X0011178Y0254091D01*
X0011196Y0254246D01*
X0011218Y0254400D01*
X0011243Y0254554D01*
X0011273Y0254707D01*
X0011307Y0254859D01*
X0011344Y0255011D01*
X0011385Y0255161D01*
X0011430Y0255310D01*
X0011479Y0255458D01*
X0011532Y0255605D01*
X0011588Y0255750D01*
X0011648Y0255894D01*
X0011712Y0256036D01*
X0011780Y0256177D01*
X0011851Y0256315D01*
X0011925Y0256452D01*
X0012003Y0256587D01*
X0012084Y0256720D01*
X0012169Y0256851D01*
X0012257Y0256980D01*
X0012348Y0257106D01*
X0012443Y0257230D01*
X0012540Y0257351D01*
X0012641Y0257470D01*
X0012745Y0257587D01*
X0012851Y0257700D01*
X0012961Y0257811D01*
X0013073Y0257919D01*
X0013188Y0258024D01*
X0013306Y0258127D01*
X0013426Y0258226D01*
X0013549Y0258322D01*
X0013674Y0258415D01*
X0013801Y0258504D01*
X0013931Y0258591D01*
X0014063Y0258674D01*
X0014197Y0258753D01*
X0014333Y0258830D01*
X0014471Y0258902D01*
X0014610Y0258972D01*
X0014752Y0259037D01*
X0014895Y0259099D01*
X0015039Y0259157D01*
X0015185Y0259212D01*
X0015333Y0259263D01*
X0015481Y0259310D01*
X0015631Y0259353D01*
X0015782Y0259392D01*
X0015934Y0259428D01*
X0016086Y0259459D01*
X0016240Y0259487D01*
X0016394Y0259511D01*
X0016548Y0259531D01*
X0016703Y0259547D01*
X0016859Y0259559D01*
X0017014Y0259567D01*
X0017170Y0259571D01*
X0017326Y0259571D01*
X0017482Y0259567D01*
X0017637Y0259559D01*
X0017793Y0259547D01*
X0017948Y0259531D01*
X0018102Y0259511D01*
X0018256Y0259487D01*
X0018410Y0259459D01*
X0018562Y0259428D01*
X0018714Y0259392D01*
X0018865Y0259353D01*
X0019015Y0259310D01*
X0019163Y0259263D01*
X0019311Y0259212D01*
X0019457Y0259157D01*
X0019601Y0259099D01*
X0019744Y0259037D01*
X0019886Y0258972D01*
X0020025Y0258902D01*
X0020163Y0258830D01*
X0020299Y0258753D01*
X0020433Y0258674D01*
X0020565Y0258591D01*
X0020695Y0258504D01*
X0020822Y0258415D01*
X0020947Y0258322D01*
X0021070Y0258226D01*
X0021190Y0258127D01*
X0021308Y0258024D01*
X0021423Y0257919D01*
X0021535Y0257811D01*
X0021645Y0257700D01*
X0021751Y0257587D01*
X0021855Y0257470D01*
X0021956Y0257351D01*
X0022053Y0257230D01*
X0022148Y0257106D01*
X0022239Y0256980D01*
X0022327Y0256851D01*
X0022412Y0256720D01*
X0022493Y0256587D01*
X0022571Y0256452D01*
X0022645Y0256315D01*
X0022716Y0256177D01*
X0022784Y0256036D01*
X0022848Y0255894D01*
X0022908Y0255750D01*
X0022964Y0255605D01*
X0023017Y0255458D01*
X0023066Y0255310D01*
X0023111Y0255161D01*
X0023152Y0255011D01*
X0023189Y0254859D01*
X0023223Y0254707D01*
X0023253Y0254554D01*
X0023278Y0254400D01*
X0023300Y0254246D01*
X0023318Y0254091D01*
X0023332Y0253936D01*
X0023342Y0253781D01*
X0023348Y0253625D01*
X0023350Y0253469D01*
X0023348Y0253313D01*
X0023342Y0253157D01*
X0023332Y0253002D01*
X0023318Y0252847D01*
X0023300Y0252692D01*
X0023278Y0252538D01*
X0023253Y0252384D01*
X0023223Y0252231D01*
X0023189Y0252079D01*
X0023152Y0251927D01*
X0023111Y0251777D01*
X0023066Y0251628D01*
X0023017Y0251480D01*
X0022964Y0251333D01*
X0022908Y0251188D01*
X0022848Y0251044D01*
X0022784Y0250902D01*
X0022716Y0250761D01*
X0022645Y0250623D01*
X0022571Y0250486D01*
X0022493Y0250351D01*
X0022412Y0250218D01*
X0022327Y0250087D01*
X0022239Y0249958D01*
X0022148Y0249832D01*
X0022053Y0249708D01*
X0021956Y0249587D01*
X0021855Y0249468D01*
X0021751Y0249351D01*
X0021645Y0249238D01*
X0021535Y0249127D01*
X0021423Y0249019D01*
X0021308Y0248914D01*
X0021190Y0248811D01*
X0021070Y0248712D01*
X0020947Y0248616D01*
X0020822Y0248523D01*
X0020695Y0248434D01*
X0020565Y0248347D01*
X0020433Y0248264D01*
X0020299Y0248185D01*
X0020163Y0248108D01*
X0020025Y0248036D01*
X0019886Y0247966D01*
X0019744Y0247901D01*
X0019601Y0247839D01*
X0019457Y0247781D01*
X0019311Y0247726D01*
X0019163Y0247675D01*
X0019015Y0247628D01*
X0018865Y0247585D01*
X0018714Y0247546D01*
X0018562Y0247510D01*
X0018410Y0247479D01*
X0018256Y0247451D01*
X0018102Y0247427D01*
X0017948Y0247407D01*
X0017793Y0247391D01*
X0017637Y0247379D01*
X0017482Y0247371D01*
X0017326Y0247367D01*
X0017170Y0247367D01*
X0017014Y0247371D01*
X0016859Y0247379D01*
X0016703Y0247391D01*
X0016548Y0247407D01*
X0016394Y0247427D01*
X0016240Y0247451D01*
X0016086Y0247479D01*
X0015934Y0247510D01*
X0015782Y0247546D01*
X0015631Y0247585D01*
X0015481Y0247628D01*
X0015333Y0247675D01*
X0015185Y0247726D01*
X0015039Y0247781D01*
X0014895Y0247839D01*
X0014752Y0247901D01*
X0014610Y0247966D01*
X0014471Y0248036D01*
X0014333Y0248108D01*
X0014197Y0248185D01*
X0014063Y0248264D01*
X0013931Y0248347D01*
X0013801Y0248434D01*
X0013674Y0248523D01*
X0013549Y0248616D01*
X0013426Y0248712D01*
X0013306Y0248811D01*
X0013188Y0248914D01*
X0013073Y0249019D01*
X0012961Y0249127D01*
X0012851Y0249238D01*
X0012745Y0249351D01*
X0012641Y0249468D01*
X0012540Y0249587D01*
X0012443Y0249708D01*
X0012348Y0249832D01*
X0012257Y0249958D01*
X0012169Y0250087D01*
X0012084Y0250218D01*
X0012003Y0250351D01*
X0011925Y0250486D01*
X0011851Y0250623D01*
X0011780Y0250761D01*
X0011712Y0250902D01*
X0011648Y0251044D01*
X0011588Y0251188D01*
X0011532Y0251333D01*
X0011479Y0251480D01*
X0011430Y0251628D01*
X0011385Y0251777D01*
X0011344Y0251927D01*
X0011307Y0252079D01*
X0011273Y0252231D01*
X0011243Y0252384D01*
X0011218Y0252538D01*
X0011196Y0252692D01*
X0011178Y0252847D01*
X0011164Y0253002D01*
X0011154Y0253157D01*
X0011148Y0253313D01*
X0011146Y0253469D01*
X0213902Y0253469D02*
X0213904Y0253625D01*
X0213910Y0253781D01*
X0213920Y0253936D01*
X0213934Y0254091D01*
X0213952Y0254246D01*
X0213974Y0254400D01*
X0213999Y0254554D01*
X0214029Y0254707D01*
X0214063Y0254859D01*
X0214100Y0255011D01*
X0214141Y0255161D01*
X0214186Y0255310D01*
X0214235Y0255458D01*
X0214288Y0255605D01*
X0214344Y0255750D01*
X0214404Y0255894D01*
X0214468Y0256036D01*
X0214536Y0256177D01*
X0214607Y0256315D01*
X0214681Y0256452D01*
X0214759Y0256587D01*
X0214840Y0256720D01*
X0214925Y0256851D01*
X0215013Y0256980D01*
X0215104Y0257106D01*
X0215199Y0257230D01*
X0215296Y0257351D01*
X0215397Y0257470D01*
X0215501Y0257587D01*
X0215607Y0257700D01*
X0215717Y0257811D01*
X0215829Y0257919D01*
X0215944Y0258024D01*
X0216062Y0258127D01*
X0216182Y0258226D01*
X0216305Y0258322D01*
X0216430Y0258415D01*
X0216557Y0258504D01*
X0216687Y0258591D01*
X0216819Y0258674D01*
X0216953Y0258753D01*
X0217089Y0258830D01*
X0217227Y0258902D01*
X0217366Y0258972D01*
X0217508Y0259037D01*
X0217651Y0259099D01*
X0217795Y0259157D01*
X0217941Y0259212D01*
X0218089Y0259263D01*
X0218237Y0259310D01*
X0218387Y0259353D01*
X0218538Y0259392D01*
X0218690Y0259428D01*
X0218842Y0259459D01*
X0218996Y0259487D01*
X0219150Y0259511D01*
X0219304Y0259531D01*
X0219459Y0259547D01*
X0219615Y0259559D01*
X0219770Y0259567D01*
X0219926Y0259571D01*
X0220082Y0259571D01*
X0220238Y0259567D01*
X0220393Y0259559D01*
X0220549Y0259547D01*
X0220704Y0259531D01*
X0220858Y0259511D01*
X0221012Y0259487D01*
X0221166Y0259459D01*
X0221318Y0259428D01*
X0221470Y0259392D01*
X0221621Y0259353D01*
X0221771Y0259310D01*
X0221919Y0259263D01*
X0222067Y0259212D01*
X0222213Y0259157D01*
X0222357Y0259099D01*
X0222500Y0259037D01*
X0222642Y0258972D01*
X0222781Y0258902D01*
X0222919Y0258830D01*
X0223055Y0258753D01*
X0223189Y0258674D01*
X0223321Y0258591D01*
X0223451Y0258504D01*
X0223578Y0258415D01*
X0223703Y0258322D01*
X0223826Y0258226D01*
X0223946Y0258127D01*
X0224064Y0258024D01*
X0224179Y0257919D01*
X0224291Y0257811D01*
X0224401Y0257700D01*
X0224507Y0257587D01*
X0224611Y0257470D01*
X0224712Y0257351D01*
X0224809Y0257230D01*
X0224904Y0257106D01*
X0224995Y0256980D01*
X0225083Y0256851D01*
X0225168Y0256720D01*
X0225249Y0256587D01*
X0225327Y0256452D01*
X0225401Y0256315D01*
X0225472Y0256177D01*
X0225540Y0256036D01*
X0225604Y0255894D01*
X0225664Y0255750D01*
X0225720Y0255605D01*
X0225773Y0255458D01*
X0225822Y0255310D01*
X0225867Y0255161D01*
X0225908Y0255011D01*
X0225945Y0254859D01*
X0225979Y0254707D01*
X0226009Y0254554D01*
X0226034Y0254400D01*
X0226056Y0254246D01*
X0226074Y0254091D01*
X0226088Y0253936D01*
X0226098Y0253781D01*
X0226104Y0253625D01*
X0226106Y0253469D01*
X0226104Y0253313D01*
X0226098Y0253157D01*
X0226088Y0253002D01*
X0226074Y0252847D01*
X0226056Y0252692D01*
X0226034Y0252538D01*
X0226009Y0252384D01*
X0225979Y0252231D01*
X0225945Y0252079D01*
X0225908Y0251927D01*
X0225867Y0251777D01*
X0225822Y0251628D01*
X0225773Y0251480D01*
X0225720Y0251333D01*
X0225664Y0251188D01*
X0225604Y0251044D01*
X0225540Y0250902D01*
X0225472Y0250761D01*
X0225401Y0250623D01*
X0225327Y0250486D01*
X0225249Y0250351D01*
X0225168Y0250218D01*
X0225083Y0250087D01*
X0224995Y0249958D01*
X0224904Y0249832D01*
X0224809Y0249708D01*
X0224712Y0249587D01*
X0224611Y0249468D01*
X0224507Y0249351D01*
X0224401Y0249238D01*
X0224291Y0249127D01*
X0224179Y0249019D01*
X0224064Y0248914D01*
X0223946Y0248811D01*
X0223826Y0248712D01*
X0223703Y0248616D01*
X0223578Y0248523D01*
X0223451Y0248434D01*
X0223321Y0248347D01*
X0223189Y0248264D01*
X0223055Y0248185D01*
X0222919Y0248108D01*
X0222781Y0248036D01*
X0222642Y0247966D01*
X0222500Y0247901D01*
X0222357Y0247839D01*
X0222213Y0247781D01*
X0222067Y0247726D01*
X0221919Y0247675D01*
X0221771Y0247628D01*
X0221621Y0247585D01*
X0221470Y0247546D01*
X0221318Y0247510D01*
X0221166Y0247479D01*
X0221012Y0247451D01*
X0220858Y0247427D01*
X0220704Y0247407D01*
X0220549Y0247391D01*
X0220393Y0247379D01*
X0220238Y0247371D01*
X0220082Y0247367D01*
X0219926Y0247367D01*
X0219770Y0247371D01*
X0219615Y0247379D01*
X0219459Y0247391D01*
X0219304Y0247407D01*
X0219150Y0247427D01*
X0218996Y0247451D01*
X0218842Y0247479D01*
X0218690Y0247510D01*
X0218538Y0247546D01*
X0218387Y0247585D01*
X0218237Y0247628D01*
X0218089Y0247675D01*
X0217941Y0247726D01*
X0217795Y0247781D01*
X0217651Y0247839D01*
X0217508Y0247901D01*
X0217366Y0247966D01*
X0217227Y0248036D01*
X0217089Y0248108D01*
X0216953Y0248185D01*
X0216819Y0248264D01*
X0216687Y0248347D01*
X0216557Y0248434D01*
X0216430Y0248523D01*
X0216305Y0248616D01*
X0216182Y0248712D01*
X0216062Y0248811D01*
X0215944Y0248914D01*
X0215829Y0249019D01*
X0215717Y0249127D01*
X0215607Y0249238D01*
X0215501Y0249351D01*
X0215397Y0249468D01*
X0215296Y0249587D01*
X0215199Y0249708D01*
X0215104Y0249832D01*
X0215013Y0249958D01*
X0214925Y0250087D01*
X0214840Y0250218D01*
X0214759Y0250351D01*
X0214681Y0250486D01*
X0214607Y0250623D01*
X0214536Y0250761D01*
X0214468Y0250902D01*
X0214404Y0251044D01*
X0214344Y0251188D01*
X0214288Y0251333D01*
X0214235Y0251480D01*
X0214186Y0251628D01*
X0214141Y0251777D01*
X0214100Y0251927D01*
X0214063Y0252079D01*
X0214029Y0252231D01*
X0213999Y0252384D01*
X0213974Y0252538D01*
X0213952Y0252692D01*
X0213934Y0252847D01*
X0213920Y0253002D01*
X0213910Y0253157D01*
X0213904Y0253313D01*
X0213902Y0253469D01*
X0213902Y0017248D02*
X0213904Y0017404D01*
X0213910Y0017560D01*
X0213920Y0017715D01*
X0213934Y0017870D01*
X0213952Y0018025D01*
X0213974Y0018179D01*
X0213999Y0018333D01*
X0214029Y0018486D01*
X0214063Y0018638D01*
X0214100Y0018790D01*
X0214141Y0018940D01*
X0214186Y0019089D01*
X0214235Y0019237D01*
X0214288Y0019384D01*
X0214344Y0019529D01*
X0214404Y0019673D01*
X0214468Y0019815D01*
X0214536Y0019956D01*
X0214607Y0020094D01*
X0214681Y0020231D01*
X0214759Y0020366D01*
X0214840Y0020499D01*
X0214925Y0020630D01*
X0215013Y0020759D01*
X0215104Y0020885D01*
X0215199Y0021009D01*
X0215296Y0021130D01*
X0215397Y0021249D01*
X0215501Y0021366D01*
X0215607Y0021479D01*
X0215717Y0021590D01*
X0215829Y0021698D01*
X0215944Y0021803D01*
X0216062Y0021906D01*
X0216182Y0022005D01*
X0216305Y0022101D01*
X0216430Y0022194D01*
X0216557Y0022283D01*
X0216687Y0022370D01*
X0216819Y0022453D01*
X0216953Y0022532D01*
X0217089Y0022609D01*
X0217227Y0022681D01*
X0217366Y0022751D01*
X0217508Y0022816D01*
X0217651Y0022878D01*
X0217795Y0022936D01*
X0217941Y0022991D01*
X0218089Y0023042D01*
X0218237Y0023089D01*
X0218387Y0023132D01*
X0218538Y0023171D01*
X0218690Y0023207D01*
X0218842Y0023238D01*
X0218996Y0023266D01*
X0219150Y0023290D01*
X0219304Y0023310D01*
X0219459Y0023326D01*
X0219615Y0023338D01*
X0219770Y0023346D01*
X0219926Y0023350D01*
X0220082Y0023350D01*
X0220238Y0023346D01*
X0220393Y0023338D01*
X0220549Y0023326D01*
X0220704Y0023310D01*
X0220858Y0023290D01*
X0221012Y0023266D01*
X0221166Y0023238D01*
X0221318Y0023207D01*
X0221470Y0023171D01*
X0221621Y0023132D01*
X0221771Y0023089D01*
X0221919Y0023042D01*
X0222067Y0022991D01*
X0222213Y0022936D01*
X0222357Y0022878D01*
X0222500Y0022816D01*
X0222642Y0022751D01*
X0222781Y0022681D01*
X0222919Y0022609D01*
X0223055Y0022532D01*
X0223189Y0022453D01*
X0223321Y0022370D01*
X0223451Y0022283D01*
X0223578Y0022194D01*
X0223703Y0022101D01*
X0223826Y0022005D01*
X0223946Y0021906D01*
X0224064Y0021803D01*
X0224179Y0021698D01*
X0224291Y0021590D01*
X0224401Y0021479D01*
X0224507Y0021366D01*
X0224611Y0021249D01*
X0224712Y0021130D01*
X0224809Y0021009D01*
X0224904Y0020885D01*
X0224995Y0020759D01*
X0225083Y0020630D01*
X0225168Y0020499D01*
X0225249Y0020366D01*
X0225327Y0020231D01*
X0225401Y0020094D01*
X0225472Y0019956D01*
X0225540Y0019815D01*
X0225604Y0019673D01*
X0225664Y0019529D01*
X0225720Y0019384D01*
X0225773Y0019237D01*
X0225822Y0019089D01*
X0225867Y0018940D01*
X0225908Y0018790D01*
X0225945Y0018638D01*
X0225979Y0018486D01*
X0226009Y0018333D01*
X0226034Y0018179D01*
X0226056Y0018025D01*
X0226074Y0017870D01*
X0226088Y0017715D01*
X0226098Y0017560D01*
X0226104Y0017404D01*
X0226106Y0017248D01*
X0226104Y0017092D01*
X0226098Y0016936D01*
X0226088Y0016781D01*
X0226074Y0016626D01*
X0226056Y0016471D01*
X0226034Y0016317D01*
X0226009Y0016163D01*
X0225979Y0016010D01*
X0225945Y0015858D01*
X0225908Y0015706D01*
X0225867Y0015556D01*
X0225822Y0015407D01*
X0225773Y0015259D01*
X0225720Y0015112D01*
X0225664Y0014967D01*
X0225604Y0014823D01*
X0225540Y0014681D01*
X0225472Y0014540D01*
X0225401Y0014402D01*
X0225327Y0014265D01*
X0225249Y0014130D01*
X0225168Y0013997D01*
X0225083Y0013866D01*
X0224995Y0013737D01*
X0224904Y0013611D01*
X0224809Y0013487D01*
X0224712Y0013366D01*
X0224611Y0013247D01*
X0224507Y0013130D01*
X0224401Y0013017D01*
X0224291Y0012906D01*
X0224179Y0012798D01*
X0224064Y0012693D01*
X0223946Y0012590D01*
X0223826Y0012491D01*
X0223703Y0012395D01*
X0223578Y0012302D01*
X0223451Y0012213D01*
X0223321Y0012126D01*
X0223189Y0012043D01*
X0223055Y0011964D01*
X0222919Y0011887D01*
X0222781Y0011815D01*
X0222642Y0011745D01*
X0222500Y0011680D01*
X0222357Y0011618D01*
X0222213Y0011560D01*
X0222067Y0011505D01*
X0221919Y0011454D01*
X0221771Y0011407D01*
X0221621Y0011364D01*
X0221470Y0011325D01*
X0221318Y0011289D01*
X0221166Y0011258D01*
X0221012Y0011230D01*
X0220858Y0011206D01*
X0220704Y0011186D01*
X0220549Y0011170D01*
X0220393Y0011158D01*
X0220238Y0011150D01*
X0220082Y0011146D01*
X0219926Y0011146D01*
X0219770Y0011150D01*
X0219615Y0011158D01*
X0219459Y0011170D01*
X0219304Y0011186D01*
X0219150Y0011206D01*
X0218996Y0011230D01*
X0218842Y0011258D01*
X0218690Y0011289D01*
X0218538Y0011325D01*
X0218387Y0011364D01*
X0218237Y0011407D01*
X0218089Y0011454D01*
X0217941Y0011505D01*
X0217795Y0011560D01*
X0217651Y0011618D01*
X0217508Y0011680D01*
X0217366Y0011745D01*
X0217227Y0011815D01*
X0217089Y0011887D01*
X0216953Y0011964D01*
X0216819Y0012043D01*
X0216687Y0012126D01*
X0216557Y0012213D01*
X0216430Y0012302D01*
X0216305Y0012395D01*
X0216182Y0012491D01*
X0216062Y0012590D01*
X0215944Y0012693D01*
X0215829Y0012798D01*
X0215717Y0012906D01*
X0215607Y0013017D01*
X0215501Y0013130D01*
X0215397Y0013247D01*
X0215296Y0013366D01*
X0215199Y0013487D01*
X0215104Y0013611D01*
X0215013Y0013737D01*
X0214925Y0013866D01*
X0214840Y0013997D01*
X0214759Y0014130D01*
X0214681Y0014265D01*
X0214607Y0014402D01*
X0214536Y0014540D01*
X0214468Y0014681D01*
X0214404Y0014823D01*
X0214344Y0014967D01*
X0214288Y0015112D01*
X0214235Y0015259D01*
X0214186Y0015407D01*
X0214141Y0015556D01*
X0214100Y0015706D01*
X0214063Y0015858D01*
X0214029Y0016010D01*
X0213999Y0016163D01*
X0213974Y0016317D01*
X0213952Y0016471D01*
X0213934Y0016626D01*
X0213920Y0016781D01*
X0213910Y0016936D01*
X0213904Y0017092D01*
X0213902Y0017248D01*
D11*
X0107799Y0041264D03*
X0107799Y0053075D03*
X0095988Y0053075D03*
X0095988Y0041264D03*
X0084177Y0041264D03*
X0084177Y0053075D03*
X0072366Y0053075D03*
X0072366Y0041264D03*
X0060555Y0041264D03*
X0060555Y0053075D03*
D12*
X0080382Y0072713D03*
X0012382Y0072713D03*
X0012382Y0228713D03*
X0080382Y0228713D03*
D13*
X0139610Y0130004D03*
X0139610Y0120004D03*
X0139610Y0110004D03*
X0139610Y0100004D03*
X0139610Y0090004D03*
X0139610Y0080004D03*
X0139610Y0070004D03*
X0139610Y0060004D03*
X0139610Y0050004D03*
X0139610Y0040004D03*
X0139610Y0030004D03*
X0139610Y0020004D03*
X0199610Y0020004D03*
X0199610Y0030004D03*
X0199610Y0040004D03*
X0199610Y0050004D03*
X0199610Y0060004D03*
X0199610Y0070004D03*
X0199610Y0080004D03*
X0199610Y0090004D03*
X0199610Y0100004D03*
X0199610Y0110004D03*
X0199610Y0120004D03*
X0199610Y0130004D03*
D14*
X0177878Y0121185D03*
X0162130Y0114886D03*
X0149531Y0120201D03*
X0155831Y0128075D03*
X0164492Y0147563D03*
X0164492Y0164886D03*
X0162327Y0173154D03*
X0143823Y0170988D03*
X0135161Y0202681D03*
X0112327Y0213114D03*
X0178075Y0215673D03*
X0186539Y0184374D03*
X0184138Y0094531D03*
X0130240Y0078665D03*
X0124335Y0076500D03*
X0116854Y0083193D03*
D15*
X0130240Y0078665D02*
X0130240Y0059374D01*
X0139610Y0050004D01*
X0139610Y0020004D02*
X0131343Y0011736D01*
X0053862Y0011736D01*
X0035358Y0030240D01*
X0035358Y0205736D01*
X0012382Y0228713D01*
X0080382Y0181169D02*
X0080382Y0072713D01*
X0088161Y0072713D01*
X0107799Y0053075D01*
X0177878Y0121185D02*
X0177878Y0215476D01*
X0178075Y0215673D01*
X0164492Y0164886D02*
X0164492Y0147563D01*
X0112327Y0213114D02*
X0080382Y0181169D01*
D16*
X0135161Y0202681D02*
X0135161Y0145594D01*
X0146579Y0134177D01*
X0146579Y0123154D01*
X0149531Y0120201D01*
X0151106Y0125909D02*
X0162130Y0114886D01*
X0155831Y0128075D02*
X0155831Y0166657D01*
X0162327Y0173154D01*
X0151106Y0163705D02*
X0143823Y0170988D01*
X0151106Y0163705D02*
X0151106Y0125909D01*
X0184138Y0094531D02*
X0174571Y0084965D01*
X0118626Y0084965D01*
X0116854Y0083193D01*
X0124335Y0076500D02*
X0124335Y0057209D01*
X0114295Y0047169D01*
X0078272Y0047169D01*
X0072366Y0053075D01*
X0072366Y0041264D02*
X0079846Y0033783D01*
X0112130Y0033783D01*
X0113705Y0035358D01*
X0177287Y0035358D01*
X0190476Y0048547D01*
X0190476Y0180437D01*
X0186539Y0184374D01*
D17*
X0183900Y0187223D02*
X0181578Y0187223D01*
X0181578Y0186225D02*
X0183105Y0186225D01*
X0183249Y0186572D02*
X0182658Y0185146D01*
X0182658Y0183602D01*
X0183249Y0182176D01*
X0184341Y0181084D01*
X0185767Y0180493D01*
X0186319Y0180493D01*
X0187576Y0179236D01*
X0187576Y0096372D01*
X0187428Y0096730D01*
X0186336Y0097822D01*
X0184910Y0098413D01*
X0183366Y0098413D01*
X0181939Y0097822D01*
X0180848Y0096730D01*
X0180257Y0095303D01*
X0180257Y0094752D01*
X0173370Y0087865D01*
X0144210Y0087865D01*
X0144679Y0088996D01*
X0144679Y0091012D01*
X0143907Y0092875D01*
X0142481Y0094301D01*
X0140784Y0095004D01*
X0142481Y0095707D01*
X0143907Y0097133D01*
X0144679Y0098996D01*
X0144679Y0101012D01*
X0143907Y0102875D01*
X0142481Y0104301D01*
X0140784Y0105004D01*
X0142481Y0105707D01*
X0143907Y0107133D01*
X0144679Y0108996D01*
X0144679Y0111012D01*
X0143907Y0112875D01*
X0142481Y0114301D01*
X0140784Y0115004D01*
X0142481Y0115707D01*
X0143907Y0117133D01*
X0144679Y0118996D01*
X0144679Y0120952D01*
X0145650Y0119981D01*
X0145650Y0119429D01*
X0146241Y0118002D01*
X0147333Y0116911D01*
X0148759Y0116320D01*
X0150303Y0116320D01*
X0151730Y0116911D01*
X0152822Y0118002D01*
X0153413Y0119429D01*
X0153413Y0119502D01*
X0158249Y0114666D01*
X0158249Y0114114D01*
X0158840Y0112687D01*
X0159931Y0111596D01*
X0161358Y0111005D01*
X0162902Y0111005D01*
X0164328Y0111596D01*
X0165420Y0112687D01*
X0166011Y0114114D01*
X0166011Y0115658D01*
X0165420Y0117084D01*
X0164328Y0118176D01*
X0162902Y0118767D01*
X0162350Y0118767D01*
X0156829Y0124288D01*
X0158029Y0124785D01*
X0159121Y0125876D01*
X0159712Y0127303D01*
X0159712Y0128847D01*
X0159121Y0130273D01*
X0158731Y0130664D01*
X0158731Y0165456D01*
X0162547Y0169272D01*
X0163099Y0169272D01*
X0164525Y0169863D01*
X0165617Y0170955D01*
X0166208Y0172382D01*
X0166208Y0173926D01*
X0165617Y0175352D01*
X0164525Y0176444D01*
X0163099Y0177035D01*
X0161555Y0177035D01*
X0160128Y0176444D01*
X0159037Y0175352D01*
X0158446Y0173926D01*
X0158446Y0173374D01*
X0154188Y0169116D01*
X0153372Y0168300D01*
X0152931Y0167234D01*
X0152931Y0165982D01*
X0147704Y0171208D01*
X0147704Y0171760D01*
X0147113Y0173187D01*
X0146021Y0174278D01*
X0144595Y0174869D01*
X0143051Y0174869D01*
X0141624Y0174278D01*
X0140533Y0173187D01*
X0139942Y0171760D01*
X0139942Y0170216D01*
X0140533Y0168790D01*
X0141624Y0167698D01*
X0143051Y0167107D01*
X0143603Y0167107D01*
X0148206Y0162503D01*
X0148206Y0136651D01*
X0138061Y0146796D01*
X0138061Y0200092D01*
X0138452Y0200483D01*
X0139043Y0201909D01*
X0139043Y0203453D01*
X0138452Y0204880D01*
X0137360Y0205971D01*
X0135933Y0206562D01*
X0134389Y0206562D01*
X0132963Y0205971D01*
X0131871Y0204880D01*
X0131280Y0203453D01*
X0131280Y0201909D01*
X0131871Y0200483D01*
X0132261Y0200092D01*
X0132261Y0145018D01*
X0132703Y0143952D01*
X0142264Y0134391D01*
X0140618Y0135072D01*
X0138602Y0135072D01*
X0136739Y0134301D01*
X0135313Y0132875D01*
X0134542Y0131012D01*
X0134542Y0128996D01*
X0135313Y0127133D01*
X0136739Y0125707D01*
X0138437Y0125004D01*
X0136739Y0124301D01*
X0135313Y0122875D01*
X0134542Y0121012D01*
X0134542Y0118996D01*
X0135313Y0117133D01*
X0136739Y0115707D01*
X0138437Y0115004D01*
X0136739Y0114301D01*
X0135313Y0112875D01*
X0134542Y0111012D01*
X0134542Y0108996D01*
X0135313Y0107133D01*
X0136739Y0105707D01*
X0138437Y0105004D01*
X0136739Y0104301D01*
X0135313Y0102875D01*
X0134542Y0101012D01*
X0134542Y0098996D01*
X0135313Y0097133D01*
X0136739Y0095707D01*
X0138437Y0095004D01*
X0136739Y0094301D01*
X0135313Y0092875D01*
X0134542Y0091012D01*
X0134542Y0088996D01*
X0135010Y0087865D01*
X0118049Y0087865D01*
X0116983Y0087423D01*
X0116634Y0087074D01*
X0116082Y0087074D01*
X0114656Y0086483D01*
X0113564Y0085391D01*
X0112973Y0083965D01*
X0112973Y0082421D01*
X0113564Y0080994D01*
X0114656Y0079903D01*
X0116082Y0079312D01*
X0117626Y0079312D01*
X0119053Y0079903D01*
X0120145Y0080994D01*
X0120588Y0082065D01*
X0128305Y0082065D01*
X0128042Y0081956D01*
X0126950Y0080864D01*
X0126509Y0079800D01*
X0125107Y0080381D01*
X0123563Y0080381D01*
X0122136Y0079790D01*
X0121044Y0078698D01*
X0120454Y0077272D01*
X0120454Y0075728D01*
X0121044Y0074302D01*
X0121435Y0073911D01*
X0121435Y0058410D01*
X0113094Y0050069D01*
X0112616Y0050069D01*
X0113399Y0051961D01*
X0113399Y0054189D01*
X0112547Y0056247D01*
X0110971Y0057822D01*
X0108913Y0058675D01*
X0107432Y0058675D01*
X0090257Y0075849D01*
X0088897Y0076413D01*
X0087403Y0076413D01*
X0087403Y0078504D01*
X0086173Y0079734D01*
X0084082Y0079734D01*
X0084082Y0179637D01*
X0114088Y0209643D01*
X0114525Y0209824D01*
X0115617Y0210916D01*
X0116208Y0212342D01*
X0116208Y0213886D01*
X0115617Y0215313D01*
X0114525Y0216404D01*
X0113099Y0216995D01*
X0111555Y0216995D01*
X0110128Y0216404D01*
X0109037Y0215313D01*
X0108855Y0214875D01*
X0078286Y0184306D01*
X0077245Y0183265D01*
X0076682Y0181905D01*
X0076682Y0079734D01*
X0074591Y0079734D01*
X0073361Y0078504D01*
X0073361Y0066921D01*
X0074591Y0065691D01*
X0086173Y0065691D01*
X0087403Y0066921D01*
X0087403Y0068238D01*
X0096967Y0058675D01*
X0094874Y0058675D01*
X0092816Y0057822D01*
X0091241Y0056247D01*
X0090388Y0054189D01*
X0090388Y0051961D01*
X0091172Y0050069D01*
X0088994Y0050069D01*
X0089777Y0051961D01*
X0089777Y0054189D01*
X0088925Y0056247D01*
X0087349Y0057822D01*
X0085291Y0058675D01*
X0083063Y0058675D01*
X0081005Y0057822D01*
X0079430Y0056247D01*
X0078577Y0054189D01*
X0078577Y0051961D01*
X0079281Y0050261D01*
X0077853Y0051689D01*
X0077966Y0051961D01*
X0077966Y0054189D01*
X0077114Y0056247D01*
X0075538Y0057822D01*
X0073480Y0058675D01*
X0071252Y0058675D01*
X0069194Y0057822D01*
X0067619Y0056247D01*
X0066766Y0054189D01*
X0066766Y0051961D01*
X0067619Y0049903D01*
X0069194Y0048327D01*
X0071252Y0047475D01*
X0073480Y0047475D01*
X0073752Y0047588D01*
X0075180Y0046160D01*
X0073480Y0046864D01*
X0071252Y0046864D01*
X0069194Y0046011D01*
X0067619Y0044436D01*
X0065302Y0044436D01*
X0065303Y0044436D02*
X0063727Y0046011D01*
X0061669Y0046864D01*
X0059441Y0046864D01*
X0057383Y0046011D01*
X0055808Y0044436D01*
X0039058Y0044436D01*
X0039058Y0045434D02*
X0056806Y0045434D01*
X0055808Y0044436D02*
X0054955Y0042378D01*
X0054955Y0040150D01*
X0055808Y0038092D01*
X0057383Y0036516D01*
X0059441Y0035664D01*
X0061669Y0035664D01*
X0063727Y0036516D01*
X0065303Y0038092D01*
X0066155Y0040150D01*
X0066155Y0042378D01*
X0065303Y0044436D01*
X0065716Y0043437D02*
X0067205Y0043437D01*
X0066792Y0042439D02*
X0066130Y0042439D01*
X0066766Y0042378D02*
X0066766Y0040150D01*
X0067619Y0038092D01*
X0069194Y0036516D01*
X0071252Y0035664D01*
X0073480Y0035664D01*
X0073752Y0035777D01*
X0078204Y0031325D01*
X0079270Y0030883D01*
X0094601Y0030883D01*
X0092509Y0028791D01*
X0091290Y0025848D01*
X0091290Y0022663D01*
X0092509Y0019721D01*
X0094761Y0017469D01*
X0097703Y0016250D01*
X0100888Y0016250D01*
X0103830Y0017469D01*
X0106082Y0019721D01*
X0107301Y0022663D01*
X0107301Y0025848D01*
X0106082Y0028791D01*
X0103989Y0030883D01*
X0112707Y0030883D01*
X0113773Y0031325D01*
X0114906Y0032458D01*
X0135870Y0032458D01*
X0135788Y0032346D01*
X0135469Y0031719D01*
X0135252Y0031050D01*
X0135163Y0030488D01*
X0139126Y0030488D01*
X0139126Y0029520D01*
X0135163Y0029520D01*
X0135252Y0028958D01*
X0135469Y0028289D01*
X0135788Y0027662D01*
X0136202Y0027093D01*
X0136699Y0026596D01*
X0137268Y0026182D01*
X0137895Y0025863D01*
X0138564Y0025645D01*
X0139126Y0025556D01*
X0139126Y0029520D01*
X0140094Y0029520D01*
X0140094Y0025556D01*
X0140657Y0025645D01*
X0141326Y0025863D01*
X0141952Y0026182D01*
X0142521Y0026596D01*
X0143019Y0027093D01*
X0143432Y0027662D01*
X0143751Y0028289D01*
X0143969Y0028958D01*
X0144058Y0029520D01*
X0140095Y0029520D01*
X0140095Y0030488D01*
X0144058Y0030488D01*
X0143969Y0031050D01*
X0143751Y0031719D01*
X0143432Y0032346D01*
X0143350Y0032458D01*
X0177864Y0032458D01*
X0178930Y0032900D01*
X0192119Y0046089D01*
X0192935Y0046905D01*
X0193376Y0047970D01*
X0193376Y0181014D01*
X0192935Y0182080D01*
X0190420Y0184594D01*
X0190420Y0185146D01*
X0189830Y0186572D01*
X0188738Y0187664D01*
X0187311Y0188255D01*
X0185767Y0188255D01*
X0184341Y0187664D01*
X0183249Y0186572D01*
X0182691Y0185226D02*
X0181578Y0185226D01*
X0181578Y0184228D02*
X0182658Y0184228D01*
X0182813Y0183229D02*
X0181578Y0183229D01*
X0181578Y0182231D02*
X0183226Y0182231D01*
X0184193Y0181232D02*
X0181578Y0181232D01*
X0181578Y0180234D02*
X0186579Y0180234D01*
X0187576Y0179235D02*
X0181578Y0179235D01*
X0181578Y0178237D02*
X0187576Y0178237D01*
X0187576Y0177238D02*
X0181578Y0177238D01*
X0181578Y0176239D02*
X0187576Y0176239D01*
X0187576Y0175241D02*
X0181578Y0175241D01*
X0181578Y0174242D02*
X0187576Y0174242D01*
X0187576Y0173244D02*
X0181578Y0173244D01*
X0181578Y0172245D02*
X0187576Y0172245D01*
X0187576Y0171247D02*
X0181578Y0171247D01*
X0181578Y0170248D02*
X0187576Y0170248D01*
X0187576Y0169250D02*
X0181578Y0169250D01*
X0181578Y0168251D02*
X0187576Y0168251D01*
X0187576Y0167253D02*
X0181578Y0167253D01*
X0181578Y0166254D02*
X0187576Y0166254D01*
X0187576Y0165256D02*
X0181578Y0165256D01*
X0181578Y0164257D02*
X0187576Y0164257D01*
X0187576Y0163259D02*
X0181578Y0163259D01*
X0181578Y0162260D02*
X0187576Y0162260D01*
X0187576Y0161262D02*
X0181578Y0161262D01*
X0181578Y0160263D02*
X0187576Y0160263D01*
X0187576Y0159265D02*
X0181578Y0159265D01*
X0181578Y0158266D02*
X0187576Y0158266D01*
X0187576Y0157268D02*
X0181578Y0157268D01*
X0181578Y0156269D02*
X0187576Y0156269D01*
X0187576Y0155271D02*
X0181578Y0155271D01*
X0181578Y0154272D02*
X0187576Y0154272D01*
X0187576Y0153274D02*
X0181578Y0153274D01*
X0181578Y0152275D02*
X0187576Y0152275D01*
X0187576Y0151277D02*
X0181578Y0151277D01*
X0181578Y0150278D02*
X0187576Y0150278D01*
X0187576Y0149280D02*
X0181578Y0149280D01*
X0181578Y0148281D02*
X0187576Y0148281D01*
X0187576Y0147283D02*
X0181578Y0147283D01*
X0181578Y0146284D02*
X0187576Y0146284D01*
X0187576Y0145286D02*
X0181578Y0145286D01*
X0181578Y0144287D02*
X0187576Y0144287D01*
X0187576Y0143289D02*
X0181578Y0143289D01*
X0181578Y0142290D02*
X0187576Y0142290D01*
X0187576Y0141292D02*
X0181578Y0141292D01*
X0181578Y0140293D02*
X0187576Y0140293D01*
X0187576Y0139295D02*
X0181578Y0139295D01*
X0181578Y0138296D02*
X0187576Y0138296D01*
X0187576Y0137298D02*
X0181578Y0137298D01*
X0181578Y0136299D02*
X0187576Y0136299D01*
X0187576Y0135301D02*
X0181578Y0135301D01*
X0181578Y0134302D02*
X0187576Y0134302D01*
X0187576Y0133303D02*
X0181578Y0133303D01*
X0181578Y0132305D02*
X0187576Y0132305D01*
X0187576Y0131306D02*
X0181578Y0131306D01*
X0181578Y0130308D02*
X0187576Y0130308D01*
X0187576Y0129309D02*
X0181578Y0129309D01*
X0181578Y0128311D02*
X0187576Y0128311D01*
X0187576Y0127312D02*
X0181578Y0127312D01*
X0181578Y0126314D02*
X0187576Y0126314D01*
X0187576Y0125315D02*
X0181578Y0125315D01*
X0181578Y0124317D02*
X0187576Y0124317D01*
X0187576Y0123318D02*
X0181578Y0123318D01*
X0181578Y0122394D02*
X0181578Y0213989D01*
X0181956Y0214901D01*
X0181956Y0216445D01*
X0181365Y0217872D01*
X0180273Y0218963D01*
X0178847Y0219554D01*
X0177303Y0219554D01*
X0175876Y0218963D01*
X0174785Y0217872D01*
X0174194Y0216445D01*
X0174194Y0216250D01*
X0174178Y0216212D01*
X0174178Y0122394D01*
X0173997Y0121957D01*
X0173997Y0120413D01*
X0174588Y0118987D01*
X0175679Y0117895D01*
X0177106Y0117304D01*
X0178650Y0117304D01*
X0180076Y0117895D01*
X0181168Y0118987D01*
X0181759Y0120413D01*
X0181759Y0121957D01*
X0181578Y0122394D01*
X0181609Y0122320D02*
X0187576Y0122320D01*
X0187576Y0121321D02*
X0181759Y0121321D01*
X0181722Y0120323D02*
X0187576Y0120323D01*
X0187576Y0119324D02*
X0181308Y0119324D01*
X0180507Y0118326D02*
X0187576Y0118326D01*
X0187576Y0117327D02*
X0178706Y0117327D01*
X0177049Y0117327D02*
X0165177Y0117327D01*
X0165733Y0116329D02*
X0187576Y0116329D01*
X0187576Y0115330D02*
X0166011Y0115330D01*
X0166011Y0114332D02*
X0187576Y0114332D01*
X0187576Y0113333D02*
X0165688Y0113333D01*
X0165068Y0112335D02*
X0187576Y0112335D01*
X0187576Y0111336D02*
X0163702Y0111336D01*
X0160558Y0111336D02*
X0144544Y0111336D01*
X0144679Y0110338D02*
X0187576Y0110338D01*
X0187576Y0109339D02*
X0144679Y0109339D01*
X0144407Y0108341D02*
X0187576Y0108341D01*
X0187576Y0107342D02*
X0143994Y0107342D01*
X0143118Y0106344D02*
X0187576Y0106344D01*
X0187576Y0105345D02*
X0141608Y0105345D01*
X0142371Y0104347D02*
X0187576Y0104347D01*
X0187576Y0103348D02*
X0143434Y0103348D01*
X0144125Y0102350D02*
X0187576Y0102350D01*
X0187576Y0101351D02*
X0144538Y0101351D01*
X0144679Y0100353D02*
X0187576Y0100353D01*
X0187576Y0099354D02*
X0144679Y0099354D01*
X0144414Y0098356D02*
X0183228Y0098356D01*
X0185047Y0098356D02*
X0187576Y0098356D01*
X0187576Y0097357D02*
X0186801Y0097357D01*
X0181475Y0097357D02*
X0144000Y0097357D01*
X0143133Y0096359D02*
X0180694Y0096359D01*
X0180280Y0095360D02*
X0141644Y0095360D01*
X0142335Y0094362D02*
X0179867Y0094362D01*
X0178868Y0093363D02*
X0143419Y0093363D01*
X0144119Y0092365D02*
X0177870Y0092365D01*
X0176871Y0091366D02*
X0144532Y0091366D01*
X0144679Y0090368D02*
X0175873Y0090368D01*
X0174874Y0089369D02*
X0144679Y0089369D01*
X0144420Y0088370D02*
X0173876Y0088370D01*
X0193376Y0088370D02*
X0194801Y0088370D01*
X0194542Y0088996D02*
X0195313Y0087133D01*
X0196739Y0085707D01*
X0198437Y0085004D01*
X0196739Y0084301D01*
X0195313Y0082875D01*
X0194542Y0081012D01*
X0194542Y0078996D01*
X0195313Y0077133D01*
X0196739Y0075707D01*
X0198437Y0075004D01*
X0196739Y0074301D01*
X0195313Y0072875D01*
X0194542Y0071012D01*
X0194542Y0068996D01*
X0195313Y0067133D01*
X0196739Y0065707D01*
X0198437Y0065004D01*
X0196739Y0064301D01*
X0195313Y0062875D01*
X0194542Y0061012D01*
X0194542Y0058996D01*
X0195313Y0057133D01*
X0196739Y0055707D01*
X0198437Y0055004D01*
X0196739Y0054301D01*
X0195313Y0052875D01*
X0194542Y0051012D01*
X0194542Y0048996D01*
X0195313Y0047133D01*
X0196739Y0045707D01*
X0198437Y0045004D01*
X0196739Y0044301D01*
X0195313Y0042875D01*
X0194542Y0041012D01*
X0194542Y0038996D01*
X0195313Y0037133D01*
X0196739Y0035707D01*
X0198437Y0035004D01*
X0196739Y0034301D01*
X0195313Y0032875D01*
X0194542Y0031012D01*
X0194542Y0028996D01*
X0195313Y0027133D01*
X0196739Y0025707D01*
X0198437Y0025004D01*
X0196739Y0024301D01*
X0195313Y0022875D01*
X0194542Y0021012D01*
X0194542Y0018996D01*
X0195313Y0017133D01*
X0196739Y0015707D01*
X0198602Y0014935D01*
X0200618Y0014935D01*
X0202481Y0015707D01*
X0203907Y0017133D01*
X0204679Y0018996D01*
X0204679Y0021012D01*
X0203907Y0022875D01*
X0202481Y0024301D01*
X0200784Y0025004D01*
X0202481Y0025707D01*
X0203907Y0027133D01*
X0204679Y0028996D01*
X0204679Y0031012D01*
X0203907Y0032875D01*
X0202481Y0034301D01*
X0200784Y0035004D01*
X0202481Y0035707D01*
X0203907Y0037133D01*
X0204679Y0038996D01*
X0204679Y0041012D01*
X0203907Y0042875D01*
X0202481Y0044301D01*
X0200784Y0045004D01*
X0202481Y0045707D01*
X0203907Y0047133D01*
X0204679Y0048996D01*
X0204679Y0051012D01*
X0203907Y0052875D01*
X0202481Y0054301D01*
X0200784Y0055004D01*
X0202481Y0055707D01*
X0203907Y0057133D01*
X0204679Y0058996D01*
X0204679Y0061012D01*
X0203907Y0062875D01*
X0202481Y0064301D01*
X0200784Y0065004D01*
X0202481Y0065707D01*
X0203907Y0067133D01*
X0204679Y0068996D01*
X0204679Y0071012D01*
X0203907Y0072875D01*
X0202481Y0074301D01*
X0200784Y0075004D01*
X0202481Y0075707D01*
X0203907Y0077133D01*
X0204679Y0078996D01*
X0204679Y0081012D01*
X0203907Y0082875D01*
X0202481Y0084301D01*
X0200784Y0085004D01*
X0202481Y0085707D01*
X0203907Y0087133D01*
X0204679Y0088996D01*
X0204679Y0091012D01*
X0203907Y0092875D01*
X0202481Y0094301D01*
X0200784Y0095004D01*
X0202481Y0095707D01*
X0203907Y0097133D01*
X0204679Y0098996D01*
X0204679Y0101012D01*
X0203907Y0102875D01*
X0202481Y0104301D01*
X0200784Y0105004D01*
X0202481Y0105707D01*
X0203907Y0107133D01*
X0204679Y0108996D01*
X0204679Y0111012D01*
X0203907Y0112875D01*
X0202481Y0114301D01*
X0200784Y0115004D01*
X0202481Y0115707D01*
X0203907Y0117133D01*
X0204679Y0118996D01*
X0204679Y0121012D01*
X0203907Y0122875D01*
X0202481Y0124301D01*
X0200784Y0125004D01*
X0202481Y0125707D01*
X0203907Y0127133D01*
X0204679Y0128996D01*
X0204679Y0131012D01*
X0203907Y0132875D01*
X0202481Y0134301D01*
X0200618Y0135072D01*
X0198602Y0135072D01*
X0196739Y0134301D01*
X0195313Y0132875D01*
X0194542Y0131012D01*
X0194542Y0128996D01*
X0195313Y0127133D01*
X0196739Y0125707D01*
X0198437Y0125004D01*
X0196739Y0124301D01*
X0195313Y0122875D01*
X0194542Y0121012D01*
X0194542Y0118996D01*
X0195313Y0117133D01*
X0196739Y0115707D01*
X0198437Y0115004D01*
X0196739Y0114301D01*
X0195313Y0112875D01*
X0194542Y0111012D01*
X0194542Y0108996D01*
X0195313Y0107133D01*
X0196739Y0105707D01*
X0198437Y0105004D01*
X0196739Y0104301D01*
X0195313Y0102875D01*
X0194542Y0101012D01*
X0194542Y0098996D01*
X0195313Y0097133D01*
X0196739Y0095707D01*
X0198437Y0095004D01*
X0196739Y0094301D01*
X0195313Y0092875D01*
X0194542Y0091012D01*
X0194542Y0088996D01*
X0194542Y0089369D02*
X0193376Y0089369D01*
X0193376Y0090368D02*
X0194542Y0090368D01*
X0194688Y0091366D02*
X0193376Y0091366D01*
X0193376Y0092365D02*
X0195102Y0092365D01*
X0195801Y0093363D02*
X0193376Y0093363D01*
X0193376Y0094362D02*
X0196886Y0094362D01*
X0197577Y0095360D02*
X0193376Y0095360D01*
X0193376Y0096359D02*
X0196088Y0096359D01*
X0195220Y0097357D02*
X0193376Y0097357D01*
X0193376Y0098356D02*
X0194807Y0098356D01*
X0194542Y0099354D02*
X0193376Y0099354D01*
X0193376Y0100353D02*
X0194542Y0100353D01*
X0194682Y0101351D02*
X0193376Y0101351D01*
X0193376Y0102350D02*
X0195096Y0102350D01*
X0195787Y0103348D02*
X0193376Y0103348D01*
X0193376Y0104347D02*
X0196850Y0104347D01*
X0197613Y0105345D02*
X0193376Y0105345D01*
X0193376Y0106344D02*
X0196103Y0106344D01*
X0195227Y0107342D02*
X0193376Y0107342D01*
X0193376Y0108341D02*
X0194813Y0108341D01*
X0194542Y0109339D02*
X0193376Y0109339D01*
X0193376Y0110338D02*
X0194542Y0110338D01*
X0194676Y0111336D02*
X0193376Y0111336D01*
X0193376Y0112335D02*
X0195090Y0112335D01*
X0195772Y0113333D02*
X0193376Y0113333D01*
X0193376Y0114332D02*
X0196814Y0114332D01*
X0197649Y0115330D02*
X0193376Y0115330D01*
X0193376Y0116329D02*
X0196117Y0116329D01*
X0195233Y0117327D02*
X0193376Y0117327D01*
X0193376Y0118326D02*
X0194819Y0118326D01*
X0194542Y0119324D02*
X0193376Y0119324D01*
X0193376Y0120323D02*
X0194542Y0120323D01*
X0194670Y0121321D02*
X0193376Y0121321D01*
X0193376Y0122320D02*
X0195083Y0122320D01*
X0195757Y0123318D02*
X0193376Y0123318D01*
X0193376Y0124317D02*
X0196778Y0124317D01*
X0197685Y0125315D02*
X0193376Y0125315D01*
X0193376Y0126314D02*
X0196132Y0126314D01*
X0195239Y0127312D02*
X0193376Y0127312D01*
X0193376Y0128311D02*
X0194825Y0128311D01*
X0194542Y0129309D02*
X0193376Y0129309D01*
X0193376Y0130308D02*
X0194542Y0130308D01*
X0194664Y0131306D02*
X0193376Y0131306D01*
X0193376Y0132305D02*
X0195077Y0132305D01*
X0195742Y0133303D02*
X0193376Y0133303D01*
X0193376Y0134302D02*
X0196742Y0134302D01*
X0193376Y0135301D02*
X0233652Y0135301D01*
X0233652Y0136299D02*
X0193376Y0136299D01*
X0193376Y0137298D02*
X0233652Y0137298D01*
X0233652Y0138296D02*
X0193376Y0138296D01*
X0193376Y0139295D02*
X0233652Y0139295D01*
X0233652Y0140293D02*
X0193376Y0140293D01*
X0193376Y0141292D02*
X0233652Y0141292D01*
X0233652Y0142290D02*
X0193376Y0142290D01*
X0193376Y0143289D02*
X0233652Y0143289D01*
X0233652Y0144287D02*
X0193376Y0144287D01*
X0193376Y0145286D02*
X0233652Y0145286D01*
X0233652Y0146284D02*
X0193376Y0146284D01*
X0193376Y0147283D02*
X0233652Y0147283D01*
X0233652Y0148281D02*
X0193376Y0148281D01*
X0193376Y0149280D02*
X0233652Y0149280D01*
X0233652Y0150278D02*
X0193376Y0150278D01*
X0193376Y0151277D02*
X0233652Y0151277D01*
X0233652Y0152275D02*
X0193376Y0152275D01*
X0193376Y0153274D02*
X0233652Y0153274D01*
X0233652Y0154272D02*
X0193376Y0154272D01*
X0193376Y0155271D02*
X0233652Y0155271D01*
X0233652Y0156269D02*
X0193376Y0156269D01*
X0193376Y0157268D02*
X0233652Y0157268D01*
X0233652Y0158266D02*
X0193376Y0158266D01*
X0193376Y0159265D02*
X0233652Y0159265D01*
X0233652Y0160263D02*
X0193376Y0160263D01*
X0193376Y0161262D02*
X0233652Y0161262D01*
X0233652Y0162260D02*
X0193376Y0162260D01*
X0193376Y0163259D02*
X0233652Y0163259D01*
X0233652Y0164257D02*
X0193376Y0164257D01*
X0193376Y0165256D02*
X0233652Y0165256D01*
X0233652Y0166254D02*
X0193376Y0166254D01*
X0193376Y0167253D02*
X0233652Y0167253D01*
X0233652Y0168251D02*
X0193376Y0168251D01*
X0193376Y0169250D02*
X0233652Y0169250D01*
X0233652Y0170248D02*
X0193376Y0170248D01*
X0193376Y0171247D02*
X0233652Y0171247D01*
X0233652Y0172245D02*
X0193376Y0172245D01*
X0193376Y0173244D02*
X0233652Y0173244D01*
X0233652Y0174242D02*
X0193376Y0174242D01*
X0193376Y0175241D02*
X0233652Y0175241D01*
X0233652Y0176239D02*
X0193376Y0176239D01*
X0193376Y0177238D02*
X0233652Y0177238D01*
X0233652Y0178237D02*
X0193376Y0178237D01*
X0193376Y0179235D02*
X0233652Y0179235D01*
X0233652Y0180234D02*
X0193376Y0180234D01*
X0193286Y0181232D02*
X0233652Y0181232D01*
X0233652Y0182231D02*
X0192784Y0182231D01*
X0191786Y0183229D02*
X0233652Y0183229D01*
X0233652Y0184228D02*
X0190787Y0184228D01*
X0190387Y0185226D02*
X0233652Y0185226D01*
X0233652Y0186225D02*
X0189974Y0186225D01*
X0189179Y0187223D02*
X0233652Y0187223D01*
X0233652Y0188222D02*
X0187392Y0188222D01*
X0185687Y0188222D02*
X0181578Y0188222D01*
X0181578Y0189220D02*
X0233652Y0189220D01*
X0233652Y0190219D02*
X0181578Y0190219D01*
X0181578Y0191217D02*
X0233652Y0191217D01*
X0233652Y0192216D02*
X0181578Y0192216D01*
X0181578Y0193214D02*
X0233652Y0193214D01*
X0233652Y0194213D02*
X0181578Y0194213D01*
X0181578Y0195211D02*
X0233652Y0195211D01*
X0233652Y0196210D02*
X0181578Y0196210D01*
X0181578Y0197208D02*
X0233652Y0197208D01*
X0233652Y0198207D02*
X0181578Y0198207D01*
X0181578Y0199205D02*
X0233652Y0199205D01*
X0233652Y0200204D02*
X0181578Y0200204D01*
X0181578Y0201202D02*
X0233652Y0201202D01*
X0233652Y0202201D02*
X0181578Y0202201D01*
X0181578Y0203199D02*
X0233652Y0203199D01*
X0233652Y0204198D02*
X0181578Y0204198D01*
X0181578Y0205196D02*
X0233652Y0205196D01*
X0233652Y0206195D02*
X0181578Y0206195D01*
X0181578Y0207193D02*
X0233652Y0207193D01*
X0233652Y0208192D02*
X0181578Y0208192D01*
X0181578Y0209190D02*
X0233652Y0209190D01*
X0233652Y0210189D02*
X0181578Y0210189D01*
X0181578Y0211187D02*
X0233652Y0211187D01*
X0233652Y0212186D02*
X0181578Y0212186D01*
X0181578Y0213184D02*
X0233652Y0213184D01*
X0233652Y0214183D02*
X0181658Y0214183D01*
X0181956Y0215181D02*
X0233652Y0215181D01*
X0233652Y0216180D02*
X0181956Y0216180D01*
X0181652Y0217178D02*
X0233652Y0217178D01*
X0233652Y0218177D02*
X0181060Y0218177D01*
X0179761Y0219175D02*
X0233652Y0219175D01*
X0233652Y0220174D02*
X0026153Y0220174D01*
X0025155Y0221172D02*
X0233652Y0221172D01*
X0233652Y0222171D02*
X0086653Y0222171D01*
X0086173Y0221691D02*
X0087403Y0222921D01*
X0087403Y0234504D01*
X0086173Y0235734D01*
X0074591Y0235734D01*
X0073361Y0234504D01*
X0073361Y0222921D01*
X0074591Y0221691D01*
X0086173Y0221691D01*
X0087403Y0223170D02*
X0233652Y0223170D01*
X0233652Y0224168D02*
X0087403Y0224168D01*
X0087403Y0225167D02*
X0233652Y0225167D01*
X0233652Y0226165D02*
X0087403Y0226165D01*
X0087403Y0227164D02*
X0233652Y0227164D01*
X0233652Y0228162D02*
X0087403Y0228162D01*
X0087403Y0229161D02*
X0233652Y0229161D01*
X0233652Y0230159D02*
X0087403Y0230159D01*
X0087403Y0231158D02*
X0233652Y0231158D01*
X0233652Y0232156D02*
X0087403Y0232156D01*
X0087403Y0233155D02*
X0233652Y0233155D01*
X0233652Y0234153D02*
X0087403Y0234153D01*
X0086755Y0235152D02*
X0233652Y0235152D01*
X0233652Y0236150D02*
X0003600Y0236150D01*
X0003600Y0235152D02*
X0006009Y0235152D01*
X0006591Y0235734D02*
X0005361Y0234504D01*
X0005361Y0222921D01*
X0006591Y0221691D01*
X0014171Y0221691D01*
X0031658Y0204204D01*
X0031658Y0029504D01*
X0032222Y0028144D01*
X0033262Y0027103D01*
X0051766Y0008600D01*
X0053126Y0008036D01*
X0132078Y0008036D01*
X0133438Y0008600D01*
X0134479Y0009640D01*
X0139774Y0014935D01*
X0140618Y0014935D01*
X0142481Y0015707D01*
X0143907Y0017133D01*
X0144679Y0018996D01*
X0144679Y0021012D01*
X0143907Y0022875D01*
X0142481Y0024301D01*
X0140618Y0025072D01*
X0138602Y0025072D01*
X0136739Y0024301D01*
X0135313Y0022875D01*
X0134542Y0021012D01*
X0134542Y0020168D01*
X0129810Y0015436D01*
X0055395Y0015436D01*
X0039058Y0031773D01*
X0039058Y0206472D01*
X0038495Y0207832D01*
X0019403Y0226924D01*
X0019403Y0234504D01*
X0018173Y0235734D01*
X0006591Y0235734D01*
X0005361Y0234153D02*
X0003600Y0234153D01*
X0003600Y0233155D02*
X0005361Y0233155D01*
X0005361Y0232156D02*
X0003600Y0232156D01*
X0003600Y0231158D02*
X0005361Y0231158D01*
X0005361Y0230159D02*
X0003600Y0230159D01*
X0003600Y0229161D02*
X0005361Y0229161D01*
X0005361Y0228162D02*
X0003600Y0228162D01*
X0003600Y0227164D02*
X0005361Y0227164D01*
X0005361Y0226165D02*
X0003600Y0226165D01*
X0003600Y0225167D02*
X0005361Y0225167D01*
X0005361Y0224168D02*
X0003600Y0224168D01*
X0003600Y0223170D02*
X0005361Y0223170D01*
X0006111Y0222171D02*
X0003600Y0222171D01*
X0003600Y0221172D02*
X0014689Y0221172D01*
X0015688Y0220174D02*
X0003600Y0220174D01*
X0003600Y0219175D02*
X0016686Y0219175D01*
X0017685Y0218177D02*
X0003600Y0218177D01*
X0003600Y0217178D02*
X0018683Y0217178D01*
X0019682Y0216180D02*
X0003600Y0216180D01*
X0003600Y0215181D02*
X0020680Y0215181D01*
X0021679Y0214183D02*
X0003600Y0214183D01*
X0003600Y0213184D02*
X0022677Y0213184D01*
X0023676Y0212186D02*
X0003600Y0212186D01*
X0003600Y0211187D02*
X0024675Y0211187D01*
X0025673Y0210189D02*
X0003600Y0210189D01*
X0003600Y0209190D02*
X0026672Y0209190D01*
X0027670Y0208192D02*
X0003600Y0208192D01*
X0003600Y0207193D02*
X0028669Y0207193D01*
X0029667Y0206195D02*
X0003600Y0206195D01*
X0003600Y0205196D02*
X0030666Y0205196D01*
X0031658Y0204198D02*
X0003600Y0204198D01*
X0003600Y0203199D02*
X0031658Y0203199D01*
X0031658Y0202201D02*
X0003600Y0202201D01*
X0003600Y0201202D02*
X0031658Y0201202D01*
X0031658Y0200204D02*
X0003600Y0200204D01*
X0003600Y0199205D02*
X0031658Y0199205D01*
X0031658Y0198207D02*
X0003600Y0198207D01*
X0003600Y0197208D02*
X0031658Y0197208D01*
X0031658Y0196210D02*
X0003600Y0196210D01*
X0003600Y0195211D02*
X0031658Y0195211D01*
X0031658Y0194213D02*
X0003600Y0194213D01*
X0003600Y0193214D02*
X0031658Y0193214D01*
X0031658Y0192216D02*
X0003600Y0192216D01*
X0003600Y0191217D02*
X0031658Y0191217D01*
X0031658Y0190219D02*
X0003600Y0190219D01*
X0003600Y0189220D02*
X0031658Y0189220D01*
X0031658Y0188222D02*
X0003600Y0188222D01*
X0003600Y0187223D02*
X0031658Y0187223D01*
X0031658Y0186225D02*
X0003600Y0186225D01*
X0003600Y0185226D02*
X0031658Y0185226D01*
X0031658Y0184228D02*
X0003600Y0184228D01*
X0003600Y0183229D02*
X0031658Y0183229D01*
X0031658Y0182231D02*
X0003600Y0182231D01*
X0003600Y0181232D02*
X0031658Y0181232D01*
X0031658Y0180234D02*
X0003600Y0180234D01*
X0003600Y0179235D02*
X0031658Y0179235D01*
X0031658Y0178237D02*
X0003600Y0178237D01*
X0003600Y0177238D02*
X0031658Y0177238D01*
X0031658Y0176239D02*
X0003600Y0176239D01*
X0003600Y0175241D02*
X0031658Y0175241D01*
X0031658Y0174242D02*
X0003600Y0174242D01*
X0003600Y0173244D02*
X0031658Y0173244D01*
X0031658Y0172245D02*
X0003600Y0172245D01*
X0003600Y0171247D02*
X0031658Y0171247D01*
X0031658Y0170248D02*
X0003600Y0170248D01*
X0003600Y0169250D02*
X0031658Y0169250D01*
X0031658Y0168251D02*
X0003600Y0168251D01*
X0003600Y0167253D02*
X0031658Y0167253D01*
X0031658Y0166254D02*
X0003600Y0166254D01*
X0003600Y0165256D02*
X0031658Y0165256D01*
X0031658Y0164257D02*
X0003600Y0164257D01*
X0003600Y0163259D02*
X0031658Y0163259D01*
X0031658Y0162260D02*
X0003600Y0162260D01*
X0003600Y0161262D02*
X0031658Y0161262D01*
X0031658Y0160263D02*
X0003600Y0160263D01*
X0003600Y0159265D02*
X0031658Y0159265D01*
X0031658Y0158266D02*
X0003600Y0158266D01*
X0003600Y0157268D02*
X0031658Y0157268D01*
X0031658Y0156269D02*
X0003600Y0156269D01*
X0003600Y0155271D02*
X0031658Y0155271D01*
X0031658Y0154272D02*
X0003600Y0154272D01*
X0003600Y0153274D02*
X0031658Y0153274D01*
X0031658Y0152275D02*
X0003600Y0152275D01*
X0003600Y0151277D02*
X0031658Y0151277D01*
X0031658Y0150278D02*
X0003600Y0150278D01*
X0003600Y0149280D02*
X0031658Y0149280D01*
X0031658Y0148281D02*
X0003600Y0148281D01*
X0003600Y0147283D02*
X0031658Y0147283D01*
X0031658Y0146284D02*
X0003600Y0146284D01*
X0003600Y0145286D02*
X0031658Y0145286D01*
X0031658Y0144287D02*
X0003600Y0144287D01*
X0003600Y0143289D02*
X0031658Y0143289D01*
X0031658Y0142290D02*
X0003600Y0142290D01*
X0003600Y0141292D02*
X0031658Y0141292D01*
X0031658Y0140293D02*
X0003600Y0140293D01*
X0003600Y0139295D02*
X0031658Y0139295D01*
X0031658Y0138296D02*
X0003600Y0138296D01*
X0003600Y0137298D02*
X0031658Y0137298D01*
X0031658Y0136299D02*
X0003600Y0136299D01*
X0003600Y0135301D02*
X0031658Y0135301D01*
X0031658Y0134302D02*
X0003600Y0134302D01*
X0003600Y0133303D02*
X0031658Y0133303D01*
X0031658Y0132305D02*
X0003600Y0132305D01*
X0003600Y0131306D02*
X0031658Y0131306D01*
X0031658Y0130308D02*
X0003600Y0130308D01*
X0003600Y0129309D02*
X0031658Y0129309D01*
X0031658Y0128311D02*
X0003600Y0128311D01*
X0003600Y0127312D02*
X0031658Y0127312D01*
X0031658Y0126314D02*
X0003600Y0126314D01*
X0003600Y0125315D02*
X0031658Y0125315D01*
X0031658Y0124317D02*
X0003600Y0124317D01*
X0003600Y0123318D02*
X0031658Y0123318D01*
X0031658Y0122320D02*
X0003600Y0122320D01*
X0003600Y0121321D02*
X0031658Y0121321D01*
X0031658Y0120323D02*
X0003600Y0120323D01*
X0003600Y0119324D02*
X0031658Y0119324D01*
X0031658Y0118326D02*
X0003600Y0118326D01*
X0003600Y0117327D02*
X0031658Y0117327D01*
X0031658Y0116329D02*
X0003600Y0116329D01*
X0003600Y0115330D02*
X0031658Y0115330D01*
X0031658Y0114332D02*
X0003600Y0114332D01*
X0003600Y0113333D02*
X0031658Y0113333D01*
X0031658Y0112335D02*
X0003600Y0112335D01*
X0003600Y0111336D02*
X0031658Y0111336D01*
X0031658Y0110338D02*
X0003600Y0110338D01*
X0003600Y0109339D02*
X0031658Y0109339D01*
X0031658Y0108341D02*
X0003600Y0108341D01*
X0003600Y0107342D02*
X0031658Y0107342D01*
X0031658Y0106344D02*
X0003600Y0106344D01*
X0003600Y0105345D02*
X0031658Y0105345D01*
X0031658Y0104347D02*
X0003600Y0104347D01*
X0003600Y0103348D02*
X0031658Y0103348D01*
X0031658Y0102350D02*
X0003600Y0102350D01*
X0003600Y0101351D02*
X0013904Y0101351D01*
X0014789Y0101718D02*
X0011847Y0100499D01*
X0009595Y0098247D01*
X0008376Y0095305D01*
X0008376Y0092120D01*
X0009595Y0089178D01*
X0011847Y0086926D01*
X0014789Y0085707D01*
X0017974Y0085707D01*
X0020917Y0086926D01*
X0023169Y0089178D01*
X0024387Y0092120D01*
X0024387Y0095305D01*
X0023169Y0098247D01*
X0020917Y0100499D01*
X0017974Y0101718D01*
X0014789Y0101718D01*
X0018860Y0101351D02*
X0031658Y0101351D01*
X0031658Y0100353D02*
X0021063Y0100353D01*
X0022062Y0099354D02*
X0031658Y0099354D01*
X0031658Y0098356D02*
X0023060Y0098356D01*
X0023537Y0097357D02*
X0031658Y0097357D01*
X0031658Y0096359D02*
X0023951Y0096359D01*
X0024365Y0095360D02*
X0031658Y0095360D01*
X0031658Y0094362D02*
X0024387Y0094362D01*
X0024387Y0093363D02*
X0031658Y0093363D01*
X0031658Y0092365D02*
X0024387Y0092365D01*
X0024075Y0091366D02*
X0031658Y0091366D01*
X0031658Y0090368D02*
X0023661Y0090368D01*
X0023248Y0089369D02*
X0031658Y0089369D01*
X0031658Y0088370D02*
X0022361Y0088370D01*
X0021363Y0087372D02*
X0031658Y0087372D01*
X0031658Y0086373D02*
X0019583Y0086373D01*
X0018173Y0079734D02*
X0019403Y0078504D01*
X0019403Y0066921D01*
X0018173Y0065691D01*
X0006591Y0065691D01*
X0005361Y0066921D01*
X0005361Y0078504D01*
X0006591Y0079734D01*
X0018173Y0079734D01*
X0018523Y0079384D02*
X0031658Y0079384D01*
X0031658Y0080382D02*
X0003600Y0080382D01*
X0003600Y0079384D02*
X0006241Y0079384D01*
X0005361Y0078385D02*
X0003600Y0078385D01*
X0003600Y0077387D02*
X0005361Y0077387D01*
X0005361Y0076388D02*
X0003600Y0076388D01*
X0003600Y0075390D02*
X0005361Y0075390D01*
X0005361Y0074391D02*
X0003600Y0074391D01*
X0003600Y0073393D02*
X0005361Y0073393D01*
X0005361Y0072394D02*
X0003600Y0072394D01*
X0003600Y0071396D02*
X0005361Y0071396D01*
X0005361Y0070397D02*
X0003600Y0070397D01*
X0003600Y0069399D02*
X0005361Y0069399D01*
X0005361Y0068400D02*
X0003600Y0068400D01*
X0003600Y0067402D02*
X0005361Y0067402D01*
X0005879Y0066403D02*
X0003600Y0066403D01*
X0003600Y0065405D02*
X0031658Y0065405D01*
X0031658Y0066403D02*
X0018885Y0066403D01*
X0019403Y0067402D02*
X0031658Y0067402D01*
X0031658Y0068400D02*
X0019403Y0068400D01*
X0019403Y0069399D02*
X0031658Y0069399D01*
X0031658Y0070397D02*
X0019403Y0070397D01*
X0019403Y0071396D02*
X0031658Y0071396D01*
X0031658Y0072394D02*
X0019403Y0072394D01*
X0019403Y0073393D02*
X0031658Y0073393D01*
X0031658Y0074391D02*
X0019403Y0074391D01*
X0019403Y0075390D02*
X0031658Y0075390D01*
X0031658Y0076388D02*
X0019403Y0076388D01*
X0019403Y0077387D02*
X0031658Y0077387D01*
X0031658Y0078385D02*
X0019403Y0078385D01*
X0013181Y0086373D02*
X0003600Y0086373D01*
X0003600Y0085375D02*
X0031658Y0085375D01*
X0031658Y0084376D02*
X0003600Y0084376D01*
X0003600Y0083378D02*
X0031658Y0083378D01*
X0031658Y0082379D02*
X0003600Y0082379D01*
X0003600Y0081381D02*
X0031658Y0081381D01*
X0039058Y0081381D02*
X0076682Y0081381D01*
X0076682Y0082379D02*
X0039058Y0082379D01*
X0039058Y0083378D02*
X0076682Y0083378D01*
X0076682Y0084376D02*
X0039058Y0084376D01*
X0039058Y0085375D02*
X0076682Y0085375D01*
X0076682Y0086373D02*
X0039058Y0086373D01*
X0039058Y0087372D02*
X0076682Y0087372D01*
X0076682Y0088370D02*
X0039058Y0088370D01*
X0039058Y0089369D02*
X0076682Y0089369D01*
X0076682Y0090368D02*
X0039058Y0090368D01*
X0039058Y0091366D02*
X0076682Y0091366D01*
X0076682Y0092365D02*
X0039058Y0092365D01*
X0039058Y0093363D02*
X0076682Y0093363D01*
X0076682Y0094362D02*
X0039058Y0094362D01*
X0039058Y0095360D02*
X0076682Y0095360D01*
X0076682Y0096359D02*
X0039058Y0096359D01*
X0039058Y0097357D02*
X0076682Y0097357D01*
X0076682Y0098356D02*
X0039058Y0098356D01*
X0039058Y0099354D02*
X0076682Y0099354D01*
X0076682Y0100353D02*
X0039058Y0100353D01*
X0039058Y0101351D02*
X0076682Y0101351D01*
X0076682Y0102350D02*
X0039058Y0102350D01*
X0039058Y0103348D02*
X0076682Y0103348D01*
X0076682Y0104347D02*
X0039058Y0104347D01*
X0039058Y0105345D02*
X0076682Y0105345D01*
X0076682Y0106344D02*
X0039058Y0106344D01*
X0039058Y0107342D02*
X0076682Y0107342D01*
X0076682Y0108341D02*
X0039058Y0108341D01*
X0039058Y0109339D02*
X0076682Y0109339D01*
X0076682Y0110338D02*
X0039058Y0110338D01*
X0039058Y0111336D02*
X0076682Y0111336D01*
X0076682Y0112335D02*
X0039058Y0112335D01*
X0039058Y0113333D02*
X0076682Y0113333D01*
X0076682Y0114332D02*
X0039058Y0114332D01*
X0039058Y0115330D02*
X0076682Y0115330D01*
X0076682Y0116329D02*
X0039058Y0116329D01*
X0039058Y0117327D02*
X0076682Y0117327D01*
X0076682Y0118326D02*
X0039058Y0118326D01*
X0039058Y0119324D02*
X0076682Y0119324D01*
X0076682Y0120323D02*
X0039058Y0120323D01*
X0039058Y0121321D02*
X0076682Y0121321D01*
X0076682Y0122320D02*
X0039058Y0122320D01*
X0039058Y0123318D02*
X0076682Y0123318D01*
X0076682Y0124317D02*
X0039058Y0124317D01*
X0039058Y0125315D02*
X0076682Y0125315D01*
X0076682Y0126314D02*
X0039058Y0126314D01*
X0039058Y0127312D02*
X0076682Y0127312D01*
X0076682Y0128311D02*
X0039058Y0128311D01*
X0039058Y0129309D02*
X0076682Y0129309D01*
X0076682Y0130308D02*
X0039058Y0130308D01*
X0039058Y0131306D02*
X0076682Y0131306D01*
X0076682Y0132305D02*
X0039058Y0132305D01*
X0039058Y0133303D02*
X0076682Y0133303D01*
X0076682Y0134302D02*
X0039058Y0134302D01*
X0039058Y0135301D02*
X0076682Y0135301D01*
X0076682Y0136299D02*
X0039058Y0136299D01*
X0039058Y0137298D02*
X0076682Y0137298D01*
X0076682Y0138296D02*
X0039058Y0138296D01*
X0039058Y0139295D02*
X0076682Y0139295D01*
X0076682Y0140293D02*
X0039058Y0140293D01*
X0039058Y0141292D02*
X0076682Y0141292D01*
X0076682Y0142290D02*
X0039058Y0142290D01*
X0039058Y0143289D02*
X0076682Y0143289D01*
X0076682Y0144287D02*
X0039058Y0144287D01*
X0039058Y0145286D02*
X0076682Y0145286D01*
X0076682Y0146284D02*
X0039058Y0146284D01*
X0039058Y0147283D02*
X0076682Y0147283D01*
X0076682Y0148281D02*
X0039058Y0148281D01*
X0039058Y0149280D02*
X0076682Y0149280D01*
X0076682Y0150278D02*
X0039058Y0150278D01*
X0039058Y0151277D02*
X0076682Y0151277D01*
X0076682Y0152275D02*
X0039058Y0152275D01*
X0039058Y0153274D02*
X0076682Y0153274D01*
X0076682Y0154272D02*
X0039058Y0154272D01*
X0039058Y0155271D02*
X0076682Y0155271D01*
X0076682Y0156269D02*
X0039058Y0156269D01*
X0039058Y0157268D02*
X0076682Y0157268D01*
X0076682Y0158266D02*
X0039058Y0158266D01*
X0039058Y0159265D02*
X0076682Y0159265D01*
X0076682Y0160263D02*
X0039058Y0160263D01*
X0039058Y0161262D02*
X0076682Y0161262D01*
X0076682Y0162260D02*
X0039058Y0162260D01*
X0039058Y0163259D02*
X0076682Y0163259D01*
X0076682Y0164257D02*
X0039058Y0164257D01*
X0039058Y0165256D02*
X0076682Y0165256D01*
X0076682Y0166254D02*
X0039058Y0166254D01*
X0039058Y0167253D02*
X0076682Y0167253D01*
X0076682Y0168251D02*
X0039058Y0168251D01*
X0039058Y0169250D02*
X0076682Y0169250D01*
X0076682Y0170248D02*
X0039058Y0170248D01*
X0039058Y0171247D02*
X0076682Y0171247D01*
X0076682Y0172245D02*
X0039058Y0172245D01*
X0039058Y0173244D02*
X0076682Y0173244D01*
X0076682Y0174242D02*
X0039058Y0174242D01*
X0039058Y0175241D02*
X0076682Y0175241D01*
X0076682Y0176239D02*
X0039058Y0176239D01*
X0039058Y0177238D02*
X0076682Y0177238D01*
X0076682Y0178237D02*
X0039058Y0178237D01*
X0039058Y0179235D02*
X0076682Y0179235D01*
X0076682Y0180234D02*
X0039058Y0180234D01*
X0039058Y0181232D02*
X0076682Y0181232D01*
X0076817Y0182231D02*
X0039058Y0182231D01*
X0039058Y0183229D02*
X0077230Y0183229D01*
X0078208Y0184228D02*
X0039058Y0184228D01*
X0039058Y0185226D02*
X0079206Y0185226D01*
X0080205Y0186225D02*
X0039058Y0186225D01*
X0039058Y0187223D02*
X0081203Y0187223D01*
X0082202Y0188222D02*
X0039058Y0188222D01*
X0039058Y0189220D02*
X0083200Y0189220D01*
X0084199Y0190219D02*
X0039058Y0190219D01*
X0039058Y0191217D02*
X0085197Y0191217D01*
X0086196Y0192216D02*
X0039058Y0192216D01*
X0039058Y0193214D02*
X0087194Y0193214D01*
X0088193Y0194213D02*
X0039058Y0194213D01*
X0039058Y0195211D02*
X0089191Y0195211D01*
X0090190Y0196210D02*
X0039058Y0196210D01*
X0039058Y0197208D02*
X0091188Y0197208D01*
X0092187Y0198207D02*
X0039058Y0198207D01*
X0039058Y0199205D02*
X0093185Y0199205D01*
X0094184Y0200204D02*
X0039058Y0200204D01*
X0039058Y0201202D02*
X0095182Y0201202D01*
X0096181Y0202201D02*
X0039058Y0202201D01*
X0039058Y0203199D02*
X0073601Y0203199D01*
X0074789Y0202707D02*
X0077974Y0202707D01*
X0080917Y0203926D01*
X0083169Y0206178D01*
X0084387Y0209120D01*
X0084387Y0212305D01*
X0083169Y0215247D01*
X0080917Y0217499D01*
X0077974Y0218718D01*
X0074789Y0218718D01*
X0071847Y0217499D01*
X0069595Y0215247D01*
X0068376Y0212305D01*
X0068376Y0209120D01*
X0069595Y0206178D01*
X0071847Y0203926D01*
X0074789Y0202707D01*
X0071575Y0204198D02*
X0039058Y0204198D01*
X0039058Y0205196D02*
X0070577Y0205196D01*
X0069588Y0206195D02*
X0039058Y0206195D01*
X0038760Y0207193D02*
X0069174Y0207193D01*
X0068761Y0208192D02*
X0038135Y0208192D01*
X0037137Y0209190D02*
X0068376Y0209190D01*
X0068376Y0210189D02*
X0036138Y0210189D01*
X0035140Y0211187D02*
X0068376Y0211187D01*
X0068376Y0212186D02*
X0034141Y0212186D01*
X0033143Y0213184D02*
X0068741Y0213184D01*
X0069154Y0214183D02*
X0032144Y0214183D01*
X0031146Y0215181D02*
X0069568Y0215181D01*
X0070528Y0216180D02*
X0030147Y0216180D01*
X0029149Y0217178D02*
X0071526Y0217178D01*
X0073483Y0218177D02*
X0028150Y0218177D01*
X0027152Y0219175D02*
X0176388Y0219175D01*
X0175090Y0218177D02*
X0079281Y0218177D01*
X0081238Y0217178D02*
X0174497Y0217178D01*
X0174178Y0216180D02*
X0114750Y0216180D01*
X0115671Y0215181D02*
X0174178Y0215181D01*
X0174178Y0214183D02*
X0116085Y0214183D01*
X0116208Y0213184D02*
X0174178Y0213184D01*
X0174178Y0212186D02*
X0116143Y0212186D01*
X0115730Y0211187D02*
X0174178Y0211187D01*
X0174178Y0210189D02*
X0114890Y0210189D01*
X0113636Y0209190D02*
X0174178Y0209190D01*
X0174178Y0208192D02*
X0112637Y0208192D01*
X0111639Y0207193D02*
X0174178Y0207193D01*
X0174178Y0206195D02*
X0136820Y0206195D01*
X0138135Y0205196D02*
X0174178Y0205196D01*
X0174178Y0204198D02*
X0138734Y0204198D01*
X0139043Y0203199D02*
X0174178Y0203199D01*
X0174178Y0202201D02*
X0139043Y0202201D01*
X0138750Y0201202D02*
X0174178Y0201202D01*
X0174178Y0200204D02*
X0138173Y0200204D01*
X0138061Y0199205D02*
X0174178Y0199205D01*
X0174178Y0198207D02*
X0138061Y0198207D01*
X0138061Y0197208D02*
X0174178Y0197208D01*
X0174178Y0196210D02*
X0138061Y0196210D01*
X0138061Y0195211D02*
X0174178Y0195211D01*
X0174178Y0194213D02*
X0138061Y0194213D01*
X0138061Y0193214D02*
X0174178Y0193214D01*
X0174178Y0192216D02*
X0138061Y0192216D01*
X0138061Y0191217D02*
X0174178Y0191217D01*
X0174178Y0190219D02*
X0138061Y0190219D01*
X0138061Y0189220D02*
X0174178Y0189220D01*
X0174178Y0188222D02*
X0138061Y0188222D01*
X0138061Y0187223D02*
X0174178Y0187223D01*
X0174178Y0186225D02*
X0138061Y0186225D01*
X0138061Y0185226D02*
X0174178Y0185226D01*
X0174178Y0184228D02*
X0138061Y0184228D01*
X0138061Y0183229D02*
X0174178Y0183229D01*
X0174178Y0182231D02*
X0138061Y0182231D01*
X0138061Y0181232D02*
X0174178Y0181232D01*
X0174178Y0180234D02*
X0138061Y0180234D01*
X0138061Y0179235D02*
X0174178Y0179235D01*
X0174178Y0178237D02*
X0138061Y0178237D01*
X0138061Y0177238D02*
X0174178Y0177238D01*
X0174178Y0176239D02*
X0164730Y0176239D01*
X0165663Y0175241D02*
X0174178Y0175241D01*
X0174178Y0174242D02*
X0166077Y0174242D01*
X0166208Y0173244D02*
X0174178Y0173244D01*
X0174178Y0172245D02*
X0166151Y0172245D01*
X0165738Y0171247D02*
X0174178Y0171247D01*
X0174178Y0170248D02*
X0164910Y0170248D01*
X0162524Y0169250D02*
X0174178Y0169250D01*
X0174178Y0168251D02*
X0161526Y0168251D01*
X0160527Y0167253D02*
X0174178Y0167253D01*
X0174178Y0166254D02*
X0159529Y0166254D01*
X0158731Y0165256D02*
X0174178Y0165256D01*
X0174178Y0164257D02*
X0158731Y0164257D01*
X0158731Y0163259D02*
X0174178Y0163259D01*
X0174178Y0162260D02*
X0158731Y0162260D01*
X0158731Y0161262D02*
X0174178Y0161262D01*
X0174178Y0160263D02*
X0158731Y0160263D01*
X0158731Y0159265D02*
X0174178Y0159265D01*
X0174178Y0158266D02*
X0158731Y0158266D01*
X0158731Y0157268D02*
X0174178Y0157268D01*
X0174178Y0156269D02*
X0158731Y0156269D01*
X0158731Y0155271D02*
X0174178Y0155271D01*
X0174178Y0154272D02*
X0158731Y0154272D01*
X0158731Y0153274D02*
X0174178Y0153274D01*
X0174178Y0152275D02*
X0158731Y0152275D01*
X0158731Y0151277D02*
X0174178Y0151277D01*
X0174178Y0150278D02*
X0158731Y0150278D01*
X0158731Y0149280D02*
X0174178Y0149280D01*
X0174178Y0148281D02*
X0158731Y0148281D01*
X0158731Y0147283D02*
X0174178Y0147283D01*
X0174178Y0146284D02*
X0158731Y0146284D01*
X0158731Y0145286D02*
X0174178Y0145286D01*
X0174178Y0144287D02*
X0158731Y0144287D01*
X0158731Y0143289D02*
X0174178Y0143289D01*
X0174178Y0142290D02*
X0158731Y0142290D01*
X0158731Y0141292D02*
X0174178Y0141292D01*
X0174178Y0140293D02*
X0158731Y0140293D01*
X0158731Y0139295D02*
X0174178Y0139295D01*
X0174178Y0138296D02*
X0158731Y0138296D01*
X0158731Y0137298D02*
X0174178Y0137298D01*
X0174178Y0136299D02*
X0158731Y0136299D01*
X0158731Y0135301D02*
X0174178Y0135301D01*
X0174178Y0134302D02*
X0158731Y0134302D01*
X0158731Y0133303D02*
X0174178Y0133303D01*
X0174178Y0132305D02*
X0158731Y0132305D01*
X0158731Y0131306D02*
X0174178Y0131306D01*
X0174178Y0130308D02*
X0159086Y0130308D01*
X0159520Y0129309D02*
X0174178Y0129309D01*
X0174178Y0128311D02*
X0159712Y0128311D01*
X0159712Y0127312D02*
X0174178Y0127312D01*
X0174178Y0126314D02*
X0159302Y0126314D01*
X0158560Y0125315D02*
X0174178Y0125315D01*
X0174178Y0124317D02*
X0156900Y0124317D01*
X0157799Y0123318D02*
X0174178Y0123318D01*
X0174147Y0122320D02*
X0158797Y0122320D01*
X0159796Y0121321D02*
X0173997Y0121321D01*
X0174034Y0120323D02*
X0160794Y0120323D01*
X0161793Y0119324D02*
X0174448Y0119324D01*
X0175248Y0118326D02*
X0163967Y0118326D01*
X0159192Y0112335D02*
X0144131Y0112335D01*
X0143449Y0113333D02*
X0158572Y0113333D01*
X0158249Y0114332D02*
X0142407Y0114332D01*
X0141572Y0115330D02*
X0157584Y0115330D01*
X0156586Y0116329D02*
X0150325Y0116329D01*
X0148737Y0116329D02*
X0143103Y0116329D01*
X0143988Y0117327D02*
X0146916Y0117327D01*
X0146107Y0118326D02*
X0144401Y0118326D01*
X0144679Y0119324D02*
X0145694Y0119324D01*
X0145308Y0120323D02*
X0144679Y0120323D01*
X0137685Y0125315D02*
X0084082Y0125315D01*
X0084082Y0124317D02*
X0136778Y0124317D01*
X0135757Y0123318D02*
X0084082Y0123318D01*
X0084082Y0122320D02*
X0135083Y0122320D01*
X0134670Y0121321D02*
X0084082Y0121321D01*
X0084082Y0120323D02*
X0134542Y0120323D01*
X0134542Y0119324D02*
X0084082Y0119324D01*
X0084082Y0118326D02*
X0134819Y0118326D01*
X0135233Y0117327D02*
X0084082Y0117327D01*
X0084082Y0116329D02*
X0136117Y0116329D01*
X0137649Y0115330D02*
X0084082Y0115330D01*
X0084082Y0114332D02*
X0136814Y0114332D01*
X0135772Y0113333D02*
X0084082Y0113333D01*
X0084082Y0112335D02*
X0135090Y0112335D01*
X0134676Y0111336D02*
X0084082Y0111336D01*
X0084082Y0110338D02*
X0134542Y0110338D01*
X0134542Y0109339D02*
X0084082Y0109339D01*
X0084082Y0108341D02*
X0134813Y0108341D01*
X0135227Y0107342D02*
X0084082Y0107342D01*
X0084082Y0106344D02*
X0136103Y0106344D01*
X0137613Y0105345D02*
X0084082Y0105345D01*
X0084082Y0104347D02*
X0136850Y0104347D01*
X0135787Y0103348D02*
X0084082Y0103348D01*
X0084082Y0102350D02*
X0135096Y0102350D01*
X0134682Y0101351D02*
X0084082Y0101351D01*
X0084082Y0100353D02*
X0134542Y0100353D01*
X0134542Y0099354D02*
X0084082Y0099354D01*
X0084082Y0098356D02*
X0134807Y0098356D01*
X0135220Y0097357D02*
X0084082Y0097357D01*
X0084082Y0096359D02*
X0136088Y0096359D01*
X0137577Y0095360D02*
X0084082Y0095360D01*
X0084082Y0094362D02*
X0136886Y0094362D01*
X0135801Y0093363D02*
X0084082Y0093363D01*
X0084082Y0092365D02*
X0135102Y0092365D01*
X0134688Y0091366D02*
X0084082Y0091366D01*
X0084082Y0090368D02*
X0134542Y0090368D01*
X0134542Y0089369D02*
X0084082Y0089369D01*
X0084082Y0088370D02*
X0134801Y0088370D01*
X0127467Y0081381D02*
X0120305Y0081381D01*
X0119533Y0080382D02*
X0126751Y0080382D01*
X0121730Y0079384D02*
X0117800Y0079384D01*
X0115908Y0079384D02*
X0086523Y0079384D01*
X0087403Y0078385D02*
X0120915Y0078385D01*
X0120501Y0077387D02*
X0087403Y0077387D01*
X0088956Y0076388D02*
X0120454Y0076388D01*
X0120594Y0075390D02*
X0090717Y0075390D01*
X0091715Y0074391D02*
X0121007Y0074391D01*
X0121435Y0073393D02*
X0092714Y0073393D01*
X0093712Y0072394D02*
X0121435Y0072394D01*
X0121435Y0071396D02*
X0094711Y0071396D01*
X0095709Y0070397D02*
X0121435Y0070397D01*
X0121435Y0069399D02*
X0096708Y0069399D01*
X0097706Y0068400D02*
X0121435Y0068400D01*
X0121435Y0067402D02*
X0098705Y0067402D01*
X0099703Y0066403D02*
X0121435Y0066403D01*
X0121435Y0065405D02*
X0100702Y0065405D01*
X0101700Y0064406D02*
X0121435Y0064406D01*
X0121435Y0063408D02*
X0102699Y0063408D01*
X0103697Y0062409D02*
X0121435Y0062409D01*
X0121435Y0061411D02*
X0104696Y0061411D01*
X0105694Y0060412D02*
X0121435Y0060412D01*
X0121435Y0059414D02*
X0106693Y0059414D01*
X0109540Y0058415D02*
X0121435Y0058415D01*
X0120441Y0057417D02*
X0111377Y0057417D01*
X0112375Y0056418D02*
X0119443Y0056418D01*
X0118444Y0055420D02*
X0112889Y0055420D01*
X0113303Y0054421D02*
X0117446Y0054421D01*
X0116447Y0053423D02*
X0113399Y0053423D01*
X0113399Y0052424D02*
X0115449Y0052424D01*
X0114450Y0051426D02*
X0113177Y0051426D01*
X0113452Y0050427D02*
X0112764Y0050427D01*
X0114902Y0032454D02*
X0135867Y0032454D01*
X0135383Y0031455D02*
X0113903Y0031455D01*
X0107046Y0026463D02*
X0136882Y0026463D01*
X0135934Y0027461D02*
X0106633Y0027461D01*
X0106219Y0028460D02*
X0135413Y0028460D01*
X0135172Y0029458D02*
X0105414Y0029458D01*
X0104416Y0030457D02*
X0139126Y0030457D01*
X0140095Y0030457D02*
X0194542Y0030457D01*
X0194542Y0029458D02*
X0144048Y0029458D01*
X0143807Y0028460D02*
X0194764Y0028460D01*
X0195177Y0027461D02*
X0143286Y0027461D01*
X0142339Y0026463D02*
X0195983Y0026463D01*
X0197325Y0025464D02*
X0107301Y0025464D01*
X0107301Y0024466D02*
X0137137Y0024466D01*
X0135906Y0023467D02*
X0107301Y0023467D01*
X0107220Y0022469D02*
X0135145Y0022469D01*
X0134731Y0021470D02*
X0106806Y0021470D01*
X0106393Y0020472D02*
X0134542Y0020472D01*
X0133847Y0019473D02*
X0105834Y0019473D01*
X0104836Y0018475D02*
X0132848Y0018475D01*
X0131850Y0017476D02*
X0103837Y0017476D01*
X0101436Y0016478D02*
X0130851Y0016478D01*
X0129853Y0015479D02*
X0055352Y0015479D01*
X0054353Y0016478D02*
X0066918Y0016478D01*
X0067467Y0016250D02*
X0070651Y0016250D01*
X0073594Y0017469D01*
X0075846Y0019721D01*
X0077065Y0022663D01*
X0077065Y0025848D01*
X0075846Y0028791D01*
X0073594Y0031043D01*
X0070651Y0032261D01*
X0067467Y0032261D01*
X0064524Y0031043D01*
X0062272Y0028791D01*
X0061054Y0025848D01*
X0061054Y0022663D01*
X0062272Y0019721D01*
X0064524Y0017469D01*
X0067467Y0016250D01*
X0064517Y0017476D02*
X0053355Y0017476D01*
X0052356Y0018475D02*
X0063519Y0018475D01*
X0062520Y0019473D02*
X0051358Y0019473D01*
X0050359Y0020472D02*
X0061961Y0020472D01*
X0061548Y0021470D02*
X0049361Y0021470D01*
X0048362Y0022469D02*
X0061134Y0022469D01*
X0061054Y0023467D02*
X0047364Y0023467D01*
X0046365Y0024466D02*
X0061054Y0024466D01*
X0061054Y0025464D02*
X0045367Y0025464D01*
X0044368Y0026463D02*
X0061308Y0026463D01*
X0061722Y0027461D02*
X0043370Y0027461D01*
X0042371Y0028460D02*
X0062135Y0028460D01*
X0062940Y0029458D02*
X0041373Y0029458D01*
X0040374Y0030457D02*
X0063938Y0030457D01*
X0065521Y0031455D02*
X0039376Y0031455D01*
X0039058Y0032454D02*
X0077075Y0032454D01*
X0078073Y0031455D02*
X0072597Y0031455D01*
X0074180Y0030457D02*
X0094175Y0030457D01*
X0093176Y0029458D02*
X0075178Y0029458D01*
X0075983Y0028460D02*
X0092371Y0028460D01*
X0091958Y0027461D02*
X0076396Y0027461D01*
X0076810Y0026463D02*
X0091544Y0026463D01*
X0091290Y0025464D02*
X0077065Y0025464D01*
X0077065Y0024466D02*
X0091290Y0024466D01*
X0091290Y0023467D02*
X0077065Y0023467D01*
X0076984Y0022469D02*
X0091370Y0022469D01*
X0091784Y0021470D02*
X0076570Y0021470D01*
X0076157Y0020472D02*
X0092198Y0020472D01*
X0092756Y0019473D02*
X0075598Y0019473D01*
X0074599Y0018475D02*
X0093755Y0018475D01*
X0094753Y0017476D02*
X0073601Y0017476D01*
X0071200Y0016478D02*
X0097154Y0016478D01*
X0076076Y0033452D02*
X0039058Y0033452D01*
X0039058Y0034451D02*
X0075078Y0034451D01*
X0074079Y0035449D02*
X0039058Y0035449D01*
X0039058Y0036448D02*
X0057548Y0036448D01*
X0056453Y0037446D02*
X0039058Y0037446D01*
X0039058Y0038445D02*
X0055661Y0038445D01*
X0055248Y0039443D02*
X0039058Y0039443D01*
X0039058Y0040442D02*
X0054955Y0040442D01*
X0054955Y0041440D02*
X0039058Y0041440D01*
X0039058Y0042439D02*
X0054981Y0042439D01*
X0055394Y0043437D02*
X0039058Y0043437D01*
X0039058Y0046433D02*
X0058401Y0046433D01*
X0059441Y0047475D02*
X0057383Y0048327D01*
X0055808Y0049903D01*
X0054955Y0051961D01*
X0054955Y0054189D01*
X0055808Y0056247D01*
X0057383Y0057822D01*
X0059441Y0058675D01*
X0061669Y0058675D01*
X0063727Y0057822D01*
X0065303Y0056247D01*
X0066155Y0054189D01*
X0066155Y0051961D01*
X0065303Y0049903D01*
X0063727Y0048327D01*
X0061669Y0047475D01*
X0059441Y0047475D01*
X0057280Y0048430D02*
X0039058Y0048430D01*
X0039058Y0047432D02*
X0073908Y0047432D01*
X0074520Y0046433D02*
X0074907Y0046433D01*
X0078117Y0051426D02*
X0078799Y0051426D01*
X0078577Y0052424D02*
X0077966Y0052424D01*
X0077966Y0053423D02*
X0078577Y0053423D01*
X0078673Y0054421D02*
X0077870Y0054421D01*
X0077456Y0055420D02*
X0079087Y0055420D01*
X0079601Y0056418D02*
X0076942Y0056418D01*
X0075944Y0057417D02*
X0080599Y0057417D01*
X0082436Y0058415D02*
X0074107Y0058415D01*
X0070625Y0058415D02*
X0062296Y0058415D01*
X0064133Y0057417D02*
X0068788Y0057417D01*
X0067790Y0056418D02*
X0065131Y0056418D01*
X0065645Y0055420D02*
X0067276Y0055420D01*
X0066862Y0054421D02*
X0066059Y0054421D01*
X0066155Y0053423D02*
X0066766Y0053423D01*
X0066766Y0052424D02*
X0066155Y0052424D01*
X0065933Y0051426D02*
X0066988Y0051426D01*
X0067401Y0050427D02*
X0065520Y0050427D01*
X0064828Y0049429D02*
X0068093Y0049429D01*
X0069091Y0048430D02*
X0063830Y0048430D01*
X0062709Y0046433D02*
X0070212Y0046433D01*
X0068617Y0045434D02*
X0064304Y0045434D01*
X0067619Y0044436D02*
X0066766Y0042378D01*
X0066766Y0041440D02*
X0066155Y0041440D01*
X0066155Y0040442D02*
X0066766Y0040442D01*
X0067059Y0039443D02*
X0065862Y0039443D01*
X0065449Y0038445D02*
X0067472Y0038445D01*
X0068264Y0037446D02*
X0064657Y0037446D01*
X0063562Y0036448D02*
X0069359Y0036448D01*
X0079115Y0050427D02*
X0079213Y0050427D01*
X0085918Y0058415D02*
X0094247Y0058415D01*
X0092410Y0057417D02*
X0087755Y0057417D01*
X0088753Y0056418D02*
X0091412Y0056418D01*
X0090898Y0055420D02*
X0089267Y0055420D01*
X0089681Y0054421D02*
X0090484Y0054421D01*
X0090388Y0053423D02*
X0089777Y0053423D01*
X0089777Y0052424D02*
X0090388Y0052424D01*
X0090610Y0051426D02*
X0089555Y0051426D01*
X0089142Y0050427D02*
X0091024Y0050427D01*
X0096228Y0059414D02*
X0039058Y0059414D01*
X0039058Y0060412D02*
X0095229Y0060412D01*
X0094231Y0061411D02*
X0039058Y0061411D01*
X0039058Y0062409D02*
X0093232Y0062409D01*
X0092234Y0063408D02*
X0039058Y0063408D01*
X0039058Y0064406D02*
X0091235Y0064406D01*
X0090237Y0065405D02*
X0039058Y0065405D01*
X0039058Y0066403D02*
X0073879Y0066403D01*
X0073361Y0067402D02*
X0039058Y0067402D01*
X0039058Y0068400D02*
X0073361Y0068400D01*
X0073361Y0069399D02*
X0039058Y0069399D01*
X0039058Y0070397D02*
X0073361Y0070397D01*
X0073361Y0071396D02*
X0039058Y0071396D01*
X0039058Y0072394D02*
X0073361Y0072394D01*
X0073361Y0073393D02*
X0039058Y0073393D01*
X0039058Y0074391D02*
X0073361Y0074391D01*
X0073361Y0075390D02*
X0039058Y0075390D01*
X0039058Y0076388D02*
X0073361Y0076388D01*
X0073361Y0077387D02*
X0039058Y0077387D01*
X0039058Y0078385D02*
X0073361Y0078385D01*
X0074241Y0079384D02*
X0039058Y0079384D01*
X0039058Y0080382D02*
X0076682Y0080382D01*
X0084082Y0080382D02*
X0114176Y0080382D01*
X0113404Y0081381D02*
X0084082Y0081381D01*
X0084082Y0082379D02*
X0112990Y0082379D01*
X0112973Y0083378D02*
X0084082Y0083378D01*
X0084082Y0084376D02*
X0113144Y0084376D01*
X0113557Y0085375D02*
X0084082Y0085375D01*
X0084082Y0086373D02*
X0114546Y0086373D01*
X0116932Y0087372D02*
X0084082Y0087372D01*
X0087403Y0067402D02*
X0088240Y0067402D01*
X0089238Y0066403D02*
X0086885Y0066403D01*
X0058814Y0058415D02*
X0039058Y0058415D01*
X0039058Y0057417D02*
X0056977Y0057417D01*
X0055979Y0056418D02*
X0039058Y0056418D01*
X0039058Y0055420D02*
X0055465Y0055420D01*
X0055051Y0054421D02*
X0039058Y0054421D01*
X0039058Y0053423D02*
X0054955Y0053423D01*
X0054955Y0052424D02*
X0039058Y0052424D01*
X0039058Y0051426D02*
X0055177Y0051426D01*
X0055590Y0050427D02*
X0039058Y0050427D01*
X0039058Y0049429D02*
X0056282Y0049429D01*
X0033903Y0026463D02*
X0003600Y0026463D01*
X0003600Y0027461D02*
X0032905Y0027461D01*
X0032091Y0028460D02*
X0003600Y0028460D01*
X0003600Y0029458D02*
X0031677Y0029458D01*
X0031658Y0030457D02*
X0003600Y0030457D01*
X0003600Y0031455D02*
X0031658Y0031455D01*
X0031658Y0032454D02*
X0003600Y0032454D01*
X0003600Y0033452D02*
X0031658Y0033452D01*
X0031658Y0034451D02*
X0003600Y0034451D01*
X0003600Y0035449D02*
X0031658Y0035449D01*
X0031658Y0036448D02*
X0003600Y0036448D01*
X0003600Y0037446D02*
X0031658Y0037446D01*
X0031658Y0038445D02*
X0003600Y0038445D01*
X0003600Y0039443D02*
X0031658Y0039443D01*
X0031658Y0040442D02*
X0003600Y0040442D01*
X0003600Y0041440D02*
X0031658Y0041440D01*
X0031658Y0042439D02*
X0003600Y0042439D01*
X0003600Y0043437D02*
X0031658Y0043437D01*
X0031658Y0044436D02*
X0003600Y0044436D01*
X0003600Y0045434D02*
X0031658Y0045434D01*
X0031658Y0046433D02*
X0003600Y0046433D01*
X0003600Y0047432D02*
X0031658Y0047432D01*
X0031658Y0048430D02*
X0003600Y0048430D01*
X0003600Y0049429D02*
X0031658Y0049429D01*
X0031658Y0050427D02*
X0003600Y0050427D01*
X0003600Y0051426D02*
X0031658Y0051426D01*
X0031658Y0052424D02*
X0003600Y0052424D01*
X0003600Y0053423D02*
X0031658Y0053423D01*
X0031658Y0054421D02*
X0003600Y0054421D01*
X0003600Y0055420D02*
X0031658Y0055420D01*
X0031658Y0056418D02*
X0003600Y0056418D01*
X0003600Y0057417D02*
X0031658Y0057417D01*
X0031658Y0058415D02*
X0003600Y0058415D01*
X0003600Y0059414D02*
X0031658Y0059414D01*
X0031658Y0060412D02*
X0003600Y0060412D01*
X0003600Y0061411D02*
X0031658Y0061411D01*
X0031658Y0062409D02*
X0003600Y0062409D01*
X0003600Y0063408D02*
X0031658Y0063408D01*
X0031658Y0064406D02*
X0003600Y0064406D01*
X0003600Y0087372D02*
X0011401Y0087372D01*
X0010402Y0088370D02*
X0003600Y0088370D01*
X0003600Y0089369D02*
X0009516Y0089369D01*
X0009102Y0090368D02*
X0003600Y0090368D01*
X0003600Y0091366D02*
X0008689Y0091366D01*
X0008376Y0092365D02*
X0003600Y0092365D01*
X0003600Y0093363D02*
X0008376Y0093363D01*
X0008376Y0094362D02*
X0003600Y0094362D01*
X0003600Y0095360D02*
X0008399Y0095360D01*
X0008813Y0096359D02*
X0003600Y0096359D01*
X0003600Y0097357D02*
X0009226Y0097357D01*
X0009703Y0098356D02*
X0003600Y0098356D01*
X0003600Y0099354D02*
X0010702Y0099354D01*
X0011700Y0100353D02*
X0003600Y0100353D01*
X0003600Y0025464D02*
X0034902Y0025464D01*
X0035900Y0024466D02*
X0021257Y0024466D01*
X0021894Y0024202D02*
X0018880Y0025450D01*
X0015616Y0025450D01*
X0012602Y0024202D01*
X0010294Y0021894D01*
X0009046Y0018880D01*
X0009046Y0015616D01*
X0010294Y0012602D01*
X0012602Y0010294D01*
X0015616Y0009046D01*
X0018880Y0009046D01*
X0021894Y0010294D01*
X0024202Y0012602D01*
X0025450Y0015616D01*
X0025450Y0018880D01*
X0024202Y0021894D01*
X0021894Y0024202D01*
X0022629Y0023467D02*
X0036899Y0023467D01*
X0037897Y0022469D02*
X0023627Y0022469D01*
X0024377Y0021470D02*
X0038896Y0021470D01*
X0039894Y0020472D02*
X0024791Y0020472D01*
X0025205Y0019473D02*
X0040893Y0019473D01*
X0041891Y0018475D02*
X0025450Y0018475D01*
X0025450Y0017476D02*
X0042890Y0017476D01*
X0043888Y0016478D02*
X0025450Y0016478D01*
X0025393Y0015479D02*
X0044887Y0015479D01*
X0045885Y0014481D02*
X0024980Y0014481D01*
X0024566Y0013482D02*
X0046884Y0013482D01*
X0047882Y0012484D02*
X0024084Y0012484D01*
X0023085Y0011485D02*
X0048881Y0011485D01*
X0049879Y0010487D02*
X0022086Y0010487D01*
X0019948Y0009488D02*
X0050878Y0009488D01*
X0052032Y0008490D02*
X0003600Y0008490D01*
X0003600Y0009488D02*
X0014548Y0009488D01*
X0012410Y0010487D02*
X0003600Y0010487D01*
X0003600Y0011485D02*
X0011411Y0011485D01*
X0010413Y0012484D02*
X0003600Y0012484D01*
X0003600Y0013482D02*
X0009930Y0013482D01*
X0009516Y0014481D02*
X0003600Y0014481D01*
X0003600Y0015479D02*
X0009103Y0015479D01*
X0009046Y0016478D02*
X0003600Y0016478D01*
X0003600Y0017476D02*
X0009046Y0017476D01*
X0009046Y0018475D02*
X0003600Y0018475D01*
X0003600Y0019473D02*
X0009292Y0019473D01*
X0009705Y0020472D02*
X0003600Y0020472D01*
X0003600Y0021470D02*
X0010119Y0021470D01*
X0010869Y0022469D02*
X0003600Y0022469D01*
X0003600Y0023467D02*
X0011867Y0023467D01*
X0013239Y0024466D02*
X0003600Y0024466D01*
X0003600Y0007491D02*
X0233652Y0007491D01*
X0233652Y0006493D02*
X0003600Y0006493D01*
X0003600Y0005494D02*
X0233652Y0005494D01*
X0233652Y0004496D02*
X0003600Y0004496D01*
X0003600Y0003600D02*
X0003600Y0267117D01*
X0233652Y0267117D01*
X0233652Y0003600D01*
X0003600Y0003600D01*
X0084082Y0126314D02*
X0136132Y0126314D01*
X0135239Y0127312D02*
X0084082Y0127312D01*
X0084082Y0128311D02*
X0134825Y0128311D01*
X0134542Y0129309D02*
X0084082Y0129309D01*
X0084082Y0130308D02*
X0134542Y0130308D01*
X0134664Y0131306D02*
X0084082Y0131306D01*
X0084082Y0132305D02*
X0135077Y0132305D01*
X0135742Y0133303D02*
X0084082Y0133303D01*
X0084082Y0134302D02*
X0136742Y0134302D01*
X0139357Y0137298D02*
X0084082Y0137298D01*
X0084082Y0138296D02*
X0138359Y0138296D01*
X0137360Y0139295D02*
X0084082Y0139295D01*
X0084082Y0140293D02*
X0136362Y0140293D01*
X0135363Y0141292D02*
X0084082Y0141292D01*
X0084082Y0142290D02*
X0134365Y0142290D01*
X0133366Y0143289D02*
X0084082Y0143289D01*
X0084082Y0144287D02*
X0132564Y0144287D01*
X0132261Y0145286D02*
X0084082Y0145286D01*
X0084082Y0146284D02*
X0132261Y0146284D01*
X0132261Y0147283D02*
X0084082Y0147283D01*
X0084082Y0148281D02*
X0132261Y0148281D01*
X0132261Y0149280D02*
X0084082Y0149280D01*
X0084082Y0150278D02*
X0132261Y0150278D01*
X0132261Y0151277D02*
X0084082Y0151277D01*
X0084082Y0152275D02*
X0132261Y0152275D01*
X0132261Y0153274D02*
X0084082Y0153274D01*
X0084082Y0154272D02*
X0132261Y0154272D01*
X0132261Y0155271D02*
X0084082Y0155271D01*
X0084082Y0156269D02*
X0132261Y0156269D01*
X0132261Y0157268D02*
X0084082Y0157268D01*
X0084082Y0158266D02*
X0132261Y0158266D01*
X0132261Y0159265D02*
X0084082Y0159265D01*
X0084082Y0160263D02*
X0132261Y0160263D01*
X0132261Y0161262D02*
X0084082Y0161262D01*
X0084082Y0162260D02*
X0132261Y0162260D01*
X0132261Y0163259D02*
X0084082Y0163259D01*
X0084082Y0164257D02*
X0132261Y0164257D01*
X0132261Y0165256D02*
X0084082Y0165256D01*
X0084082Y0166254D02*
X0132261Y0166254D01*
X0132261Y0167253D02*
X0084082Y0167253D01*
X0084082Y0168251D02*
X0132261Y0168251D01*
X0132261Y0169250D02*
X0084082Y0169250D01*
X0084082Y0170248D02*
X0132261Y0170248D01*
X0132261Y0171247D02*
X0084082Y0171247D01*
X0084082Y0172245D02*
X0132261Y0172245D01*
X0132261Y0173244D02*
X0084082Y0173244D01*
X0084082Y0174242D02*
X0132261Y0174242D01*
X0132261Y0175241D02*
X0084082Y0175241D01*
X0084082Y0176239D02*
X0132261Y0176239D01*
X0132261Y0177238D02*
X0084082Y0177238D01*
X0084082Y0178237D02*
X0132261Y0178237D01*
X0132261Y0179235D02*
X0084082Y0179235D01*
X0084679Y0180234D02*
X0132261Y0180234D01*
X0132261Y0181232D02*
X0085677Y0181232D01*
X0086676Y0182231D02*
X0132261Y0182231D01*
X0132261Y0183229D02*
X0087674Y0183229D01*
X0088673Y0184228D02*
X0132261Y0184228D01*
X0132261Y0185226D02*
X0089671Y0185226D01*
X0090670Y0186225D02*
X0132261Y0186225D01*
X0132261Y0187223D02*
X0091668Y0187223D01*
X0092667Y0188222D02*
X0132261Y0188222D01*
X0132261Y0189220D02*
X0093665Y0189220D01*
X0094664Y0190219D02*
X0132261Y0190219D01*
X0132261Y0191217D02*
X0095662Y0191217D01*
X0096661Y0192216D02*
X0132261Y0192216D01*
X0132261Y0193214D02*
X0097659Y0193214D01*
X0098658Y0194213D02*
X0132261Y0194213D01*
X0132261Y0195211D02*
X0099656Y0195211D01*
X0100655Y0196210D02*
X0132261Y0196210D01*
X0132261Y0197208D02*
X0101653Y0197208D01*
X0102652Y0198207D02*
X0132261Y0198207D01*
X0132261Y0199205D02*
X0103650Y0199205D01*
X0104649Y0200204D02*
X0132150Y0200204D01*
X0131573Y0201202D02*
X0105647Y0201202D01*
X0106646Y0202201D02*
X0131280Y0202201D01*
X0131280Y0203199D02*
X0107644Y0203199D01*
X0108643Y0204198D02*
X0131589Y0204198D01*
X0132188Y0205196D02*
X0109641Y0205196D01*
X0110640Y0206195D02*
X0133502Y0206195D01*
X0109904Y0216180D02*
X0082236Y0216180D01*
X0083196Y0215181D02*
X0108982Y0215181D01*
X0108163Y0214183D02*
X0083610Y0214183D01*
X0084023Y0213184D02*
X0107164Y0213184D01*
X0106166Y0212186D02*
X0084387Y0212186D01*
X0084387Y0211187D02*
X0105167Y0211187D01*
X0104169Y0210189D02*
X0084387Y0210189D01*
X0084387Y0209190D02*
X0103170Y0209190D01*
X0102172Y0208192D02*
X0084003Y0208192D01*
X0083589Y0207193D02*
X0101173Y0207193D01*
X0100175Y0206195D02*
X0083176Y0206195D01*
X0082187Y0205196D02*
X0099176Y0205196D01*
X0098178Y0204198D02*
X0081189Y0204198D01*
X0079163Y0203199D02*
X0097179Y0203199D01*
X0074111Y0222171D02*
X0024156Y0222171D01*
X0023158Y0223170D02*
X0073361Y0223170D01*
X0073361Y0224168D02*
X0022159Y0224168D01*
X0021161Y0225167D02*
X0073361Y0225167D01*
X0073361Y0226165D02*
X0020162Y0226165D01*
X0019403Y0227164D02*
X0073361Y0227164D01*
X0073361Y0228162D02*
X0019403Y0228162D01*
X0019403Y0229161D02*
X0073361Y0229161D01*
X0073361Y0230159D02*
X0019403Y0230159D01*
X0019403Y0231158D02*
X0073361Y0231158D01*
X0073361Y0232156D02*
X0019403Y0232156D01*
X0019403Y0233155D02*
X0073361Y0233155D01*
X0073361Y0234153D02*
X0019403Y0234153D01*
X0018755Y0235152D02*
X0074009Y0235152D01*
X0025450Y0251837D02*
X0024202Y0248822D01*
X0021894Y0246515D01*
X0018880Y0245266D01*
X0015616Y0245266D01*
X0012602Y0246515D01*
X0010294Y0248822D01*
X0009046Y0251837D01*
X0009046Y0255100D01*
X0010294Y0258115D01*
X0012602Y0260422D01*
X0015616Y0261671D01*
X0018880Y0261671D01*
X0021894Y0260422D01*
X0024202Y0258115D01*
X0025450Y0255100D01*
X0025450Y0251837D01*
X0025450Y0252126D02*
X0211802Y0252126D01*
X0211802Y0251837D02*
X0213050Y0248822D01*
X0215358Y0246515D01*
X0218372Y0245266D01*
X0221635Y0245266D01*
X0224650Y0246515D01*
X0226958Y0248822D01*
X0228206Y0251837D01*
X0228206Y0255100D01*
X0226958Y0258115D01*
X0224650Y0260422D01*
X0221635Y0261671D01*
X0218372Y0261671D01*
X0215358Y0260422D01*
X0213050Y0258115D01*
X0211802Y0255100D01*
X0211802Y0251837D01*
X0212095Y0251128D02*
X0025157Y0251128D01*
X0024743Y0250129D02*
X0212509Y0250129D01*
X0212922Y0249131D02*
X0024329Y0249131D01*
X0023512Y0248132D02*
X0213740Y0248132D01*
X0214739Y0247134D02*
X0022513Y0247134D01*
X0020978Y0246135D02*
X0216274Y0246135D01*
X0223734Y0246135D02*
X0233652Y0246135D01*
X0233652Y0245137D02*
X0003600Y0245137D01*
X0003600Y0246135D02*
X0013518Y0246135D01*
X0011983Y0247134D02*
X0003600Y0247134D01*
X0003600Y0248132D02*
X0010984Y0248132D01*
X0010167Y0249131D02*
X0003600Y0249131D01*
X0003600Y0250129D02*
X0009753Y0250129D01*
X0009339Y0251128D02*
X0003600Y0251128D01*
X0003600Y0252126D02*
X0009046Y0252126D01*
X0009046Y0253125D02*
X0003600Y0253125D01*
X0003600Y0254123D02*
X0009046Y0254123D01*
X0009055Y0255122D02*
X0003600Y0255122D01*
X0003600Y0256120D02*
X0009468Y0256120D01*
X0009882Y0257119D02*
X0003600Y0257119D01*
X0003600Y0258117D02*
X0010297Y0258117D01*
X0011296Y0259116D02*
X0003600Y0259116D01*
X0003600Y0260114D02*
X0012294Y0260114D01*
X0014270Y0261113D02*
X0003600Y0261113D01*
X0003600Y0262111D02*
X0233652Y0262111D01*
X0233652Y0261113D02*
X0222982Y0261113D01*
X0224958Y0260114D02*
X0233652Y0260114D01*
X0233652Y0259116D02*
X0225956Y0259116D01*
X0226955Y0258117D02*
X0233652Y0258117D01*
X0233652Y0257119D02*
X0227370Y0257119D01*
X0227784Y0256120D02*
X0233652Y0256120D01*
X0233652Y0255122D02*
X0228197Y0255122D01*
X0228206Y0254123D02*
X0233652Y0254123D01*
X0233652Y0253125D02*
X0228206Y0253125D01*
X0228206Y0252126D02*
X0233652Y0252126D01*
X0233652Y0251128D02*
X0227913Y0251128D01*
X0227499Y0250129D02*
X0233652Y0250129D01*
X0233652Y0249131D02*
X0227085Y0249131D01*
X0226268Y0248132D02*
X0233652Y0248132D01*
X0233652Y0247134D02*
X0225269Y0247134D01*
X0233652Y0244138D02*
X0003600Y0244138D01*
X0003600Y0243140D02*
X0233652Y0243140D01*
X0233652Y0242141D02*
X0003600Y0242141D01*
X0003600Y0241143D02*
X0233652Y0241143D01*
X0233652Y0240144D02*
X0003600Y0240144D01*
X0003600Y0239146D02*
X0233652Y0239146D01*
X0233652Y0238147D02*
X0003600Y0238147D01*
X0003600Y0237149D02*
X0233652Y0237149D01*
X0214051Y0259116D02*
X0023200Y0259116D01*
X0022202Y0260114D02*
X0215050Y0260114D01*
X0217025Y0261113D02*
X0020227Y0261113D01*
X0024199Y0258117D02*
X0213053Y0258117D01*
X0212638Y0257119D02*
X0024614Y0257119D01*
X0025028Y0256120D02*
X0212224Y0256120D01*
X0211811Y0255122D02*
X0025441Y0255122D01*
X0025450Y0254123D02*
X0211802Y0254123D01*
X0211802Y0253125D02*
X0025450Y0253125D01*
X0003600Y0263110D02*
X0233652Y0263110D01*
X0233652Y0264108D02*
X0003600Y0264108D01*
X0003600Y0265107D02*
X0233652Y0265107D01*
X0233652Y0266105D02*
X0003600Y0266105D01*
X0003600Y0267104D02*
X0233652Y0267104D01*
X0159924Y0176239D02*
X0138061Y0176239D01*
X0138061Y0175241D02*
X0158991Y0175241D01*
X0158577Y0174242D02*
X0146057Y0174242D01*
X0147056Y0173244D02*
X0158316Y0173244D01*
X0157317Y0172245D02*
X0147503Y0172245D01*
X0147704Y0171247D02*
X0156319Y0171247D01*
X0155320Y0170248D02*
X0148664Y0170248D01*
X0149662Y0169250D02*
X0154322Y0169250D01*
X0153352Y0168251D02*
X0150661Y0168251D01*
X0151659Y0167253D02*
X0152938Y0167253D01*
X0152931Y0166254D02*
X0152658Y0166254D01*
X0148206Y0162260D02*
X0138061Y0162260D01*
X0138061Y0161262D02*
X0148206Y0161262D01*
X0148206Y0160263D02*
X0138061Y0160263D01*
X0138061Y0159265D02*
X0148206Y0159265D01*
X0148206Y0158266D02*
X0138061Y0158266D01*
X0138061Y0157268D02*
X0148206Y0157268D01*
X0148206Y0156269D02*
X0138061Y0156269D01*
X0138061Y0155271D02*
X0148206Y0155271D01*
X0148206Y0154272D02*
X0138061Y0154272D01*
X0138061Y0153274D02*
X0148206Y0153274D01*
X0148206Y0152275D02*
X0138061Y0152275D01*
X0138061Y0151277D02*
X0148206Y0151277D01*
X0148206Y0150278D02*
X0138061Y0150278D01*
X0138061Y0149280D02*
X0148206Y0149280D01*
X0148206Y0148281D02*
X0138061Y0148281D01*
X0138061Y0147283D02*
X0148206Y0147283D01*
X0148206Y0146284D02*
X0138573Y0146284D01*
X0139571Y0145286D02*
X0148206Y0145286D01*
X0148206Y0144287D02*
X0140570Y0144287D01*
X0141569Y0143289D02*
X0148206Y0143289D01*
X0148206Y0142290D02*
X0142567Y0142290D01*
X0143566Y0141292D02*
X0148206Y0141292D01*
X0148206Y0140293D02*
X0144564Y0140293D01*
X0145563Y0139295D02*
X0148206Y0139295D01*
X0148206Y0138296D02*
X0146561Y0138296D01*
X0147560Y0137298D02*
X0148206Y0137298D01*
X0141354Y0135301D02*
X0084082Y0135301D01*
X0084082Y0136299D02*
X0140356Y0136299D01*
X0153369Y0119324D02*
X0153590Y0119324D01*
X0152956Y0118326D02*
X0154589Y0118326D01*
X0155587Y0117327D02*
X0152147Y0117327D01*
X0147451Y0163259D02*
X0138061Y0163259D01*
X0138061Y0164257D02*
X0146452Y0164257D01*
X0145454Y0165256D02*
X0138061Y0165256D01*
X0138061Y0166254D02*
X0144455Y0166254D01*
X0142699Y0167253D02*
X0138061Y0167253D01*
X0138061Y0168251D02*
X0141071Y0168251D01*
X0140342Y0169250D02*
X0138061Y0169250D01*
X0138061Y0170248D02*
X0139942Y0170248D01*
X0139942Y0171247D02*
X0138061Y0171247D01*
X0138061Y0172245D02*
X0140143Y0172245D01*
X0140590Y0173244D02*
X0138061Y0173244D01*
X0138061Y0174242D02*
X0141588Y0174242D01*
X0201536Y0125315D02*
X0233652Y0125315D01*
X0233652Y0124317D02*
X0202442Y0124317D01*
X0203464Y0123318D02*
X0233652Y0123318D01*
X0233652Y0122320D02*
X0204137Y0122320D01*
X0204551Y0121321D02*
X0233652Y0121321D01*
X0233652Y0120323D02*
X0204679Y0120323D01*
X0204679Y0119324D02*
X0233652Y0119324D01*
X0233652Y0118326D02*
X0204401Y0118326D01*
X0203988Y0117327D02*
X0233652Y0117327D01*
X0233652Y0116329D02*
X0203103Y0116329D01*
X0201572Y0115330D02*
X0233652Y0115330D01*
X0233652Y0114332D02*
X0202407Y0114332D01*
X0203449Y0113333D02*
X0233652Y0113333D01*
X0233652Y0112335D02*
X0204131Y0112335D01*
X0204544Y0111336D02*
X0233652Y0111336D01*
X0233652Y0110338D02*
X0204679Y0110338D01*
X0204679Y0109339D02*
X0233652Y0109339D01*
X0233652Y0108341D02*
X0204407Y0108341D01*
X0203994Y0107342D02*
X0233652Y0107342D01*
X0233652Y0106344D02*
X0203118Y0106344D01*
X0201608Y0105345D02*
X0233652Y0105345D01*
X0233652Y0104347D02*
X0202371Y0104347D01*
X0203434Y0103348D02*
X0233652Y0103348D01*
X0233652Y0102350D02*
X0204125Y0102350D01*
X0204538Y0101351D02*
X0233652Y0101351D01*
X0233652Y0100353D02*
X0204679Y0100353D01*
X0204679Y0099354D02*
X0233652Y0099354D01*
X0233652Y0098356D02*
X0204414Y0098356D01*
X0204000Y0097357D02*
X0233652Y0097357D01*
X0233652Y0096359D02*
X0203133Y0096359D01*
X0201644Y0095360D02*
X0233652Y0095360D01*
X0233652Y0094362D02*
X0202335Y0094362D01*
X0203419Y0093363D02*
X0233652Y0093363D01*
X0233652Y0092365D02*
X0204119Y0092365D01*
X0204532Y0091366D02*
X0233652Y0091366D01*
X0233652Y0090368D02*
X0204679Y0090368D01*
X0204679Y0089369D02*
X0233652Y0089369D01*
X0233652Y0088370D02*
X0204420Y0088370D01*
X0204006Y0087372D02*
X0233652Y0087372D01*
X0233652Y0086373D02*
X0203148Y0086373D01*
X0201679Y0085375D02*
X0233652Y0085375D01*
X0233652Y0084376D02*
X0202299Y0084376D01*
X0203404Y0083378D02*
X0233652Y0083378D01*
X0233652Y0082379D02*
X0204112Y0082379D01*
X0204526Y0081381D02*
X0233652Y0081381D01*
X0233652Y0080382D02*
X0204679Y0080382D01*
X0204679Y0079384D02*
X0233652Y0079384D01*
X0233652Y0078385D02*
X0204426Y0078385D01*
X0204012Y0077387D02*
X0233652Y0077387D01*
X0233652Y0076388D02*
X0203163Y0076388D01*
X0201715Y0075390D02*
X0233652Y0075390D01*
X0233652Y0074391D02*
X0202263Y0074391D01*
X0203389Y0073393D02*
X0233652Y0073393D01*
X0233652Y0072394D02*
X0204106Y0072394D01*
X0204520Y0071396D02*
X0233652Y0071396D01*
X0233652Y0070397D02*
X0204679Y0070397D01*
X0204679Y0069399D02*
X0233652Y0069399D01*
X0233652Y0068400D02*
X0204432Y0068400D01*
X0204018Y0067402D02*
X0233652Y0067402D01*
X0233652Y0066403D02*
X0203177Y0066403D01*
X0201751Y0065405D02*
X0233652Y0065405D01*
X0233652Y0064406D02*
X0202227Y0064406D01*
X0203374Y0063408D02*
X0233652Y0063408D01*
X0233652Y0062409D02*
X0204100Y0062409D01*
X0204514Y0061411D02*
X0233652Y0061411D01*
X0233652Y0060412D02*
X0204679Y0060412D01*
X0204679Y0059414D02*
X0233652Y0059414D01*
X0233652Y0058415D02*
X0204438Y0058415D01*
X0204025Y0057417D02*
X0233652Y0057417D01*
X0233652Y0056418D02*
X0203192Y0056418D01*
X0201787Y0055420D02*
X0233652Y0055420D01*
X0233652Y0054421D02*
X0202191Y0054421D01*
X0203360Y0053423D02*
X0233652Y0053423D01*
X0233652Y0052424D02*
X0204094Y0052424D01*
X0204507Y0051426D02*
X0233652Y0051426D01*
X0233652Y0050427D02*
X0204679Y0050427D01*
X0204679Y0049429D02*
X0233652Y0049429D01*
X0233652Y0048430D02*
X0204444Y0048430D01*
X0204031Y0047432D02*
X0233652Y0047432D01*
X0233652Y0046433D02*
X0203207Y0046433D01*
X0201823Y0045434D02*
X0233652Y0045434D01*
X0233652Y0044436D02*
X0202155Y0044436D01*
X0203345Y0043437D02*
X0233652Y0043437D01*
X0233652Y0042439D02*
X0204088Y0042439D01*
X0204501Y0041440D02*
X0233652Y0041440D01*
X0233652Y0040442D02*
X0204679Y0040442D01*
X0204679Y0039443D02*
X0233652Y0039443D01*
X0233652Y0038445D02*
X0204451Y0038445D01*
X0204037Y0037446D02*
X0233652Y0037446D01*
X0233652Y0036448D02*
X0203222Y0036448D01*
X0201859Y0035449D02*
X0233652Y0035449D01*
X0233652Y0034451D02*
X0202119Y0034451D01*
X0203330Y0033452D02*
X0233652Y0033452D01*
X0233652Y0032454D02*
X0204082Y0032454D01*
X0204495Y0031455D02*
X0233652Y0031455D01*
X0233652Y0030457D02*
X0204679Y0030457D01*
X0204679Y0029458D02*
X0233652Y0029458D01*
X0233652Y0028460D02*
X0204457Y0028460D01*
X0204043Y0027461D02*
X0233652Y0027461D01*
X0233652Y0026463D02*
X0203237Y0026463D01*
X0201895Y0025464D02*
X0233652Y0025464D01*
X0233652Y0024466D02*
X0224013Y0024466D01*
X0224650Y0024202D02*
X0221635Y0025450D01*
X0218372Y0025450D01*
X0215358Y0024202D01*
X0213050Y0021894D01*
X0211802Y0018880D01*
X0211802Y0015616D01*
X0213050Y0012602D01*
X0215358Y0010294D01*
X0218372Y0009046D01*
X0221635Y0009046D01*
X0224650Y0010294D01*
X0226958Y0012602D01*
X0228206Y0015616D01*
X0228206Y0018880D01*
X0226958Y0021894D01*
X0224650Y0024202D01*
X0225385Y0023467D02*
X0233652Y0023467D01*
X0233652Y0022469D02*
X0226383Y0022469D01*
X0227133Y0021470D02*
X0233652Y0021470D01*
X0233652Y0020472D02*
X0227547Y0020472D01*
X0227960Y0019473D02*
X0233652Y0019473D01*
X0233652Y0018475D02*
X0228206Y0018475D01*
X0228206Y0017476D02*
X0233652Y0017476D01*
X0233652Y0016478D02*
X0228206Y0016478D01*
X0228149Y0015479D02*
X0233652Y0015479D01*
X0233652Y0014481D02*
X0227736Y0014481D01*
X0227322Y0013482D02*
X0233652Y0013482D01*
X0233652Y0012484D02*
X0226839Y0012484D01*
X0225841Y0011485D02*
X0233652Y0011485D01*
X0233652Y0010487D02*
X0224842Y0010487D01*
X0222704Y0009488D02*
X0233652Y0009488D01*
X0233652Y0008490D02*
X0133173Y0008490D01*
X0134327Y0009488D02*
X0217304Y0009488D01*
X0215165Y0010487D02*
X0135325Y0010487D01*
X0136324Y0011485D02*
X0214167Y0011485D01*
X0213168Y0012484D02*
X0137323Y0012484D01*
X0138321Y0013482D02*
X0212686Y0013482D01*
X0212272Y0014481D02*
X0139320Y0014481D01*
X0141931Y0015479D02*
X0197289Y0015479D01*
X0195969Y0016478D02*
X0143252Y0016478D01*
X0144049Y0017476D02*
X0195171Y0017476D01*
X0194758Y0018475D02*
X0144463Y0018475D01*
X0144679Y0019473D02*
X0194542Y0019473D01*
X0194542Y0020472D02*
X0144679Y0020472D01*
X0144489Y0021470D02*
X0194731Y0021470D01*
X0195145Y0022469D02*
X0144075Y0022469D01*
X0143315Y0023467D02*
X0195906Y0023467D01*
X0197137Y0024466D02*
X0142083Y0024466D01*
X0140094Y0026463D02*
X0139126Y0026463D01*
X0139126Y0027461D02*
X0140094Y0027461D01*
X0140094Y0028460D02*
X0139126Y0028460D01*
X0139126Y0029458D02*
X0140094Y0029458D01*
X0143837Y0031455D02*
X0194725Y0031455D01*
X0195139Y0032454D02*
X0143354Y0032454D01*
X0179483Y0033452D02*
X0195891Y0033452D01*
X0197101Y0034451D02*
X0180481Y0034451D01*
X0181480Y0035449D02*
X0197361Y0035449D01*
X0195998Y0036448D02*
X0182478Y0036448D01*
X0183477Y0037446D02*
X0195183Y0037446D01*
X0194770Y0038445D02*
X0184475Y0038445D01*
X0185474Y0039443D02*
X0194542Y0039443D01*
X0194542Y0040442D02*
X0186472Y0040442D01*
X0187471Y0041440D02*
X0194719Y0041440D01*
X0195133Y0042439D02*
X0188469Y0042439D01*
X0189468Y0043437D02*
X0195876Y0043437D01*
X0197066Y0044436D02*
X0190466Y0044436D01*
X0191465Y0045434D02*
X0197397Y0045434D01*
X0196013Y0046433D02*
X0192463Y0046433D01*
X0193153Y0047432D02*
X0195190Y0047432D01*
X0194776Y0048430D02*
X0193376Y0048430D01*
X0193376Y0049429D02*
X0194542Y0049429D01*
X0194542Y0050427D02*
X0193376Y0050427D01*
X0193376Y0051426D02*
X0194713Y0051426D01*
X0195127Y0052424D02*
X0193376Y0052424D01*
X0193376Y0053423D02*
X0195861Y0053423D01*
X0197030Y0054421D02*
X0193376Y0054421D01*
X0193376Y0055420D02*
X0197433Y0055420D01*
X0196028Y0056418D02*
X0193376Y0056418D01*
X0193376Y0057417D02*
X0195196Y0057417D01*
X0194782Y0058415D02*
X0193376Y0058415D01*
X0193376Y0059414D02*
X0194542Y0059414D01*
X0194542Y0060412D02*
X0193376Y0060412D01*
X0193376Y0061411D02*
X0194707Y0061411D01*
X0195120Y0062409D02*
X0193376Y0062409D01*
X0193376Y0063408D02*
X0195846Y0063408D01*
X0196994Y0064406D02*
X0193376Y0064406D01*
X0193376Y0065405D02*
X0197469Y0065405D01*
X0196043Y0066403D02*
X0193376Y0066403D01*
X0193376Y0067402D02*
X0195202Y0067402D01*
X0194788Y0068400D02*
X0193376Y0068400D01*
X0193376Y0069399D02*
X0194542Y0069399D01*
X0194542Y0070397D02*
X0193376Y0070397D01*
X0193376Y0071396D02*
X0194701Y0071396D01*
X0195114Y0072394D02*
X0193376Y0072394D01*
X0193376Y0073393D02*
X0195831Y0073393D01*
X0196958Y0074391D02*
X0193376Y0074391D01*
X0193376Y0075390D02*
X0197505Y0075390D01*
X0196058Y0076388D02*
X0193376Y0076388D01*
X0193376Y0077387D02*
X0195208Y0077387D01*
X0194795Y0078385D02*
X0193376Y0078385D01*
X0193376Y0079384D02*
X0194542Y0079384D01*
X0194542Y0080382D02*
X0193376Y0080382D01*
X0193376Y0081381D02*
X0194694Y0081381D01*
X0195108Y0082379D02*
X0193376Y0082379D01*
X0193376Y0083378D02*
X0195816Y0083378D01*
X0196922Y0084376D02*
X0193376Y0084376D01*
X0193376Y0085375D02*
X0197541Y0085375D01*
X0196073Y0086373D02*
X0193376Y0086373D01*
X0193376Y0087372D02*
X0195214Y0087372D01*
X0203088Y0126314D02*
X0233652Y0126314D01*
X0233652Y0127312D02*
X0203981Y0127312D01*
X0204395Y0128311D02*
X0233652Y0128311D01*
X0233652Y0129309D02*
X0204679Y0129309D01*
X0204679Y0130308D02*
X0233652Y0130308D01*
X0233652Y0131306D02*
X0204557Y0131306D01*
X0204143Y0132305D02*
X0233652Y0132305D01*
X0233652Y0133303D02*
X0203479Y0133303D01*
X0202478Y0134302D02*
X0233652Y0134302D01*
X0215995Y0024466D02*
X0202083Y0024466D01*
X0203315Y0023467D02*
X0214623Y0023467D01*
X0213625Y0022469D02*
X0204075Y0022469D01*
X0204489Y0021470D02*
X0212875Y0021470D01*
X0212461Y0020472D02*
X0204679Y0020472D01*
X0204679Y0019473D02*
X0212047Y0019473D01*
X0211802Y0018475D02*
X0204463Y0018475D01*
X0204049Y0017476D02*
X0211802Y0017476D01*
X0211802Y0016478D02*
X0203252Y0016478D01*
X0201931Y0015479D02*
X0211858Y0015479D01*
M02*
