%
M48
M72
T01C0.02362
T02C0.03937
T03C0.04016
T04C0.05906
T05C0.11811
T06C0.12205
%
T01
X116854Y83193
X124335Y76500
X130240Y78665
X162130Y114886
X149531Y120201
X155831Y128075
X164492Y147563
X164492Y164886
X162327Y173154
X143823Y170988
X135161Y202681
X112327Y213114
X178075Y215673
X186539Y184374
X177878Y121185
X184138Y94531
T02
X199610Y90004
X199610Y100004
X199610Y110004
X199610Y120004
X199610Y130004
X199610Y80004
X199610Y70004
X199610Y60004
X199610Y50004
X199610Y40004
X199610Y30004
X199610Y20004
X139610Y20004
X139610Y30004
X139610Y40004
X139610Y50004
X139610Y60004
X139610Y70004
X139610Y80004
X139610Y90004
X139610Y100004
X139610Y110004
X139610Y120004
X139610Y130004
T03
X107799Y53075
X107799Y41264
X95988Y41264
X95988Y53075
X84177Y53075
X84177Y41264
X72366Y41264
X72366Y53075
X60555Y53075
X60555Y41264
T04
X80382Y72713
X12382Y72713
X12382Y228713
X80382Y228713
T05
X76382Y210713
X16382Y93713
X69059Y24256
X99295Y24256
T06
X17248Y17248
X220004Y17248
X220004Y253469
X17248Y253469
M30
