G75*
%MOIN*%
%OFA0B0*%
%FSLAX25Y25*%
%IPPOS*%
%LPD*%
%AMOC8*
5,1,8,0,0,1.08239X$1,22.5*
%
%ADD10C,0.00000*%
%ADD11R,0.01339X0.00039*%
%ADD12R,0.02244X0.00039*%
%ADD13R,0.02874X0.00039*%
%ADD14R,0.03346X0.00039*%
%ADD15R,0.03819X0.00039*%
%ADD16R,0.03780X0.00039*%
%ADD17R,0.04173X0.00039*%
%ADD18R,0.04528X0.00039*%
%ADD19R,0.04843X0.00039*%
%ADD20R,0.05157X0.00039*%
%ADD21R,0.05472X0.00039*%
%ADD22R,0.05709X0.00039*%
%ADD23R,0.05984X0.00039*%
%ADD24R,0.06260X0.00039*%
%ADD25R,0.06220X0.00039*%
%ADD26R,0.06496X0.00039*%
%ADD27R,0.06693X0.00039*%
%ADD28R,0.06890X0.00039*%
%ADD29R,0.06929X0.00039*%
%ADD30R,0.07126X0.00039*%
%ADD31R,0.07362X0.00039*%
%ADD32R,0.07520X0.00039*%
%ADD33R,0.07756X0.00039*%
%ADD34R,0.07913X0.00039*%
%ADD35R,0.16063X0.00039*%
%ADD36R,0.16299X0.00039*%
%ADD37R,0.16457X0.00039*%
%ADD38R,0.16614X0.00039*%
%ADD39R,0.16772X0.00039*%
%ADD40R,0.16929X0.00039*%
%ADD41R,0.17087X0.00039*%
%ADD42R,0.17244X0.00039*%
%ADD43R,0.17402X0.00039*%
%ADD44R,0.17559X0.00039*%
%ADD45R,0.17717X0.00039*%
%ADD46R,0.17795X0.00039*%
%ADD47R,0.17953X0.00039*%
%ADD48R,0.18110X0.00039*%
%ADD49R,0.18268X0.00039*%
%ADD50R,0.18346X0.00039*%
%ADD51R,0.18504X0.00039*%
%ADD52R,0.18661X0.00039*%
%ADD53R,0.18740X0.00039*%
%ADD54R,0.18898X0.00039*%
%ADD55R,0.18976X0.00039*%
%ADD56R,0.19134X0.00039*%
%ADD57R,0.19213X0.00039*%
%ADD58R,0.19370X0.00039*%
%ADD59R,0.19449X0.00039*%
%ADD60R,0.19606X0.00039*%
%ADD61R,0.19685X0.00039*%
%ADD62R,0.19843X0.00039*%
%ADD63R,0.19921X0.00039*%
%ADD64R,0.20000X0.00039*%
%ADD65R,0.20157X0.00039*%
%ADD66R,0.20236X0.00039*%
%ADD67R,0.20315X0.00039*%
%ADD68R,0.20472X0.00039*%
%ADD69R,0.20551X0.00039*%
%ADD70R,0.20630X0.00039*%
%ADD71R,0.20709X0.00039*%
%ADD72R,0.20866X0.00039*%
%ADD73R,0.20945X0.00039*%
%ADD74R,0.21024X0.00039*%
%ADD75R,0.21102X0.00039*%
%ADD76R,0.21181X0.00039*%
%ADD77R,0.21339X0.00039*%
%ADD78R,0.21417X0.00039*%
%ADD79R,0.21496X0.00039*%
%ADD80R,0.21575X0.00039*%
%ADD81R,0.21654X0.00039*%
%ADD82R,0.21732X0.00039*%
%ADD83R,0.21811X0.00039*%
%ADD84R,0.21890X0.00039*%
%ADD85R,0.11024X0.00039*%
%ADD86R,0.10551X0.00039*%
%ADD87R,0.08740X0.00039*%
%ADD88R,0.10984X0.00039*%
%ADD89R,0.02835X0.00039*%
%ADD90R,0.21969X0.00039*%
%ADD91R,0.11614X0.00039*%
%ADD92R,0.11181X0.00039*%
%ADD93R,0.09331X0.00039*%
%ADD94R,0.03858X0.00039*%
%ADD95R,0.22047X0.00039*%
%ADD96R,0.10748X0.00039*%
%ADD97R,0.11890X0.00039*%
%ADD98R,0.11457X0.00039*%
%ADD99R,0.09606X0.00039*%
%ADD100R,0.22126X0.00039*%
%ADD101R,0.11260X0.00039*%
%ADD102R,0.12126X0.00039*%
%ADD103R,0.11693X0.00039*%
%ADD104R,0.09803X0.00039*%
%ADD105R,0.22205X0.00039*%
%ADD106R,0.11575X0.00039*%
%ADD107R,0.12283X0.00039*%
%ADD108R,0.11850X0.00039*%
%ADD109R,0.10000X0.00039*%
%ADD110R,0.22283X0.00039*%
%ADD111R,0.11772X0.00039*%
%ADD112R,0.12441X0.00039*%
%ADD113R,0.12008X0.00039*%
%ADD114R,0.10157X0.00039*%
%ADD115R,0.22362X0.00039*%
%ADD116R,0.11969X0.00039*%
%ADD117R,0.12559X0.00039*%
%ADD118R,0.10276X0.00039*%
%ADD119R,0.22441X0.00039*%
%ADD120R,0.12677X0.00039*%
%ADD121R,0.12244X0.00039*%
%ADD122R,0.10394X0.00039*%
%ADD123R,0.22520X0.00039*%
%ADD124R,0.12795X0.00039*%
%ADD125R,0.12362X0.00039*%
%ADD126R,0.10512X0.00039*%
%ADD127R,0.22598X0.00039*%
%ADD128R,0.12874X0.00039*%
%ADD129R,0.10591X0.00039*%
%ADD130R,0.22677X0.00039*%
%ADD131R,0.12480X0.00039*%
%ADD132R,0.12953X0.00039*%
%ADD133R,0.12520X0.00039*%
%ADD134R,0.10669X0.00039*%
%ADD135R,0.13031X0.00039*%
%ADD136R,0.12598X0.00039*%
%ADD137R,0.12638X0.00039*%
%ADD138R,0.13110X0.00039*%
%ADD139R,0.10827X0.00039*%
%ADD140R,0.06299X0.00039*%
%ADD141R,0.06969X0.00039*%
%ADD142R,0.12717X0.00039*%
%ADD143R,0.13189X0.00039*%
%ADD144R,0.12756X0.00039*%
%ADD145R,0.10866X0.00039*%
%ADD146R,0.06102X0.00039*%
%ADD147R,0.07008X0.00039*%
%ADD148R,0.13228X0.00039*%
%ADD149R,0.10945X0.00039*%
%ADD150R,0.05945X0.00039*%
%ADD151R,0.07087X0.00039*%
%ADD152R,0.13307X0.00039*%
%ADD153R,0.05827X0.00039*%
%ADD154R,0.07165X0.00039*%
%ADD155R,0.12913X0.00039*%
%ADD156R,0.13346X0.00039*%
%ADD157R,0.11063X0.00039*%
%ADD158R,0.05748X0.00039*%
%ADD159R,0.07244X0.00039*%
%ADD160R,0.12992X0.00039*%
%ADD161R,0.13386X0.00039*%
%ADD162R,0.11102X0.00039*%
%ADD163R,0.13425X0.00039*%
%ADD164R,0.05630X0.00039*%
%ADD165R,0.07323X0.00039*%
%ADD166R,0.13465X0.00039*%
%ADD167R,0.11142X0.00039*%
%ADD168R,0.05551X0.00039*%
%ADD169R,0.07402X0.00039*%
%ADD170R,0.13071X0.00039*%
%ADD171R,0.13504X0.00039*%
%ADD172R,0.11220X0.00039*%
%ADD173R,0.07480X0.00039*%
%ADD174R,0.13543X0.00039*%
%ADD175R,0.05354X0.00039*%
%ADD176R,0.07559X0.00039*%
%ADD177R,0.13583X0.00039*%
%ADD178R,0.13150X0.00039*%
%ADD179R,0.11299X0.00039*%
%ADD180R,0.05276X0.00039*%
%ADD181R,0.07598X0.00039*%
%ADD182R,0.13622X0.00039*%
%ADD183R,0.11339X0.00039*%
%ADD184R,0.05236X0.00039*%
%ADD185R,0.07638X0.00039*%
%ADD186R,0.13268X0.00039*%
%ADD187R,0.13661X0.00039*%
%ADD188R,0.11378X0.00039*%
%ADD189R,0.07717X0.00039*%
%ADD190R,0.13701X0.00039*%
%ADD191R,0.11417X0.00039*%
%ADD192R,0.05118X0.00039*%
%ADD193R,0.07795X0.00039*%
%ADD194R,0.13740X0.00039*%
%ADD195R,0.05079X0.00039*%
%ADD196R,0.07874X0.00039*%
%ADD197R,0.13780X0.00039*%
%ADD198R,0.04961X0.00039*%
%ADD199R,0.07953X0.00039*%
%ADD200R,0.11496X0.00039*%
%ADD201R,0.13819X0.00039*%
%ADD202R,0.04921X0.00039*%
%ADD203R,0.11535X0.00039*%
%ADD204R,0.04882X0.00039*%
%ADD205R,0.08031X0.00039*%
%ADD206R,0.13858X0.00039*%
%ADD207R,0.08110X0.00039*%
%ADD208R,0.13898X0.00039*%
%ADD209R,0.04803X0.00039*%
%ADD210R,0.08189X0.00039*%
%ADD211R,0.13937X0.00039*%
%ADD212R,0.04724X0.00039*%
%ADD213R,0.08268X0.00039*%
%ADD214R,0.11654X0.00039*%
%ADD215R,0.13976X0.00039*%
%ADD216R,0.04685X0.00039*%
%ADD217R,0.08346X0.00039*%
%ADD218R,0.04646X0.00039*%
%ADD219R,0.08425X0.00039*%
%ADD220R,0.14016X0.00039*%
%ADD221R,0.11732X0.00039*%
%ADD222R,0.04567X0.00039*%
%ADD223R,0.08504X0.00039*%
%ADD224R,0.14055X0.00039*%
%ADD225R,0.08583X0.00039*%
%ADD226R,0.14094X0.00039*%
%ADD227R,0.04488X0.00039*%
%ADD228R,0.08661X0.00039*%
%ADD229R,0.11811X0.00039*%
%ADD230R,0.04449X0.00039*%
%ADD231R,0.14134X0.00039*%
%ADD232R,0.04409X0.00039*%
%ADD233R,0.08819X0.00039*%
%ADD234R,0.14173X0.00039*%
%ADD235R,0.04331X0.00039*%
%ADD236R,0.04370X0.00039*%
%ADD237R,0.04291X0.00039*%
%ADD238R,0.14213X0.00039*%
%ADD239R,0.11929X0.00039*%
%ADD240R,0.04252X0.00039*%
%ADD241R,0.14252X0.00039*%
%ADD242R,0.04213X0.00039*%
%ADD243R,0.14291X0.00039*%
%ADD244R,0.04134X0.00039*%
%ADD245R,0.04094X0.00039*%
%ADD246R,0.14331X0.00039*%
%ADD247R,0.12047X0.00039*%
%ADD248R,0.04055X0.00039*%
%ADD249R,0.14370X0.00039*%
%ADD250R,0.12087X0.00039*%
%ADD251R,0.04016X0.00039*%
%ADD252R,0.03976X0.00039*%
%ADD253R,0.05039X0.00039*%
%ADD254R,0.03937X0.00039*%
%ADD255R,0.04764X0.00039*%
%ADD256R,0.03898X0.00039*%
%ADD257R,0.04606X0.00039*%
%ADD258R,0.03740X0.00039*%
%ADD259R,0.03701X0.00039*%
%ADD260R,0.03661X0.00039*%
%ADD261R,0.03622X0.00039*%
%ADD262R,0.03583X0.00039*%
%ADD263R,0.03543X0.00039*%
%ADD264R,0.03504X0.00039*%
%ADD265R,0.03465X0.00039*%
%ADD266R,0.03425X0.00039*%
%ADD267R,0.03386X0.00039*%
%ADD268R,0.03307X0.00039*%
%ADD269R,0.03268X0.00039*%
%ADD270R,0.03228X0.00039*%
%ADD271R,0.03189X0.00039*%
%ADD272R,0.03150X0.00039*%
%ADD273R,0.12323X0.00039*%
%ADD274R,0.12402X0.00039*%
%ADD275R,0.12205X0.00039*%
%ADD276R,0.14409X0.00039*%
%ADD277R,0.05315X0.00039*%
%ADD278R,0.05000X0.00039*%
%ADD279R,0.05197X0.00039*%
%ADD280R,0.05512X0.00039*%
%ADD281R,0.12835X0.00039*%
%ADD282R,0.08543X0.00039*%
%ADD283R,0.05433X0.00039*%
%ADD284R,0.08307X0.00039*%
%ADD285R,0.10472X0.00039*%
%ADD286R,0.10433X0.00039*%
%ADD287R,0.07677X0.00039*%
%ADD288R,0.10354X0.00039*%
%ADD289R,0.05591X0.00039*%
%ADD290R,0.10315X0.00039*%
%ADD291R,0.06063X0.00039*%
%ADD292R,0.10236X0.00039*%
%ADD293R,0.06457X0.00039*%
%ADD294R,0.06811X0.00039*%
%ADD295R,0.06850X0.00039*%
%ADD296R,0.10197X0.00039*%
%ADD297R,0.22756X0.00039*%
%ADD298R,0.10118X0.00039*%
%ADD299R,0.10079X0.00039*%
%ADD300R,0.10039X0.00039*%
%ADD301R,0.09961X0.00039*%
%ADD302R,0.09921X0.00039*%
%ADD303R,0.09882X0.00039*%
%ADD304R,0.09843X0.00039*%
%ADD305R,0.09764X0.00039*%
%ADD306R,0.09724X0.00039*%
%ADD307R,0.09685X0.00039*%
%ADD308R,0.09646X0.00039*%
%ADD309R,0.09567X0.00039*%
%ADD310R,0.12165X0.00039*%
%ADD311R,0.09528X0.00039*%
%ADD312R,0.21260X0.00039*%
%ADD313R,0.09449X0.00039*%
%ADD314R,0.09409X0.00039*%
%ADD315R,0.10906X0.00039*%
%ADD316R,0.09252X0.00039*%
%ADD317R,0.09173X0.00039*%
%ADD318R,0.20787X0.00039*%
%ADD319R,0.09094X0.00039*%
%ADD320R,0.09016X0.00039*%
%ADD321R,0.08898X0.00039*%
%ADD322R,0.08780X0.00039*%
%ADD323R,0.20394X0.00039*%
%ADD324R,0.08622X0.00039*%
%ADD325R,0.08465X0.00039*%
%ADD326R,0.20079X0.00039*%
%ADD327R,0.08071X0.00039*%
%ADD328R,0.09134X0.00039*%
%ADD329R,0.09213X0.00039*%
%ADD330R,0.19528X0.00039*%
%ADD331R,0.19291X0.00039*%
%ADD332R,0.19055X0.00039*%
%ADD333R,0.18780X0.00039*%
%ADD334R,0.18425X0.00039*%
%ADD335R,0.17992X0.00039*%
%ADD336R,0.17874X0.00039*%
%ADD337R,0.16142X0.00039*%
%ADD338R,0.15906X0.00039*%
%ADD339R,0.06732X0.00039*%
%ADD340R,0.06024X0.00039*%
%ADD341R,0.05787X0.00039*%
%ADD342R,0.02953X0.00039*%
%ADD343R,0.02323X0.00039*%
%ADD344R,0.01535X0.00039*%
%ADD345C,0.00500*%
%ADD346C,0.00300*%
%ADD347C,0.00800*%
%ADD348C,0.00400*%
%ADD349C,0.01600*%
%ADD350R,0.11811X0.07874*%
%ADD351C,0.00600*%
%ADD352C,0.01000*%
D10*
X0001500Y0001500D02*
X0001500Y0269217D01*
X0235752Y0269217D01*
X0235752Y0001500D01*
X0001500Y0001500D01*
X0011146Y0017248D02*
X0011148Y0017404D01*
X0011154Y0017560D01*
X0011164Y0017715D01*
X0011178Y0017870D01*
X0011196Y0018025D01*
X0011218Y0018179D01*
X0011243Y0018333D01*
X0011273Y0018486D01*
X0011307Y0018638D01*
X0011344Y0018790D01*
X0011385Y0018940D01*
X0011430Y0019089D01*
X0011479Y0019237D01*
X0011532Y0019384D01*
X0011588Y0019529D01*
X0011648Y0019673D01*
X0011712Y0019815D01*
X0011780Y0019956D01*
X0011851Y0020094D01*
X0011925Y0020231D01*
X0012003Y0020366D01*
X0012084Y0020499D01*
X0012169Y0020630D01*
X0012257Y0020759D01*
X0012348Y0020885D01*
X0012443Y0021009D01*
X0012540Y0021130D01*
X0012641Y0021249D01*
X0012745Y0021366D01*
X0012851Y0021479D01*
X0012961Y0021590D01*
X0013073Y0021698D01*
X0013188Y0021803D01*
X0013306Y0021906D01*
X0013426Y0022005D01*
X0013549Y0022101D01*
X0013674Y0022194D01*
X0013801Y0022283D01*
X0013931Y0022370D01*
X0014063Y0022453D01*
X0014197Y0022532D01*
X0014333Y0022609D01*
X0014471Y0022681D01*
X0014610Y0022751D01*
X0014752Y0022816D01*
X0014895Y0022878D01*
X0015039Y0022936D01*
X0015185Y0022991D01*
X0015333Y0023042D01*
X0015481Y0023089D01*
X0015631Y0023132D01*
X0015782Y0023171D01*
X0015934Y0023207D01*
X0016086Y0023238D01*
X0016240Y0023266D01*
X0016394Y0023290D01*
X0016548Y0023310D01*
X0016703Y0023326D01*
X0016859Y0023338D01*
X0017014Y0023346D01*
X0017170Y0023350D01*
X0017326Y0023350D01*
X0017482Y0023346D01*
X0017637Y0023338D01*
X0017793Y0023326D01*
X0017948Y0023310D01*
X0018102Y0023290D01*
X0018256Y0023266D01*
X0018410Y0023238D01*
X0018562Y0023207D01*
X0018714Y0023171D01*
X0018865Y0023132D01*
X0019015Y0023089D01*
X0019163Y0023042D01*
X0019311Y0022991D01*
X0019457Y0022936D01*
X0019601Y0022878D01*
X0019744Y0022816D01*
X0019886Y0022751D01*
X0020025Y0022681D01*
X0020163Y0022609D01*
X0020299Y0022532D01*
X0020433Y0022453D01*
X0020565Y0022370D01*
X0020695Y0022283D01*
X0020822Y0022194D01*
X0020947Y0022101D01*
X0021070Y0022005D01*
X0021190Y0021906D01*
X0021308Y0021803D01*
X0021423Y0021698D01*
X0021535Y0021590D01*
X0021645Y0021479D01*
X0021751Y0021366D01*
X0021855Y0021249D01*
X0021956Y0021130D01*
X0022053Y0021009D01*
X0022148Y0020885D01*
X0022239Y0020759D01*
X0022327Y0020630D01*
X0022412Y0020499D01*
X0022493Y0020366D01*
X0022571Y0020231D01*
X0022645Y0020094D01*
X0022716Y0019956D01*
X0022784Y0019815D01*
X0022848Y0019673D01*
X0022908Y0019529D01*
X0022964Y0019384D01*
X0023017Y0019237D01*
X0023066Y0019089D01*
X0023111Y0018940D01*
X0023152Y0018790D01*
X0023189Y0018638D01*
X0023223Y0018486D01*
X0023253Y0018333D01*
X0023278Y0018179D01*
X0023300Y0018025D01*
X0023318Y0017870D01*
X0023332Y0017715D01*
X0023342Y0017560D01*
X0023348Y0017404D01*
X0023350Y0017248D01*
X0023348Y0017092D01*
X0023342Y0016936D01*
X0023332Y0016781D01*
X0023318Y0016626D01*
X0023300Y0016471D01*
X0023278Y0016317D01*
X0023253Y0016163D01*
X0023223Y0016010D01*
X0023189Y0015858D01*
X0023152Y0015706D01*
X0023111Y0015556D01*
X0023066Y0015407D01*
X0023017Y0015259D01*
X0022964Y0015112D01*
X0022908Y0014967D01*
X0022848Y0014823D01*
X0022784Y0014681D01*
X0022716Y0014540D01*
X0022645Y0014402D01*
X0022571Y0014265D01*
X0022493Y0014130D01*
X0022412Y0013997D01*
X0022327Y0013866D01*
X0022239Y0013737D01*
X0022148Y0013611D01*
X0022053Y0013487D01*
X0021956Y0013366D01*
X0021855Y0013247D01*
X0021751Y0013130D01*
X0021645Y0013017D01*
X0021535Y0012906D01*
X0021423Y0012798D01*
X0021308Y0012693D01*
X0021190Y0012590D01*
X0021070Y0012491D01*
X0020947Y0012395D01*
X0020822Y0012302D01*
X0020695Y0012213D01*
X0020565Y0012126D01*
X0020433Y0012043D01*
X0020299Y0011964D01*
X0020163Y0011887D01*
X0020025Y0011815D01*
X0019886Y0011745D01*
X0019744Y0011680D01*
X0019601Y0011618D01*
X0019457Y0011560D01*
X0019311Y0011505D01*
X0019163Y0011454D01*
X0019015Y0011407D01*
X0018865Y0011364D01*
X0018714Y0011325D01*
X0018562Y0011289D01*
X0018410Y0011258D01*
X0018256Y0011230D01*
X0018102Y0011206D01*
X0017948Y0011186D01*
X0017793Y0011170D01*
X0017637Y0011158D01*
X0017482Y0011150D01*
X0017326Y0011146D01*
X0017170Y0011146D01*
X0017014Y0011150D01*
X0016859Y0011158D01*
X0016703Y0011170D01*
X0016548Y0011186D01*
X0016394Y0011206D01*
X0016240Y0011230D01*
X0016086Y0011258D01*
X0015934Y0011289D01*
X0015782Y0011325D01*
X0015631Y0011364D01*
X0015481Y0011407D01*
X0015333Y0011454D01*
X0015185Y0011505D01*
X0015039Y0011560D01*
X0014895Y0011618D01*
X0014752Y0011680D01*
X0014610Y0011745D01*
X0014471Y0011815D01*
X0014333Y0011887D01*
X0014197Y0011964D01*
X0014063Y0012043D01*
X0013931Y0012126D01*
X0013801Y0012213D01*
X0013674Y0012302D01*
X0013549Y0012395D01*
X0013426Y0012491D01*
X0013306Y0012590D01*
X0013188Y0012693D01*
X0013073Y0012798D01*
X0012961Y0012906D01*
X0012851Y0013017D01*
X0012745Y0013130D01*
X0012641Y0013247D01*
X0012540Y0013366D01*
X0012443Y0013487D01*
X0012348Y0013611D01*
X0012257Y0013737D01*
X0012169Y0013866D01*
X0012084Y0013997D01*
X0012003Y0014130D01*
X0011925Y0014265D01*
X0011851Y0014402D01*
X0011780Y0014540D01*
X0011712Y0014681D01*
X0011648Y0014823D01*
X0011588Y0014967D01*
X0011532Y0015112D01*
X0011479Y0015259D01*
X0011430Y0015407D01*
X0011385Y0015556D01*
X0011344Y0015706D01*
X0011307Y0015858D01*
X0011273Y0016010D01*
X0011243Y0016163D01*
X0011218Y0016317D01*
X0011196Y0016471D01*
X0011178Y0016626D01*
X0011164Y0016781D01*
X0011154Y0016936D01*
X0011148Y0017092D01*
X0011146Y0017248D01*
X0063153Y0024256D02*
X0063155Y0024409D01*
X0063161Y0024563D01*
X0063171Y0024716D01*
X0063185Y0024868D01*
X0063203Y0025021D01*
X0063225Y0025172D01*
X0063250Y0025323D01*
X0063280Y0025474D01*
X0063314Y0025624D01*
X0063351Y0025772D01*
X0063392Y0025920D01*
X0063437Y0026066D01*
X0063486Y0026212D01*
X0063539Y0026356D01*
X0063595Y0026498D01*
X0063655Y0026639D01*
X0063719Y0026779D01*
X0063786Y0026917D01*
X0063857Y0027053D01*
X0063932Y0027187D01*
X0064009Y0027319D01*
X0064091Y0027449D01*
X0064175Y0027577D01*
X0064263Y0027703D01*
X0064354Y0027826D01*
X0064448Y0027947D01*
X0064546Y0028065D01*
X0064646Y0028181D01*
X0064750Y0028294D01*
X0064856Y0028405D01*
X0064965Y0028513D01*
X0065077Y0028618D01*
X0065191Y0028719D01*
X0065309Y0028818D01*
X0065428Y0028914D01*
X0065550Y0029007D01*
X0065675Y0029096D01*
X0065802Y0029183D01*
X0065931Y0029265D01*
X0066062Y0029345D01*
X0066195Y0029421D01*
X0066330Y0029494D01*
X0066467Y0029563D01*
X0066606Y0029628D01*
X0066746Y0029690D01*
X0066888Y0029748D01*
X0067031Y0029803D01*
X0067176Y0029854D01*
X0067322Y0029901D01*
X0067469Y0029944D01*
X0067617Y0029983D01*
X0067766Y0030019D01*
X0067916Y0030050D01*
X0068067Y0030078D01*
X0068218Y0030102D01*
X0068371Y0030122D01*
X0068523Y0030138D01*
X0068676Y0030150D01*
X0068829Y0030158D01*
X0068982Y0030162D01*
X0069136Y0030162D01*
X0069289Y0030158D01*
X0069442Y0030150D01*
X0069595Y0030138D01*
X0069747Y0030122D01*
X0069900Y0030102D01*
X0070051Y0030078D01*
X0070202Y0030050D01*
X0070352Y0030019D01*
X0070501Y0029983D01*
X0070649Y0029944D01*
X0070796Y0029901D01*
X0070942Y0029854D01*
X0071087Y0029803D01*
X0071230Y0029748D01*
X0071372Y0029690D01*
X0071512Y0029628D01*
X0071651Y0029563D01*
X0071788Y0029494D01*
X0071923Y0029421D01*
X0072056Y0029345D01*
X0072187Y0029265D01*
X0072316Y0029183D01*
X0072443Y0029096D01*
X0072568Y0029007D01*
X0072690Y0028914D01*
X0072809Y0028818D01*
X0072927Y0028719D01*
X0073041Y0028618D01*
X0073153Y0028513D01*
X0073262Y0028405D01*
X0073368Y0028294D01*
X0073472Y0028181D01*
X0073572Y0028065D01*
X0073670Y0027947D01*
X0073764Y0027826D01*
X0073855Y0027703D01*
X0073943Y0027577D01*
X0074027Y0027449D01*
X0074109Y0027319D01*
X0074186Y0027187D01*
X0074261Y0027053D01*
X0074332Y0026917D01*
X0074399Y0026779D01*
X0074463Y0026639D01*
X0074523Y0026498D01*
X0074579Y0026356D01*
X0074632Y0026212D01*
X0074681Y0026066D01*
X0074726Y0025920D01*
X0074767Y0025772D01*
X0074804Y0025624D01*
X0074838Y0025474D01*
X0074868Y0025323D01*
X0074893Y0025172D01*
X0074915Y0025021D01*
X0074933Y0024868D01*
X0074947Y0024716D01*
X0074957Y0024563D01*
X0074963Y0024409D01*
X0074965Y0024256D01*
X0074963Y0024103D01*
X0074957Y0023949D01*
X0074947Y0023796D01*
X0074933Y0023644D01*
X0074915Y0023491D01*
X0074893Y0023340D01*
X0074868Y0023189D01*
X0074838Y0023038D01*
X0074804Y0022888D01*
X0074767Y0022740D01*
X0074726Y0022592D01*
X0074681Y0022446D01*
X0074632Y0022300D01*
X0074579Y0022156D01*
X0074523Y0022014D01*
X0074463Y0021873D01*
X0074399Y0021733D01*
X0074332Y0021595D01*
X0074261Y0021459D01*
X0074186Y0021325D01*
X0074109Y0021193D01*
X0074027Y0021063D01*
X0073943Y0020935D01*
X0073855Y0020809D01*
X0073764Y0020686D01*
X0073670Y0020565D01*
X0073572Y0020447D01*
X0073472Y0020331D01*
X0073368Y0020218D01*
X0073262Y0020107D01*
X0073153Y0019999D01*
X0073041Y0019894D01*
X0072927Y0019793D01*
X0072809Y0019694D01*
X0072690Y0019598D01*
X0072568Y0019505D01*
X0072443Y0019416D01*
X0072316Y0019329D01*
X0072187Y0019247D01*
X0072056Y0019167D01*
X0071923Y0019091D01*
X0071788Y0019018D01*
X0071651Y0018949D01*
X0071512Y0018884D01*
X0071372Y0018822D01*
X0071230Y0018764D01*
X0071087Y0018709D01*
X0070942Y0018658D01*
X0070796Y0018611D01*
X0070649Y0018568D01*
X0070501Y0018529D01*
X0070352Y0018493D01*
X0070202Y0018462D01*
X0070051Y0018434D01*
X0069900Y0018410D01*
X0069747Y0018390D01*
X0069595Y0018374D01*
X0069442Y0018362D01*
X0069289Y0018354D01*
X0069136Y0018350D01*
X0068982Y0018350D01*
X0068829Y0018354D01*
X0068676Y0018362D01*
X0068523Y0018374D01*
X0068371Y0018390D01*
X0068218Y0018410D01*
X0068067Y0018434D01*
X0067916Y0018462D01*
X0067766Y0018493D01*
X0067617Y0018529D01*
X0067469Y0018568D01*
X0067322Y0018611D01*
X0067176Y0018658D01*
X0067031Y0018709D01*
X0066888Y0018764D01*
X0066746Y0018822D01*
X0066606Y0018884D01*
X0066467Y0018949D01*
X0066330Y0019018D01*
X0066195Y0019091D01*
X0066062Y0019167D01*
X0065931Y0019247D01*
X0065802Y0019329D01*
X0065675Y0019416D01*
X0065550Y0019505D01*
X0065428Y0019598D01*
X0065309Y0019694D01*
X0065191Y0019793D01*
X0065077Y0019894D01*
X0064965Y0019999D01*
X0064856Y0020107D01*
X0064750Y0020218D01*
X0064646Y0020331D01*
X0064546Y0020447D01*
X0064448Y0020565D01*
X0064354Y0020686D01*
X0064263Y0020809D01*
X0064175Y0020935D01*
X0064091Y0021063D01*
X0064009Y0021193D01*
X0063932Y0021325D01*
X0063857Y0021459D01*
X0063786Y0021595D01*
X0063719Y0021733D01*
X0063655Y0021873D01*
X0063595Y0022014D01*
X0063539Y0022156D01*
X0063486Y0022300D01*
X0063437Y0022446D01*
X0063392Y0022592D01*
X0063351Y0022740D01*
X0063314Y0022888D01*
X0063280Y0023038D01*
X0063250Y0023189D01*
X0063225Y0023340D01*
X0063203Y0023491D01*
X0063185Y0023644D01*
X0063171Y0023796D01*
X0063161Y0023949D01*
X0063155Y0024103D01*
X0063153Y0024256D01*
X0093389Y0024256D02*
X0093391Y0024409D01*
X0093397Y0024563D01*
X0093407Y0024716D01*
X0093421Y0024868D01*
X0093439Y0025021D01*
X0093461Y0025172D01*
X0093486Y0025323D01*
X0093516Y0025474D01*
X0093550Y0025624D01*
X0093587Y0025772D01*
X0093628Y0025920D01*
X0093673Y0026066D01*
X0093722Y0026212D01*
X0093775Y0026356D01*
X0093831Y0026498D01*
X0093891Y0026639D01*
X0093955Y0026779D01*
X0094022Y0026917D01*
X0094093Y0027053D01*
X0094168Y0027187D01*
X0094245Y0027319D01*
X0094327Y0027449D01*
X0094411Y0027577D01*
X0094499Y0027703D01*
X0094590Y0027826D01*
X0094684Y0027947D01*
X0094782Y0028065D01*
X0094882Y0028181D01*
X0094986Y0028294D01*
X0095092Y0028405D01*
X0095201Y0028513D01*
X0095313Y0028618D01*
X0095427Y0028719D01*
X0095545Y0028818D01*
X0095664Y0028914D01*
X0095786Y0029007D01*
X0095911Y0029096D01*
X0096038Y0029183D01*
X0096167Y0029265D01*
X0096298Y0029345D01*
X0096431Y0029421D01*
X0096566Y0029494D01*
X0096703Y0029563D01*
X0096842Y0029628D01*
X0096982Y0029690D01*
X0097124Y0029748D01*
X0097267Y0029803D01*
X0097412Y0029854D01*
X0097558Y0029901D01*
X0097705Y0029944D01*
X0097853Y0029983D01*
X0098002Y0030019D01*
X0098152Y0030050D01*
X0098303Y0030078D01*
X0098454Y0030102D01*
X0098607Y0030122D01*
X0098759Y0030138D01*
X0098912Y0030150D01*
X0099065Y0030158D01*
X0099218Y0030162D01*
X0099372Y0030162D01*
X0099525Y0030158D01*
X0099678Y0030150D01*
X0099831Y0030138D01*
X0099983Y0030122D01*
X0100136Y0030102D01*
X0100287Y0030078D01*
X0100438Y0030050D01*
X0100588Y0030019D01*
X0100737Y0029983D01*
X0100885Y0029944D01*
X0101032Y0029901D01*
X0101178Y0029854D01*
X0101323Y0029803D01*
X0101466Y0029748D01*
X0101608Y0029690D01*
X0101748Y0029628D01*
X0101887Y0029563D01*
X0102024Y0029494D01*
X0102159Y0029421D01*
X0102292Y0029345D01*
X0102423Y0029265D01*
X0102552Y0029183D01*
X0102679Y0029096D01*
X0102804Y0029007D01*
X0102926Y0028914D01*
X0103045Y0028818D01*
X0103163Y0028719D01*
X0103277Y0028618D01*
X0103389Y0028513D01*
X0103498Y0028405D01*
X0103604Y0028294D01*
X0103708Y0028181D01*
X0103808Y0028065D01*
X0103906Y0027947D01*
X0104000Y0027826D01*
X0104091Y0027703D01*
X0104179Y0027577D01*
X0104263Y0027449D01*
X0104345Y0027319D01*
X0104422Y0027187D01*
X0104497Y0027053D01*
X0104568Y0026917D01*
X0104635Y0026779D01*
X0104699Y0026639D01*
X0104759Y0026498D01*
X0104815Y0026356D01*
X0104868Y0026212D01*
X0104917Y0026066D01*
X0104962Y0025920D01*
X0105003Y0025772D01*
X0105040Y0025624D01*
X0105074Y0025474D01*
X0105104Y0025323D01*
X0105129Y0025172D01*
X0105151Y0025021D01*
X0105169Y0024868D01*
X0105183Y0024716D01*
X0105193Y0024563D01*
X0105199Y0024409D01*
X0105201Y0024256D01*
X0105199Y0024103D01*
X0105193Y0023949D01*
X0105183Y0023796D01*
X0105169Y0023644D01*
X0105151Y0023491D01*
X0105129Y0023340D01*
X0105104Y0023189D01*
X0105074Y0023038D01*
X0105040Y0022888D01*
X0105003Y0022740D01*
X0104962Y0022592D01*
X0104917Y0022446D01*
X0104868Y0022300D01*
X0104815Y0022156D01*
X0104759Y0022014D01*
X0104699Y0021873D01*
X0104635Y0021733D01*
X0104568Y0021595D01*
X0104497Y0021459D01*
X0104422Y0021325D01*
X0104345Y0021193D01*
X0104263Y0021063D01*
X0104179Y0020935D01*
X0104091Y0020809D01*
X0104000Y0020686D01*
X0103906Y0020565D01*
X0103808Y0020447D01*
X0103708Y0020331D01*
X0103604Y0020218D01*
X0103498Y0020107D01*
X0103389Y0019999D01*
X0103277Y0019894D01*
X0103163Y0019793D01*
X0103045Y0019694D01*
X0102926Y0019598D01*
X0102804Y0019505D01*
X0102679Y0019416D01*
X0102552Y0019329D01*
X0102423Y0019247D01*
X0102292Y0019167D01*
X0102159Y0019091D01*
X0102024Y0019018D01*
X0101887Y0018949D01*
X0101748Y0018884D01*
X0101608Y0018822D01*
X0101466Y0018764D01*
X0101323Y0018709D01*
X0101178Y0018658D01*
X0101032Y0018611D01*
X0100885Y0018568D01*
X0100737Y0018529D01*
X0100588Y0018493D01*
X0100438Y0018462D01*
X0100287Y0018434D01*
X0100136Y0018410D01*
X0099983Y0018390D01*
X0099831Y0018374D01*
X0099678Y0018362D01*
X0099525Y0018354D01*
X0099372Y0018350D01*
X0099218Y0018350D01*
X0099065Y0018354D01*
X0098912Y0018362D01*
X0098759Y0018374D01*
X0098607Y0018390D01*
X0098454Y0018410D01*
X0098303Y0018434D01*
X0098152Y0018462D01*
X0098002Y0018493D01*
X0097853Y0018529D01*
X0097705Y0018568D01*
X0097558Y0018611D01*
X0097412Y0018658D01*
X0097267Y0018709D01*
X0097124Y0018764D01*
X0096982Y0018822D01*
X0096842Y0018884D01*
X0096703Y0018949D01*
X0096566Y0019018D01*
X0096431Y0019091D01*
X0096298Y0019167D01*
X0096167Y0019247D01*
X0096038Y0019329D01*
X0095911Y0019416D01*
X0095786Y0019505D01*
X0095664Y0019598D01*
X0095545Y0019694D01*
X0095427Y0019793D01*
X0095313Y0019894D01*
X0095201Y0019999D01*
X0095092Y0020107D01*
X0094986Y0020218D01*
X0094882Y0020331D01*
X0094782Y0020447D01*
X0094684Y0020565D01*
X0094590Y0020686D01*
X0094499Y0020809D01*
X0094411Y0020935D01*
X0094327Y0021063D01*
X0094245Y0021193D01*
X0094168Y0021325D01*
X0094093Y0021459D01*
X0094022Y0021595D01*
X0093955Y0021733D01*
X0093891Y0021873D01*
X0093831Y0022014D01*
X0093775Y0022156D01*
X0093722Y0022300D01*
X0093673Y0022446D01*
X0093628Y0022592D01*
X0093587Y0022740D01*
X0093550Y0022888D01*
X0093516Y0023038D01*
X0093486Y0023189D01*
X0093461Y0023340D01*
X0093439Y0023491D01*
X0093421Y0023644D01*
X0093407Y0023796D01*
X0093397Y0023949D01*
X0093391Y0024103D01*
X0093389Y0024256D01*
X0010476Y0093713D02*
X0010478Y0093866D01*
X0010484Y0094020D01*
X0010494Y0094173D01*
X0010508Y0094325D01*
X0010526Y0094478D01*
X0010548Y0094629D01*
X0010573Y0094780D01*
X0010603Y0094931D01*
X0010637Y0095081D01*
X0010674Y0095229D01*
X0010715Y0095377D01*
X0010760Y0095523D01*
X0010809Y0095669D01*
X0010862Y0095813D01*
X0010918Y0095955D01*
X0010978Y0096096D01*
X0011042Y0096236D01*
X0011109Y0096374D01*
X0011180Y0096510D01*
X0011255Y0096644D01*
X0011332Y0096776D01*
X0011414Y0096906D01*
X0011498Y0097034D01*
X0011586Y0097160D01*
X0011677Y0097283D01*
X0011771Y0097404D01*
X0011869Y0097522D01*
X0011969Y0097638D01*
X0012073Y0097751D01*
X0012179Y0097862D01*
X0012288Y0097970D01*
X0012400Y0098075D01*
X0012514Y0098176D01*
X0012632Y0098275D01*
X0012751Y0098371D01*
X0012873Y0098464D01*
X0012998Y0098553D01*
X0013125Y0098640D01*
X0013254Y0098722D01*
X0013385Y0098802D01*
X0013518Y0098878D01*
X0013653Y0098951D01*
X0013790Y0099020D01*
X0013929Y0099085D01*
X0014069Y0099147D01*
X0014211Y0099205D01*
X0014354Y0099260D01*
X0014499Y0099311D01*
X0014645Y0099358D01*
X0014792Y0099401D01*
X0014940Y0099440D01*
X0015089Y0099476D01*
X0015239Y0099507D01*
X0015390Y0099535D01*
X0015541Y0099559D01*
X0015694Y0099579D01*
X0015846Y0099595D01*
X0015999Y0099607D01*
X0016152Y0099615D01*
X0016305Y0099619D01*
X0016459Y0099619D01*
X0016612Y0099615D01*
X0016765Y0099607D01*
X0016918Y0099595D01*
X0017070Y0099579D01*
X0017223Y0099559D01*
X0017374Y0099535D01*
X0017525Y0099507D01*
X0017675Y0099476D01*
X0017824Y0099440D01*
X0017972Y0099401D01*
X0018119Y0099358D01*
X0018265Y0099311D01*
X0018410Y0099260D01*
X0018553Y0099205D01*
X0018695Y0099147D01*
X0018835Y0099085D01*
X0018974Y0099020D01*
X0019111Y0098951D01*
X0019246Y0098878D01*
X0019379Y0098802D01*
X0019510Y0098722D01*
X0019639Y0098640D01*
X0019766Y0098553D01*
X0019891Y0098464D01*
X0020013Y0098371D01*
X0020132Y0098275D01*
X0020250Y0098176D01*
X0020364Y0098075D01*
X0020476Y0097970D01*
X0020585Y0097862D01*
X0020691Y0097751D01*
X0020795Y0097638D01*
X0020895Y0097522D01*
X0020993Y0097404D01*
X0021087Y0097283D01*
X0021178Y0097160D01*
X0021266Y0097034D01*
X0021350Y0096906D01*
X0021432Y0096776D01*
X0021509Y0096644D01*
X0021584Y0096510D01*
X0021655Y0096374D01*
X0021722Y0096236D01*
X0021786Y0096096D01*
X0021846Y0095955D01*
X0021902Y0095813D01*
X0021955Y0095669D01*
X0022004Y0095523D01*
X0022049Y0095377D01*
X0022090Y0095229D01*
X0022127Y0095081D01*
X0022161Y0094931D01*
X0022191Y0094780D01*
X0022216Y0094629D01*
X0022238Y0094478D01*
X0022256Y0094325D01*
X0022270Y0094173D01*
X0022280Y0094020D01*
X0022286Y0093866D01*
X0022288Y0093713D01*
X0022286Y0093560D01*
X0022280Y0093406D01*
X0022270Y0093253D01*
X0022256Y0093101D01*
X0022238Y0092948D01*
X0022216Y0092797D01*
X0022191Y0092646D01*
X0022161Y0092495D01*
X0022127Y0092345D01*
X0022090Y0092197D01*
X0022049Y0092049D01*
X0022004Y0091903D01*
X0021955Y0091757D01*
X0021902Y0091613D01*
X0021846Y0091471D01*
X0021786Y0091330D01*
X0021722Y0091190D01*
X0021655Y0091052D01*
X0021584Y0090916D01*
X0021509Y0090782D01*
X0021432Y0090650D01*
X0021350Y0090520D01*
X0021266Y0090392D01*
X0021178Y0090266D01*
X0021087Y0090143D01*
X0020993Y0090022D01*
X0020895Y0089904D01*
X0020795Y0089788D01*
X0020691Y0089675D01*
X0020585Y0089564D01*
X0020476Y0089456D01*
X0020364Y0089351D01*
X0020250Y0089250D01*
X0020132Y0089151D01*
X0020013Y0089055D01*
X0019891Y0088962D01*
X0019766Y0088873D01*
X0019639Y0088786D01*
X0019510Y0088704D01*
X0019379Y0088624D01*
X0019246Y0088548D01*
X0019111Y0088475D01*
X0018974Y0088406D01*
X0018835Y0088341D01*
X0018695Y0088279D01*
X0018553Y0088221D01*
X0018410Y0088166D01*
X0018265Y0088115D01*
X0018119Y0088068D01*
X0017972Y0088025D01*
X0017824Y0087986D01*
X0017675Y0087950D01*
X0017525Y0087919D01*
X0017374Y0087891D01*
X0017223Y0087867D01*
X0017070Y0087847D01*
X0016918Y0087831D01*
X0016765Y0087819D01*
X0016612Y0087811D01*
X0016459Y0087807D01*
X0016305Y0087807D01*
X0016152Y0087811D01*
X0015999Y0087819D01*
X0015846Y0087831D01*
X0015694Y0087847D01*
X0015541Y0087867D01*
X0015390Y0087891D01*
X0015239Y0087919D01*
X0015089Y0087950D01*
X0014940Y0087986D01*
X0014792Y0088025D01*
X0014645Y0088068D01*
X0014499Y0088115D01*
X0014354Y0088166D01*
X0014211Y0088221D01*
X0014069Y0088279D01*
X0013929Y0088341D01*
X0013790Y0088406D01*
X0013653Y0088475D01*
X0013518Y0088548D01*
X0013385Y0088624D01*
X0013254Y0088704D01*
X0013125Y0088786D01*
X0012998Y0088873D01*
X0012873Y0088962D01*
X0012751Y0089055D01*
X0012632Y0089151D01*
X0012514Y0089250D01*
X0012400Y0089351D01*
X0012288Y0089456D01*
X0012179Y0089564D01*
X0012073Y0089675D01*
X0011969Y0089788D01*
X0011869Y0089904D01*
X0011771Y0090022D01*
X0011677Y0090143D01*
X0011586Y0090266D01*
X0011498Y0090392D01*
X0011414Y0090520D01*
X0011332Y0090650D01*
X0011255Y0090782D01*
X0011180Y0090916D01*
X0011109Y0091052D01*
X0011042Y0091190D01*
X0010978Y0091330D01*
X0010918Y0091471D01*
X0010862Y0091613D01*
X0010809Y0091757D01*
X0010760Y0091903D01*
X0010715Y0092049D01*
X0010674Y0092197D01*
X0010637Y0092345D01*
X0010603Y0092495D01*
X0010573Y0092646D01*
X0010548Y0092797D01*
X0010526Y0092948D01*
X0010508Y0093101D01*
X0010494Y0093253D01*
X0010484Y0093406D01*
X0010478Y0093560D01*
X0010476Y0093713D01*
X0070476Y0210713D02*
X0070478Y0210866D01*
X0070484Y0211020D01*
X0070494Y0211173D01*
X0070508Y0211325D01*
X0070526Y0211478D01*
X0070548Y0211629D01*
X0070573Y0211780D01*
X0070603Y0211931D01*
X0070637Y0212081D01*
X0070674Y0212229D01*
X0070715Y0212377D01*
X0070760Y0212523D01*
X0070809Y0212669D01*
X0070862Y0212813D01*
X0070918Y0212955D01*
X0070978Y0213096D01*
X0071042Y0213236D01*
X0071109Y0213374D01*
X0071180Y0213510D01*
X0071255Y0213644D01*
X0071332Y0213776D01*
X0071414Y0213906D01*
X0071498Y0214034D01*
X0071586Y0214160D01*
X0071677Y0214283D01*
X0071771Y0214404D01*
X0071869Y0214522D01*
X0071969Y0214638D01*
X0072073Y0214751D01*
X0072179Y0214862D01*
X0072288Y0214970D01*
X0072400Y0215075D01*
X0072514Y0215176D01*
X0072632Y0215275D01*
X0072751Y0215371D01*
X0072873Y0215464D01*
X0072998Y0215553D01*
X0073125Y0215640D01*
X0073254Y0215722D01*
X0073385Y0215802D01*
X0073518Y0215878D01*
X0073653Y0215951D01*
X0073790Y0216020D01*
X0073929Y0216085D01*
X0074069Y0216147D01*
X0074211Y0216205D01*
X0074354Y0216260D01*
X0074499Y0216311D01*
X0074645Y0216358D01*
X0074792Y0216401D01*
X0074940Y0216440D01*
X0075089Y0216476D01*
X0075239Y0216507D01*
X0075390Y0216535D01*
X0075541Y0216559D01*
X0075694Y0216579D01*
X0075846Y0216595D01*
X0075999Y0216607D01*
X0076152Y0216615D01*
X0076305Y0216619D01*
X0076459Y0216619D01*
X0076612Y0216615D01*
X0076765Y0216607D01*
X0076918Y0216595D01*
X0077070Y0216579D01*
X0077223Y0216559D01*
X0077374Y0216535D01*
X0077525Y0216507D01*
X0077675Y0216476D01*
X0077824Y0216440D01*
X0077972Y0216401D01*
X0078119Y0216358D01*
X0078265Y0216311D01*
X0078410Y0216260D01*
X0078553Y0216205D01*
X0078695Y0216147D01*
X0078835Y0216085D01*
X0078974Y0216020D01*
X0079111Y0215951D01*
X0079246Y0215878D01*
X0079379Y0215802D01*
X0079510Y0215722D01*
X0079639Y0215640D01*
X0079766Y0215553D01*
X0079891Y0215464D01*
X0080013Y0215371D01*
X0080132Y0215275D01*
X0080250Y0215176D01*
X0080364Y0215075D01*
X0080476Y0214970D01*
X0080585Y0214862D01*
X0080691Y0214751D01*
X0080795Y0214638D01*
X0080895Y0214522D01*
X0080993Y0214404D01*
X0081087Y0214283D01*
X0081178Y0214160D01*
X0081266Y0214034D01*
X0081350Y0213906D01*
X0081432Y0213776D01*
X0081509Y0213644D01*
X0081584Y0213510D01*
X0081655Y0213374D01*
X0081722Y0213236D01*
X0081786Y0213096D01*
X0081846Y0212955D01*
X0081902Y0212813D01*
X0081955Y0212669D01*
X0082004Y0212523D01*
X0082049Y0212377D01*
X0082090Y0212229D01*
X0082127Y0212081D01*
X0082161Y0211931D01*
X0082191Y0211780D01*
X0082216Y0211629D01*
X0082238Y0211478D01*
X0082256Y0211325D01*
X0082270Y0211173D01*
X0082280Y0211020D01*
X0082286Y0210866D01*
X0082288Y0210713D01*
X0082286Y0210560D01*
X0082280Y0210406D01*
X0082270Y0210253D01*
X0082256Y0210101D01*
X0082238Y0209948D01*
X0082216Y0209797D01*
X0082191Y0209646D01*
X0082161Y0209495D01*
X0082127Y0209345D01*
X0082090Y0209197D01*
X0082049Y0209049D01*
X0082004Y0208903D01*
X0081955Y0208757D01*
X0081902Y0208613D01*
X0081846Y0208471D01*
X0081786Y0208330D01*
X0081722Y0208190D01*
X0081655Y0208052D01*
X0081584Y0207916D01*
X0081509Y0207782D01*
X0081432Y0207650D01*
X0081350Y0207520D01*
X0081266Y0207392D01*
X0081178Y0207266D01*
X0081087Y0207143D01*
X0080993Y0207022D01*
X0080895Y0206904D01*
X0080795Y0206788D01*
X0080691Y0206675D01*
X0080585Y0206564D01*
X0080476Y0206456D01*
X0080364Y0206351D01*
X0080250Y0206250D01*
X0080132Y0206151D01*
X0080013Y0206055D01*
X0079891Y0205962D01*
X0079766Y0205873D01*
X0079639Y0205786D01*
X0079510Y0205704D01*
X0079379Y0205624D01*
X0079246Y0205548D01*
X0079111Y0205475D01*
X0078974Y0205406D01*
X0078835Y0205341D01*
X0078695Y0205279D01*
X0078553Y0205221D01*
X0078410Y0205166D01*
X0078265Y0205115D01*
X0078119Y0205068D01*
X0077972Y0205025D01*
X0077824Y0204986D01*
X0077675Y0204950D01*
X0077525Y0204919D01*
X0077374Y0204891D01*
X0077223Y0204867D01*
X0077070Y0204847D01*
X0076918Y0204831D01*
X0076765Y0204819D01*
X0076612Y0204811D01*
X0076459Y0204807D01*
X0076305Y0204807D01*
X0076152Y0204811D01*
X0075999Y0204819D01*
X0075846Y0204831D01*
X0075694Y0204847D01*
X0075541Y0204867D01*
X0075390Y0204891D01*
X0075239Y0204919D01*
X0075089Y0204950D01*
X0074940Y0204986D01*
X0074792Y0205025D01*
X0074645Y0205068D01*
X0074499Y0205115D01*
X0074354Y0205166D01*
X0074211Y0205221D01*
X0074069Y0205279D01*
X0073929Y0205341D01*
X0073790Y0205406D01*
X0073653Y0205475D01*
X0073518Y0205548D01*
X0073385Y0205624D01*
X0073254Y0205704D01*
X0073125Y0205786D01*
X0072998Y0205873D01*
X0072873Y0205962D01*
X0072751Y0206055D01*
X0072632Y0206151D01*
X0072514Y0206250D01*
X0072400Y0206351D01*
X0072288Y0206456D01*
X0072179Y0206564D01*
X0072073Y0206675D01*
X0071969Y0206788D01*
X0071869Y0206904D01*
X0071771Y0207022D01*
X0071677Y0207143D01*
X0071586Y0207266D01*
X0071498Y0207392D01*
X0071414Y0207520D01*
X0071332Y0207650D01*
X0071255Y0207782D01*
X0071180Y0207916D01*
X0071109Y0208052D01*
X0071042Y0208190D01*
X0070978Y0208330D01*
X0070918Y0208471D01*
X0070862Y0208613D01*
X0070809Y0208757D01*
X0070760Y0208903D01*
X0070715Y0209049D01*
X0070674Y0209197D01*
X0070637Y0209345D01*
X0070603Y0209495D01*
X0070573Y0209646D01*
X0070548Y0209797D01*
X0070526Y0209948D01*
X0070508Y0210101D01*
X0070494Y0210253D01*
X0070484Y0210406D01*
X0070478Y0210560D01*
X0070476Y0210713D01*
X0011146Y0253469D02*
X0011148Y0253625D01*
X0011154Y0253781D01*
X0011164Y0253936D01*
X0011178Y0254091D01*
X0011196Y0254246D01*
X0011218Y0254400D01*
X0011243Y0254554D01*
X0011273Y0254707D01*
X0011307Y0254859D01*
X0011344Y0255011D01*
X0011385Y0255161D01*
X0011430Y0255310D01*
X0011479Y0255458D01*
X0011532Y0255605D01*
X0011588Y0255750D01*
X0011648Y0255894D01*
X0011712Y0256036D01*
X0011780Y0256177D01*
X0011851Y0256315D01*
X0011925Y0256452D01*
X0012003Y0256587D01*
X0012084Y0256720D01*
X0012169Y0256851D01*
X0012257Y0256980D01*
X0012348Y0257106D01*
X0012443Y0257230D01*
X0012540Y0257351D01*
X0012641Y0257470D01*
X0012745Y0257587D01*
X0012851Y0257700D01*
X0012961Y0257811D01*
X0013073Y0257919D01*
X0013188Y0258024D01*
X0013306Y0258127D01*
X0013426Y0258226D01*
X0013549Y0258322D01*
X0013674Y0258415D01*
X0013801Y0258504D01*
X0013931Y0258591D01*
X0014063Y0258674D01*
X0014197Y0258753D01*
X0014333Y0258830D01*
X0014471Y0258902D01*
X0014610Y0258972D01*
X0014752Y0259037D01*
X0014895Y0259099D01*
X0015039Y0259157D01*
X0015185Y0259212D01*
X0015333Y0259263D01*
X0015481Y0259310D01*
X0015631Y0259353D01*
X0015782Y0259392D01*
X0015934Y0259428D01*
X0016086Y0259459D01*
X0016240Y0259487D01*
X0016394Y0259511D01*
X0016548Y0259531D01*
X0016703Y0259547D01*
X0016859Y0259559D01*
X0017014Y0259567D01*
X0017170Y0259571D01*
X0017326Y0259571D01*
X0017482Y0259567D01*
X0017637Y0259559D01*
X0017793Y0259547D01*
X0017948Y0259531D01*
X0018102Y0259511D01*
X0018256Y0259487D01*
X0018410Y0259459D01*
X0018562Y0259428D01*
X0018714Y0259392D01*
X0018865Y0259353D01*
X0019015Y0259310D01*
X0019163Y0259263D01*
X0019311Y0259212D01*
X0019457Y0259157D01*
X0019601Y0259099D01*
X0019744Y0259037D01*
X0019886Y0258972D01*
X0020025Y0258902D01*
X0020163Y0258830D01*
X0020299Y0258753D01*
X0020433Y0258674D01*
X0020565Y0258591D01*
X0020695Y0258504D01*
X0020822Y0258415D01*
X0020947Y0258322D01*
X0021070Y0258226D01*
X0021190Y0258127D01*
X0021308Y0258024D01*
X0021423Y0257919D01*
X0021535Y0257811D01*
X0021645Y0257700D01*
X0021751Y0257587D01*
X0021855Y0257470D01*
X0021956Y0257351D01*
X0022053Y0257230D01*
X0022148Y0257106D01*
X0022239Y0256980D01*
X0022327Y0256851D01*
X0022412Y0256720D01*
X0022493Y0256587D01*
X0022571Y0256452D01*
X0022645Y0256315D01*
X0022716Y0256177D01*
X0022784Y0256036D01*
X0022848Y0255894D01*
X0022908Y0255750D01*
X0022964Y0255605D01*
X0023017Y0255458D01*
X0023066Y0255310D01*
X0023111Y0255161D01*
X0023152Y0255011D01*
X0023189Y0254859D01*
X0023223Y0254707D01*
X0023253Y0254554D01*
X0023278Y0254400D01*
X0023300Y0254246D01*
X0023318Y0254091D01*
X0023332Y0253936D01*
X0023342Y0253781D01*
X0023348Y0253625D01*
X0023350Y0253469D01*
X0023348Y0253313D01*
X0023342Y0253157D01*
X0023332Y0253002D01*
X0023318Y0252847D01*
X0023300Y0252692D01*
X0023278Y0252538D01*
X0023253Y0252384D01*
X0023223Y0252231D01*
X0023189Y0252079D01*
X0023152Y0251927D01*
X0023111Y0251777D01*
X0023066Y0251628D01*
X0023017Y0251480D01*
X0022964Y0251333D01*
X0022908Y0251188D01*
X0022848Y0251044D01*
X0022784Y0250902D01*
X0022716Y0250761D01*
X0022645Y0250623D01*
X0022571Y0250486D01*
X0022493Y0250351D01*
X0022412Y0250218D01*
X0022327Y0250087D01*
X0022239Y0249958D01*
X0022148Y0249832D01*
X0022053Y0249708D01*
X0021956Y0249587D01*
X0021855Y0249468D01*
X0021751Y0249351D01*
X0021645Y0249238D01*
X0021535Y0249127D01*
X0021423Y0249019D01*
X0021308Y0248914D01*
X0021190Y0248811D01*
X0021070Y0248712D01*
X0020947Y0248616D01*
X0020822Y0248523D01*
X0020695Y0248434D01*
X0020565Y0248347D01*
X0020433Y0248264D01*
X0020299Y0248185D01*
X0020163Y0248108D01*
X0020025Y0248036D01*
X0019886Y0247966D01*
X0019744Y0247901D01*
X0019601Y0247839D01*
X0019457Y0247781D01*
X0019311Y0247726D01*
X0019163Y0247675D01*
X0019015Y0247628D01*
X0018865Y0247585D01*
X0018714Y0247546D01*
X0018562Y0247510D01*
X0018410Y0247479D01*
X0018256Y0247451D01*
X0018102Y0247427D01*
X0017948Y0247407D01*
X0017793Y0247391D01*
X0017637Y0247379D01*
X0017482Y0247371D01*
X0017326Y0247367D01*
X0017170Y0247367D01*
X0017014Y0247371D01*
X0016859Y0247379D01*
X0016703Y0247391D01*
X0016548Y0247407D01*
X0016394Y0247427D01*
X0016240Y0247451D01*
X0016086Y0247479D01*
X0015934Y0247510D01*
X0015782Y0247546D01*
X0015631Y0247585D01*
X0015481Y0247628D01*
X0015333Y0247675D01*
X0015185Y0247726D01*
X0015039Y0247781D01*
X0014895Y0247839D01*
X0014752Y0247901D01*
X0014610Y0247966D01*
X0014471Y0248036D01*
X0014333Y0248108D01*
X0014197Y0248185D01*
X0014063Y0248264D01*
X0013931Y0248347D01*
X0013801Y0248434D01*
X0013674Y0248523D01*
X0013549Y0248616D01*
X0013426Y0248712D01*
X0013306Y0248811D01*
X0013188Y0248914D01*
X0013073Y0249019D01*
X0012961Y0249127D01*
X0012851Y0249238D01*
X0012745Y0249351D01*
X0012641Y0249468D01*
X0012540Y0249587D01*
X0012443Y0249708D01*
X0012348Y0249832D01*
X0012257Y0249958D01*
X0012169Y0250087D01*
X0012084Y0250218D01*
X0012003Y0250351D01*
X0011925Y0250486D01*
X0011851Y0250623D01*
X0011780Y0250761D01*
X0011712Y0250902D01*
X0011648Y0251044D01*
X0011588Y0251188D01*
X0011532Y0251333D01*
X0011479Y0251480D01*
X0011430Y0251628D01*
X0011385Y0251777D01*
X0011344Y0251927D01*
X0011307Y0252079D01*
X0011273Y0252231D01*
X0011243Y0252384D01*
X0011218Y0252538D01*
X0011196Y0252692D01*
X0011178Y0252847D01*
X0011164Y0253002D01*
X0011154Y0253157D01*
X0011148Y0253313D01*
X0011146Y0253469D01*
X0213902Y0253469D02*
X0213904Y0253625D01*
X0213910Y0253781D01*
X0213920Y0253936D01*
X0213934Y0254091D01*
X0213952Y0254246D01*
X0213974Y0254400D01*
X0213999Y0254554D01*
X0214029Y0254707D01*
X0214063Y0254859D01*
X0214100Y0255011D01*
X0214141Y0255161D01*
X0214186Y0255310D01*
X0214235Y0255458D01*
X0214288Y0255605D01*
X0214344Y0255750D01*
X0214404Y0255894D01*
X0214468Y0256036D01*
X0214536Y0256177D01*
X0214607Y0256315D01*
X0214681Y0256452D01*
X0214759Y0256587D01*
X0214840Y0256720D01*
X0214925Y0256851D01*
X0215013Y0256980D01*
X0215104Y0257106D01*
X0215199Y0257230D01*
X0215296Y0257351D01*
X0215397Y0257470D01*
X0215501Y0257587D01*
X0215607Y0257700D01*
X0215717Y0257811D01*
X0215829Y0257919D01*
X0215944Y0258024D01*
X0216062Y0258127D01*
X0216182Y0258226D01*
X0216305Y0258322D01*
X0216430Y0258415D01*
X0216557Y0258504D01*
X0216687Y0258591D01*
X0216819Y0258674D01*
X0216953Y0258753D01*
X0217089Y0258830D01*
X0217227Y0258902D01*
X0217366Y0258972D01*
X0217508Y0259037D01*
X0217651Y0259099D01*
X0217795Y0259157D01*
X0217941Y0259212D01*
X0218089Y0259263D01*
X0218237Y0259310D01*
X0218387Y0259353D01*
X0218538Y0259392D01*
X0218690Y0259428D01*
X0218842Y0259459D01*
X0218996Y0259487D01*
X0219150Y0259511D01*
X0219304Y0259531D01*
X0219459Y0259547D01*
X0219615Y0259559D01*
X0219770Y0259567D01*
X0219926Y0259571D01*
X0220082Y0259571D01*
X0220238Y0259567D01*
X0220393Y0259559D01*
X0220549Y0259547D01*
X0220704Y0259531D01*
X0220858Y0259511D01*
X0221012Y0259487D01*
X0221166Y0259459D01*
X0221318Y0259428D01*
X0221470Y0259392D01*
X0221621Y0259353D01*
X0221771Y0259310D01*
X0221919Y0259263D01*
X0222067Y0259212D01*
X0222213Y0259157D01*
X0222357Y0259099D01*
X0222500Y0259037D01*
X0222642Y0258972D01*
X0222781Y0258902D01*
X0222919Y0258830D01*
X0223055Y0258753D01*
X0223189Y0258674D01*
X0223321Y0258591D01*
X0223451Y0258504D01*
X0223578Y0258415D01*
X0223703Y0258322D01*
X0223826Y0258226D01*
X0223946Y0258127D01*
X0224064Y0258024D01*
X0224179Y0257919D01*
X0224291Y0257811D01*
X0224401Y0257700D01*
X0224507Y0257587D01*
X0224611Y0257470D01*
X0224712Y0257351D01*
X0224809Y0257230D01*
X0224904Y0257106D01*
X0224995Y0256980D01*
X0225083Y0256851D01*
X0225168Y0256720D01*
X0225249Y0256587D01*
X0225327Y0256452D01*
X0225401Y0256315D01*
X0225472Y0256177D01*
X0225540Y0256036D01*
X0225604Y0255894D01*
X0225664Y0255750D01*
X0225720Y0255605D01*
X0225773Y0255458D01*
X0225822Y0255310D01*
X0225867Y0255161D01*
X0225908Y0255011D01*
X0225945Y0254859D01*
X0225979Y0254707D01*
X0226009Y0254554D01*
X0226034Y0254400D01*
X0226056Y0254246D01*
X0226074Y0254091D01*
X0226088Y0253936D01*
X0226098Y0253781D01*
X0226104Y0253625D01*
X0226106Y0253469D01*
X0226104Y0253313D01*
X0226098Y0253157D01*
X0226088Y0253002D01*
X0226074Y0252847D01*
X0226056Y0252692D01*
X0226034Y0252538D01*
X0226009Y0252384D01*
X0225979Y0252231D01*
X0225945Y0252079D01*
X0225908Y0251927D01*
X0225867Y0251777D01*
X0225822Y0251628D01*
X0225773Y0251480D01*
X0225720Y0251333D01*
X0225664Y0251188D01*
X0225604Y0251044D01*
X0225540Y0250902D01*
X0225472Y0250761D01*
X0225401Y0250623D01*
X0225327Y0250486D01*
X0225249Y0250351D01*
X0225168Y0250218D01*
X0225083Y0250087D01*
X0224995Y0249958D01*
X0224904Y0249832D01*
X0224809Y0249708D01*
X0224712Y0249587D01*
X0224611Y0249468D01*
X0224507Y0249351D01*
X0224401Y0249238D01*
X0224291Y0249127D01*
X0224179Y0249019D01*
X0224064Y0248914D01*
X0223946Y0248811D01*
X0223826Y0248712D01*
X0223703Y0248616D01*
X0223578Y0248523D01*
X0223451Y0248434D01*
X0223321Y0248347D01*
X0223189Y0248264D01*
X0223055Y0248185D01*
X0222919Y0248108D01*
X0222781Y0248036D01*
X0222642Y0247966D01*
X0222500Y0247901D01*
X0222357Y0247839D01*
X0222213Y0247781D01*
X0222067Y0247726D01*
X0221919Y0247675D01*
X0221771Y0247628D01*
X0221621Y0247585D01*
X0221470Y0247546D01*
X0221318Y0247510D01*
X0221166Y0247479D01*
X0221012Y0247451D01*
X0220858Y0247427D01*
X0220704Y0247407D01*
X0220549Y0247391D01*
X0220393Y0247379D01*
X0220238Y0247371D01*
X0220082Y0247367D01*
X0219926Y0247367D01*
X0219770Y0247371D01*
X0219615Y0247379D01*
X0219459Y0247391D01*
X0219304Y0247407D01*
X0219150Y0247427D01*
X0218996Y0247451D01*
X0218842Y0247479D01*
X0218690Y0247510D01*
X0218538Y0247546D01*
X0218387Y0247585D01*
X0218237Y0247628D01*
X0218089Y0247675D01*
X0217941Y0247726D01*
X0217795Y0247781D01*
X0217651Y0247839D01*
X0217508Y0247901D01*
X0217366Y0247966D01*
X0217227Y0248036D01*
X0217089Y0248108D01*
X0216953Y0248185D01*
X0216819Y0248264D01*
X0216687Y0248347D01*
X0216557Y0248434D01*
X0216430Y0248523D01*
X0216305Y0248616D01*
X0216182Y0248712D01*
X0216062Y0248811D01*
X0215944Y0248914D01*
X0215829Y0249019D01*
X0215717Y0249127D01*
X0215607Y0249238D01*
X0215501Y0249351D01*
X0215397Y0249468D01*
X0215296Y0249587D01*
X0215199Y0249708D01*
X0215104Y0249832D01*
X0215013Y0249958D01*
X0214925Y0250087D01*
X0214840Y0250218D01*
X0214759Y0250351D01*
X0214681Y0250486D01*
X0214607Y0250623D01*
X0214536Y0250761D01*
X0214468Y0250902D01*
X0214404Y0251044D01*
X0214344Y0251188D01*
X0214288Y0251333D01*
X0214235Y0251480D01*
X0214186Y0251628D01*
X0214141Y0251777D01*
X0214100Y0251927D01*
X0214063Y0252079D01*
X0214029Y0252231D01*
X0213999Y0252384D01*
X0213974Y0252538D01*
X0213952Y0252692D01*
X0213934Y0252847D01*
X0213920Y0253002D01*
X0213910Y0253157D01*
X0213904Y0253313D01*
X0213902Y0253469D01*
X0213902Y0017248D02*
X0213904Y0017404D01*
X0213910Y0017560D01*
X0213920Y0017715D01*
X0213934Y0017870D01*
X0213952Y0018025D01*
X0213974Y0018179D01*
X0213999Y0018333D01*
X0214029Y0018486D01*
X0214063Y0018638D01*
X0214100Y0018790D01*
X0214141Y0018940D01*
X0214186Y0019089D01*
X0214235Y0019237D01*
X0214288Y0019384D01*
X0214344Y0019529D01*
X0214404Y0019673D01*
X0214468Y0019815D01*
X0214536Y0019956D01*
X0214607Y0020094D01*
X0214681Y0020231D01*
X0214759Y0020366D01*
X0214840Y0020499D01*
X0214925Y0020630D01*
X0215013Y0020759D01*
X0215104Y0020885D01*
X0215199Y0021009D01*
X0215296Y0021130D01*
X0215397Y0021249D01*
X0215501Y0021366D01*
X0215607Y0021479D01*
X0215717Y0021590D01*
X0215829Y0021698D01*
X0215944Y0021803D01*
X0216062Y0021906D01*
X0216182Y0022005D01*
X0216305Y0022101D01*
X0216430Y0022194D01*
X0216557Y0022283D01*
X0216687Y0022370D01*
X0216819Y0022453D01*
X0216953Y0022532D01*
X0217089Y0022609D01*
X0217227Y0022681D01*
X0217366Y0022751D01*
X0217508Y0022816D01*
X0217651Y0022878D01*
X0217795Y0022936D01*
X0217941Y0022991D01*
X0218089Y0023042D01*
X0218237Y0023089D01*
X0218387Y0023132D01*
X0218538Y0023171D01*
X0218690Y0023207D01*
X0218842Y0023238D01*
X0218996Y0023266D01*
X0219150Y0023290D01*
X0219304Y0023310D01*
X0219459Y0023326D01*
X0219615Y0023338D01*
X0219770Y0023346D01*
X0219926Y0023350D01*
X0220082Y0023350D01*
X0220238Y0023346D01*
X0220393Y0023338D01*
X0220549Y0023326D01*
X0220704Y0023310D01*
X0220858Y0023290D01*
X0221012Y0023266D01*
X0221166Y0023238D01*
X0221318Y0023207D01*
X0221470Y0023171D01*
X0221621Y0023132D01*
X0221771Y0023089D01*
X0221919Y0023042D01*
X0222067Y0022991D01*
X0222213Y0022936D01*
X0222357Y0022878D01*
X0222500Y0022816D01*
X0222642Y0022751D01*
X0222781Y0022681D01*
X0222919Y0022609D01*
X0223055Y0022532D01*
X0223189Y0022453D01*
X0223321Y0022370D01*
X0223451Y0022283D01*
X0223578Y0022194D01*
X0223703Y0022101D01*
X0223826Y0022005D01*
X0223946Y0021906D01*
X0224064Y0021803D01*
X0224179Y0021698D01*
X0224291Y0021590D01*
X0224401Y0021479D01*
X0224507Y0021366D01*
X0224611Y0021249D01*
X0224712Y0021130D01*
X0224809Y0021009D01*
X0224904Y0020885D01*
X0224995Y0020759D01*
X0225083Y0020630D01*
X0225168Y0020499D01*
X0225249Y0020366D01*
X0225327Y0020231D01*
X0225401Y0020094D01*
X0225472Y0019956D01*
X0225540Y0019815D01*
X0225604Y0019673D01*
X0225664Y0019529D01*
X0225720Y0019384D01*
X0225773Y0019237D01*
X0225822Y0019089D01*
X0225867Y0018940D01*
X0225908Y0018790D01*
X0225945Y0018638D01*
X0225979Y0018486D01*
X0226009Y0018333D01*
X0226034Y0018179D01*
X0226056Y0018025D01*
X0226074Y0017870D01*
X0226088Y0017715D01*
X0226098Y0017560D01*
X0226104Y0017404D01*
X0226106Y0017248D01*
X0226104Y0017092D01*
X0226098Y0016936D01*
X0226088Y0016781D01*
X0226074Y0016626D01*
X0226056Y0016471D01*
X0226034Y0016317D01*
X0226009Y0016163D01*
X0225979Y0016010D01*
X0225945Y0015858D01*
X0225908Y0015706D01*
X0225867Y0015556D01*
X0225822Y0015407D01*
X0225773Y0015259D01*
X0225720Y0015112D01*
X0225664Y0014967D01*
X0225604Y0014823D01*
X0225540Y0014681D01*
X0225472Y0014540D01*
X0225401Y0014402D01*
X0225327Y0014265D01*
X0225249Y0014130D01*
X0225168Y0013997D01*
X0225083Y0013866D01*
X0224995Y0013737D01*
X0224904Y0013611D01*
X0224809Y0013487D01*
X0224712Y0013366D01*
X0224611Y0013247D01*
X0224507Y0013130D01*
X0224401Y0013017D01*
X0224291Y0012906D01*
X0224179Y0012798D01*
X0224064Y0012693D01*
X0223946Y0012590D01*
X0223826Y0012491D01*
X0223703Y0012395D01*
X0223578Y0012302D01*
X0223451Y0012213D01*
X0223321Y0012126D01*
X0223189Y0012043D01*
X0223055Y0011964D01*
X0222919Y0011887D01*
X0222781Y0011815D01*
X0222642Y0011745D01*
X0222500Y0011680D01*
X0222357Y0011618D01*
X0222213Y0011560D01*
X0222067Y0011505D01*
X0221919Y0011454D01*
X0221771Y0011407D01*
X0221621Y0011364D01*
X0221470Y0011325D01*
X0221318Y0011289D01*
X0221166Y0011258D01*
X0221012Y0011230D01*
X0220858Y0011206D01*
X0220704Y0011186D01*
X0220549Y0011170D01*
X0220393Y0011158D01*
X0220238Y0011150D01*
X0220082Y0011146D01*
X0219926Y0011146D01*
X0219770Y0011150D01*
X0219615Y0011158D01*
X0219459Y0011170D01*
X0219304Y0011186D01*
X0219150Y0011206D01*
X0218996Y0011230D01*
X0218842Y0011258D01*
X0218690Y0011289D01*
X0218538Y0011325D01*
X0218387Y0011364D01*
X0218237Y0011407D01*
X0218089Y0011454D01*
X0217941Y0011505D01*
X0217795Y0011560D01*
X0217651Y0011618D01*
X0217508Y0011680D01*
X0217366Y0011745D01*
X0217227Y0011815D01*
X0217089Y0011887D01*
X0216953Y0011964D01*
X0216819Y0012043D01*
X0216687Y0012126D01*
X0216557Y0012213D01*
X0216430Y0012302D01*
X0216305Y0012395D01*
X0216182Y0012491D01*
X0216062Y0012590D01*
X0215944Y0012693D01*
X0215829Y0012798D01*
X0215717Y0012906D01*
X0215607Y0013017D01*
X0215501Y0013130D01*
X0215397Y0013247D01*
X0215296Y0013366D01*
X0215199Y0013487D01*
X0215104Y0013611D01*
X0215013Y0013737D01*
X0214925Y0013866D01*
X0214840Y0013997D01*
X0214759Y0014130D01*
X0214681Y0014265D01*
X0214607Y0014402D01*
X0214536Y0014540D01*
X0214468Y0014681D01*
X0214404Y0014823D01*
X0214344Y0014967D01*
X0214288Y0015112D01*
X0214235Y0015259D01*
X0214186Y0015407D01*
X0214141Y0015556D01*
X0214100Y0015706D01*
X0214063Y0015858D01*
X0214029Y0016010D01*
X0213999Y0016163D01*
X0213974Y0016317D01*
X0213952Y0016471D01*
X0213934Y0016626D01*
X0213920Y0016781D01*
X0213910Y0016936D01*
X0213904Y0017092D01*
X0213902Y0017248D01*
D11*
X0066244Y0247012D03*
X0058291Y0247012D03*
D12*
X0058272Y0247051D03*
X0066264Y0247051D03*
D13*
X0066264Y0247091D03*
X0058272Y0247091D03*
X0180791Y0254256D03*
X0180949Y0253980D03*
X0181106Y0253705D03*
X0181146Y0253626D03*
X0181303Y0253350D03*
X0181461Y0253075D03*
X0181500Y0252996D03*
X0181618Y0252799D03*
X0181657Y0252720D03*
X0181776Y0252524D03*
X0181815Y0252445D03*
X0181854Y0252366D03*
X0181933Y0252248D03*
X0181972Y0252169D03*
X0182012Y0252091D03*
X0182130Y0251894D03*
X0182169Y0251815D03*
X0182209Y0251736D03*
X0182287Y0251618D03*
X0182327Y0251539D03*
X0182366Y0251461D03*
X0182406Y0251382D03*
X0182445Y0251343D03*
X0182484Y0251264D03*
X0182524Y0251185D03*
X0182563Y0251106D03*
X0182602Y0251067D03*
X0182642Y0250988D03*
X0182681Y0250909D03*
X0182720Y0250831D03*
X0182760Y0250791D03*
X0182760Y0250752D03*
X0182799Y0250713D03*
X0182839Y0250634D03*
X0182878Y0250555D03*
X0182917Y0250516D03*
X0182917Y0250476D03*
X0182957Y0250437D03*
X0182996Y0250358D03*
X0183035Y0250280D03*
X0183075Y0250201D03*
X0183114Y0250161D03*
X0183114Y0250122D03*
X0183154Y0250083D03*
X0183193Y0250004D03*
X0183232Y0249925D03*
X0183272Y0249886D03*
X0183272Y0249846D03*
X0183311Y0249807D03*
D14*
X0074492Y0254492D03*
X0074453Y0254413D03*
X0074453Y0254374D03*
X0074413Y0254335D03*
X0074413Y0254295D03*
X0074413Y0254256D03*
X0074374Y0254217D03*
X0074492Y0258902D03*
X0074453Y0259020D03*
X0074413Y0259098D03*
X0074413Y0259138D03*
X0074374Y0259177D03*
X0074374Y0259217D03*
X0074335Y0259295D03*
X0066500Y0258941D03*
X0066461Y0259020D03*
X0066461Y0259059D03*
X0066421Y0259098D03*
X0066421Y0259138D03*
X0066382Y0259217D03*
X0066461Y0254374D03*
X0066461Y0254335D03*
X0066421Y0254295D03*
X0066421Y0254256D03*
X0066382Y0254177D03*
X0066264Y0247130D03*
X0058272Y0247130D03*
X0058154Y0254177D03*
X0058114Y0254256D03*
X0058114Y0254295D03*
X0058075Y0254335D03*
X0058075Y0254374D03*
X0058035Y0254453D03*
X0058035Y0258941D03*
X0058075Y0259020D03*
X0058075Y0259059D03*
X0058114Y0259098D03*
X0058114Y0259138D03*
X0058154Y0259217D03*
X0050201Y0259295D03*
X0050161Y0259217D03*
X0050161Y0259177D03*
X0050122Y0259138D03*
X0050122Y0259098D03*
X0050083Y0259020D03*
X0050043Y0258902D03*
X0050043Y0254492D03*
X0050083Y0254413D03*
X0050083Y0254374D03*
X0050122Y0254295D03*
X0050122Y0254256D03*
X0050161Y0254217D03*
X0050161Y0254177D03*
D15*
X0051106Y0252524D03*
X0051146Y0252484D03*
X0051146Y0252445D03*
X0051185Y0252406D03*
X0059098Y0252484D03*
X0059138Y0252445D03*
X0058272Y0247169D03*
X0065398Y0252445D03*
X0065437Y0252484D03*
X0073350Y0252406D03*
X0073390Y0252445D03*
X0073390Y0252484D03*
X0073429Y0252524D03*
X0073469Y0260831D03*
X0073390Y0260949D03*
X0073350Y0260988D03*
X0065437Y0260909D03*
X0065398Y0260949D03*
X0059138Y0260949D03*
X0059098Y0260909D03*
X0051185Y0260988D03*
X0051146Y0260949D03*
X0051106Y0260909D03*
X0051067Y0260831D03*
X0082091Y0260240D03*
X0082091Y0260201D03*
X0082091Y0260161D03*
X0082091Y0260122D03*
X0082091Y0260083D03*
X0082091Y0260043D03*
X0097760Y0253547D03*
X0113902Y0253547D03*
X0113902Y0253508D03*
X0113902Y0253469D03*
X0113902Y0253429D03*
X0113902Y0253390D03*
X0113902Y0253350D03*
X0113902Y0253311D03*
X0113902Y0253272D03*
X0113902Y0253232D03*
X0113902Y0253193D03*
X0113902Y0253154D03*
X0113902Y0253114D03*
X0113902Y0253075D03*
X0113902Y0253035D03*
X0113902Y0252996D03*
X0113902Y0252957D03*
X0113902Y0252917D03*
X0113902Y0252878D03*
X0113902Y0252839D03*
X0113902Y0252799D03*
X0113902Y0252760D03*
X0113902Y0252720D03*
X0113902Y0252681D03*
X0113902Y0252642D03*
X0113902Y0252602D03*
X0113902Y0252563D03*
X0113902Y0252524D03*
X0113902Y0252484D03*
X0113902Y0252445D03*
X0113902Y0252406D03*
X0113902Y0252366D03*
X0113902Y0252327D03*
X0113902Y0252287D03*
X0113902Y0252248D03*
X0113902Y0252209D03*
X0113902Y0252169D03*
X0113902Y0252130D03*
X0113902Y0252091D03*
X0113902Y0252051D03*
X0113902Y0252012D03*
X0113902Y0251972D03*
X0113902Y0251933D03*
X0113902Y0251894D03*
X0113902Y0251854D03*
X0113902Y0251815D03*
X0113902Y0251776D03*
X0113902Y0251736D03*
X0113902Y0251697D03*
X0113902Y0251657D03*
X0113902Y0251618D03*
X0113902Y0251579D03*
X0113902Y0251539D03*
X0113902Y0251500D03*
X0113902Y0251461D03*
X0113902Y0251421D03*
X0113902Y0251382D03*
X0113902Y0251343D03*
X0113902Y0251303D03*
X0113902Y0251264D03*
X0113902Y0251224D03*
X0113902Y0251185D03*
X0113902Y0251146D03*
X0113902Y0251106D03*
X0113902Y0251067D03*
X0113902Y0251028D03*
X0113902Y0250988D03*
X0113902Y0250949D03*
X0113902Y0250909D03*
X0113902Y0250870D03*
X0113902Y0250831D03*
X0113902Y0250791D03*
X0113902Y0250752D03*
X0113902Y0250713D03*
X0113902Y0250673D03*
X0113902Y0250634D03*
X0113902Y0250594D03*
X0113902Y0250555D03*
X0113902Y0250516D03*
X0113902Y0250476D03*
X0113902Y0250437D03*
X0113902Y0250398D03*
X0113902Y0250358D03*
X0113902Y0250319D03*
X0113902Y0250280D03*
X0113902Y0250240D03*
X0113902Y0250201D03*
X0113902Y0250161D03*
X0113902Y0250122D03*
X0113902Y0250083D03*
X0113902Y0250043D03*
X0113902Y0250004D03*
X0113902Y0249965D03*
X0113902Y0249925D03*
X0113902Y0249886D03*
X0113902Y0249846D03*
X0113902Y0249807D03*
X0113902Y0249768D03*
X0113902Y0253587D03*
X0113902Y0253626D03*
X0113902Y0253665D03*
X0113902Y0253705D03*
X0113902Y0253744D03*
X0113902Y0253783D03*
X0113902Y0253823D03*
X0113902Y0253862D03*
X0113902Y0253902D03*
X0113902Y0253941D03*
X0113902Y0253980D03*
X0113902Y0254020D03*
X0113902Y0254059D03*
X0113902Y0254098D03*
X0113902Y0254138D03*
X0113902Y0254177D03*
X0113902Y0254217D03*
X0113902Y0254256D03*
X0113902Y0254295D03*
X0113902Y0254335D03*
X0113902Y0254374D03*
X0113902Y0254413D03*
X0113902Y0254453D03*
X0113902Y0254492D03*
X0113902Y0254531D03*
X0113902Y0254571D03*
X0113902Y0254610D03*
X0113902Y0254650D03*
X0113902Y0254689D03*
X0113902Y0254728D03*
X0113902Y0254768D03*
X0113902Y0254807D03*
X0113902Y0254846D03*
X0113902Y0254886D03*
X0113902Y0254925D03*
X0113902Y0254965D03*
X0113902Y0255004D03*
X0113902Y0255043D03*
X0113902Y0255083D03*
X0113902Y0255122D03*
X0113902Y0255161D03*
X0113902Y0255201D03*
X0113902Y0255240D03*
X0113902Y0255280D03*
X0113902Y0255319D03*
X0113902Y0255358D03*
X0113902Y0255398D03*
X0113902Y0255437D03*
X0113902Y0255476D03*
X0113902Y0255516D03*
X0113902Y0255555D03*
X0113902Y0255594D03*
X0113902Y0255634D03*
X0113902Y0255673D03*
X0113902Y0255713D03*
X0113902Y0255752D03*
X0113902Y0255791D03*
X0113902Y0255831D03*
X0113902Y0255870D03*
X0113902Y0255909D03*
X0113902Y0255949D03*
X0113902Y0255988D03*
X0113902Y0256028D03*
X0113902Y0256067D03*
X0113902Y0256106D03*
X0113902Y0256146D03*
X0113902Y0256185D03*
X0113902Y0256224D03*
X0113902Y0256264D03*
X0113902Y0256303D03*
X0113902Y0256343D03*
X0113902Y0256382D03*
X0113902Y0256421D03*
X0113902Y0256461D03*
X0113902Y0256500D03*
X0113902Y0256539D03*
X0113902Y0256579D03*
X0113902Y0256618D03*
X0113902Y0256657D03*
X0113902Y0256697D03*
X0113902Y0256736D03*
X0113902Y0256776D03*
X0113902Y0256815D03*
X0113902Y0256854D03*
X0113902Y0256894D03*
X0113902Y0256933D03*
X0113902Y0256972D03*
X0113902Y0257012D03*
X0113902Y0257051D03*
X0113902Y0257091D03*
X0113902Y0257130D03*
X0113902Y0257169D03*
X0113902Y0257209D03*
X0113902Y0257248D03*
X0113902Y0257287D03*
X0113902Y0257327D03*
X0113902Y0257366D03*
X0113902Y0257406D03*
X0113902Y0257445D03*
X0113902Y0257484D03*
X0113902Y0257524D03*
X0113902Y0257563D03*
X0113902Y0257602D03*
X0113902Y0257642D03*
X0113902Y0257681D03*
X0113902Y0257720D03*
X0113902Y0257760D03*
X0113902Y0257799D03*
X0113902Y0260083D03*
X0113902Y0260122D03*
X0113902Y0260161D03*
X0113902Y0260201D03*
X0113902Y0260240D03*
X0113902Y0260280D03*
X0113902Y0260319D03*
X0136657Y0260713D03*
X0136657Y0260752D03*
X0136657Y0260791D03*
X0142051Y0260476D03*
X0142051Y0253783D03*
X0142051Y0253744D03*
X0142051Y0253705D03*
X0142051Y0253665D03*
X0142051Y0253626D03*
X0182799Y0260791D03*
D16*
X0172031Y0249768D03*
X0073528Y0252642D03*
X0073488Y0252602D03*
X0073449Y0252563D03*
X0065535Y0252642D03*
X0065496Y0252602D03*
X0065496Y0252563D03*
X0065457Y0252524D03*
X0066244Y0247169D03*
X0059079Y0252524D03*
X0059039Y0252563D03*
X0059039Y0252602D03*
X0059000Y0252642D03*
X0051087Y0252563D03*
X0051047Y0252602D03*
X0051008Y0252642D03*
X0051008Y0260752D03*
X0051047Y0260791D03*
X0051087Y0260870D03*
X0059000Y0260752D03*
X0059039Y0260831D03*
X0059079Y0260870D03*
X0065457Y0260870D03*
X0065496Y0260831D03*
X0065535Y0260752D03*
X0073409Y0260909D03*
X0073449Y0260870D03*
X0073488Y0260791D03*
X0073528Y0260752D03*
D17*
X0072819Y0261618D03*
X0072780Y0261657D03*
X0064787Y0261657D03*
X0064827Y0251776D03*
X0064787Y0251736D03*
X0066244Y0247209D03*
X0059748Y0251736D03*
X0059709Y0251776D03*
X0058291Y0247209D03*
X0051795Y0251697D03*
X0051756Y0251736D03*
X0051717Y0251776D03*
X0051717Y0261618D03*
X0051756Y0261657D03*
X0072740Y0251697D03*
X0072780Y0251736D03*
X0072819Y0251776D03*
X0082307Y0258783D03*
X0082386Y0261736D03*
X0092583Y0255673D03*
X0092622Y0252602D03*
X0098016Y0252524D03*
X0098016Y0257327D03*
X0108213Y0261736D03*
X0114157Y0261736D03*
X0114197Y0261776D03*
X0126165Y0261736D03*
X0126165Y0252524D03*
X0136402Y0258114D03*
X0136402Y0261736D03*
X0142307Y0261697D03*
X0142346Y0252484D03*
X0156126Y0252524D03*
X0156126Y0257327D03*
X0166323Y0261736D03*
X0182543Y0261736D03*
X0182543Y0258114D03*
X0182504Y0258075D03*
D18*
X0166067Y0262012D03*
X0142563Y0252248D03*
X0136185Y0257878D03*
X0114413Y0262012D03*
X0092327Y0255949D03*
X0092406Y0252327D03*
X0072327Y0251303D03*
X0072287Y0251264D03*
X0066264Y0247248D03*
X0058272Y0247248D03*
X0052248Y0251264D03*
X0052248Y0262130D03*
X0052287Y0262169D03*
X0072248Y0262169D03*
X0072287Y0262130D03*
D19*
X0071894Y0262445D03*
X0071894Y0250949D03*
X0066264Y0247287D03*
X0058272Y0247287D03*
X0052642Y0250949D03*
X0052642Y0262445D03*
X0135988Y0257760D03*
X0182130Y0257760D03*
D20*
X0181972Y0262169D03*
X0156697Y0257760D03*
X0126736Y0262169D03*
X0071539Y0262681D03*
X0071539Y0250713D03*
X0066264Y0247327D03*
X0058272Y0247327D03*
X0052996Y0250713D03*
X0052996Y0262681D03*
D21*
X0058272Y0266028D03*
X0053272Y0250555D03*
X0058272Y0247366D03*
X0066264Y0247366D03*
X0071264Y0250555D03*
X0091815Y0256146D03*
X0126933Y0262209D03*
X0135634Y0262209D03*
X0181776Y0262209D03*
D22*
X0071028Y0262957D03*
X0066264Y0247406D03*
X0058272Y0247406D03*
X0053508Y0262957D03*
D23*
X0058291Y0247445D03*
X0066244Y0247445D03*
X0070811Y0250358D03*
X0091638Y0252091D03*
D24*
X0070594Y0263114D03*
X0066264Y0265909D03*
X0058272Y0265909D03*
X0053941Y0263114D03*
X0058272Y0247484D03*
D25*
X0066244Y0247484D03*
D26*
X0066264Y0247524D03*
X0070437Y0250240D03*
X0058272Y0247524D03*
X0054098Y0250240D03*
X0058272Y0265870D03*
X0066264Y0265870D03*
D27*
X0066244Y0247563D03*
X0058291Y0247563D03*
D28*
X0058272Y0247602D03*
X0054335Y0250201D03*
X0070201Y0250201D03*
D29*
X0066244Y0247602D03*
X0062268Y0250201D03*
X0062268Y0250240D03*
X0062268Y0263154D03*
D30*
X0062248Y0263035D03*
X0058272Y0247642D03*
X0066264Y0247642D03*
D31*
X0066264Y0247681D03*
X0058272Y0247681D03*
X0058272Y0265713D03*
X0066264Y0265713D03*
D32*
X0066264Y0247720D03*
X0058272Y0247720D03*
D33*
X0058272Y0247760D03*
X0066264Y0247760D03*
X0066264Y0265634D03*
X0058272Y0265634D03*
D34*
X0058272Y0247799D03*
X0066264Y0247799D03*
D35*
X0062268Y0247839D03*
D36*
X0062268Y0247878D03*
X0062268Y0265516D03*
D37*
X0062268Y0265476D03*
X0062268Y0247917D03*
D38*
X0062268Y0247957D03*
X0062268Y0265437D03*
D39*
X0062268Y0265398D03*
X0062268Y0247996D03*
D40*
X0062268Y0248035D03*
X0062268Y0265358D03*
D41*
X0062268Y0265319D03*
X0062268Y0248075D03*
D42*
X0062268Y0248114D03*
X0062268Y0265280D03*
D43*
X0062268Y0265240D03*
X0062268Y0248154D03*
D44*
X0062268Y0248193D03*
X0062268Y0265201D03*
D45*
X0062268Y0265161D03*
X0062268Y0248232D03*
D46*
X0062268Y0248272D03*
D47*
X0062268Y0248311D03*
D48*
X0062268Y0248350D03*
X0062268Y0265043D03*
D49*
X0062268Y0265004D03*
X0062268Y0248390D03*
D50*
X0062268Y0248429D03*
D51*
X0062268Y0248469D03*
X0062268Y0264925D03*
D52*
X0062268Y0264886D03*
X0062268Y0248508D03*
D53*
X0062268Y0248547D03*
D54*
X0062268Y0248587D03*
X0062268Y0264807D03*
D55*
X0062268Y0248626D03*
D56*
X0062268Y0248665D03*
X0062268Y0264728D03*
D57*
X0062268Y0248705D03*
D58*
X0062268Y0248744D03*
X0062268Y0264650D03*
D59*
X0062268Y0248783D03*
D60*
X0062268Y0248823D03*
X0062268Y0264571D03*
D61*
X0062268Y0264531D03*
X0062268Y0248862D03*
D62*
X0062268Y0248902D03*
X0062268Y0264492D03*
D63*
X0062268Y0264453D03*
X0062268Y0248941D03*
D64*
X0062268Y0248980D03*
D65*
X0062268Y0249020D03*
X0062268Y0264374D03*
D66*
X0062268Y0264335D03*
X0062268Y0249059D03*
D67*
X0062268Y0249098D03*
D68*
X0062268Y0249138D03*
X0062268Y0264256D03*
D69*
X0062268Y0264217D03*
X0062268Y0249177D03*
D70*
X0062268Y0249217D03*
X0062268Y0264177D03*
D71*
X0062268Y0249256D03*
D72*
X0062268Y0249295D03*
X0062268Y0264098D03*
D73*
X0062268Y0264059D03*
X0062268Y0249335D03*
D74*
X0062268Y0249374D03*
X0062268Y0264020D03*
D75*
X0062268Y0263980D03*
X0062268Y0249413D03*
D76*
X0062268Y0249453D03*
D77*
X0062268Y0249492D03*
X0062268Y0263902D03*
D78*
X0062268Y0263862D03*
X0062268Y0249531D03*
D79*
X0062268Y0249571D03*
X0062268Y0263823D03*
D80*
X0062268Y0263783D03*
X0062268Y0249610D03*
D81*
X0062268Y0249650D03*
X0062268Y0263744D03*
D82*
X0062268Y0263705D03*
X0062268Y0249689D03*
D83*
X0062268Y0249728D03*
X0062268Y0263665D03*
D84*
X0062268Y0263626D03*
X0062268Y0249768D03*
D85*
X0104906Y0249768D03*
X0146913Y0263902D03*
D86*
X0132819Y0249768D03*
X0117465Y0262248D03*
X0117504Y0262327D03*
X0117504Y0262366D03*
X0117504Y0262406D03*
X0117504Y0262445D03*
D87*
X0148055Y0249768D03*
X0062268Y0251343D03*
X0062268Y0251382D03*
X0062268Y0262012D03*
X0062268Y0262051D03*
D88*
X0131303Y0264177D03*
X0146933Y0250358D03*
X0162996Y0249768D03*
D89*
X0180181Y0255319D03*
X0180181Y0255358D03*
X0180220Y0255280D03*
X0180220Y0255240D03*
X0180260Y0255201D03*
X0180299Y0255161D03*
X0180299Y0255122D03*
X0180339Y0255083D03*
X0180339Y0255043D03*
X0180378Y0255004D03*
X0180378Y0254965D03*
X0180417Y0254925D03*
X0180417Y0254886D03*
X0180457Y0254846D03*
X0180496Y0254807D03*
X0180496Y0254768D03*
X0180535Y0254728D03*
X0180535Y0254689D03*
X0180575Y0254650D03*
X0180575Y0254610D03*
X0180614Y0254571D03*
X0180654Y0254531D03*
X0180654Y0254492D03*
X0180693Y0254453D03*
X0180693Y0254413D03*
X0180732Y0254374D03*
X0180732Y0254335D03*
X0180772Y0254295D03*
X0180811Y0254217D03*
X0180850Y0254177D03*
X0180850Y0254138D03*
X0180890Y0254098D03*
X0180890Y0254059D03*
X0180929Y0254020D03*
X0180969Y0253941D03*
X0181008Y0253902D03*
X0181008Y0253862D03*
X0181047Y0253823D03*
X0181047Y0253783D03*
X0181087Y0253744D03*
X0181126Y0253665D03*
X0181165Y0253587D03*
X0181205Y0253547D03*
X0181205Y0253508D03*
X0181244Y0253469D03*
X0181244Y0253429D03*
X0181283Y0253390D03*
X0181323Y0253311D03*
X0181362Y0253272D03*
X0181362Y0253232D03*
X0181402Y0253193D03*
X0181402Y0253154D03*
X0181441Y0253114D03*
X0181480Y0253035D03*
X0181520Y0252957D03*
X0181559Y0252917D03*
X0181559Y0252878D03*
X0181598Y0252839D03*
X0181638Y0252760D03*
X0181677Y0252681D03*
X0181717Y0252642D03*
X0181717Y0252602D03*
X0181756Y0252563D03*
X0181795Y0252484D03*
X0181835Y0252406D03*
X0181874Y0252327D03*
X0181913Y0252287D03*
X0181953Y0252209D03*
X0181992Y0252130D03*
X0182031Y0252051D03*
X0182071Y0252012D03*
X0182071Y0251972D03*
X0182110Y0251933D03*
X0182150Y0251854D03*
X0182189Y0251776D03*
X0182228Y0251697D03*
X0182268Y0251657D03*
X0182307Y0251579D03*
X0182346Y0251500D03*
X0182386Y0251421D03*
X0182465Y0251303D03*
X0182504Y0251224D03*
X0182543Y0251146D03*
X0182622Y0251028D03*
X0182661Y0250949D03*
X0182701Y0250870D03*
X0182819Y0250673D03*
X0182858Y0250594D03*
X0182976Y0250398D03*
X0183016Y0250319D03*
X0183055Y0250240D03*
X0183173Y0250043D03*
X0183213Y0249965D03*
X0183331Y0249768D03*
D90*
X0062268Y0249807D03*
D91*
X0102091Y0264374D03*
X0104610Y0249807D03*
X0146618Y0250988D03*
X0146618Y0263311D03*
X0160201Y0264374D03*
X0162720Y0249807D03*
D92*
X0146835Y0263783D03*
X0132543Y0249807D03*
D93*
X0118114Y0264020D03*
X0147760Y0249807D03*
D94*
X0142071Y0253350D03*
X0142071Y0253390D03*
X0142071Y0253429D03*
X0142071Y0253469D03*
X0142071Y0253508D03*
X0142071Y0253547D03*
X0142071Y0253587D03*
X0142031Y0253823D03*
X0142031Y0253862D03*
X0142031Y0253902D03*
X0142031Y0253941D03*
X0142031Y0253980D03*
X0142031Y0254020D03*
X0142031Y0254059D03*
X0142031Y0254098D03*
X0142031Y0254138D03*
X0142031Y0254177D03*
X0142031Y0254217D03*
X0142031Y0254256D03*
X0142031Y0254295D03*
X0142031Y0254335D03*
X0142031Y0254374D03*
X0142031Y0254413D03*
X0142031Y0254453D03*
X0142031Y0254492D03*
X0142031Y0254531D03*
X0142031Y0254571D03*
X0142031Y0254610D03*
X0142031Y0254650D03*
X0142031Y0254689D03*
X0142031Y0254728D03*
X0142031Y0254768D03*
X0142031Y0254807D03*
X0142031Y0254846D03*
X0142031Y0254886D03*
X0142031Y0254925D03*
X0142031Y0254965D03*
X0142031Y0255004D03*
X0142031Y0255043D03*
X0142031Y0255083D03*
X0142031Y0255122D03*
X0142031Y0255161D03*
X0142031Y0255201D03*
X0142031Y0255240D03*
X0142031Y0255280D03*
X0142031Y0255319D03*
X0142031Y0255358D03*
X0142031Y0255398D03*
X0142031Y0255437D03*
X0142031Y0255476D03*
X0142031Y0255516D03*
X0142031Y0255555D03*
X0142031Y0255594D03*
X0142031Y0255634D03*
X0142031Y0255673D03*
X0142031Y0255713D03*
X0142031Y0255752D03*
X0142031Y0255791D03*
X0142031Y0255831D03*
X0142031Y0255870D03*
X0142031Y0255909D03*
X0142031Y0255949D03*
X0142031Y0255988D03*
X0142031Y0256028D03*
X0142031Y0256067D03*
X0142031Y0256106D03*
X0142031Y0256146D03*
X0142031Y0256185D03*
X0142031Y0256224D03*
X0142031Y0256264D03*
X0142031Y0256303D03*
X0142031Y0256343D03*
X0142031Y0256382D03*
X0142031Y0256421D03*
X0142031Y0256461D03*
X0142031Y0256500D03*
X0142031Y0256539D03*
X0142031Y0256579D03*
X0142031Y0256618D03*
X0142031Y0256657D03*
X0142031Y0256697D03*
X0142031Y0256736D03*
X0142031Y0256776D03*
X0142031Y0256815D03*
X0142031Y0256854D03*
X0142031Y0256894D03*
X0142031Y0256933D03*
X0142031Y0256972D03*
X0142031Y0257012D03*
X0142031Y0257051D03*
X0142031Y0257091D03*
X0142031Y0257130D03*
X0142031Y0257169D03*
X0142031Y0257209D03*
X0142031Y0257248D03*
X0142031Y0257287D03*
X0142031Y0257327D03*
X0142031Y0257366D03*
X0142031Y0257406D03*
X0142031Y0257445D03*
X0142031Y0257484D03*
X0142031Y0257524D03*
X0142031Y0257563D03*
X0142031Y0257602D03*
X0142031Y0257642D03*
X0142031Y0257681D03*
X0142031Y0257720D03*
X0142031Y0257760D03*
X0142031Y0257799D03*
X0142031Y0257839D03*
X0142031Y0257878D03*
X0142031Y0257917D03*
X0142031Y0257957D03*
X0142031Y0257996D03*
X0142031Y0258035D03*
X0142031Y0258075D03*
X0142031Y0258114D03*
X0142031Y0258154D03*
X0142031Y0258193D03*
X0142031Y0258232D03*
X0142031Y0258272D03*
X0142031Y0258311D03*
X0142031Y0258350D03*
X0142031Y0258390D03*
X0142031Y0258429D03*
X0142031Y0258469D03*
X0142031Y0258508D03*
X0142031Y0258547D03*
X0142031Y0258587D03*
X0142031Y0258626D03*
X0142031Y0258665D03*
X0142031Y0258705D03*
X0142031Y0258744D03*
X0142031Y0258783D03*
X0142031Y0258823D03*
X0142031Y0258862D03*
X0142031Y0258902D03*
X0142031Y0258941D03*
X0142031Y0258980D03*
X0142031Y0259020D03*
X0142031Y0259059D03*
X0142031Y0259098D03*
X0142031Y0259138D03*
X0142031Y0259177D03*
X0142031Y0259217D03*
X0142031Y0259256D03*
X0142031Y0259295D03*
X0142031Y0259335D03*
X0142031Y0259374D03*
X0142031Y0259413D03*
X0142031Y0259453D03*
X0142031Y0259492D03*
X0142031Y0259531D03*
X0142031Y0259571D03*
X0142031Y0259610D03*
X0142031Y0259650D03*
X0142031Y0259689D03*
X0142031Y0259728D03*
X0142031Y0259768D03*
X0142031Y0259807D03*
X0142031Y0259846D03*
X0142031Y0259886D03*
X0142031Y0259925D03*
X0142031Y0259965D03*
X0142031Y0260004D03*
X0142031Y0260043D03*
X0142031Y0260083D03*
X0142031Y0260122D03*
X0142031Y0260161D03*
X0142031Y0260201D03*
X0142031Y0260240D03*
X0142031Y0260280D03*
X0142031Y0260319D03*
X0142031Y0260358D03*
X0142031Y0260398D03*
X0142031Y0260437D03*
X0142071Y0260516D03*
X0142071Y0260555D03*
X0142071Y0260594D03*
X0142071Y0260634D03*
X0142071Y0260673D03*
X0142071Y0260713D03*
X0142071Y0260752D03*
X0142071Y0260791D03*
X0142071Y0260831D03*
X0142071Y0260870D03*
X0136677Y0260673D03*
X0136677Y0260634D03*
X0136677Y0260594D03*
X0136677Y0260555D03*
X0136677Y0260516D03*
X0136677Y0260476D03*
X0136677Y0260437D03*
X0136677Y0260398D03*
X0136677Y0260358D03*
X0136677Y0260319D03*
X0136677Y0260280D03*
X0136677Y0260240D03*
X0136677Y0260201D03*
X0136677Y0260161D03*
X0136677Y0260122D03*
X0136677Y0260083D03*
X0136677Y0260043D03*
X0136677Y0260004D03*
X0136677Y0259965D03*
X0136677Y0259925D03*
X0136677Y0259886D03*
X0136677Y0259846D03*
X0136677Y0259807D03*
X0136677Y0259768D03*
X0136677Y0259728D03*
X0136677Y0259689D03*
X0136677Y0259650D03*
X0136677Y0259610D03*
X0136677Y0259571D03*
X0136677Y0259531D03*
X0136677Y0259492D03*
X0136677Y0259453D03*
X0136677Y0259413D03*
X0136677Y0259374D03*
X0136677Y0259335D03*
X0136677Y0259295D03*
X0136677Y0259256D03*
X0136677Y0259217D03*
X0136677Y0259177D03*
X0136677Y0259138D03*
X0136638Y0259020D03*
X0136638Y0258980D03*
X0136638Y0258941D03*
X0136638Y0258902D03*
X0136638Y0260831D03*
X0136638Y0260870D03*
X0136638Y0260909D03*
X0136638Y0260949D03*
X0136638Y0260988D03*
X0125929Y0260988D03*
X0125929Y0260949D03*
X0125929Y0260909D03*
X0125929Y0260870D03*
X0125929Y0260831D03*
X0125890Y0260752D03*
X0125890Y0260713D03*
X0125890Y0260673D03*
X0125890Y0260634D03*
X0125890Y0260594D03*
X0125890Y0260555D03*
X0125890Y0260516D03*
X0125890Y0260476D03*
X0125890Y0260437D03*
X0125890Y0260398D03*
X0125890Y0260358D03*
X0125890Y0260319D03*
X0125890Y0260280D03*
X0125890Y0260240D03*
X0125890Y0260201D03*
X0125890Y0260161D03*
X0125890Y0260122D03*
X0125890Y0260083D03*
X0125890Y0260043D03*
X0125890Y0260004D03*
X0125890Y0259965D03*
X0125890Y0259925D03*
X0125890Y0259886D03*
X0125890Y0259846D03*
X0125890Y0259807D03*
X0125890Y0259768D03*
X0125890Y0259728D03*
X0125890Y0259689D03*
X0125890Y0259650D03*
X0125890Y0259610D03*
X0125890Y0259571D03*
X0125890Y0259531D03*
X0125890Y0259492D03*
X0125890Y0259453D03*
X0125890Y0259413D03*
X0125890Y0259374D03*
X0125890Y0259335D03*
X0125890Y0259295D03*
X0125890Y0259256D03*
X0125890Y0259217D03*
X0125890Y0259177D03*
X0125890Y0259138D03*
X0125890Y0259098D03*
X0125890Y0259059D03*
X0125890Y0259020D03*
X0125890Y0258980D03*
X0125890Y0258941D03*
X0125890Y0258902D03*
X0125890Y0258862D03*
X0125890Y0258823D03*
X0125890Y0258783D03*
X0125890Y0258744D03*
X0125890Y0258705D03*
X0125890Y0258665D03*
X0125890Y0258626D03*
X0125890Y0258587D03*
X0125890Y0258547D03*
X0125890Y0258508D03*
X0125890Y0258469D03*
X0125890Y0258429D03*
X0125890Y0258390D03*
X0125890Y0258350D03*
X0125890Y0258311D03*
X0125890Y0258272D03*
X0125890Y0258232D03*
X0125890Y0258193D03*
X0125890Y0258154D03*
X0125890Y0258114D03*
X0125890Y0258075D03*
X0125890Y0258035D03*
X0125890Y0257996D03*
X0125890Y0257957D03*
X0125890Y0257917D03*
X0125890Y0257878D03*
X0125890Y0257839D03*
X0125890Y0257799D03*
X0125890Y0257760D03*
X0125890Y0257720D03*
X0125890Y0257681D03*
X0125890Y0255358D03*
X0125890Y0255319D03*
X0125890Y0255280D03*
X0125890Y0255240D03*
X0125890Y0255201D03*
X0125890Y0255161D03*
X0125890Y0255122D03*
X0125890Y0255083D03*
X0125890Y0255043D03*
X0125890Y0255004D03*
X0125890Y0254965D03*
X0125890Y0254925D03*
X0125890Y0254886D03*
X0125890Y0254846D03*
X0125890Y0254807D03*
X0125890Y0254768D03*
X0125890Y0254728D03*
X0125890Y0254689D03*
X0125890Y0254650D03*
X0125890Y0254610D03*
X0125890Y0254571D03*
X0125890Y0254531D03*
X0125890Y0254492D03*
X0125890Y0254453D03*
X0125890Y0254413D03*
X0125890Y0254374D03*
X0125890Y0254335D03*
X0125890Y0254295D03*
X0125890Y0254256D03*
X0125890Y0254217D03*
X0125890Y0254177D03*
X0125890Y0254138D03*
X0125890Y0254098D03*
X0125890Y0254059D03*
X0125890Y0254020D03*
X0125890Y0253980D03*
X0125890Y0253941D03*
X0125890Y0253902D03*
X0125890Y0253862D03*
X0125890Y0253823D03*
X0125890Y0253783D03*
X0125890Y0253744D03*
X0125890Y0253705D03*
X0125890Y0253665D03*
X0125890Y0253626D03*
X0125890Y0253587D03*
X0125929Y0253429D03*
X0125929Y0253390D03*
X0125929Y0253350D03*
X0125929Y0253311D03*
X0113921Y0260358D03*
X0113921Y0260398D03*
X0113921Y0260437D03*
X0113921Y0260476D03*
X0113921Y0260516D03*
X0113921Y0260555D03*
X0113921Y0260594D03*
X0113921Y0260634D03*
X0113921Y0260673D03*
X0113921Y0260713D03*
X0113921Y0260752D03*
X0113921Y0260791D03*
X0108488Y0260673D03*
X0108488Y0260634D03*
X0108488Y0260594D03*
X0108488Y0260555D03*
X0108488Y0260516D03*
X0108488Y0260476D03*
X0108488Y0260437D03*
X0108488Y0260398D03*
X0108488Y0260358D03*
X0108488Y0260319D03*
X0108488Y0260280D03*
X0108488Y0260240D03*
X0108488Y0260201D03*
X0108488Y0260161D03*
X0108488Y0260122D03*
X0108488Y0260083D03*
X0108449Y0260791D03*
X0108449Y0260831D03*
X0108449Y0260870D03*
X0108449Y0260909D03*
X0108449Y0260949D03*
X0108488Y0257799D03*
X0108488Y0257760D03*
X0108488Y0257720D03*
X0108488Y0257681D03*
X0108488Y0257642D03*
X0108488Y0257602D03*
X0108488Y0257563D03*
X0108488Y0257524D03*
X0108488Y0257484D03*
X0108488Y0257445D03*
X0108488Y0257406D03*
X0108488Y0257366D03*
X0108488Y0257327D03*
X0108488Y0257287D03*
X0108488Y0257248D03*
X0108488Y0257209D03*
X0108488Y0257169D03*
X0108488Y0257130D03*
X0108488Y0257091D03*
X0108488Y0257051D03*
X0108488Y0257012D03*
X0108488Y0256972D03*
X0108488Y0256933D03*
X0108488Y0256894D03*
X0108488Y0256854D03*
X0108488Y0256815D03*
X0108488Y0256776D03*
X0108488Y0256736D03*
X0108488Y0256697D03*
X0108488Y0256657D03*
X0108488Y0256618D03*
X0108488Y0256579D03*
X0108488Y0256539D03*
X0108488Y0256500D03*
X0108488Y0256461D03*
X0108488Y0256421D03*
X0108488Y0256382D03*
X0108488Y0256343D03*
X0108488Y0256303D03*
X0108488Y0256264D03*
X0108488Y0256224D03*
X0108488Y0256185D03*
X0108488Y0256146D03*
X0108488Y0256106D03*
X0108488Y0256067D03*
X0108488Y0256028D03*
X0108488Y0255988D03*
X0108488Y0255949D03*
X0108488Y0255909D03*
X0108488Y0255870D03*
X0108488Y0255831D03*
X0108488Y0255791D03*
X0108488Y0255752D03*
X0108488Y0255713D03*
X0108488Y0255673D03*
X0108488Y0255634D03*
X0108488Y0255594D03*
X0108488Y0255555D03*
X0108488Y0255516D03*
X0108488Y0255476D03*
X0108488Y0255437D03*
X0108488Y0255398D03*
X0108488Y0255358D03*
X0108488Y0255319D03*
X0108488Y0255280D03*
X0108488Y0255240D03*
X0108488Y0255201D03*
X0108488Y0255161D03*
X0108488Y0255122D03*
X0108488Y0255083D03*
X0108488Y0255043D03*
X0108488Y0255004D03*
X0108488Y0254965D03*
X0108488Y0254925D03*
X0108488Y0254886D03*
X0108488Y0254846D03*
X0108488Y0254807D03*
X0108488Y0254768D03*
X0108488Y0254728D03*
X0108488Y0254689D03*
X0108488Y0254650D03*
X0108488Y0254610D03*
X0108488Y0254571D03*
X0108488Y0254531D03*
X0108488Y0254492D03*
X0108488Y0254453D03*
X0108488Y0254413D03*
X0108488Y0254374D03*
X0108488Y0254335D03*
X0108488Y0254295D03*
X0108488Y0254256D03*
X0108488Y0254217D03*
X0108488Y0254177D03*
X0108488Y0254138D03*
X0108488Y0254098D03*
X0108488Y0254059D03*
X0108488Y0254020D03*
X0108488Y0253980D03*
X0108488Y0253941D03*
X0108488Y0253902D03*
X0108488Y0253862D03*
X0108488Y0253823D03*
X0108488Y0253783D03*
X0108488Y0253744D03*
X0108488Y0253705D03*
X0108488Y0253665D03*
X0108488Y0253626D03*
X0108488Y0253587D03*
X0108488Y0253547D03*
X0108488Y0253508D03*
X0108488Y0253469D03*
X0108488Y0253429D03*
X0108488Y0253390D03*
X0108488Y0253350D03*
X0108488Y0253311D03*
X0108488Y0253272D03*
X0108488Y0253232D03*
X0108488Y0253193D03*
X0108488Y0253154D03*
X0108488Y0253114D03*
X0108488Y0253075D03*
X0108488Y0253035D03*
X0108488Y0252996D03*
X0108488Y0252957D03*
X0108488Y0252917D03*
X0108488Y0252878D03*
X0108488Y0252839D03*
X0108488Y0252799D03*
X0108488Y0252760D03*
X0108488Y0252720D03*
X0108488Y0252681D03*
X0108488Y0252642D03*
X0108488Y0252602D03*
X0108488Y0252563D03*
X0108488Y0252524D03*
X0108488Y0252484D03*
X0108488Y0252445D03*
X0108488Y0252406D03*
X0108488Y0252366D03*
X0108488Y0252327D03*
X0108488Y0252287D03*
X0108488Y0252248D03*
X0108488Y0252209D03*
X0108488Y0252169D03*
X0108488Y0252130D03*
X0108488Y0252091D03*
X0108488Y0252051D03*
X0097780Y0253272D03*
X0097780Y0253311D03*
X0097780Y0253350D03*
X0097780Y0253390D03*
X0097780Y0253429D03*
X0097780Y0253469D03*
X0097780Y0253508D03*
X0097740Y0253587D03*
X0097740Y0253626D03*
X0097740Y0253665D03*
X0097740Y0253705D03*
X0097740Y0253744D03*
X0097740Y0253783D03*
X0097740Y0253823D03*
X0097740Y0253862D03*
X0097740Y0253902D03*
X0097740Y0253941D03*
X0097740Y0253980D03*
X0097740Y0254020D03*
X0097740Y0254059D03*
X0097740Y0254098D03*
X0097740Y0254138D03*
X0097740Y0254177D03*
X0097740Y0254217D03*
X0097740Y0254256D03*
X0097740Y0254295D03*
X0097740Y0254335D03*
X0097740Y0254374D03*
X0097740Y0254413D03*
X0097740Y0254453D03*
X0097740Y0254492D03*
X0097740Y0254531D03*
X0097740Y0254571D03*
X0097740Y0254610D03*
X0097740Y0254650D03*
X0097740Y0254689D03*
X0097740Y0254728D03*
X0097740Y0254768D03*
X0097740Y0254807D03*
X0097740Y0254846D03*
X0097740Y0254886D03*
X0097740Y0254925D03*
X0097740Y0254965D03*
X0097740Y0255004D03*
X0097740Y0255043D03*
X0097740Y0255083D03*
X0097740Y0255122D03*
X0097740Y0255161D03*
X0097740Y0255201D03*
X0097740Y0255240D03*
X0097740Y0255280D03*
X0097740Y0255319D03*
X0097740Y0255358D03*
X0097740Y0255398D03*
X0097740Y0255437D03*
X0097740Y0255476D03*
X0097740Y0255516D03*
X0097740Y0255555D03*
X0097740Y0255594D03*
X0097740Y0255634D03*
X0097740Y0255673D03*
X0097740Y0255713D03*
X0097740Y0255752D03*
X0097740Y0255791D03*
X0097740Y0255831D03*
X0097740Y0255870D03*
X0097740Y0255909D03*
X0097740Y0255949D03*
X0097740Y0255988D03*
X0097740Y0256028D03*
X0097740Y0256067D03*
X0097740Y0256106D03*
X0097740Y0256146D03*
X0097740Y0256185D03*
X0097740Y0256224D03*
X0097780Y0256343D03*
X0097780Y0256382D03*
X0097780Y0256421D03*
X0097780Y0256461D03*
X0097780Y0256500D03*
X0097780Y0256539D03*
X0092819Y0254925D03*
X0092819Y0254886D03*
X0092819Y0254846D03*
X0092819Y0254807D03*
X0092858Y0254650D03*
X0092858Y0254610D03*
X0092858Y0254571D03*
X0092858Y0254531D03*
X0092858Y0254492D03*
X0092858Y0254453D03*
X0092858Y0254413D03*
X0092858Y0254374D03*
X0092858Y0254335D03*
X0092858Y0254295D03*
X0092858Y0254256D03*
X0092858Y0254217D03*
X0092858Y0254177D03*
X0092858Y0254138D03*
X0092858Y0254098D03*
X0092858Y0254059D03*
X0092858Y0254020D03*
X0092858Y0253980D03*
X0092858Y0253941D03*
X0092858Y0253902D03*
X0092858Y0253862D03*
X0092858Y0253823D03*
X0092858Y0253783D03*
X0092858Y0253744D03*
X0092858Y0253705D03*
X0092858Y0253665D03*
X0092858Y0253626D03*
X0092858Y0253587D03*
X0092858Y0253547D03*
X0082110Y0259531D03*
X0082110Y0259571D03*
X0082110Y0259610D03*
X0082110Y0259650D03*
X0082110Y0259689D03*
X0082110Y0259728D03*
X0082110Y0259768D03*
X0082110Y0259807D03*
X0082110Y0259846D03*
X0082110Y0259886D03*
X0082110Y0259925D03*
X0082110Y0259965D03*
X0082110Y0260004D03*
X0082110Y0260280D03*
X0082110Y0260319D03*
X0082110Y0260358D03*
X0082110Y0260398D03*
X0082110Y0260437D03*
X0082110Y0260476D03*
X0082110Y0260516D03*
X0082110Y0260555D03*
X0082110Y0260594D03*
X0082110Y0260634D03*
X0082110Y0260673D03*
X0082110Y0260713D03*
X0082110Y0260752D03*
X0082110Y0260791D03*
X0082150Y0260988D03*
X0073331Y0261028D03*
X0073291Y0261067D03*
X0065378Y0260988D03*
X0065339Y0261028D03*
X0066244Y0266224D03*
X0058291Y0266224D03*
X0059197Y0261028D03*
X0059157Y0260988D03*
X0051244Y0261067D03*
X0051205Y0261028D03*
X0051205Y0252366D03*
X0051244Y0252327D03*
X0059157Y0252406D03*
X0059197Y0252366D03*
X0059236Y0252327D03*
X0065299Y0252327D03*
X0065339Y0252366D03*
X0065378Y0252406D03*
X0073291Y0252327D03*
X0073331Y0252366D03*
X0155850Y0253508D03*
X0155850Y0253547D03*
X0155850Y0253587D03*
X0155850Y0253626D03*
X0155850Y0253665D03*
X0155850Y0253705D03*
X0155850Y0253744D03*
X0155850Y0253783D03*
X0155850Y0253823D03*
X0155850Y0253862D03*
X0155850Y0253902D03*
X0155850Y0253941D03*
X0155850Y0253980D03*
X0155850Y0254020D03*
X0155850Y0254059D03*
X0155850Y0254098D03*
X0155850Y0254138D03*
X0155850Y0254177D03*
X0155850Y0254217D03*
X0155850Y0254256D03*
X0155850Y0254295D03*
X0155850Y0254335D03*
X0155850Y0254374D03*
X0155850Y0254413D03*
X0155850Y0254453D03*
X0155850Y0254492D03*
X0155850Y0254531D03*
X0155850Y0254571D03*
X0155850Y0254610D03*
X0155850Y0254650D03*
X0155850Y0254689D03*
X0155850Y0254728D03*
X0155850Y0254768D03*
X0155850Y0254807D03*
X0155850Y0254846D03*
X0155850Y0254886D03*
X0155850Y0254925D03*
X0155850Y0254965D03*
X0155850Y0255004D03*
X0155850Y0255043D03*
X0155850Y0255083D03*
X0155850Y0255122D03*
X0155850Y0255161D03*
X0155850Y0255201D03*
X0155850Y0255240D03*
X0155850Y0255280D03*
X0155850Y0255319D03*
X0155850Y0255358D03*
X0155850Y0255398D03*
X0155850Y0255437D03*
X0155850Y0255476D03*
X0155850Y0255516D03*
X0155850Y0255555D03*
X0155850Y0255594D03*
X0155850Y0255634D03*
X0155850Y0255673D03*
X0155850Y0255713D03*
X0155850Y0255752D03*
X0155850Y0255791D03*
X0155850Y0255831D03*
X0155850Y0255870D03*
X0155850Y0255909D03*
X0155850Y0255949D03*
X0155850Y0255988D03*
X0155850Y0256028D03*
X0155850Y0256067D03*
X0155850Y0256106D03*
X0155850Y0256146D03*
X0155850Y0256185D03*
X0155850Y0256224D03*
X0155850Y0256264D03*
X0155890Y0256421D03*
X0155890Y0256461D03*
X0155890Y0256500D03*
X0155890Y0256539D03*
X0155890Y0253469D03*
X0155890Y0253429D03*
X0155890Y0253390D03*
X0155890Y0253350D03*
X0155890Y0253311D03*
X0155890Y0253272D03*
X0166598Y0253272D03*
X0166598Y0253311D03*
X0166598Y0253350D03*
X0166598Y0253390D03*
X0166598Y0253429D03*
X0166598Y0253469D03*
X0166598Y0253508D03*
X0166598Y0253547D03*
X0166598Y0253587D03*
X0166598Y0253626D03*
X0166598Y0253665D03*
X0166598Y0253705D03*
X0166598Y0253744D03*
X0166598Y0253783D03*
X0166598Y0253823D03*
X0166598Y0253862D03*
X0166598Y0253902D03*
X0166598Y0253941D03*
X0166598Y0253980D03*
X0166598Y0254020D03*
X0166598Y0254059D03*
X0166598Y0254098D03*
X0166598Y0254138D03*
X0166598Y0254177D03*
X0166598Y0254217D03*
X0166598Y0254256D03*
X0166598Y0254295D03*
X0166598Y0254335D03*
X0166598Y0254374D03*
X0166598Y0254413D03*
X0166598Y0254453D03*
X0166598Y0254492D03*
X0166598Y0254531D03*
X0166598Y0254571D03*
X0166598Y0254610D03*
X0166598Y0254650D03*
X0166598Y0254689D03*
X0166598Y0254728D03*
X0166598Y0254768D03*
X0166598Y0254807D03*
X0166598Y0254846D03*
X0166598Y0254886D03*
X0166598Y0254925D03*
X0166598Y0254965D03*
X0166598Y0255004D03*
X0166598Y0255043D03*
X0166598Y0255083D03*
X0166598Y0255122D03*
X0166598Y0255161D03*
X0166598Y0255201D03*
X0166598Y0255240D03*
X0166598Y0255280D03*
X0166598Y0255319D03*
X0166598Y0255358D03*
X0166598Y0255398D03*
X0166598Y0255437D03*
X0166598Y0255476D03*
X0166598Y0255516D03*
X0166598Y0255555D03*
X0166598Y0255594D03*
X0166598Y0255634D03*
X0166598Y0255673D03*
X0166598Y0255713D03*
X0166598Y0255752D03*
X0166598Y0255791D03*
X0166598Y0255831D03*
X0166598Y0255870D03*
X0166598Y0255909D03*
X0166598Y0255949D03*
X0166598Y0255988D03*
X0166598Y0256028D03*
X0166598Y0256067D03*
X0166598Y0256106D03*
X0166598Y0256146D03*
X0166598Y0256185D03*
X0166598Y0256224D03*
X0166598Y0256264D03*
X0166598Y0256303D03*
X0166598Y0256343D03*
X0166598Y0256382D03*
X0166598Y0256421D03*
X0166598Y0256461D03*
X0166598Y0256500D03*
X0166598Y0256539D03*
X0166598Y0256579D03*
X0166598Y0256618D03*
X0166598Y0256657D03*
X0166598Y0256697D03*
X0166598Y0256736D03*
X0166598Y0256776D03*
X0166598Y0256815D03*
X0166598Y0256854D03*
X0166598Y0256894D03*
X0166598Y0256933D03*
X0166598Y0256972D03*
X0166598Y0257012D03*
X0166598Y0257051D03*
X0166598Y0257091D03*
X0166598Y0257130D03*
X0166598Y0257169D03*
X0166598Y0257209D03*
X0166598Y0257248D03*
X0166598Y0257287D03*
X0166598Y0257327D03*
X0166598Y0257366D03*
X0166598Y0257406D03*
X0166598Y0257445D03*
X0166598Y0257484D03*
X0166598Y0257524D03*
X0166598Y0257563D03*
X0166598Y0257602D03*
X0166598Y0257642D03*
X0166598Y0257681D03*
X0166598Y0257720D03*
X0166598Y0257760D03*
X0166598Y0257799D03*
X0166598Y0260083D03*
X0166598Y0260122D03*
X0166598Y0260161D03*
X0166598Y0260201D03*
X0166598Y0260240D03*
X0166598Y0260280D03*
X0166598Y0260319D03*
X0166598Y0260358D03*
X0166598Y0260398D03*
X0166598Y0260437D03*
X0166598Y0260476D03*
X0166598Y0260516D03*
X0166598Y0260555D03*
X0166598Y0260594D03*
X0166598Y0260634D03*
X0166559Y0260752D03*
X0166559Y0260791D03*
X0166559Y0260831D03*
X0166559Y0260870D03*
X0166559Y0260909D03*
X0172031Y0260909D03*
X0172031Y0260870D03*
X0172031Y0260831D03*
X0172031Y0260791D03*
X0172031Y0260752D03*
X0172031Y0260713D03*
X0172031Y0260673D03*
X0172031Y0260634D03*
X0172031Y0260594D03*
X0172031Y0260555D03*
X0172031Y0260516D03*
X0172031Y0260476D03*
X0172031Y0260437D03*
X0172031Y0260398D03*
X0172031Y0260358D03*
X0172031Y0260319D03*
X0172031Y0260280D03*
X0172031Y0260240D03*
X0172031Y0260201D03*
X0172031Y0260161D03*
X0172031Y0260122D03*
X0172031Y0260083D03*
X0172031Y0260043D03*
X0172031Y0260004D03*
X0172031Y0259965D03*
X0172031Y0259925D03*
X0172031Y0259886D03*
X0172031Y0259846D03*
X0172031Y0259807D03*
X0172031Y0259768D03*
X0172031Y0259728D03*
X0172031Y0259689D03*
X0172031Y0259650D03*
X0172031Y0259610D03*
X0172031Y0259571D03*
X0172031Y0259531D03*
X0172031Y0259492D03*
X0172031Y0259453D03*
X0172031Y0259413D03*
X0172031Y0259374D03*
X0172031Y0259335D03*
X0172031Y0259295D03*
X0172031Y0259256D03*
X0172031Y0259217D03*
X0172031Y0259177D03*
X0172031Y0259138D03*
X0172031Y0259098D03*
X0172031Y0259059D03*
X0172031Y0259020D03*
X0172031Y0258980D03*
X0172031Y0258941D03*
X0172031Y0258902D03*
X0172031Y0258862D03*
X0172031Y0258823D03*
X0172031Y0258783D03*
X0172031Y0258744D03*
X0172031Y0258705D03*
X0172031Y0258665D03*
X0172031Y0258626D03*
X0172031Y0258587D03*
X0172031Y0258547D03*
X0172031Y0258508D03*
X0172031Y0258469D03*
X0172031Y0258429D03*
X0172031Y0258390D03*
X0172031Y0258350D03*
X0172031Y0258311D03*
X0172031Y0258272D03*
X0172031Y0258232D03*
X0172031Y0258193D03*
X0172031Y0258154D03*
X0172031Y0258114D03*
X0172031Y0258075D03*
X0172031Y0258035D03*
X0172031Y0257996D03*
X0172031Y0257957D03*
X0172031Y0257917D03*
X0172031Y0257878D03*
X0172031Y0257839D03*
X0172031Y0257799D03*
X0172031Y0257760D03*
X0172031Y0257720D03*
X0172031Y0257681D03*
X0172031Y0255358D03*
X0172031Y0255319D03*
X0172031Y0255280D03*
X0172031Y0255240D03*
X0172031Y0255201D03*
X0172031Y0255161D03*
X0172031Y0255122D03*
X0172031Y0255083D03*
X0172031Y0255043D03*
X0172031Y0255004D03*
X0172031Y0254965D03*
X0172031Y0254925D03*
X0172031Y0254886D03*
X0172031Y0254846D03*
X0172031Y0254807D03*
X0172031Y0254768D03*
X0172031Y0254728D03*
X0172031Y0254689D03*
X0172031Y0254650D03*
X0172031Y0254610D03*
X0172031Y0254571D03*
X0172031Y0254531D03*
X0172031Y0254492D03*
X0172031Y0254453D03*
X0172031Y0254413D03*
X0172031Y0254374D03*
X0172031Y0254335D03*
X0172031Y0254295D03*
X0172031Y0254256D03*
X0172031Y0254217D03*
X0172031Y0254177D03*
X0172031Y0254138D03*
X0172031Y0254098D03*
X0172031Y0254059D03*
X0172031Y0254020D03*
X0172031Y0253980D03*
X0172031Y0253941D03*
X0172031Y0253902D03*
X0172031Y0253862D03*
X0172031Y0253823D03*
X0172031Y0253783D03*
X0172031Y0253744D03*
X0172031Y0253705D03*
X0172031Y0253665D03*
X0172031Y0253626D03*
X0172031Y0253587D03*
X0172031Y0253547D03*
X0172031Y0253508D03*
X0172031Y0253469D03*
X0172031Y0253429D03*
X0172031Y0253390D03*
X0172031Y0253350D03*
X0172031Y0253311D03*
X0172031Y0253272D03*
X0172031Y0253232D03*
X0172031Y0253193D03*
X0172031Y0253154D03*
X0172031Y0253114D03*
X0172031Y0253075D03*
X0172031Y0253035D03*
X0172031Y0252996D03*
X0172031Y0252957D03*
X0172031Y0252917D03*
X0172031Y0252878D03*
X0172031Y0252839D03*
X0172031Y0252799D03*
X0172031Y0252760D03*
X0172031Y0252720D03*
X0172031Y0252681D03*
X0172031Y0252642D03*
X0172031Y0252602D03*
X0172031Y0252563D03*
X0172031Y0252524D03*
X0172031Y0252484D03*
X0172031Y0252445D03*
X0172031Y0252406D03*
X0172031Y0252366D03*
X0172031Y0252327D03*
X0172031Y0252287D03*
X0172031Y0252248D03*
X0172031Y0252209D03*
X0172031Y0252169D03*
X0172031Y0252130D03*
X0172031Y0252091D03*
X0172031Y0252051D03*
X0172031Y0252012D03*
X0172031Y0251972D03*
X0172031Y0251933D03*
X0172031Y0251894D03*
X0172031Y0251854D03*
X0172031Y0251815D03*
X0172031Y0251776D03*
X0172031Y0251736D03*
X0172031Y0251697D03*
X0172031Y0251657D03*
X0172031Y0251618D03*
X0172031Y0251579D03*
X0172031Y0251539D03*
X0172031Y0251500D03*
X0172031Y0251461D03*
X0172031Y0251421D03*
X0172031Y0251382D03*
X0172031Y0251343D03*
X0172031Y0251303D03*
X0172031Y0251264D03*
X0172031Y0251224D03*
X0172031Y0251185D03*
X0172031Y0251146D03*
X0172031Y0251106D03*
X0172031Y0251067D03*
X0172031Y0251028D03*
X0172031Y0250988D03*
X0172031Y0250949D03*
X0172031Y0250909D03*
X0172031Y0250870D03*
X0172031Y0250831D03*
X0172031Y0250791D03*
X0172031Y0250752D03*
X0172031Y0250713D03*
X0172031Y0250673D03*
X0172031Y0250634D03*
X0172031Y0250594D03*
X0172031Y0250555D03*
X0172031Y0250516D03*
X0172031Y0250476D03*
X0172031Y0250437D03*
X0172031Y0250398D03*
X0172031Y0250358D03*
X0172031Y0250319D03*
X0172031Y0250280D03*
X0172031Y0250240D03*
X0172031Y0250201D03*
X0172031Y0250161D03*
X0172031Y0250122D03*
X0172031Y0250083D03*
X0172031Y0250043D03*
X0172031Y0250004D03*
X0172031Y0249965D03*
X0172031Y0249925D03*
X0172031Y0249886D03*
X0172031Y0249846D03*
X0172031Y0249807D03*
X0166598Y0252051D03*
X0166598Y0252091D03*
X0166598Y0252130D03*
X0166598Y0252169D03*
X0166598Y0252209D03*
X0166598Y0252248D03*
X0166598Y0252287D03*
X0166598Y0252327D03*
X0166598Y0252366D03*
X0166598Y0252406D03*
X0166598Y0252445D03*
X0166598Y0252484D03*
X0166598Y0252524D03*
X0166598Y0252563D03*
X0166598Y0252602D03*
X0166598Y0252642D03*
X0166598Y0252681D03*
X0166598Y0252720D03*
X0166598Y0252760D03*
X0166598Y0252799D03*
X0166598Y0252839D03*
X0166598Y0252878D03*
X0166598Y0252917D03*
X0166598Y0252957D03*
X0166598Y0252996D03*
X0166598Y0253035D03*
X0166598Y0253075D03*
X0166598Y0253114D03*
X0166598Y0253154D03*
X0166598Y0253193D03*
X0166598Y0253232D03*
X0172031Y0260949D03*
X0172031Y0260988D03*
X0172031Y0261028D03*
X0172031Y0261067D03*
X0172031Y0261106D03*
X0172031Y0261146D03*
X0172031Y0261185D03*
X0172031Y0261224D03*
X0172031Y0261264D03*
X0172031Y0261303D03*
X0172031Y0261343D03*
X0172031Y0261382D03*
X0172031Y0261421D03*
X0172031Y0261461D03*
X0172031Y0261500D03*
X0172031Y0261539D03*
X0172031Y0261579D03*
X0172031Y0261618D03*
X0172031Y0261657D03*
X0172031Y0261697D03*
X0172031Y0261736D03*
X0172031Y0261776D03*
X0172031Y0261815D03*
X0172031Y0261854D03*
X0172031Y0261894D03*
X0172031Y0261933D03*
X0172031Y0261972D03*
X0172031Y0262012D03*
X0172031Y0262051D03*
X0172031Y0262091D03*
X0172031Y0262130D03*
X0172031Y0262169D03*
X0172031Y0262209D03*
X0182780Y0260988D03*
X0182780Y0260949D03*
X0182780Y0260909D03*
X0182780Y0260870D03*
X0182780Y0260831D03*
X0182819Y0260752D03*
X0182819Y0260713D03*
X0182819Y0260673D03*
X0182819Y0260634D03*
X0182819Y0260594D03*
X0182819Y0260555D03*
X0182819Y0260516D03*
X0182819Y0260476D03*
X0182819Y0260437D03*
X0182819Y0260398D03*
X0182819Y0260358D03*
X0182819Y0260319D03*
X0182819Y0260280D03*
X0182819Y0260240D03*
X0182819Y0260201D03*
X0182819Y0260161D03*
X0182819Y0260122D03*
X0182819Y0260083D03*
X0182819Y0260043D03*
X0182819Y0260004D03*
X0182819Y0259965D03*
X0182819Y0259925D03*
X0182819Y0259886D03*
X0182819Y0259846D03*
X0182819Y0259807D03*
X0182819Y0259768D03*
X0182819Y0259728D03*
X0182819Y0259689D03*
X0182819Y0259650D03*
X0182819Y0259610D03*
X0182819Y0259571D03*
X0182819Y0259531D03*
X0182819Y0259492D03*
X0182819Y0259453D03*
X0182819Y0259413D03*
X0182819Y0259374D03*
X0182819Y0259335D03*
X0182819Y0259295D03*
X0182819Y0259256D03*
X0182819Y0259217D03*
X0182819Y0259177D03*
X0182819Y0259138D03*
X0182780Y0258980D03*
X0182780Y0258941D03*
X0182780Y0258902D03*
X0182780Y0258862D03*
D95*
X0062268Y0263587D03*
X0062268Y0249846D03*
D96*
X0086067Y0249846D03*
X0088626Y0264453D03*
X0117366Y0260043D03*
X0117366Y0260004D03*
X0117366Y0259965D03*
X0117366Y0259925D03*
X0117366Y0259886D03*
X0117366Y0259846D03*
X0117366Y0259807D03*
X0117366Y0259768D03*
X0117366Y0259728D03*
X0117366Y0259689D03*
X0117366Y0259650D03*
X0117366Y0259610D03*
X0117366Y0259571D03*
X0117366Y0259531D03*
X0117366Y0259492D03*
X0117366Y0259453D03*
X0117366Y0259413D03*
X0117366Y0259374D03*
X0117366Y0259335D03*
X0117366Y0259295D03*
X0117366Y0259256D03*
X0117366Y0259217D03*
X0117366Y0259177D03*
X0117366Y0259138D03*
X0117366Y0259098D03*
X0117366Y0259059D03*
X0117366Y0259020D03*
X0117366Y0258980D03*
X0117366Y0258941D03*
X0117366Y0258902D03*
X0117366Y0258862D03*
X0117366Y0258823D03*
X0117366Y0258783D03*
X0117366Y0258744D03*
X0117366Y0258705D03*
X0117366Y0258665D03*
X0117366Y0258626D03*
X0117366Y0258587D03*
X0117366Y0258547D03*
X0117366Y0258508D03*
X0117366Y0258469D03*
X0117366Y0258429D03*
X0117366Y0258390D03*
X0117366Y0258350D03*
X0117366Y0258311D03*
X0117366Y0258272D03*
X0117366Y0258232D03*
X0117366Y0258193D03*
X0117366Y0258154D03*
X0117366Y0258114D03*
X0117366Y0258075D03*
X0117366Y0258035D03*
X0117366Y0257996D03*
X0117366Y0257957D03*
X0117366Y0257917D03*
X0117366Y0257878D03*
X0117366Y0257839D03*
X0147051Y0264059D03*
X0147051Y0250201D03*
D97*
X0146480Y0251461D03*
X0146480Y0251500D03*
X0146480Y0262799D03*
X0146480Y0262839D03*
X0162583Y0249846D03*
X0104472Y0249846D03*
X0088055Y0264217D03*
D98*
X0104689Y0260043D03*
X0132406Y0249846D03*
X0146697Y0250752D03*
X0146697Y0250791D03*
X0146697Y0263508D03*
X0162799Y0260043D03*
X0175831Y0255437D03*
X0175831Y0255398D03*
D99*
X0147622Y0249846D03*
X0131283Y0264374D03*
D100*
X0062268Y0263547D03*
X0062268Y0249886D03*
D101*
X0086323Y0249886D03*
X0146795Y0250555D03*
X0146795Y0263705D03*
D102*
X0132071Y0250004D03*
X0130024Y0255516D03*
X0104354Y0249886D03*
X0086756Y0250043D03*
X0086362Y0258272D03*
X0162465Y0249886D03*
X0176165Y0264374D03*
D103*
X0146579Y0263193D03*
X0146579Y0251106D03*
X0132287Y0249886D03*
X0131303Y0264020D03*
X0088705Y0256224D03*
X0086146Y0258350D03*
D104*
X0117878Y0263665D03*
X0147524Y0264374D03*
X0147524Y0249886D03*
D105*
X0062268Y0249925D03*
X0062268Y0263508D03*
D106*
X0086480Y0249925D03*
X0146638Y0250909D03*
X0146638Y0250949D03*
X0146638Y0263350D03*
X0175890Y0264453D03*
D107*
X0162386Y0249925D03*
X0160535Y0264177D03*
X0131283Y0263823D03*
X0102425Y0264177D03*
X0104276Y0249925D03*
X0086441Y0258232D03*
D108*
X0132209Y0249925D03*
X0146500Y0251382D03*
X0146500Y0251421D03*
X0146500Y0262878D03*
X0146500Y0262917D03*
D109*
X0147425Y0249925D03*
X0117780Y0263469D03*
D110*
X0062268Y0263469D03*
X0062268Y0249965D03*
D111*
X0086579Y0249965D03*
X0088114Y0264256D03*
X0146539Y0263075D03*
X0146539Y0263035D03*
X0146539Y0251264D03*
X0146539Y0251224D03*
D112*
X0131913Y0250122D03*
X0131283Y0263744D03*
X0104197Y0249965D03*
X0162307Y0249965D03*
D113*
X0146421Y0251776D03*
X0146421Y0251815D03*
X0146421Y0251854D03*
X0146421Y0262445D03*
X0146421Y0262484D03*
X0146421Y0262524D03*
X0132130Y0249965D03*
X0087996Y0264177D03*
D114*
X0117701Y0263272D03*
X0147346Y0249965D03*
D115*
X0062268Y0250004D03*
X0062268Y0263429D03*
D116*
X0086677Y0250004D03*
X0088528Y0256264D03*
X0146441Y0251736D03*
X0146441Y0251697D03*
X0146441Y0251657D03*
X0146441Y0262563D03*
X0146441Y0262602D03*
X0146441Y0262642D03*
D117*
X0160673Y0264059D03*
X0162248Y0259846D03*
X0162248Y0250004D03*
X0176382Y0255634D03*
X0104138Y0250004D03*
X0102563Y0264059D03*
X0087720Y0263862D03*
X0086972Y0250201D03*
D118*
X0117642Y0263075D03*
X0131303Y0264295D03*
X0147287Y0264256D03*
X0147287Y0250004D03*
D119*
X0062268Y0250043D03*
X0062268Y0263390D03*
D120*
X0087661Y0263783D03*
X0102622Y0263980D03*
X0104079Y0259807D03*
X0104079Y0250043D03*
X0131795Y0250240D03*
X0160732Y0263980D03*
X0162189Y0259807D03*
X0162189Y0250043D03*
X0176441Y0255673D03*
D121*
X0176224Y0255555D03*
X0162406Y0259925D03*
X0132012Y0250043D03*
X0104295Y0259925D03*
X0087878Y0264059D03*
X0086815Y0250083D03*
D122*
X0117583Y0262799D03*
X0117583Y0262839D03*
X0147228Y0264217D03*
X0147228Y0250043D03*
D123*
X0062268Y0250083D03*
X0062268Y0263350D03*
D124*
X0087602Y0263665D03*
X0088035Y0256500D03*
X0087091Y0250319D03*
X0104020Y0250083D03*
X0130358Y0255713D03*
X0131736Y0250319D03*
X0160791Y0263902D03*
X0162130Y0250083D03*
D125*
X0131953Y0250083D03*
X0131283Y0263783D03*
X0086520Y0258193D03*
X0086874Y0250122D03*
D126*
X0117524Y0262484D03*
X0117524Y0262524D03*
X0117524Y0262563D03*
X0147169Y0250083D03*
D127*
X0062268Y0250122D03*
X0062268Y0263311D03*
D128*
X0087563Y0263587D03*
X0087130Y0250358D03*
X0103980Y0250122D03*
X0103980Y0259728D03*
X0102720Y0263862D03*
X0131697Y0250358D03*
X0160831Y0263862D03*
X0162091Y0259728D03*
X0162091Y0250122D03*
X0176539Y0255752D03*
D129*
X0147130Y0250122D03*
X0147130Y0264138D03*
X0131303Y0264256D03*
X0117484Y0262287D03*
D130*
X0062268Y0263272D03*
X0062268Y0250161D03*
D131*
X0086933Y0250161D03*
X0086579Y0258154D03*
X0087760Y0263941D03*
X0102524Y0264098D03*
X0130201Y0255594D03*
X0160634Y0264098D03*
X0176343Y0264295D03*
D132*
X0176579Y0264138D03*
X0176579Y0255791D03*
X0162051Y0259689D03*
X0160870Y0263783D03*
X0162051Y0250161D03*
X0131657Y0250437D03*
X0103941Y0250161D03*
X0103941Y0259689D03*
X0087524Y0263508D03*
X0086854Y0257917D03*
D133*
X0088213Y0256382D03*
X0087740Y0263902D03*
X0104157Y0259846D03*
X0131283Y0263705D03*
X0131874Y0250161D03*
D134*
X0147091Y0250161D03*
X0147091Y0264098D03*
D135*
X0160909Y0263744D03*
X0162012Y0259650D03*
X0162012Y0250201D03*
X0176618Y0255831D03*
X0176618Y0264098D03*
X0131618Y0250476D03*
X0103902Y0250201D03*
X0103902Y0259650D03*
X0102799Y0263744D03*
X0087484Y0263429D03*
X0086933Y0257839D03*
X0087209Y0250476D03*
D136*
X0086638Y0258114D03*
X0130260Y0255634D03*
X0131835Y0250201D03*
D137*
X0131303Y0263665D03*
X0102602Y0264020D03*
X0088154Y0256421D03*
X0087012Y0250240D03*
X0087681Y0263823D03*
X0160713Y0264020D03*
X0176421Y0264256D03*
D138*
X0176657Y0264059D03*
X0176657Y0255870D03*
X0161972Y0259610D03*
X0160949Y0263665D03*
X0161972Y0250240D03*
X0131579Y0250555D03*
X0103862Y0250240D03*
X0103862Y0259610D03*
X0102839Y0263665D03*
X0087799Y0256697D03*
X0087012Y0257760D03*
X0086972Y0257799D03*
X0087445Y0263311D03*
X0087248Y0250555D03*
D139*
X0131303Y0264217D03*
X0147012Y0264020D03*
X0147012Y0250240D03*
D140*
X0070575Y0250280D03*
X0053961Y0250280D03*
D141*
X0062248Y0250280D03*
X0058272Y0265791D03*
X0066264Y0265791D03*
D142*
X0087642Y0263744D03*
X0086697Y0258075D03*
X0087051Y0250280D03*
X0130319Y0255673D03*
X0131303Y0263626D03*
D143*
X0131303Y0263350D03*
X0130555Y0255909D03*
X0131539Y0250634D03*
X0103823Y0250280D03*
X0103823Y0259571D03*
X0102878Y0263587D03*
X0087406Y0263193D03*
X0087091Y0257681D03*
X0087760Y0256776D03*
X0087287Y0250594D03*
X0160988Y0263587D03*
X0161933Y0259571D03*
X0161933Y0250280D03*
X0176697Y0255909D03*
X0176697Y0264020D03*
D144*
X0176480Y0264217D03*
X0176480Y0255713D03*
X0162150Y0259768D03*
X0160772Y0263941D03*
X0131283Y0263587D03*
X0131756Y0250280D03*
X0104039Y0259768D03*
X0102661Y0263941D03*
X0088094Y0256461D03*
X0086756Y0258035D03*
X0087622Y0263705D03*
D145*
X0146992Y0250280D03*
D146*
X0070713Y0250319D03*
X0053823Y0250319D03*
D147*
X0062268Y0250319D03*
X0062268Y0263114D03*
D148*
X0087386Y0263114D03*
X0087386Y0263154D03*
X0087110Y0257642D03*
X0087701Y0256815D03*
X0087307Y0250634D03*
X0103803Y0250319D03*
X0103803Y0259531D03*
X0102898Y0263547D03*
X0131283Y0263311D03*
X0131520Y0250673D03*
X0161008Y0263547D03*
X0161913Y0259531D03*
X0161913Y0250319D03*
X0176717Y0263980D03*
D149*
X0146953Y0263941D03*
X0146953Y0250319D03*
D150*
X0070831Y0263035D03*
X0053705Y0263035D03*
X0053705Y0250358D03*
D151*
X0062268Y0250358D03*
X0062268Y0263075D03*
D152*
X0087346Y0262996D03*
X0087189Y0257524D03*
X0087228Y0257484D03*
X0087583Y0256972D03*
X0087622Y0256933D03*
X0087346Y0250713D03*
X0103764Y0250358D03*
X0103764Y0259492D03*
X0102937Y0263469D03*
X0131283Y0263272D03*
X0130614Y0255988D03*
X0131480Y0250752D03*
X0161047Y0263469D03*
X0161874Y0259492D03*
X0161874Y0250358D03*
X0176756Y0255988D03*
X0176756Y0263941D03*
D153*
X0070929Y0262996D03*
X0070929Y0250398D03*
X0053606Y0250398D03*
X0053606Y0262996D03*
D154*
X0058291Y0265752D03*
X0062268Y0262996D03*
X0066244Y0265752D03*
X0062268Y0250398D03*
D155*
X0087150Y0250398D03*
X0087976Y0256539D03*
X0086835Y0257957D03*
X0087543Y0263547D03*
X0102740Y0263823D03*
X0130417Y0255752D03*
X0131677Y0250398D03*
X0131283Y0263508D03*
X0160850Y0263823D03*
D156*
X0161067Y0263429D03*
X0161067Y0263390D03*
X0161854Y0259453D03*
X0161854Y0250398D03*
X0176776Y0263902D03*
X0131303Y0263232D03*
X0131461Y0250831D03*
X0131461Y0250791D03*
X0103744Y0250398D03*
X0103744Y0259453D03*
X0102957Y0263390D03*
X0102957Y0263429D03*
X0087327Y0262957D03*
X0087327Y0262917D03*
X0087327Y0262878D03*
X0087248Y0257445D03*
X0087287Y0257406D03*
X0087287Y0257366D03*
X0087327Y0257327D03*
X0087366Y0257287D03*
X0087406Y0257209D03*
X0087445Y0257169D03*
X0087484Y0257091D03*
X0087524Y0257051D03*
X0087563Y0257012D03*
X0087366Y0250791D03*
X0087366Y0250752D03*
D157*
X0088469Y0264413D03*
X0101815Y0264453D03*
X0146894Y0263862D03*
X0146894Y0250398D03*
X0159925Y0264453D03*
D158*
X0071008Y0250437D03*
X0053528Y0250437D03*
D159*
X0062268Y0250437D03*
X0062268Y0262957D03*
D160*
X0086913Y0257878D03*
X0087898Y0256618D03*
X0087937Y0256579D03*
X0087189Y0250437D03*
X0087504Y0263469D03*
X0102780Y0263783D03*
X0130457Y0255791D03*
X0131283Y0263469D03*
D161*
X0131283Y0263193D03*
X0130654Y0256028D03*
X0131441Y0250870D03*
X0103724Y0250437D03*
X0102976Y0263350D03*
X0087307Y0262839D03*
X0087307Y0262799D03*
X0087386Y0257248D03*
X0087465Y0257130D03*
X0087386Y0250831D03*
X0161087Y0263350D03*
X0176795Y0256028D03*
D162*
X0146874Y0250437D03*
X0146874Y0263823D03*
X0129512Y0255398D03*
D163*
X0130673Y0256067D03*
X0131421Y0250909D03*
X0103705Y0259413D03*
X0102996Y0263311D03*
X0087287Y0262760D03*
X0087287Y0262720D03*
X0087406Y0250870D03*
X0161106Y0263311D03*
X0161815Y0259413D03*
X0161815Y0250437D03*
X0176815Y0256067D03*
X0176815Y0263862D03*
D164*
X0071106Y0250476D03*
X0053429Y0250476D03*
D165*
X0062268Y0250476D03*
X0062268Y0262917D03*
D166*
X0087268Y0262681D03*
X0087268Y0262642D03*
X0087268Y0262602D03*
X0087425Y0250949D03*
X0087425Y0250909D03*
X0103685Y0250476D03*
X0103685Y0259374D03*
X0103016Y0263232D03*
X0103016Y0263272D03*
X0131283Y0263154D03*
X0131283Y0263114D03*
X0130693Y0256106D03*
X0131402Y0250988D03*
X0131402Y0250949D03*
X0161126Y0263232D03*
X0161126Y0263272D03*
X0161795Y0259374D03*
X0161795Y0250476D03*
X0176835Y0256106D03*
X0176835Y0263823D03*
D167*
X0146854Y0250476D03*
D168*
X0071185Y0250516D03*
X0053350Y0250516D03*
D169*
X0062268Y0250516D03*
X0062268Y0262878D03*
D170*
X0087465Y0263350D03*
X0087465Y0263390D03*
X0087858Y0256657D03*
X0087228Y0250516D03*
X0102819Y0263705D03*
X0131283Y0263429D03*
X0130496Y0255831D03*
X0131598Y0250516D03*
X0160929Y0263705D03*
D171*
X0161146Y0263193D03*
X0161776Y0259335D03*
X0161776Y0250516D03*
X0176854Y0256146D03*
X0176854Y0263783D03*
X0131382Y0251028D03*
X0103665Y0250516D03*
X0103665Y0259335D03*
X0103035Y0263193D03*
X0087248Y0262563D03*
X0087248Y0262524D03*
X0087248Y0262484D03*
X0087445Y0250988D03*
D172*
X0088941Y0256185D03*
X0131303Y0264138D03*
X0146815Y0263744D03*
X0146815Y0250516D03*
D173*
X0062268Y0250555D03*
X0062268Y0262839D03*
D174*
X0087228Y0262445D03*
X0087228Y0262406D03*
X0087228Y0262366D03*
X0087465Y0251067D03*
X0087465Y0251028D03*
X0103646Y0250555D03*
X0103646Y0259295D03*
X0103055Y0263114D03*
X0103055Y0263154D03*
X0131283Y0263075D03*
X0130732Y0256146D03*
X0131362Y0251106D03*
X0131362Y0251067D03*
X0161165Y0263114D03*
X0161165Y0263154D03*
X0161756Y0259295D03*
X0161756Y0250555D03*
X0176874Y0263744D03*
D175*
X0156835Y0252051D03*
X0143016Y0252051D03*
X0126874Y0252051D03*
X0098724Y0252051D03*
X0091953Y0252130D03*
X0071323Y0250594D03*
X0071362Y0262799D03*
X0053173Y0262799D03*
X0053213Y0250594D03*
D176*
X0062268Y0250594D03*
X0062268Y0262799D03*
D177*
X0087209Y0262327D03*
X0087209Y0262287D03*
X0087209Y0262248D03*
X0087484Y0251106D03*
X0103626Y0250594D03*
X0103626Y0259256D03*
X0103075Y0263035D03*
X0103075Y0263075D03*
X0131303Y0263035D03*
X0130752Y0256185D03*
X0131343Y0251146D03*
X0161185Y0263035D03*
X0161185Y0263075D03*
X0161736Y0259256D03*
X0161736Y0250594D03*
X0176894Y0256185D03*
D178*
X0160969Y0263626D03*
X0131283Y0263390D03*
X0130535Y0255870D03*
X0131559Y0250594D03*
X0102858Y0263626D03*
X0087425Y0263272D03*
X0087425Y0263232D03*
X0087031Y0257720D03*
X0087780Y0256736D03*
D179*
X0088350Y0264374D03*
X0146776Y0263665D03*
X0146776Y0250594D03*
D180*
X0071402Y0250634D03*
X0071402Y0262760D03*
X0053134Y0262760D03*
X0053134Y0250634D03*
D181*
X0062248Y0250634D03*
X0058272Y0265673D03*
X0066264Y0265673D03*
D182*
X0087504Y0251185D03*
X0087504Y0251146D03*
X0103606Y0250634D03*
X0103606Y0259217D03*
X0103094Y0262957D03*
X0103094Y0262996D03*
X0131283Y0262996D03*
X0130772Y0256224D03*
X0131323Y0251224D03*
X0131323Y0251185D03*
X0161205Y0262957D03*
X0161205Y0262996D03*
X0161717Y0259217D03*
X0161717Y0250634D03*
X0176913Y0256224D03*
X0176913Y0263705D03*
D183*
X0146756Y0263626D03*
X0146756Y0250634D03*
D184*
X0071461Y0250673D03*
X0066264Y0266067D03*
X0058272Y0266067D03*
X0053075Y0250673D03*
D185*
X0062268Y0250673D03*
X0062268Y0262760D03*
D186*
X0087366Y0263035D03*
X0087366Y0263075D03*
X0087130Y0257602D03*
X0087169Y0257563D03*
X0087642Y0256894D03*
X0087681Y0256854D03*
X0087327Y0250673D03*
X0102917Y0263508D03*
X0130594Y0255949D03*
X0131500Y0250713D03*
X0161028Y0263508D03*
X0176736Y0255949D03*
D187*
X0176933Y0256264D03*
X0176933Y0263665D03*
X0161697Y0259177D03*
X0161224Y0262878D03*
X0161224Y0262917D03*
X0161697Y0250673D03*
X0131303Y0251264D03*
X0131303Y0251303D03*
X0130791Y0256264D03*
X0131303Y0262957D03*
X0103587Y0259177D03*
X0103114Y0262878D03*
X0103114Y0262917D03*
X0103587Y0250673D03*
X0087524Y0251224D03*
X0087524Y0251264D03*
D188*
X0085988Y0258390D03*
X0101972Y0264413D03*
X0131303Y0264098D03*
X0146736Y0263587D03*
X0146736Y0250673D03*
X0160083Y0264413D03*
D189*
X0118921Y0264453D03*
X0062268Y0262681D03*
X0062268Y0250713D03*
D190*
X0087543Y0251303D03*
X0087543Y0251343D03*
X0103567Y0250713D03*
X0103567Y0259138D03*
X0103134Y0262799D03*
X0103134Y0262839D03*
X0131283Y0262878D03*
X0131283Y0262917D03*
X0130811Y0256303D03*
X0131283Y0251382D03*
X0131283Y0251343D03*
X0161244Y0262799D03*
X0161244Y0262839D03*
X0161677Y0259138D03*
X0161677Y0250713D03*
X0176953Y0256303D03*
X0176953Y0263626D03*
D191*
X0146717Y0263547D03*
X0146717Y0250713D03*
D192*
X0142898Y0262169D03*
X0107661Y0262169D03*
X0091992Y0256106D03*
X0082937Y0262169D03*
X0071598Y0250752D03*
X0052937Y0250752D03*
D193*
X0062268Y0250752D03*
X0062268Y0262642D03*
D194*
X0087563Y0251461D03*
X0087563Y0251421D03*
X0087563Y0251382D03*
X0103547Y0250752D03*
X0103547Y0259098D03*
X0103154Y0262720D03*
X0103154Y0262760D03*
X0130831Y0256343D03*
X0131264Y0251461D03*
X0131264Y0251421D03*
X0161264Y0262681D03*
X0161264Y0262720D03*
X0161264Y0262760D03*
X0161657Y0259098D03*
X0161657Y0250752D03*
X0176972Y0256343D03*
X0176972Y0263587D03*
D195*
X0165752Y0262169D03*
X0142878Y0252091D03*
X0126697Y0252091D03*
X0114728Y0262169D03*
X0071618Y0262642D03*
X0071657Y0250791D03*
X0052878Y0250791D03*
X0052917Y0262642D03*
D196*
X0062268Y0262602D03*
X0062268Y0250791D03*
D197*
X0087583Y0251500D03*
X0087583Y0251539D03*
X0087583Y0251579D03*
X0103528Y0250831D03*
X0103528Y0250791D03*
X0103528Y0259059D03*
X0103173Y0262602D03*
X0103173Y0262642D03*
X0103173Y0262681D03*
X0131283Y0262799D03*
X0131283Y0262839D03*
X0130850Y0256382D03*
X0131244Y0251579D03*
X0131244Y0251539D03*
X0131244Y0251500D03*
X0161283Y0262602D03*
X0161283Y0262642D03*
X0161638Y0259059D03*
X0161638Y0250791D03*
X0176992Y0256382D03*
X0176992Y0263508D03*
X0176992Y0263547D03*
D198*
X0182071Y0262130D03*
X0135929Y0262130D03*
X0126638Y0262130D03*
X0098488Y0257720D03*
X0071717Y0250831D03*
X0052819Y0250831D03*
D199*
X0062268Y0250831D03*
X0062268Y0250870D03*
X0062268Y0262563D03*
D200*
X0088252Y0264335D03*
X0146677Y0263469D03*
X0146677Y0250831D03*
D201*
X0131224Y0251618D03*
X0131224Y0251657D03*
X0130870Y0256421D03*
X0130870Y0256461D03*
X0103508Y0259020D03*
X0103193Y0262484D03*
X0103193Y0262524D03*
X0103193Y0262563D03*
X0103508Y0250870D03*
X0087602Y0251618D03*
X0087602Y0251657D03*
X0087602Y0251697D03*
X0161303Y0262484D03*
X0161303Y0262524D03*
X0161303Y0262563D03*
X0161618Y0259020D03*
X0161618Y0250870D03*
X0161618Y0250831D03*
X0177012Y0256421D03*
X0177012Y0256461D03*
X0177012Y0263469D03*
D202*
X0165870Y0262130D03*
X0156579Y0257720D03*
X0142760Y0262130D03*
X0107760Y0262130D03*
X0092130Y0256067D03*
X0082839Y0262130D03*
X0071776Y0262524D03*
X0066264Y0266106D03*
X0058272Y0266106D03*
X0052760Y0262524D03*
X0052760Y0250870D03*
X0071776Y0250870D03*
D203*
X0131303Y0264059D03*
X0146657Y0263429D03*
X0146657Y0263390D03*
X0146657Y0250870D03*
D204*
X0142780Y0252130D03*
X0156559Y0252130D03*
X0126598Y0252130D03*
X0114591Y0262130D03*
X0098449Y0252130D03*
X0092228Y0252209D03*
X0071835Y0250909D03*
X0071835Y0262484D03*
X0052701Y0262484D03*
X0052701Y0250909D03*
D205*
X0062268Y0250909D03*
X0062268Y0262484D03*
X0062268Y0262524D03*
D206*
X0087622Y0251815D03*
X0087622Y0251776D03*
X0087622Y0251736D03*
X0103488Y0250909D03*
X0103488Y0258941D03*
X0103488Y0258980D03*
X0103213Y0262366D03*
X0103213Y0262406D03*
X0103213Y0262445D03*
X0131283Y0262720D03*
X0131283Y0262760D03*
X0130890Y0256500D03*
X0131205Y0251776D03*
X0131205Y0251736D03*
X0131205Y0251697D03*
X0161323Y0262327D03*
X0161323Y0262366D03*
X0161323Y0262406D03*
X0161323Y0262445D03*
X0161598Y0258980D03*
X0161598Y0258941D03*
X0161598Y0250909D03*
X0177031Y0256500D03*
X0177031Y0263429D03*
D207*
X0062268Y0262445D03*
X0062268Y0250949D03*
D208*
X0087642Y0251854D03*
X0087642Y0251894D03*
X0087642Y0251933D03*
X0087642Y0251972D03*
X0103469Y0250988D03*
X0103469Y0250949D03*
X0103469Y0258902D03*
X0103232Y0262248D03*
X0103232Y0262287D03*
X0103232Y0262327D03*
X0131303Y0262681D03*
X0130909Y0256539D03*
X0131146Y0252012D03*
X0131185Y0251933D03*
X0131185Y0251894D03*
X0131185Y0251854D03*
X0131185Y0251815D03*
X0161579Y0250949D03*
X0161579Y0258902D03*
X0161343Y0262248D03*
X0161343Y0262287D03*
X0177051Y0263390D03*
X0177051Y0256539D03*
D209*
X0182150Y0262091D03*
X0136008Y0262091D03*
X0126559Y0262091D03*
X0071953Y0262406D03*
X0071953Y0250988D03*
X0052583Y0250988D03*
X0052583Y0262406D03*
D210*
X0062268Y0262406D03*
X0062268Y0250988D03*
D211*
X0087661Y0252012D03*
X0087661Y0252051D03*
X0103449Y0251028D03*
X0103449Y0258823D03*
X0103449Y0258862D03*
X0130929Y0256618D03*
X0130929Y0256579D03*
X0131165Y0251972D03*
X0131283Y0262602D03*
X0131283Y0262642D03*
X0161559Y0258862D03*
X0161559Y0251028D03*
X0161559Y0250988D03*
X0177071Y0256579D03*
X0177071Y0256618D03*
X0177071Y0263311D03*
X0177071Y0263350D03*
D212*
X0156480Y0252169D03*
X0136047Y0257799D03*
X0126520Y0252169D03*
X0114512Y0262091D03*
X0098370Y0252169D03*
X0092228Y0256028D03*
X0082622Y0258508D03*
X0071992Y0262366D03*
X0072031Y0251067D03*
X0071992Y0251028D03*
X0052543Y0251028D03*
X0052504Y0251067D03*
D213*
X0062268Y0251067D03*
X0062268Y0251028D03*
X0062268Y0262366D03*
D214*
X0088173Y0264295D03*
X0129787Y0255437D03*
X0146598Y0251067D03*
X0146598Y0251028D03*
X0146598Y0263232D03*
X0146598Y0263272D03*
D215*
X0130949Y0256657D03*
X0103429Y0258783D03*
X0103429Y0251106D03*
X0103429Y0251067D03*
X0161539Y0251067D03*
X0161539Y0251106D03*
X0161539Y0258783D03*
X0161539Y0258823D03*
X0177091Y0256657D03*
X0177091Y0263272D03*
D216*
X0182209Y0257799D03*
X0072051Y0262327D03*
X0072091Y0251106D03*
X0052445Y0251106D03*
X0052484Y0262327D03*
D217*
X0062268Y0262287D03*
X0062268Y0251106D03*
D218*
X0072150Y0251146D03*
X0072150Y0262248D03*
X0072110Y0262287D03*
X0052425Y0262287D03*
X0052386Y0262248D03*
X0052386Y0251146D03*
X0092346Y0252287D03*
X0098331Y0257642D03*
X0126480Y0262051D03*
X0136087Y0262051D03*
X0142622Y0262051D03*
X0142622Y0252209D03*
X0156441Y0257642D03*
X0182228Y0262051D03*
D219*
X0062268Y0262248D03*
X0062268Y0251146D03*
D220*
X0103409Y0251146D03*
X0103409Y0258705D03*
X0103409Y0258744D03*
X0130969Y0256736D03*
X0130969Y0256697D03*
X0131283Y0262484D03*
X0131283Y0262524D03*
X0131283Y0262563D03*
X0161520Y0258744D03*
X0161520Y0258705D03*
X0161520Y0251146D03*
X0177110Y0256697D03*
X0177110Y0256736D03*
X0177110Y0263193D03*
X0177110Y0263232D03*
D221*
X0146559Y0263154D03*
X0146559Y0263114D03*
X0146559Y0251185D03*
X0146559Y0251146D03*
D222*
X0142583Y0262012D03*
X0136126Y0262012D03*
X0126402Y0262012D03*
X0126402Y0252248D03*
X0107976Y0262012D03*
X0098252Y0257602D03*
X0082543Y0258547D03*
X0082622Y0262012D03*
X0072228Y0251224D03*
X0072189Y0251185D03*
X0052346Y0251185D03*
X0052307Y0251224D03*
X0156362Y0257602D03*
X0182268Y0257839D03*
D223*
X0131283Y0264453D03*
X0062268Y0262209D03*
X0062268Y0251224D03*
X0062268Y0251185D03*
D224*
X0103390Y0251185D03*
X0103390Y0251224D03*
X0103390Y0258626D03*
X0103390Y0258665D03*
X0130988Y0256776D03*
X0161500Y0258665D03*
X0161500Y0251224D03*
X0161500Y0251185D03*
X0177130Y0256776D03*
X0177130Y0263154D03*
D225*
X0062268Y0262130D03*
X0062268Y0251264D03*
D226*
X0103370Y0251264D03*
X0103370Y0251303D03*
X0103370Y0258547D03*
X0103370Y0258587D03*
X0131008Y0256854D03*
X0131008Y0256815D03*
X0131283Y0262327D03*
X0131283Y0262366D03*
X0131283Y0262406D03*
X0131283Y0262445D03*
X0161480Y0258626D03*
X0161480Y0258587D03*
X0161480Y0251303D03*
X0161480Y0251264D03*
X0177150Y0256815D03*
X0177150Y0256854D03*
X0177150Y0263075D03*
X0177150Y0263114D03*
D227*
X0182346Y0261972D03*
X0182307Y0257878D03*
X0166126Y0261972D03*
X0156323Y0257563D03*
X0156362Y0252248D03*
X0136205Y0261972D03*
X0126362Y0261972D03*
X0126362Y0252287D03*
X0108016Y0261972D03*
X0098213Y0257563D03*
X0098252Y0252248D03*
X0092386Y0255909D03*
X0082583Y0261972D03*
X0072346Y0262091D03*
X0052189Y0262091D03*
X0052189Y0251303D03*
D228*
X0062268Y0251303D03*
X0062268Y0262091D03*
D229*
X0102189Y0264335D03*
X0104512Y0260004D03*
X0131283Y0263980D03*
X0146520Y0262996D03*
X0146520Y0262957D03*
X0146520Y0251343D03*
X0146520Y0251303D03*
X0160299Y0264335D03*
X0162622Y0260004D03*
X0176008Y0255476D03*
D230*
X0182366Y0257917D03*
X0156303Y0252287D03*
X0142524Y0252287D03*
X0136224Y0257917D03*
X0142524Y0261972D03*
X0114374Y0261972D03*
X0098193Y0252287D03*
X0092445Y0252366D03*
X0082484Y0258587D03*
X0072366Y0262051D03*
X0072366Y0251343D03*
X0052169Y0251343D03*
X0052169Y0262051D03*
D231*
X0103350Y0258508D03*
X0103350Y0258469D03*
X0103350Y0251382D03*
X0103350Y0251343D03*
X0131028Y0256894D03*
X0131028Y0256933D03*
X0161461Y0258508D03*
X0161461Y0258547D03*
X0161461Y0251382D03*
X0161461Y0251343D03*
X0177169Y0256894D03*
X0177169Y0256933D03*
X0177169Y0262996D03*
X0177169Y0263035D03*
D232*
X0182386Y0261933D03*
X0166165Y0261933D03*
X0156283Y0257524D03*
X0142465Y0261933D03*
X0136244Y0261933D03*
X0126323Y0261933D03*
X0126323Y0252327D03*
X0114315Y0261933D03*
X0108055Y0261933D03*
X0098173Y0257524D03*
X0092425Y0255870D03*
X0082543Y0261933D03*
X0072465Y0261972D03*
X0072425Y0262012D03*
X0072465Y0251421D03*
X0072425Y0251382D03*
X0052110Y0251382D03*
X0052071Y0251421D03*
X0052071Y0261972D03*
X0052110Y0262012D03*
D233*
X0062268Y0251421D03*
D234*
X0103331Y0251421D03*
X0103331Y0251461D03*
X0103331Y0251500D03*
X0103331Y0258390D03*
X0103331Y0258429D03*
X0131047Y0257012D03*
X0131047Y0256972D03*
X0131283Y0262248D03*
X0131283Y0262287D03*
X0161441Y0258469D03*
X0161441Y0258429D03*
X0161441Y0258390D03*
X0161441Y0251500D03*
X0161441Y0251461D03*
X0161441Y0251421D03*
X0177189Y0256972D03*
X0177189Y0257012D03*
X0177189Y0262917D03*
X0177189Y0262957D03*
D235*
X0166205Y0261894D03*
X0156244Y0257484D03*
X0156244Y0252366D03*
X0142425Y0252366D03*
X0126283Y0252366D03*
X0126283Y0261894D03*
X0114276Y0261894D03*
X0108094Y0261894D03*
X0098134Y0257484D03*
X0098134Y0252366D03*
X0092465Y0255831D03*
X0082504Y0261894D03*
X0072543Y0261894D03*
X0064551Y0261894D03*
X0059984Y0261894D03*
X0051992Y0261894D03*
X0051953Y0251539D03*
X0051992Y0251500D03*
X0052031Y0251461D03*
X0059984Y0251500D03*
X0064551Y0251500D03*
X0072543Y0251500D03*
X0072583Y0251539D03*
D236*
X0072484Y0251461D03*
X0064531Y0251461D03*
X0060004Y0251461D03*
X0060004Y0261933D03*
X0060043Y0261972D03*
X0064492Y0261972D03*
X0064531Y0261933D03*
X0072524Y0261933D03*
X0082445Y0258626D03*
X0092484Y0252406D03*
X0092524Y0252445D03*
X0098154Y0252327D03*
X0136264Y0257957D03*
X0136264Y0261894D03*
X0142445Y0261894D03*
X0142484Y0252327D03*
X0156264Y0252327D03*
X0182406Y0257957D03*
X0182406Y0261894D03*
X0052012Y0261933D03*
D237*
X0051933Y0261854D03*
X0051894Y0261815D03*
X0059886Y0261815D03*
X0059925Y0261854D03*
X0064610Y0261854D03*
X0064650Y0261815D03*
X0072602Y0261854D03*
X0072642Y0261815D03*
X0082445Y0261854D03*
X0082366Y0258705D03*
X0082406Y0258665D03*
X0092563Y0252484D03*
X0098114Y0257445D03*
X0114256Y0261854D03*
X0126264Y0261854D03*
X0126264Y0252406D03*
X0136303Y0257996D03*
X0136303Y0261854D03*
X0142406Y0261854D03*
X0142406Y0252406D03*
X0156224Y0257445D03*
X0166224Y0261854D03*
X0182445Y0261854D03*
X0182445Y0257996D03*
X0064650Y0251579D03*
X0064610Y0251539D03*
X0059925Y0251539D03*
X0059886Y0251579D03*
D238*
X0103311Y0251579D03*
X0103311Y0251539D03*
X0103311Y0258311D03*
X0103311Y0258350D03*
X0131067Y0257091D03*
X0131067Y0257051D03*
X0161421Y0258311D03*
X0161421Y0258350D03*
X0161421Y0251579D03*
X0161421Y0251539D03*
X0177209Y0257051D03*
X0177209Y0257091D03*
X0177209Y0257130D03*
X0177209Y0262799D03*
X0177209Y0262839D03*
X0177209Y0262878D03*
D239*
X0176067Y0264413D03*
X0160358Y0264295D03*
X0146461Y0262760D03*
X0146461Y0262720D03*
X0146461Y0262681D03*
X0146461Y0251618D03*
X0146461Y0251579D03*
X0146461Y0251539D03*
X0131303Y0263941D03*
X0129925Y0255476D03*
X0102248Y0264295D03*
X0086264Y0258311D03*
D240*
X0082425Y0261815D03*
X0072661Y0261776D03*
X0066244Y0266185D03*
X0064709Y0261776D03*
X0059827Y0261776D03*
X0051874Y0261776D03*
X0051835Y0251657D03*
X0051874Y0251618D03*
X0051913Y0251579D03*
X0059866Y0251618D03*
X0064669Y0251618D03*
X0072622Y0251579D03*
X0072661Y0251618D03*
X0072701Y0251657D03*
X0092504Y0255791D03*
X0092543Y0255752D03*
X0092583Y0252524D03*
X0098094Y0252406D03*
X0098055Y0257406D03*
X0108134Y0261854D03*
X0108173Y0261815D03*
X0126205Y0261815D03*
X0126205Y0252445D03*
X0136323Y0258035D03*
X0136362Y0258075D03*
X0136323Y0261815D03*
X0142386Y0261815D03*
X0156165Y0257406D03*
X0156205Y0252406D03*
X0182465Y0258035D03*
X0182465Y0261815D03*
D241*
X0177228Y0262720D03*
X0177228Y0262760D03*
X0177228Y0257209D03*
X0177228Y0257169D03*
X0161402Y0258193D03*
X0161402Y0258232D03*
X0161402Y0258272D03*
X0161402Y0251697D03*
X0161402Y0251657D03*
X0161402Y0251618D03*
X0131087Y0257130D03*
X0131087Y0257169D03*
X0131087Y0257209D03*
X0103291Y0258193D03*
X0103291Y0258232D03*
X0103291Y0258272D03*
X0103291Y0251697D03*
X0103291Y0251657D03*
X0103291Y0251618D03*
D242*
X0098075Y0252445D03*
X0098035Y0252484D03*
X0098035Y0257366D03*
X0092563Y0255713D03*
X0092602Y0252563D03*
X0082327Y0258744D03*
X0082406Y0261776D03*
X0072760Y0261697D03*
X0072720Y0261736D03*
X0064768Y0261697D03*
X0064728Y0261736D03*
X0059807Y0261736D03*
X0059768Y0261697D03*
X0059728Y0261657D03*
X0058272Y0266185D03*
X0051815Y0261736D03*
X0051776Y0261697D03*
X0059768Y0251697D03*
X0059807Y0251657D03*
X0064728Y0251657D03*
X0064768Y0251697D03*
X0108193Y0261776D03*
X0114217Y0261815D03*
X0126185Y0261776D03*
X0126185Y0252484D03*
X0136382Y0261776D03*
X0142327Y0261736D03*
X0142366Y0261776D03*
X0142366Y0252445D03*
X0156146Y0252484D03*
X0156185Y0252445D03*
X0156146Y0257366D03*
X0166264Y0261815D03*
X0166303Y0261776D03*
X0182524Y0261776D03*
D243*
X0177248Y0262602D03*
X0177248Y0262642D03*
X0177248Y0262681D03*
X0177248Y0257327D03*
X0177248Y0257287D03*
X0177248Y0257248D03*
X0161382Y0258075D03*
X0161382Y0258114D03*
X0161382Y0258154D03*
X0161382Y0251815D03*
X0161382Y0251776D03*
X0161382Y0251736D03*
X0131106Y0257248D03*
X0131106Y0257287D03*
X0103272Y0258075D03*
X0103272Y0258114D03*
X0103272Y0258154D03*
X0103272Y0251815D03*
X0103272Y0251776D03*
X0103272Y0251736D03*
D244*
X0097996Y0252563D03*
X0097996Y0257287D03*
X0092602Y0255634D03*
X0092642Y0252642D03*
X0082287Y0258823D03*
X0082366Y0261697D03*
X0072878Y0261579D03*
X0064886Y0261579D03*
X0064846Y0261618D03*
X0059689Y0261618D03*
X0059650Y0261579D03*
X0059650Y0251815D03*
X0064886Y0251815D03*
X0072839Y0251815D03*
X0051697Y0251815D03*
X0051657Y0261579D03*
X0108232Y0261697D03*
X0114138Y0261697D03*
X0126146Y0261697D03*
X0126146Y0252563D03*
X0136421Y0258154D03*
X0136421Y0261657D03*
X0136421Y0261697D03*
X0142287Y0261657D03*
X0142287Y0252563D03*
X0142327Y0252524D03*
X0156106Y0252563D03*
X0156106Y0257287D03*
X0166343Y0261697D03*
X0182563Y0261697D03*
X0182563Y0258154D03*
D245*
X0182583Y0258193D03*
X0182583Y0261618D03*
X0182583Y0261657D03*
X0166362Y0261657D03*
X0156087Y0257248D03*
X0156087Y0252602D03*
X0142268Y0252602D03*
X0142268Y0252642D03*
X0136441Y0258193D03*
X0136441Y0261618D03*
X0142268Y0261618D03*
X0126126Y0261657D03*
X0126087Y0252681D03*
X0126126Y0252602D03*
X0114118Y0261618D03*
X0114118Y0261657D03*
X0108252Y0261657D03*
X0097976Y0257248D03*
X0097976Y0252602D03*
X0092701Y0252720D03*
X0092701Y0252760D03*
X0092661Y0252681D03*
X0092622Y0255594D03*
X0082268Y0258862D03*
X0082307Y0261618D03*
X0082346Y0261657D03*
X0072937Y0261500D03*
X0072898Y0261539D03*
X0064984Y0261461D03*
X0064945Y0261500D03*
X0064906Y0261539D03*
X0059630Y0261539D03*
X0059591Y0261500D03*
X0059551Y0261461D03*
X0059551Y0251933D03*
X0059591Y0251894D03*
X0059630Y0251854D03*
X0064906Y0251854D03*
X0064945Y0251894D03*
X0064984Y0251933D03*
X0072898Y0251854D03*
X0072937Y0251894D03*
X0051638Y0251854D03*
X0051598Y0251894D03*
X0051598Y0261500D03*
X0051638Y0261539D03*
D246*
X0103252Y0258035D03*
X0103252Y0257996D03*
X0103252Y0257957D03*
X0103252Y0251933D03*
X0103252Y0251894D03*
X0103252Y0251854D03*
X0131126Y0257327D03*
X0131126Y0257366D03*
X0131126Y0257406D03*
X0161362Y0257957D03*
X0161362Y0257996D03*
X0161362Y0258035D03*
X0161362Y0251933D03*
X0161362Y0251894D03*
X0161362Y0251854D03*
X0177268Y0257366D03*
X0177268Y0257406D03*
X0177268Y0257445D03*
X0177268Y0262484D03*
X0177268Y0262524D03*
X0177268Y0262563D03*
D247*
X0176126Y0255516D03*
X0162504Y0259965D03*
X0146402Y0262327D03*
X0146402Y0262366D03*
X0146402Y0262406D03*
X0146402Y0251972D03*
X0146402Y0251933D03*
X0146402Y0251894D03*
X0131283Y0263902D03*
X0104394Y0259965D03*
D248*
X0108272Y0261579D03*
X0108272Y0261618D03*
X0108311Y0261539D03*
X0114098Y0261579D03*
X0126067Y0261579D03*
X0126067Y0261539D03*
X0126106Y0261618D03*
X0126067Y0252720D03*
X0126106Y0252642D03*
X0136461Y0258232D03*
X0136461Y0258272D03*
X0136500Y0258311D03*
X0136500Y0261500D03*
X0136461Y0261579D03*
X0142248Y0261579D03*
X0142248Y0252681D03*
X0156028Y0252720D03*
X0156067Y0252642D03*
X0156028Y0257130D03*
X0156028Y0257169D03*
X0156067Y0257209D03*
X0166382Y0261579D03*
X0166382Y0261618D03*
X0166421Y0261539D03*
X0182602Y0261579D03*
X0182642Y0261539D03*
X0182642Y0258311D03*
X0182602Y0258272D03*
X0182602Y0258232D03*
X0097957Y0257209D03*
X0097917Y0257169D03*
X0097917Y0257130D03*
X0097957Y0252642D03*
X0092720Y0252799D03*
X0092681Y0255476D03*
X0092681Y0255516D03*
X0092642Y0255555D03*
X0082248Y0258902D03*
X0082248Y0258941D03*
X0082287Y0261539D03*
X0082287Y0261579D03*
X0073035Y0261382D03*
X0072996Y0261421D03*
X0072957Y0261461D03*
X0073035Y0252012D03*
X0072996Y0251972D03*
X0072957Y0251933D03*
X0065043Y0252012D03*
X0065004Y0251972D03*
X0059531Y0251972D03*
X0059492Y0252012D03*
X0051579Y0251933D03*
X0051539Y0251972D03*
X0051500Y0252012D03*
X0051500Y0261382D03*
X0051539Y0261421D03*
X0051579Y0261461D03*
D249*
X0103232Y0257917D03*
X0103232Y0257878D03*
X0103232Y0257839D03*
X0103232Y0252012D03*
X0103232Y0251972D03*
X0131146Y0257445D03*
X0131146Y0257484D03*
X0131146Y0257524D03*
X0161343Y0257839D03*
X0161343Y0257878D03*
X0161343Y0257917D03*
X0161343Y0252012D03*
X0161343Y0251972D03*
X0177287Y0257484D03*
X0177287Y0257524D03*
X0177287Y0257563D03*
X0177287Y0262366D03*
X0177287Y0262406D03*
X0177287Y0262445D03*
D250*
X0160437Y0264256D03*
X0146382Y0262287D03*
X0146382Y0262248D03*
X0146382Y0252012D03*
X0102327Y0264256D03*
X0087957Y0264138D03*
D251*
X0082268Y0261500D03*
X0082268Y0261461D03*
X0082228Y0258980D03*
X0073094Y0252091D03*
X0073055Y0252051D03*
X0065063Y0261382D03*
X0065024Y0261421D03*
X0059512Y0261421D03*
X0059472Y0261382D03*
X0059433Y0261343D03*
X0051441Y0252091D03*
X0051480Y0252051D03*
X0092740Y0252839D03*
X0092740Y0252878D03*
X0092701Y0255398D03*
X0092701Y0255437D03*
X0097898Y0257051D03*
X0097898Y0257091D03*
X0097898Y0252799D03*
X0097898Y0252760D03*
X0097937Y0252720D03*
X0097937Y0252681D03*
X0108331Y0261461D03*
X0108331Y0261500D03*
X0114039Y0261461D03*
X0114039Y0261421D03*
X0114079Y0261500D03*
X0114079Y0261539D03*
X0126047Y0261500D03*
X0126047Y0261461D03*
X0126047Y0252799D03*
X0126047Y0252760D03*
X0136520Y0258350D03*
X0136520Y0258390D03*
X0136520Y0261461D03*
X0136480Y0261539D03*
X0142189Y0261461D03*
X0142189Y0261421D03*
X0142228Y0261500D03*
X0142228Y0261539D03*
X0142189Y0252839D03*
X0142189Y0252799D03*
X0142228Y0252760D03*
X0142228Y0252720D03*
X0156008Y0252760D03*
X0156008Y0252799D03*
X0156047Y0252681D03*
X0156008Y0257091D03*
X0166441Y0261461D03*
X0166441Y0261500D03*
X0182661Y0261500D03*
X0182661Y0261461D03*
X0182661Y0258390D03*
X0182661Y0258350D03*
D252*
X0182681Y0258429D03*
X0182681Y0258469D03*
X0182681Y0261382D03*
X0182681Y0261421D03*
X0166461Y0261421D03*
X0166461Y0261382D03*
X0155988Y0257051D03*
X0155988Y0257012D03*
X0155988Y0252878D03*
X0155988Y0252839D03*
X0142169Y0252878D03*
X0142169Y0252917D03*
X0136539Y0258429D03*
X0136539Y0258469D03*
X0136539Y0261382D03*
X0136539Y0261421D03*
X0142169Y0261382D03*
X0142169Y0261343D03*
X0126028Y0261382D03*
X0126028Y0261421D03*
X0126028Y0252878D03*
X0126028Y0252839D03*
X0114020Y0261343D03*
X0114020Y0261382D03*
X0108390Y0261264D03*
X0108350Y0261382D03*
X0108350Y0261421D03*
X0097878Y0257012D03*
X0097878Y0256972D03*
X0097878Y0252878D03*
X0097878Y0252839D03*
X0092760Y0252917D03*
X0092760Y0252957D03*
X0092760Y0252996D03*
X0092720Y0255319D03*
X0092720Y0255358D03*
X0082209Y0259020D03*
X0082209Y0259059D03*
X0082169Y0259098D03*
X0082169Y0259138D03*
X0082169Y0259177D03*
X0082209Y0261303D03*
X0082209Y0261343D03*
X0082248Y0261421D03*
X0073114Y0261303D03*
X0073075Y0261343D03*
X0065161Y0261264D03*
X0065122Y0261303D03*
X0065083Y0261343D03*
X0059413Y0261303D03*
X0059374Y0261264D03*
X0059374Y0252130D03*
X0059413Y0252091D03*
X0059453Y0252051D03*
X0065083Y0252051D03*
X0065122Y0252091D03*
X0065161Y0252130D03*
X0073114Y0252130D03*
X0051461Y0261343D03*
X0051421Y0261303D03*
D253*
X0052858Y0262602D03*
X0071677Y0262602D03*
X0092110Y0252169D03*
X0098567Y0252091D03*
X0135890Y0257720D03*
X0156677Y0252091D03*
D254*
X0155969Y0252917D03*
X0155969Y0252957D03*
X0155929Y0253035D03*
X0155929Y0253075D03*
X0155929Y0256776D03*
X0155929Y0256815D03*
X0155929Y0256854D03*
X0155969Y0256894D03*
X0155969Y0256933D03*
X0155969Y0256972D03*
X0166520Y0261146D03*
X0166520Y0261185D03*
X0166520Y0261224D03*
X0166480Y0261264D03*
X0166480Y0261303D03*
X0166480Y0261343D03*
X0182701Y0261343D03*
X0182701Y0261303D03*
X0182740Y0261224D03*
X0182740Y0261185D03*
X0182740Y0258665D03*
X0182740Y0258626D03*
X0182740Y0258587D03*
X0182701Y0258547D03*
X0182701Y0258508D03*
X0142150Y0261224D03*
X0142150Y0261264D03*
X0142150Y0261303D03*
X0142110Y0261106D03*
X0136598Y0261185D03*
X0136559Y0261264D03*
X0136559Y0261303D03*
X0136559Y0261343D03*
X0136598Y0258665D03*
X0136598Y0258626D03*
X0136559Y0258547D03*
X0136559Y0258508D03*
X0142150Y0252996D03*
X0142150Y0252957D03*
X0126008Y0252957D03*
X0126008Y0252917D03*
X0125969Y0252996D03*
X0125969Y0253035D03*
X0125969Y0253075D03*
X0125969Y0253114D03*
X0125969Y0261185D03*
X0125969Y0261224D03*
X0125969Y0261264D03*
X0126008Y0261303D03*
X0126008Y0261343D03*
X0114000Y0261303D03*
X0114000Y0261264D03*
X0114000Y0261224D03*
X0113961Y0261067D03*
X0108409Y0261146D03*
X0108409Y0261185D03*
X0108409Y0261224D03*
X0108370Y0261303D03*
X0108370Y0261343D03*
X0097858Y0256933D03*
X0097858Y0256894D03*
X0097819Y0256815D03*
X0097819Y0256776D03*
X0097819Y0253075D03*
X0097858Y0252957D03*
X0097858Y0252917D03*
X0092819Y0253193D03*
X0092819Y0253232D03*
X0092819Y0253272D03*
X0092780Y0253114D03*
X0092780Y0253075D03*
X0092780Y0253035D03*
X0092780Y0255122D03*
X0092780Y0255161D03*
X0092780Y0255201D03*
X0092740Y0255240D03*
X0092740Y0255280D03*
X0082150Y0259217D03*
X0082150Y0259256D03*
X0082150Y0259295D03*
X0082189Y0261185D03*
X0082189Y0261224D03*
X0082189Y0261264D03*
X0082228Y0261382D03*
X0073213Y0261185D03*
X0073173Y0261224D03*
X0073134Y0261264D03*
X0065220Y0261185D03*
X0065181Y0261224D03*
X0059354Y0261224D03*
X0059315Y0261185D03*
X0059315Y0252209D03*
X0059354Y0252169D03*
X0065181Y0252169D03*
X0065220Y0252209D03*
X0073173Y0252169D03*
X0051402Y0252130D03*
X0051362Y0252169D03*
X0051323Y0252209D03*
X0051323Y0261185D03*
X0051362Y0261224D03*
X0051402Y0261264D03*
D255*
X0052524Y0262366D03*
X0082760Y0262091D03*
X0092287Y0252248D03*
X0098390Y0257681D03*
X0107839Y0262091D03*
X0142681Y0262091D03*
X0142681Y0252169D03*
X0156500Y0257681D03*
X0165949Y0262091D03*
D256*
X0166539Y0261106D03*
X0166539Y0261067D03*
X0166539Y0261028D03*
X0166539Y0260988D03*
X0166539Y0260949D03*
X0166579Y0260713D03*
X0166579Y0260673D03*
X0155909Y0256736D03*
X0155909Y0256697D03*
X0155909Y0256657D03*
X0155909Y0256618D03*
X0155909Y0256579D03*
X0155870Y0256382D03*
X0155870Y0256343D03*
X0155870Y0256303D03*
X0155909Y0253232D03*
X0155909Y0253193D03*
X0155909Y0253154D03*
X0155909Y0253114D03*
X0155949Y0252996D03*
X0142130Y0253035D03*
X0142130Y0253075D03*
X0142130Y0253114D03*
X0142091Y0253154D03*
X0142091Y0253193D03*
X0142091Y0253232D03*
X0142091Y0253272D03*
X0142091Y0253311D03*
X0136579Y0258587D03*
X0136618Y0258705D03*
X0136618Y0258744D03*
X0136618Y0258783D03*
X0136618Y0258823D03*
X0136618Y0258862D03*
X0136657Y0259059D03*
X0136657Y0259098D03*
X0136618Y0261028D03*
X0136618Y0261067D03*
X0136618Y0261106D03*
X0136618Y0261146D03*
X0136579Y0261224D03*
X0142091Y0261067D03*
X0142091Y0261028D03*
X0142091Y0260988D03*
X0142091Y0260949D03*
X0142091Y0260909D03*
X0142130Y0261146D03*
X0142130Y0261185D03*
X0125949Y0261146D03*
X0125949Y0261106D03*
X0125949Y0261067D03*
X0125949Y0261028D03*
X0125909Y0260791D03*
X0125909Y0253547D03*
X0125909Y0253508D03*
X0125909Y0253469D03*
X0125949Y0253272D03*
X0125949Y0253232D03*
X0125949Y0253193D03*
X0125949Y0253154D03*
X0113941Y0260831D03*
X0113941Y0260870D03*
X0113941Y0260909D03*
X0113941Y0260949D03*
X0113941Y0260988D03*
X0113941Y0261028D03*
X0113980Y0261106D03*
X0113980Y0261146D03*
X0113980Y0261185D03*
X0108469Y0260752D03*
X0108469Y0260713D03*
X0108429Y0260988D03*
X0108429Y0261028D03*
X0108429Y0261067D03*
X0108429Y0261106D03*
X0097839Y0256854D03*
X0097799Y0256736D03*
X0097799Y0256697D03*
X0097799Y0256657D03*
X0097799Y0256618D03*
X0097799Y0256579D03*
X0097760Y0256303D03*
X0097760Y0256264D03*
X0097799Y0253232D03*
X0097799Y0253193D03*
X0097799Y0253154D03*
X0097799Y0253114D03*
X0097839Y0253035D03*
X0097839Y0252996D03*
X0092839Y0253311D03*
X0092839Y0253350D03*
X0092839Y0253390D03*
X0092839Y0253429D03*
X0092839Y0253469D03*
X0092839Y0253508D03*
X0092799Y0253154D03*
X0092839Y0254689D03*
X0092839Y0254728D03*
X0092839Y0254768D03*
X0092799Y0254965D03*
X0092799Y0255004D03*
X0092799Y0255043D03*
X0092799Y0255083D03*
X0082130Y0259335D03*
X0082130Y0259374D03*
X0082130Y0259413D03*
X0082130Y0259453D03*
X0082130Y0259492D03*
X0082130Y0260831D03*
X0082130Y0260870D03*
X0082130Y0260909D03*
X0082130Y0260949D03*
X0082169Y0261028D03*
X0082169Y0261067D03*
X0082169Y0261106D03*
X0082169Y0261146D03*
X0073272Y0261106D03*
X0073232Y0261146D03*
X0065319Y0261067D03*
X0065280Y0261106D03*
X0065240Y0261146D03*
X0059295Y0261146D03*
X0059256Y0261106D03*
X0059217Y0261067D03*
X0051303Y0261146D03*
X0051264Y0261106D03*
X0051264Y0252287D03*
X0051303Y0252248D03*
X0059256Y0252287D03*
X0059295Y0252248D03*
X0065240Y0252248D03*
X0065280Y0252287D03*
X0073193Y0252209D03*
X0073232Y0252248D03*
X0073272Y0252287D03*
X0182760Y0258705D03*
X0182760Y0258744D03*
X0182760Y0258783D03*
X0182760Y0258823D03*
X0182799Y0259020D03*
X0182799Y0259059D03*
X0182799Y0259098D03*
X0182760Y0261028D03*
X0182760Y0261067D03*
X0182760Y0261106D03*
X0182760Y0261146D03*
X0182720Y0261264D03*
D257*
X0182287Y0262012D03*
X0166028Y0262051D03*
X0156421Y0252209D03*
X0136106Y0257839D03*
X0126461Y0252209D03*
X0114453Y0262051D03*
X0107917Y0262051D03*
X0098311Y0252209D03*
X0092287Y0255988D03*
X0082681Y0262051D03*
X0072209Y0262209D03*
X0066264Y0266146D03*
X0058272Y0266146D03*
X0052327Y0262209D03*
D258*
X0050988Y0260713D03*
X0050949Y0260673D03*
X0050909Y0252799D03*
X0050949Y0252720D03*
X0050988Y0252681D03*
X0058941Y0252720D03*
X0058980Y0252681D03*
X0065555Y0252681D03*
X0065594Y0252720D03*
X0065594Y0260673D03*
X0065555Y0260713D03*
X0065516Y0260791D03*
X0059020Y0260791D03*
X0058980Y0260713D03*
X0058941Y0260673D03*
X0073547Y0260713D03*
X0073587Y0260673D03*
X0073626Y0252799D03*
X0073587Y0252720D03*
X0073547Y0252681D03*
D259*
X0073606Y0252760D03*
X0073646Y0252839D03*
X0073685Y0252878D03*
X0073685Y0260516D03*
X0073646Y0260555D03*
X0073646Y0260594D03*
X0073606Y0260634D03*
X0065693Y0260516D03*
X0065654Y0260594D03*
X0065614Y0260634D03*
X0058921Y0260634D03*
X0058882Y0260594D03*
X0058843Y0252878D03*
X0058882Y0252799D03*
X0058921Y0252760D03*
X0065614Y0252760D03*
X0065654Y0252799D03*
X0065693Y0252878D03*
X0050929Y0252760D03*
X0050890Y0252839D03*
X0050850Y0252878D03*
X0050850Y0260516D03*
X0050890Y0260555D03*
X0050890Y0260594D03*
X0050929Y0260634D03*
D260*
X0050831Y0260476D03*
X0050791Y0260437D03*
X0050752Y0260358D03*
X0050791Y0252996D03*
X0050791Y0252957D03*
X0050831Y0252917D03*
X0058783Y0252957D03*
X0058823Y0252917D03*
X0058862Y0252839D03*
X0065673Y0252839D03*
X0065713Y0252917D03*
X0065752Y0252957D03*
X0065791Y0253035D03*
X0065752Y0260437D03*
X0065713Y0260476D03*
X0065673Y0260555D03*
X0058862Y0260555D03*
X0058823Y0260516D03*
X0058823Y0260476D03*
X0058783Y0260437D03*
X0073705Y0260476D03*
X0073744Y0260437D03*
X0073744Y0252996D03*
X0073705Y0252917D03*
D261*
X0073724Y0252957D03*
X0073764Y0253035D03*
X0073803Y0253075D03*
X0073843Y0253154D03*
X0073803Y0260319D03*
X0073764Y0260358D03*
X0073764Y0260398D03*
X0065850Y0260280D03*
X0065811Y0260319D03*
X0065811Y0260358D03*
X0065772Y0260398D03*
X0058764Y0260398D03*
X0058724Y0260358D03*
X0058724Y0260319D03*
X0058685Y0260280D03*
X0058646Y0253193D03*
X0058685Y0253114D03*
X0058724Y0253075D03*
X0058724Y0253035D03*
X0058764Y0252996D03*
X0065772Y0252996D03*
X0065811Y0253075D03*
X0065850Y0253114D03*
X0050772Y0253035D03*
X0050732Y0253075D03*
X0050732Y0260319D03*
X0050772Y0260398D03*
D262*
X0050713Y0260280D03*
X0050673Y0260240D03*
X0050673Y0260201D03*
X0050634Y0260161D03*
X0050594Y0260083D03*
X0050594Y0253311D03*
X0050634Y0253232D03*
X0050673Y0253193D03*
X0050673Y0253154D03*
X0050713Y0253114D03*
X0058626Y0253232D03*
X0058665Y0253154D03*
X0058626Y0260161D03*
X0058626Y0260201D03*
X0058665Y0260240D03*
X0065870Y0260240D03*
X0065909Y0260201D03*
X0065909Y0260161D03*
X0065909Y0253232D03*
X0065870Y0253193D03*
X0065870Y0253154D03*
X0073823Y0253114D03*
X0073862Y0253193D03*
X0073902Y0253232D03*
X0073941Y0253311D03*
X0073941Y0260083D03*
X0073902Y0260161D03*
X0073862Y0260201D03*
X0073862Y0260240D03*
X0073823Y0260280D03*
D263*
X0073921Y0260122D03*
X0073961Y0260043D03*
X0074000Y0259965D03*
X0074000Y0253429D03*
X0073961Y0253350D03*
X0073921Y0253272D03*
X0066047Y0253469D03*
X0066008Y0253390D03*
X0065969Y0253350D03*
X0065969Y0253311D03*
X0065929Y0253272D03*
X0066047Y0259925D03*
X0066008Y0260004D03*
X0065969Y0260043D03*
X0065969Y0260083D03*
X0065929Y0260122D03*
X0058606Y0260122D03*
X0058567Y0260083D03*
X0058567Y0260043D03*
X0058528Y0260004D03*
X0058488Y0259925D03*
X0058488Y0253469D03*
X0058528Y0253390D03*
X0058567Y0253350D03*
X0058567Y0253311D03*
X0058606Y0253272D03*
X0050614Y0253272D03*
X0050575Y0253350D03*
X0050535Y0253429D03*
X0050535Y0260004D03*
X0050575Y0260043D03*
X0050614Y0260122D03*
D264*
X0050516Y0259965D03*
X0050516Y0259925D03*
X0050476Y0259886D03*
X0050476Y0259846D03*
X0050437Y0259807D03*
X0050476Y0253547D03*
X0050476Y0253508D03*
X0050516Y0253469D03*
X0050555Y0253390D03*
X0058390Y0253665D03*
X0058429Y0253587D03*
X0058469Y0253508D03*
X0058508Y0253429D03*
X0058429Y0259807D03*
X0058469Y0259886D03*
X0058508Y0259965D03*
X0066028Y0259965D03*
X0066067Y0259886D03*
X0066106Y0259807D03*
X0066146Y0253665D03*
X0066106Y0253587D03*
X0066067Y0253508D03*
X0066028Y0253429D03*
X0073980Y0253390D03*
X0074020Y0253469D03*
X0074059Y0253508D03*
X0074059Y0253547D03*
X0074098Y0259807D03*
X0074059Y0259846D03*
X0074059Y0259886D03*
X0074020Y0259925D03*
X0073980Y0260004D03*
D265*
X0074118Y0259768D03*
X0074118Y0259728D03*
X0074157Y0259689D03*
X0074157Y0253744D03*
X0074157Y0253705D03*
X0074118Y0253665D03*
X0074118Y0253626D03*
X0074079Y0253587D03*
X0066205Y0253783D03*
X0066165Y0253705D03*
X0066126Y0253626D03*
X0066087Y0253547D03*
X0066205Y0259610D03*
X0066165Y0259689D03*
X0066165Y0259728D03*
X0066126Y0259768D03*
X0066087Y0259846D03*
X0058449Y0259846D03*
X0058409Y0259768D03*
X0058370Y0259728D03*
X0058370Y0259689D03*
X0058331Y0259610D03*
X0058331Y0253783D03*
X0058370Y0253705D03*
X0058409Y0253626D03*
X0058449Y0253547D03*
X0050457Y0253587D03*
X0050417Y0253626D03*
X0050417Y0253665D03*
X0050378Y0253705D03*
X0050378Y0253744D03*
X0050378Y0259689D03*
X0050417Y0259728D03*
X0050417Y0259768D03*
D266*
X0050358Y0259650D03*
X0050358Y0259610D03*
X0050319Y0259571D03*
X0050319Y0259531D03*
X0050280Y0259492D03*
X0050280Y0259453D03*
X0050240Y0254020D03*
X0050280Y0253941D03*
X0050280Y0253902D03*
X0050319Y0253862D03*
X0050319Y0253823D03*
X0050358Y0253783D03*
X0058232Y0253980D03*
X0058272Y0253902D03*
X0058311Y0253862D03*
X0058311Y0253823D03*
X0058350Y0253744D03*
X0058232Y0259413D03*
X0058272Y0259492D03*
X0058272Y0259531D03*
X0058311Y0259571D03*
X0058350Y0259650D03*
X0058272Y0266264D03*
X0066264Y0266264D03*
X0066185Y0259650D03*
X0066224Y0259571D03*
X0066264Y0259492D03*
X0066303Y0259413D03*
X0066264Y0253902D03*
X0066224Y0253862D03*
X0066224Y0253823D03*
X0066185Y0253744D03*
X0074177Y0253783D03*
X0074217Y0253823D03*
X0074217Y0253862D03*
X0074256Y0253902D03*
X0074256Y0253941D03*
X0074295Y0254020D03*
X0074295Y0259374D03*
X0074256Y0259453D03*
X0074256Y0259492D03*
X0074217Y0259531D03*
X0074217Y0259571D03*
X0074177Y0259610D03*
X0074177Y0259650D03*
D267*
X0074276Y0259413D03*
X0074315Y0259335D03*
X0074354Y0259256D03*
X0074354Y0254177D03*
X0074354Y0254138D03*
X0074315Y0254098D03*
X0074315Y0254059D03*
X0074276Y0253980D03*
X0066402Y0254217D03*
X0066362Y0254138D03*
X0066362Y0254098D03*
X0066323Y0254059D03*
X0066323Y0254020D03*
X0066283Y0253980D03*
X0066283Y0253941D03*
X0066402Y0259177D03*
X0066362Y0259256D03*
X0066362Y0259295D03*
X0066323Y0259335D03*
X0066323Y0259374D03*
X0066283Y0259453D03*
X0066244Y0259531D03*
X0058252Y0259453D03*
X0058213Y0259374D03*
X0058213Y0259335D03*
X0058173Y0259295D03*
X0058173Y0259256D03*
X0058134Y0259177D03*
X0058134Y0254217D03*
X0058173Y0254138D03*
X0058173Y0254098D03*
X0058213Y0254059D03*
X0058213Y0254020D03*
X0058252Y0253941D03*
X0050260Y0253980D03*
X0050220Y0254059D03*
X0050220Y0254098D03*
X0050181Y0254138D03*
X0050181Y0259256D03*
X0050220Y0259335D03*
X0050220Y0259374D03*
X0050260Y0259413D03*
D268*
X0050102Y0259059D03*
X0050063Y0258980D03*
X0050063Y0258941D03*
X0050024Y0258862D03*
X0050024Y0258823D03*
X0049984Y0258744D03*
X0049945Y0254768D03*
X0049984Y0254650D03*
X0050024Y0254571D03*
X0050024Y0254531D03*
X0050063Y0254453D03*
X0050102Y0254335D03*
X0057937Y0254728D03*
X0057976Y0254650D03*
X0057976Y0254610D03*
X0058016Y0254531D03*
X0058016Y0254492D03*
X0058055Y0254413D03*
X0057937Y0258665D03*
X0057976Y0258783D03*
X0058016Y0258862D03*
X0058016Y0258902D03*
X0058055Y0258980D03*
X0066480Y0258980D03*
X0066520Y0258902D03*
X0066520Y0258862D03*
X0066559Y0258783D03*
X0066559Y0258744D03*
X0066598Y0258665D03*
X0066598Y0254728D03*
X0066559Y0254650D03*
X0066559Y0254610D03*
X0066520Y0254531D03*
X0066520Y0254492D03*
X0066480Y0254453D03*
X0066480Y0254413D03*
X0074472Y0254453D03*
X0074512Y0254531D03*
X0074512Y0254571D03*
X0074551Y0254650D03*
X0074591Y0254768D03*
X0074591Y0258626D03*
X0074551Y0258744D03*
X0074512Y0258823D03*
X0074512Y0258862D03*
X0074472Y0258941D03*
X0074472Y0258980D03*
X0074433Y0259059D03*
D269*
X0074531Y0258783D03*
X0074571Y0258705D03*
X0074571Y0258665D03*
X0074610Y0258587D03*
X0074610Y0258547D03*
X0074650Y0258469D03*
X0074650Y0258429D03*
X0074689Y0255083D03*
X0074650Y0254965D03*
X0074650Y0254925D03*
X0074610Y0254846D03*
X0074610Y0254807D03*
X0074571Y0254728D03*
X0074571Y0254689D03*
X0074531Y0254610D03*
X0066697Y0255043D03*
X0066657Y0254925D03*
X0066657Y0254886D03*
X0066618Y0254846D03*
X0066618Y0254807D03*
X0066618Y0254768D03*
X0066579Y0254689D03*
X0066539Y0254571D03*
X0066697Y0258350D03*
X0066657Y0258469D03*
X0066657Y0258508D03*
X0066618Y0258587D03*
X0066618Y0258626D03*
X0066579Y0258705D03*
X0066539Y0258823D03*
X0057996Y0258823D03*
X0057957Y0258744D03*
X0057957Y0258705D03*
X0057917Y0258626D03*
X0057917Y0258587D03*
X0057878Y0258508D03*
X0057878Y0258469D03*
X0057839Y0258350D03*
X0057839Y0255043D03*
X0057878Y0254925D03*
X0057878Y0254886D03*
X0057917Y0254807D03*
X0057917Y0254768D03*
X0057957Y0254689D03*
X0057996Y0254571D03*
X0050004Y0254610D03*
X0049965Y0254689D03*
X0049965Y0254728D03*
X0049925Y0254807D03*
X0049925Y0254846D03*
X0049886Y0254925D03*
X0049886Y0254965D03*
X0049886Y0258429D03*
X0049886Y0258469D03*
X0049925Y0258547D03*
X0049925Y0258587D03*
X0049925Y0258626D03*
X0049965Y0258665D03*
X0049965Y0258705D03*
X0050004Y0258783D03*
D270*
X0049906Y0258508D03*
X0049866Y0258390D03*
X0049866Y0258350D03*
X0049827Y0258311D03*
X0049827Y0258272D03*
X0049827Y0258232D03*
X0049787Y0258154D03*
X0049787Y0258114D03*
X0049748Y0255437D03*
X0049787Y0255280D03*
X0049787Y0255240D03*
X0049827Y0255161D03*
X0049827Y0255122D03*
X0049827Y0255083D03*
X0049866Y0255043D03*
X0049866Y0255004D03*
X0049906Y0254886D03*
X0057740Y0255398D03*
X0057780Y0255240D03*
X0057780Y0255201D03*
X0057819Y0255161D03*
X0057819Y0255122D03*
X0057819Y0255083D03*
X0057858Y0255004D03*
X0057858Y0254965D03*
X0057898Y0254846D03*
X0057740Y0257996D03*
X0057740Y0258035D03*
X0057780Y0258154D03*
X0057780Y0258193D03*
X0057819Y0258272D03*
X0057819Y0258311D03*
X0057858Y0258390D03*
X0057858Y0258429D03*
X0057898Y0258547D03*
X0066638Y0258547D03*
X0066677Y0258429D03*
X0066677Y0258390D03*
X0066717Y0258311D03*
X0066717Y0258272D03*
X0066756Y0258193D03*
X0066756Y0258154D03*
X0066795Y0257996D03*
X0066795Y0255398D03*
X0066756Y0255280D03*
X0066756Y0255240D03*
X0066756Y0255201D03*
X0066717Y0255161D03*
X0066717Y0255122D03*
X0066717Y0255083D03*
X0066677Y0255004D03*
X0066677Y0254965D03*
X0074630Y0254886D03*
X0074669Y0255004D03*
X0074669Y0255043D03*
X0074709Y0255122D03*
X0074709Y0255161D03*
X0074748Y0255240D03*
X0074748Y0255280D03*
X0074787Y0255437D03*
X0074748Y0258114D03*
X0074748Y0258154D03*
X0074709Y0258232D03*
X0074709Y0258272D03*
X0074709Y0258311D03*
X0074669Y0258350D03*
X0074669Y0258390D03*
X0074630Y0258508D03*
D271*
X0074728Y0258193D03*
X0074768Y0258075D03*
X0074768Y0258035D03*
X0074768Y0257996D03*
X0074807Y0257957D03*
X0074807Y0257917D03*
X0074807Y0257878D03*
X0074807Y0257839D03*
X0074846Y0257760D03*
X0074846Y0257720D03*
X0074846Y0257681D03*
X0074846Y0255713D03*
X0074846Y0255673D03*
X0074846Y0255634D03*
X0074807Y0255555D03*
X0074807Y0255516D03*
X0074807Y0255476D03*
X0074768Y0255398D03*
X0074768Y0255358D03*
X0074768Y0255319D03*
X0074728Y0255201D03*
X0066854Y0255594D03*
X0066854Y0255634D03*
X0066854Y0255673D03*
X0066815Y0255516D03*
X0066815Y0255476D03*
X0066815Y0255437D03*
X0066776Y0255358D03*
X0066776Y0255319D03*
X0066854Y0257720D03*
X0066854Y0257760D03*
X0066854Y0257799D03*
X0066854Y0257839D03*
X0066815Y0257878D03*
X0066815Y0257917D03*
X0066815Y0257957D03*
X0066776Y0258035D03*
X0066776Y0258075D03*
X0066776Y0258114D03*
X0066736Y0258232D03*
X0057799Y0258232D03*
X0057760Y0258114D03*
X0057760Y0258075D03*
X0057720Y0257957D03*
X0057720Y0257917D03*
X0057720Y0257878D03*
X0057681Y0257839D03*
X0057681Y0257799D03*
X0057681Y0257760D03*
X0057681Y0257720D03*
X0057681Y0255673D03*
X0057681Y0255634D03*
X0057681Y0255594D03*
X0057681Y0255555D03*
X0057720Y0255516D03*
X0057720Y0255476D03*
X0057720Y0255437D03*
X0057760Y0255358D03*
X0057760Y0255319D03*
X0057760Y0255280D03*
X0049807Y0255201D03*
X0049768Y0255319D03*
X0049768Y0255358D03*
X0049768Y0255398D03*
X0049728Y0255476D03*
X0049728Y0255516D03*
X0049728Y0255555D03*
X0049689Y0255634D03*
X0049689Y0255673D03*
X0049689Y0255713D03*
X0049689Y0257681D03*
X0049689Y0257720D03*
X0049689Y0257760D03*
X0049728Y0257839D03*
X0049728Y0257878D03*
X0049728Y0257917D03*
X0049728Y0257957D03*
X0049768Y0257996D03*
X0049768Y0258035D03*
X0049768Y0258075D03*
X0049807Y0258193D03*
D272*
X0049709Y0257799D03*
X0049669Y0257642D03*
X0049669Y0255752D03*
X0049709Y0255594D03*
X0057661Y0255713D03*
X0057661Y0255752D03*
X0057661Y0257642D03*
X0057661Y0257681D03*
X0066874Y0257681D03*
X0066874Y0257642D03*
X0066874Y0255752D03*
X0066874Y0255713D03*
X0066835Y0255555D03*
X0074827Y0255594D03*
X0074866Y0255752D03*
X0074866Y0257642D03*
X0074827Y0257799D03*
D273*
X0087839Y0264020D03*
X0130122Y0255555D03*
X0176264Y0264335D03*
D274*
X0176303Y0255594D03*
X0162327Y0259886D03*
X0160594Y0264138D03*
X0104217Y0259886D03*
X0102484Y0264138D03*
X0087799Y0263980D03*
X0088311Y0256343D03*
D275*
X0088409Y0256303D03*
X0102386Y0264217D03*
X0160496Y0264217D03*
D276*
X0177307Y0262327D03*
X0177307Y0262287D03*
X0177307Y0262248D03*
X0177307Y0257642D03*
X0177307Y0257602D03*
X0131165Y0257602D03*
X0131165Y0257563D03*
X0131165Y0257642D03*
D277*
X0135713Y0257681D03*
X0181854Y0257681D03*
D278*
X0182012Y0257720D03*
X0082760Y0258469D03*
X0071736Y0262563D03*
X0052799Y0262563D03*
D279*
X0053055Y0262720D03*
X0071480Y0262720D03*
X0098606Y0257760D03*
X0135811Y0262169D03*
D280*
X0156913Y0257799D03*
X0098803Y0257799D03*
X0083016Y0258429D03*
X0071205Y0262878D03*
X0066244Y0266028D03*
X0053331Y0262878D03*
D281*
X0086795Y0257996D03*
X0087583Y0263626D03*
X0102701Y0263902D03*
X0131283Y0263547D03*
X0176520Y0264177D03*
D282*
X0062248Y0262169D03*
D283*
X0053252Y0262839D03*
X0071283Y0262839D03*
X0083134Y0262209D03*
X0107465Y0262209D03*
X0114906Y0262209D03*
X0143055Y0262209D03*
X0165575Y0262209D03*
D284*
X0118626Y0264374D03*
X0062248Y0262327D03*
D285*
X0117543Y0262602D03*
X0117543Y0262642D03*
X0147189Y0264177D03*
D286*
X0117563Y0262760D03*
X0117563Y0262720D03*
X0117563Y0262681D03*
D287*
X0062248Y0262720D03*
D288*
X0117602Y0262878D03*
X0117602Y0262917D03*
X0117602Y0262957D03*
D289*
X0071126Y0262917D03*
X0053409Y0262917D03*
D290*
X0117622Y0262996D03*
X0117622Y0263035D03*
D291*
X0070732Y0263075D03*
X0053803Y0263075D03*
D292*
X0117661Y0263114D03*
X0117661Y0263154D03*
D293*
X0070457Y0263154D03*
X0054079Y0263154D03*
D294*
X0054256Y0263193D03*
X0070280Y0263193D03*
D295*
X0062268Y0263193D03*
D296*
X0117681Y0263193D03*
X0117681Y0263232D03*
D297*
X0062268Y0263232D03*
D298*
X0117720Y0263311D03*
X0117720Y0263350D03*
X0147366Y0264295D03*
D299*
X0117740Y0263390D03*
D300*
X0117760Y0263429D03*
D301*
X0117799Y0263508D03*
X0131303Y0264335D03*
X0147445Y0264335D03*
D302*
X0117819Y0263547D03*
D303*
X0117839Y0263587D03*
D304*
X0117858Y0263626D03*
D305*
X0117898Y0263705D03*
D306*
X0117917Y0263744D03*
D307*
X0117937Y0263783D03*
D308*
X0117957Y0263823D03*
D309*
X0117996Y0263862D03*
X0147642Y0264413D03*
D310*
X0131303Y0263862D03*
X0087917Y0264098D03*
D311*
X0118016Y0263902D03*
D312*
X0062268Y0263941D03*
D313*
X0118055Y0263941D03*
D314*
X0118075Y0263980D03*
D315*
X0146972Y0263980D03*
D316*
X0118154Y0264059D03*
D317*
X0118193Y0264098D03*
D318*
X0062268Y0264138D03*
D319*
X0118232Y0264138D03*
D320*
X0118272Y0264177D03*
D321*
X0118331Y0264217D03*
D322*
X0118390Y0264256D03*
D323*
X0062268Y0264295D03*
D324*
X0118469Y0264295D03*
D325*
X0118547Y0264335D03*
D326*
X0062268Y0264413D03*
D327*
X0118744Y0264413D03*
D328*
X0131283Y0264413D03*
D329*
X0147819Y0264453D03*
D330*
X0062268Y0264610D03*
D331*
X0062268Y0264689D03*
D332*
X0062268Y0264768D03*
D333*
X0062248Y0264846D03*
D334*
X0062268Y0264965D03*
D335*
X0062248Y0265083D03*
D336*
X0062268Y0265122D03*
D337*
X0062268Y0265555D03*
D338*
X0062268Y0265594D03*
D339*
X0066264Y0265831D03*
X0058272Y0265831D03*
D340*
X0058272Y0265949D03*
X0066264Y0265949D03*
D341*
X0066264Y0265988D03*
X0058272Y0265988D03*
D342*
X0058272Y0266303D03*
X0066264Y0266303D03*
D343*
X0066264Y0266343D03*
X0058272Y0266343D03*
D344*
X0058272Y0266382D03*
X0066264Y0266382D03*
D345*
X0087382Y0235713D02*
X0087382Y0065713D01*
X0005382Y0065713D01*
X0005382Y0235713D01*
X0087382Y0235713D01*
X0145988Y0196972D02*
X0145988Y0191854D01*
X0152681Y0191854D01*
X0152681Y0196972D01*
X0145988Y0196972D01*
X0150516Y0196776D02*
X0150516Y0192051D01*
X0150909Y0192051D01*
X0150909Y0196776D01*
X0166067Y0196972D02*
X0166067Y0191854D01*
X0172760Y0191854D01*
X0172760Y0196972D01*
X0166067Y0196972D01*
X0170594Y0196776D02*
X0170594Y0192051D01*
X0170988Y0192051D01*
X0170988Y0196776D01*
X0184872Y0171500D02*
X0184872Y0168497D01*
X0184872Y0169998D02*
X0180368Y0169998D01*
X0181869Y0168497D01*
X0180368Y0166896D02*
X0183371Y0163893D01*
X0182620Y0164644D02*
X0184872Y0166896D01*
X0184872Y0163893D02*
X0180368Y0163893D01*
X0181119Y0162292D02*
X0180368Y0161541D01*
X0180368Y0160040D01*
X0181119Y0159289D01*
X0184121Y0159289D01*
X0184872Y0160040D01*
X0184872Y0161541D01*
X0184121Y0162292D01*
X0181119Y0162292D01*
X0197110Y0135004D02*
X0194610Y0132504D01*
X0194610Y0127504D01*
X0197110Y0125004D01*
X0194610Y0122504D01*
X0194610Y0117504D01*
X0197110Y0115004D01*
X0194610Y0112504D01*
X0194610Y0107504D01*
X0197110Y0105004D01*
X0194610Y0102504D01*
X0194610Y0097504D01*
X0197110Y0095004D01*
X0194610Y0092504D01*
X0194610Y0087504D01*
X0197110Y0085004D01*
X0194610Y0082504D01*
X0194610Y0077504D01*
X0197110Y0075004D01*
X0194610Y0072504D01*
X0194610Y0067504D01*
X0197110Y0065004D01*
X0194610Y0062504D01*
X0194610Y0057504D01*
X0197110Y0055004D01*
X0194610Y0052504D01*
X0194610Y0047504D01*
X0197110Y0045004D01*
X0194610Y0042504D01*
X0194610Y0037504D01*
X0197110Y0035004D01*
X0194610Y0032504D01*
X0194610Y0027504D01*
X0197110Y0025004D01*
X0194610Y0022504D01*
X0194610Y0017504D01*
X0197110Y0015004D01*
X0202110Y0015004D01*
X0204610Y0017504D01*
X0204610Y0022504D02*
X0202110Y0025004D01*
X0204610Y0027504D01*
X0204610Y0032504D01*
X0202110Y0035004D01*
X0204610Y0037504D01*
X0204610Y0042504D01*
X0202110Y0045004D01*
X0204610Y0047504D01*
X0204610Y0052504D01*
X0202110Y0055004D01*
X0204610Y0057504D01*
X0204610Y0062504D01*
X0202110Y0065004D01*
X0204610Y0067504D01*
X0204610Y0072504D01*
X0202110Y0075004D01*
X0204610Y0077504D01*
X0204610Y0082504D01*
X0202110Y0085004D01*
X0204610Y0087504D01*
X0204610Y0092504D01*
X0202110Y0095004D01*
X0204610Y0097504D01*
X0204610Y0102504D01*
X0202110Y0105004D01*
X0204610Y0107504D01*
X0204610Y0112504D01*
X0202110Y0115004D01*
X0204610Y0117504D01*
X0204610Y0122504D01*
X0202110Y0125004D01*
X0204610Y0127504D01*
X0204610Y0135004D01*
X0134610Y0135004D01*
X0134610Y0122504D01*
X0137110Y0125004D01*
X0134610Y0127504D01*
X0134610Y0132504D02*
X0137110Y0135004D01*
X0142110Y0135004D02*
X0144610Y0132504D01*
X0144610Y0127504D01*
X0142110Y0125004D01*
X0144610Y0122504D01*
X0144610Y0117504D01*
X0142110Y0115004D01*
X0144610Y0112504D01*
X0144610Y0107504D01*
X0142110Y0105004D01*
X0144610Y0102504D01*
X0144610Y0097504D01*
X0142110Y0095004D01*
X0144610Y0092504D01*
X0144610Y0087504D01*
X0142110Y0085004D01*
X0144610Y0082504D01*
X0144610Y0077504D01*
X0142110Y0075004D01*
X0144610Y0072504D01*
X0144610Y0067504D01*
X0142110Y0065004D01*
X0144610Y0062504D01*
X0144610Y0057504D01*
X0142110Y0055004D01*
X0144610Y0052504D01*
X0144610Y0047504D01*
X0142110Y0045004D01*
X0144610Y0042504D01*
X0144610Y0037504D01*
X0142110Y0035004D01*
X0144610Y0032504D01*
X0144610Y0027504D01*
X0142110Y0025004D01*
X0144610Y0022504D01*
X0144610Y0017504D01*
X0142110Y0015004D01*
X0137110Y0015004D01*
X0134610Y0017504D01*
X0134610Y0022504D02*
X0137110Y0025004D01*
X0134610Y0027504D01*
X0134610Y0032504D02*
X0137110Y0035004D01*
X0134610Y0037504D01*
X0134610Y0042504D02*
X0137110Y0045004D01*
X0134610Y0047504D01*
X0134610Y0052504D02*
X0137110Y0055004D01*
X0134610Y0057504D01*
X0134610Y0062504D02*
X0137110Y0065004D01*
X0134610Y0067504D01*
X0134610Y0072504D02*
X0137110Y0075004D01*
X0134610Y0077504D01*
X0134610Y0082504D02*
X0137110Y0085004D01*
X0134610Y0087504D01*
X0134610Y0092504D02*
X0137110Y0095004D01*
X0134610Y0097504D01*
X0134610Y0102504D02*
X0137110Y0105004D01*
X0134610Y0107504D01*
X0134610Y0042504D01*
X0134610Y0005004D01*
X0139610Y0005004D01*
X0142610Y0005004D01*
X0146610Y0005004D01*
X0199610Y0005004D01*
X0204610Y0005004D01*
X0204610Y0022504D01*
X0204610Y0027504D01*
X0204610Y0032504D02*
X0204610Y0037504D01*
X0204610Y0042504D02*
X0204610Y0047504D01*
X0204610Y0052504D02*
X0204610Y0057504D01*
X0204610Y0062504D02*
X0204610Y0067504D01*
X0204610Y0072504D02*
X0204610Y0077504D01*
X0204610Y0082504D02*
X0204610Y0087504D01*
X0204610Y0092504D02*
X0204610Y0097504D01*
X0204610Y0102504D02*
X0204610Y0107504D01*
X0204610Y0112504D02*
X0204610Y0117504D01*
X0204610Y0122504D02*
X0204610Y0127504D01*
X0204610Y0132504D02*
X0202110Y0135004D01*
X0214449Y0167104D02*
X0215951Y0167104D01*
X0216701Y0167855D01*
X0216701Y0170858D01*
X0215951Y0171608D01*
X0214449Y0171608D01*
X0213699Y0170858D01*
X0213699Y0167855D01*
X0214449Y0167104D01*
X0218303Y0167104D02*
X0218303Y0171608D01*
X0220555Y0171608D01*
X0221305Y0170858D01*
X0221305Y0169356D01*
X0220555Y0168606D01*
X0218303Y0168606D01*
X0222907Y0170107D02*
X0224408Y0171608D01*
X0224408Y0167104D01*
X0222907Y0167104D02*
X0225909Y0167104D01*
X0205673Y0193744D02*
X0198980Y0193744D01*
X0198980Y0198862D01*
X0205673Y0198862D01*
X0205673Y0193744D01*
X0203902Y0193941D02*
X0203508Y0193941D01*
X0203508Y0198665D01*
X0203902Y0198665D02*
X0203902Y0193941D01*
X0136801Y0170516D02*
X0136801Y0167513D01*
X0133799Y0170516D01*
X0133048Y0170516D01*
X0132297Y0169765D01*
X0132297Y0168264D01*
X0133048Y0167513D01*
X0132297Y0165912D02*
X0135300Y0162909D01*
X0134549Y0163660D02*
X0136801Y0165912D01*
X0136801Y0162909D02*
X0132297Y0162909D01*
X0133048Y0161308D02*
X0132297Y0160557D01*
X0132297Y0159056D01*
X0133048Y0158305D01*
X0136051Y0158305D01*
X0136801Y0159056D01*
X0136801Y0160557D01*
X0136051Y0161308D01*
X0133048Y0161308D01*
X0124925Y0139492D02*
X0118232Y0139492D01*
X0118232Y0134374D01*
X0124925Y0134374D01*
X0124925Y0139492D01*
X0120398Y0139295D02*
X0120398Y0134571D01*
X0120004Y0134571D02*
X0120004Y0139295D01*
X0120398Y0139295D01*
X0104846Y0139492D02*
X0104846Y0134374D01*
X0098154Y0134374D01*
X0098154Y0139492D01*
X0104846Y0139492D01*
X0100319Y0139295D02*
X0100319Y0134571D01*
X0099925Y0134571D02*
X0099925Y0139295D01*
X0100319Y0139295D01*
X0100909Y0115476D02*
X0100909Y0110358D01*
X0107602Y0110358D01*
X0107602Y0115476D01*
X0100909Y0115476D01*
X0105437Y0115280D02*
X0105437Y0110555D01*
X0105831Y0110555D01*
X0105831Y0115280D01*
X0134610Y0117504D02*
X0137110Y0115004D01*
X0134610Y0112504D01*
X0134610Y0107504D02*
X0134610Y0122504D01*
X0119636Y0076815D02*
X0119636Y0073812D01*
X0116633Y0076815D01*
X0115883Y0076815D01*
X0115132Y0076064D01*
X0115132Y0074563D01*
X0115883Y0073812D01*
X0115883Y0072211D02*
X0117384Y0072211D01*
X0118135Y0071460D01*
X0118135Y0069208D01*
X0119636Y0069208D02*
X0115132Y0069208D01*
X0115132Y0071460D01*
X0115883Y0072211D01*
X0115883Y0067607D02*
X0115132Y0066856D01*
X0115132Y0065355D01*
X0115883Y0064604D01*
X0118885Y0064604D01*
X0119636Y0065355D01*
X0119636Y0066856D01*
X0118885Y0067607D01*
X0115883Y0067607D01*
D346*
X0097347Y0111335D02*
X0097347Y0114238D01*
X0095896Y0112786D01*
X0097831Y0112786D01*
X0094884Y0111819D02*
X0094884Y0113754D01*
X0094400Y0114238D01*
X0092949Y0114238D01*
X0092949Y0111335D01*
X0094400Y0111335D01*
X0094884Y0111819D01*
X0099261Y0129946D02*
X0100712Y0129946D01*
X0101196Y0130430D01*
X0101196Y0132365D01*
X0100712Y0132849D01*
X0099261Y0132849D01*
X0099261Y0129946D01*
X0102207Y0130430D02*
X0102691Y0129946D01*
X0103659Y0129946D01*
X0104142Y0130430D01*
X0104142Y0131397D01*
X0103659Y0131881D01*
X0103175Y0131881D01*
X0102207Y0131397D01*
X0102207Y0132849D01*
X0104142Y0132849D01*
X0119261Y0133163D02*
X0119261Y0130261D01*
X0120712Y0130261D01*
X0121196Y0130745D01*
X0121196Y0132680D01*
X0120712Y0133163D01*
X0119261Y0133163D01*
X0122207Y0131712D02*
X0123659Y0131712D01*
X0124142Y0131229D01*
X0124142Y0130745D01*
X0123659Y0130261D01*
X0122691Y0130261D01*
X0122207Y0130745D01*
X0122207Y0131712D01*
X0123175Y0132680D01*
X0124142Y0133163D01*
X0137437Y0193225D02*
X0138889Y0193225D01*
X0139372Y0193709D01*
X0139372Y0195644D01*
X0138889Y0196127D01*
X0137437Y0196127D01*
X0137437Y0193225D01*
X0140384Y0193709D02*
X0140868Y0193225D01*
X0141835Y0193225D01*
X0142319Y0193709D01*
X0142319Y0194192D01*
X0141835Y0194676D01*
X0141351Y0194676D01*
X0141835Y0194676D02*
X0142319Y0195160D01*
X0142319Y0195644D01*
X0141835Y0196127D01*
X0140868Y0196127D01*
X0140384Y0195644D01*
X0157792Y0196403D02*
X0157792Y0193500D01*
X0159243Y0193500D01*
X0159727Y0193984D01*
X0159727Y0195919D01*
X0159243Y0196403D01*
X0157792Y0196403D01*
X0160738Y0195919D02*
X0161222Y0196403D01*
X0162189Y0196403D01*
X0162673Y0195919D01*
X0162673Y0195435D01*
X0160738Y0193500D01*
X0162673Y0193500D01*
X0199406Y0199996D02*
X0200857Y0199996D01*
X0201341Y0200480D01*
X0201341Y0202415D01*
X0200857Y0202899D01*
X0199406Y0202899D01*
X0199406Y0199996D01*
X0202352Y0199996D02*
X0204287Y0199996D01*
X0203320Y0199996D02*
X0203320Y0202899D01*
X0202352Y0201931D01*
D347*
X0145109Y0218713D02*
X0119309Y0218713D01*
X0119309Y0232713D01*
X0145109Y0232713D01*
X0145109Y0218713D01*
X0116172Y0218713D02*
X0090372Y0218713D01*
X0090372Y0232713D01*
X0116172Y0232713D01*
X0116172Y0218713D01*
D348*
X0117601Y0205926D02*
X0120670Y0202857D01*
X0121438Y0203624D01*
X0121438Y0205159D01*
X0120670Y0205926D01*
X0117601Y0205926D01*
X0116834Y0205159D01*
X0116834Y0203624D01*
X0117601Y0202857D01*
X0120670Y0202857D01*
X0121438Y0201322D02*
X0121438Y0198253D01*
X0121438Y0199787D02*
X0116834Y0199787D01*
X0118369Y0198253D01*
X0119136Y0196718D02*
X0117601Y0196718D01*
X0116834Y0195951D01*
X0116834Y0193649D01*
X0121438Y0193649D01*
X0119903Y0193649D02*
X0119903Y0195951D01*
X0119136Y0196718D01*
X0119903Y0195183D02*
X0121438Y0196718D01*
X0101202Y0195460D02*
X0096598Y0195460D01*
X0096598Y0197762D01*
X0097365Y0198529D01*
X0098900Y0198529D01*
X0099667Y0197762D01*
X0099667Y0195460D01*
X0099667Y0196994D02*
X0101202Y0198529D01*
X0100434Y0200064D02*
X0101202Y0200831D01*
X0101202Y0202366D01*
X0100434Y0203133D01*
X0097365Y0203133D01*
X0096598Y0202366D01*
X0096598Y0200831D01*
X0097365Y0200064D01*
X0098132Y0200064D01*
X0098900Y0200831D01*
X0098900Y0203133D01*
X0094649Y0238042D02*
X0091580Y0238042D01*
X0093114Y0238042D02*
X0093114Y0242646D01*
X0091580Y0241111D01*
X0090045Y0242646D02*
X0086976Y0242646D01*
X0088510Y0242646D02*
X0088510Y0238042D01*
X0065332Y0238787D02*
X0065332Y0243391D01*
X0062263Y0243391D02*
X0062263Y0238787D01*
X0060728Y0238787D02*
X0060728Y0243391D01*
X0062263Y0243391D02*
X0065332Y0238787D01*
X0060728Y0238787D02*
X0059193Y0240321D01*
X0057659Y0238787D01*
X0057659Y0243391D01*
X0056124Y0242623D02*
X0056124Y0239554D01*
X0055357Y0238787D01*
X0053822Y0238787D01*
X0053055Y0239554D01*
X0053055Y0242623D01*
X0053822Y0243391D01*
X0055357Y0243391D01*
X0056124Y0242623D01*
X0051520Y0242623D02*
X0051520Y0239554D01*
X0050753Y0238787D01*
X0048451Y0238787D01*
X0048451Y0243391D01*
X0050753Y0243391D01*
X0051520Y0242623D01*
X0046916Y0238019D02*
X0043847Y0238019D01*
X0041545Y0240321D02*
X0039243Y0240321D01*
X0039243Y0238787D02*
X0039243Y0243391D01*
X0041545Y0243391D01*
X0042312Y0242623D01*
X0042312Y0241089D01*
X0041545Y0240321D01*
X0037708Y0238787D02*
X0034639Y0238787D01*
X0034639Y0243391D01*
X0037708Y0243391D01*
X0036174Y0241089D02*
X0034639Y0241089D01*
X0033104Y0243391D02*
X0030035Y0243391D01*
X0031570Y0243391D02*
X0031570Y0238787D01*
X0028500Y0239554D02*
X0027733Y0238787D01*
X0026198Y0238787D01*
X0025431Y0239554D01*
X0026198Y0241089D02*
X0025431Y0241856D01*
X0025431Y0242623D01*
X0026198Y0243391D01*
X0027733Y0243391D01*
X0028500Y0242623D01*
X0027733Y0241089D02*
X0028500Y0240321D01*
X0028500Y0239554D01*
X0027733Y0241089D02*
X0026198Y0241089D01*
X0098339Y0121914D02*
X0100641Y0121914D01*
X0101408Y0121147D01*
X0101408Y0119612D01*
X0100641Y0118845D01*
X0098339Y0118845D01*
X0099873Y0118845D02*
X0101408Y0117310D01*
X0102943Y0118078D02*
X0102943Y0119612D01*
X0105244Y0119612D01*
X0106012Y0118845D01*
X0106012Y0118078D01*
X0105244Y0117310D01*
X0103710Y0117310D01*
X0102943Y0118078D01*
X0102943Y0119612D02*
X0104477Y0121147D01*
X0106012Y0121914D01*
X0098339Y0121914D02*
X0098339Y0117310D01*
X0116803Y0117350D02*
X0116803Y0121954D01*
X0119105Y0121954D01*
X0119872Y0121186D01*
X0119872Y0119652D01*
X0119105Y0118884D01*
X0116803Y0118884D01*
X0118338Y0118884D02*
X0119872Y0117350D01*
X0121407Y0117350D02*
X0121407Y0118117D01*
X0124476Y0121186D01*
X0124476Y0121954D01*
X0121407Y0121954D01*
X0121171Y0108253D02*
X0121171Y0105951D01*
X0122705Y0106718D01*
X0123473Y0106718D01*
X0124240Y0105951D01*
X0124240Y0104416D01*
X0123473Y0103649D01*
X0121938Y0103649D01*
X0121171Y0104416D01*
X0119636Y0103649D02*
X0118102Y0105183D01*
X0118869Y0105183D02*
X0116567Y0105183D01*
X0116567Y0103649D02*
X0116567Y0108253D01*
X0118869Y0108253D01*
X0119636Y0107485D01*
X0119636Y0105951D01*
X0118869Y0105183D01*
X0121171Y0108253D02*
X0124240Y0108253D01*
X0123688Y0098883D02*
X0125990Y0098883D01*
X0126757Y0098115D01*
X0126757Y0096581D01*
X0125990Y0095813D01*
X0123688Y0095813D01*
X0123688Y0094279D02*
X0123688Y0098883D01*
X0125223Y0095813D02*
X0126757Y0094279D01*
X0128292Y0096581D02*
X0131361Y0096581D01*
X0130594Y0094279D02*
X0130594Y0098883D01*
X0128292Y0096581D01*
X0207602Y0096668D02*
X0207602Y0098203D01*
X0207602Y0097435D02*
X0212206Y0097435D01*
X0212206Y0096668D02*
X0212206Y0098203D01*
X0212206Y0099737D02*
X0207602Y0099737D01*
X0212206Y0102807D01*
X0207602Y0102807D01*
X0207602Y0104341D02*
X0207602Y0105876D01*
X0207602Y0105108D02*
X0212206Y0105108D01*
X0212206Y0104341D02*
X0212206Y0105876D01*
X0212206Y0095133D02*
X0207602Y0095133D01*
X0209136Y0093599D01*
X0207602Y0092064D01*
X0212206Y0092064D01*
X0209904Y0090529D02*
X0209904Y0087460D01*
X0211438Y0085925D02*
X0208369Y0085925D01*
X0207602Y0085158D01*
X0207602Y0083624D01*
X0208369Y0082856D01*
X0211438Y0082856D01*
X0212206Y0083624D01*
X0212206Y0085158D01*
X0211438Y0085925D01*
X0212206Y0081322D02*
X0210671Y0079787D01*
X0210671Y0080554D02*
X0210671Y0078252D01*
X0212206Y0078252D02*
X0207602Y0078252D01*
X0207602Y0080554D01*
X0208369Y0081322D01*
X0209904Y0081322D01*
X0210671Y0080554D01*
X0209904Y0076718D02*
X0208369Y0076718D01*
X0207602Y0075950D01*
X0207602Y0073648D01*
X0212206Y0073648D01*
X0210671Y0073648D02*
X0210671Y0075950D01*
X0209904Y0076718D01*
X0212973Y0072114D02*
X0212973Y0069044D01*
X0211438Y0067510D02*
X0208369Y0067510D01*
X0207602Y0066742D01*
X0207602Y0065208D01*
X0208369Y0064441D01*
X0211438Y0064441D01*
X0212206Y0065208D01*
X0212206Y0066742D01*
X0211438Y0067510D01*
X0212206Y0062906D02*
X0207602Y0062906D01*
X0207602Y0059837D02*
X0212206Y0062906D01*
X0212206Y0059837D02*
X0207602Y0059837D01*
X0207602Y0058302D02*
X0207602Y0056767D01*
X0207602Y0057535D02*
X0212206Y0057535D01*
X0212206Y0058302D02*
X0212206Y0056767D01*
X0211438Y0055233D02*
X0207602Y0055233D01*
X0207602Y0052163D02*
X0211438Y0052163D01*
X0212206Y0052931D01*
X0212206Y0054465D01*
X0211438Y0055233D01*
X0211438Y0050629D02*
X0208369Y0050629D01*
X0207602Y0049861D01*
X0207602Y0047559D01*
X0212206Y0047559D01*
X0212206Y0049861D01*
X0211438Y0050629D01*
X0212206Y0046025D02*
X0210671Y0044490D01*
X0210671Y0045257D02*
X0210671Y0042956D01*
X0212206Y0042956D02*
X0207602Y0042956D01*
X0207602Y0045257D01*
X0208369Y0046025D01*
X0209904Y0046025D01*
X0210671Y0045257D01*
X0209904Y0041421D02*
X0209904Y0038352D01*
X0209136Y0038352D02*
X0207602Y0039886D01*
X0209136Y0041421D01*
X0212206Y0041421D01*
X0212206Y0038352D02*
X0209136Y0038352D01*
X0150358Y0202980D02*
X0148823Y0202980D01*
X0148056Y0203747D01*
X0146521Y0202980D02*
X0144987Y0204514D01*
X0145754Y0204514D02*
X0143452Y0204514D01*
X0143452Y0202980D02*
X0143452Y0207583D01*
X0145754Y0207583D01*
X0146521Y0206816D01*
X0146521Y0205281D01*
X0145754Y0204514D01*
X0148056Y0206816D02*
X0148823Y0207583D01*
X0150358Y0207583D01*
X0151125Y0206816D01*
X0151125Y0206049D01*
X0150358Y0205281D01*
X0151125Y0204514D01*
X0151125Y0203747D01*
X0150358Y0202980D01*
X0150358Y0205281D02*
X0149591Y0205281D01*
X0171208Y0205105D02*
X0173510Y0205105D01*
X0174277Y0205872D01*
X0174277Y0207407D01*
X0173510Y0208174D01*
X0171208Y0208174D01*
X0171208Y0203570D01*
X0172743Y0205105D02*
X0174277Y0203570D01*
X0175812Y0203570D02*
X0178881Y0206639D01*
X0178881Y0207407D01*
X0178114Y0208174D01*
X0176579Y0208174D01*
X0175812Y0207407D01*
X0175812Y0203570D02*
X0178881Y0203570D01*
X0159358Y0229751D02*
X0156289Y0229751D01*
X0157824Y0229751D02*
X0157824Y0234355D01*
X0156289Y0232820D01*
X0154754Y0232053D02*
X0154754Y0233588D01*
X0153987Y0234355D01*
X0151685Y0234355D01*
X0151685Y0229751D01*
X0151685Y0231286D02*
X0153987Y0231286D01*
X0154754Y0232053D01*
X0153220Y0231286D02*
X0154754Y0229751D01*
X0150200Y0237963D02*
X0147131Y0237963D01*
X0150200Y0241032D01*
X0150200Y0241800D01*
X0149433Y0242567D01*
X0147898Y0242567D01*
X0147131Y0241800D01*
X0145596Y0242567D02*
X0142527Y0242567D01*
X0144061Y0242567D02*
X0144061Y0237963D01*
X0033033Y0060810D02*
X0033800Y0060043D01*
X0033800Y0058508D01*
X0033033Y0057741D01*
X0032265Y0057741D01*
X0031498Y0058508D01*
X0031498Y0060043D01*
X0032265Y0060810D01*
X0033033Y0060810D01*
X0031498Y0060043D02*
X0030731Y0060810D01*
X0029963Y0060810D01*
X0029196Y0060043D01*
X0029196Y0058508D01*
X0029963Y0057741D01*
X0030731Y0057741D01*
X0031498Y0058508D01*
X0031498Y0056206D02*
X0029963Y0056206D01*
X0029196Y0055439D01*
X0029196Y0053137D01*
X0033800Y0053137D01*
X0032265Y0053137D02*
X0032265Y0055439D01*
X0031498Y0056206D01*
X0032265Y0054672D02*
X0033800Y0056206D01*
X0038980Y0040787D02*
X0043583Y0040787D01*
X0043583Y0042321D02*
X0043583Y0039252D01*
X0043583Y0037717D02*
X0038980Y0037717D01*
X0040514Y0039252D02*
X0038980Y0040787D01*
X0043583Y0037717D02*
X0038980Y0034648D01*
X0043583Y0034648D01*
X0042816Y0033113D02*
X0039747Y0033113D01*
X0038980Y0032346D01*
X0038980Y0030811D01*
X0039747Y0030044D01*
X0042816Y0030044D01*
X0043583Y0030811D01*
X0043583Y0032346D01*
X0042816Y0033113D01*
X0042816Y0028509D02*
X0043583Y0027742D01*
X0043583Y0026207D01*
X0042816Y0025440D01*
X0039747Y0025440D01*
X0038980Y0026207D01*
X0038980Y0027742D01*
X0039747Y0028509D01*
D349*
X0046776Y0006146D02*
X0121579Y0006146D01*
X0121579Y0058587D01*
X0046776Y0058587D01*
X0046776Y0006146D01*
D350*
X0084177Y0015673D03*
D351*
X0049878Y0070013D02*
X0049878Y0076418D01*
X0045608Y0076418D02*
X0049878Y0070013D01*
X0045608Y0070013D02*
X0045608Y0076418D01*
X0043446Y0076418D02*
X0041311Y0076418D01*
X0042378Y0076418D02*
X0042378Y0070013D01*
X0041311Y0070013D02*
X0043446Y0070013D01*
X0095004Y0071972D02*
X0095004Y0100319D01*
X0113311Y0100319D01*
X0113311Y0097760D01*
X0113311Y0091461D01*
X0113311Y0071972D01*
X0095004Y0071972D01*
X0113311Y0091460D02*
X0113200Y0091462D01*
X0113089Y0091468D01*
X0112978Y0091478D01*
X0112868Y0091491D01*
X0112758Y0091509D01*
X0112649Y0091530D01*
X0112541Y0091556D01*
X0112433Y0091585D01*
X0112327Y0091618D01*
X0112222Y0091654D01*
X0112118Y0091694D01*
X0112016Y0091738D01*
X0111916Y0091786D01*
X0111817Y0091837D01*
X0111720Y0091891D01*
X0111625Y0091949D01*
X0111532Y0092010D01*
X0111442Y0092075D01*
X0111353Y0092142D01*
X0111267Y0092213D01*
X0111184Y0092287D01*
X0111103Y0092363D01*
X0111025Y0092442D01*
X0110950Y0092524D01*
X0110878Y0092609D01*
X0110809Y0092696D01*
X0110743Y0092786D01*
X0110680Y0092877D01*
X0110621Y0092971D01*
X0110565Y0093067D01*
X0110512Y0093165D01*
X0110463Y0093265D01*
X0110417Y0093366D01*
X0110375Y0093469D01*
X0110336Y0093573D01*
X0110302Y0093679D01*
X0110271Y0093786D01*
X0110244Y0093894D01*
X0110220Y0094002D01*
X0110201Y0094112D01*
X0110185Y0094222D01*
X0110173Y0094332D01*
X0110165Y0094443D01*
X0110161Y0094554D01*
X0110161Y0094666D01*
X0110165Y0094777D01*
X0110173Y0094888D01*
X0110185Y0094998D01*
X0110201Y0095108D01*
X0110220Y0095218D01*
X0110244Y0095326D01*
X0110271Y0095434D01*
X0110302Y0095541D01*
X0110336Y0095647D01*
X0110375Y0095751D01*
X0110417Y0095854D01*
X0110463Y0095955D01*
X0110512Y0096055D01*
X0110565Y0096153D01*
X0110621Y0096249D01*
X0110680Y0096343D01*
X0110743Y0096434D01*
X0110809Y0096524D01*
X0110878Y0096611D01*
X0110950Y0096696D01*
X0111025Y0096778D01*
X0111103Y0096857D01*
X0111184Y0096933D01*
X0111267Y0097007D01*
X0111353Y0097078D01*
X0111442Y0097145D01*
X0111532Y0097210D01*
X0111625Y0097271D01*
X0111720Y0097329D01*
X0111817Y0097383D01*
X0111916Y0097434D01*
X0112016Y0097482D01*
X0112118Y0097526D01*
X0112222Y0097566D01*
X0112327Y0097602D01*
X0112433Y0097635D01*
X0112541Y0097664D01*
X0112649Y0097690D01*
X0112758Y0097711D01*
X0112868Y0097729D01*
X0112978Y0097742D01*
X0113089Y0097752D01*
X0113200Y0097758D01*
X0113311Y0097760D01*
X0130850Y0153154D02*
X0092622Y0153154D01*
X0092622Y0178193D01*
X0130850Y0178193D01*
X0130850Y0157154D01*
X0092622Y0157154D01*
X0130850Y0157154D02*
X0130850Y0153154D01*
X0140260Y0153154D02*
X0178488Y0153154D01*
X0178488Y0178193D01*
X0140260Y0178193D01*
X0140260Y0174193D01*
X0178488Y0174193D01*
X0193232Y0183193D02*
X0211539Y0183193D01*
X0211539Y0180634D01*
X0211539Y0174335D01*
X0211539Y0154846D01*
X0193232Y0154846D01*
X0193232Y0183193D01*
X0211539Y0180634D02*
X0211428Y0180632D01*
X0211317Y0180626D01*
X0211206Y0180616D01*
X0211096Y0180603D01*
X0210986Y0180585D01*
X0210877Y0180564D01*
X0210769Y0180538D01*
X0210661Y0180509D01*
X0210555Y0180476D01*
X0210450Y0180440D01*
X0210346Y0180400D01*
X0210244Y0180356D01*
X0210144Y0180308D01*
X0210045Y0180257D01*
X0209948Y0180203D01*
X0209853Y0180145D01*
X0209760Y0180084D01*
X0209670Y0180019D01*
X0209581Y0179952D01*
X0209495Y0179881D01*
X0209412Y0179807D01*
X0209331Y0179731D01*
X0209253Y0179652D01*
X0209178Y0179570D01*
X0209106Y0179485D01*
X0209037Y0179398D01*
X0208971Y0179308D01*
X0208908Y0179217D01*
X0208849Y0179123D01*
X0208793Y0179027D01*
X0208740Y0178929D01*
X0208691Y0178829D01*
X0208645Y0178728D01*
X0208603Y0178625D01*
X0208564Y0178521D01*
X0208530Y0178415D01*
X0208499Y0178308D01*
X0208472Y0178200D01*
X0208448Y0178092D01*
X0208429Y0177982D01*
X0208413Y0177872D01*
X0208401Y0177762D01*
X0208393Y0177651D01*
X0208389Y0177540D01*
X0208389Y0177428D01*
X0208393Y0177317D01*
X0208401Y0177206D01*
X0208413Y0177096D01*
X0208429Y0176986D01*
X0208448Y0176876D01*
X0208472Y0176768D01*
X0208499Y0176660D01*
X0208530Y0176553D01*
X0208564Y0176447D01*
X0208603Y0176343D01*
X0208645Y0176240D01*
X0208691Y0176139D01*
X0208740Y0176039D01*
X0208793Y0175941D01*
X0208849Y0175845D01*
X0208908Y0175751D01*
X0208971Y0175660D01*
X0209037Y0175570D01*
X0209106Y0175483D01*
X0209178Y0175398D01*
X0209253Y0175316D01*
X0209331Y0175237D01*
X0209412Y0175161D01*
X0209495Y0175087D01*
X0209581Y0175016D01*
X0209670Y0174949D01*
X0209760Y0174884D01*
X0209853Y0174823D01*
X0209948Y0174765D01*
X0210045Y0174711D01*
X0210144Y0174660D01*
X0210244Y0174612D01*
X0210346Y0174568D01*
X0210450Y0174528D01*
X0210555Y0174492D01*
X0210661Y0174459D01*
X0210769Y0174430D01*
X0210877Y0174404D01*
X0210986Y0174383D01*
X0211096Y0174365D01*
X0211206Y0174352D01*
X0211317Y0174342D01*
X0211428Y0174336D01*
X0211539Y0174334D01*
X0140260Y0174193D02*
X0140260Y0153154D01*
X0054175Y0231418D02*
X0049905Y0231418D01*
X0052040Y0231418D02*
X0052040Y0225013D01*
X0047729Y0226080D02*
X0047729Y0231418D01*
X0043459Y0231418D02*
X0043459Y0226080D01*
X0044527Y0225013D01*
X0046662Y0225013D01*
X0047729Y0226080D01*
X0041284Y0226080D02*
X0041284Y0230350D01*
X0040216Y0231418D01*
X0038081Y0231418D01*
X0037014Y0230350D01*
X0037014Y0226080D01*
X0038081Y0225013D01*
X0040216Y0225013D01*
X0041284Y0226080D01*
D352*
X0023882Y0228213D02*
X0018882Y0228213D01*
X0021382Y0225713D02*
X0021382Y0230713D01*
X0068882Y0228213D02*
X0073882Y0228213D01*
X0073882Y0073213D02*
X0068882Y0073213D01*
X0023882Y0073213D02*
X0018882Y0073213D01*
X0021382Y0070713D02*
X0021382Y0075713D01*
M02*
